<?xml version="1.0" encoding="UTF-8" standalone="no"?>
<!DOCTYPE svg PUBLIC "-//W3C//DTD SVG 1.1//EN"
 "http://www.w3.org/Graphics/SVG/1.1/DTD/svg11.dtd">
<!-- Generated by graphviz version 2.43.0 (0)
 -->
<!-- Title: src/Carto/Carto.h Pages: 1 -->
<!--zoomable 285 -->
<svg id="main" version="1.1" xmlns="http://www.w3.org/2000/svg" xmlns:xlink="http://www.w3.org/1999/xlink" xml:space="preserve" onload="init(evt)">
<style type="text/css"><![CDATA[
.edge:hover path { stroke: red; }
.edge:hover polygon { stroke: red; fill: red; }
]]></style>
<script type="text/javascript"><![CDATA[
var edges = document.getElementsByTagName('g');
if (edges && edges.length) {
  for (var i=0;i<edges.length;i++) {
    if (edges[i].id.substr(0,4)=='edge') {
      edges[i].setAttribute('class','edge');
    }
  }
}
]]></script>
        <defs>
                <circle id="rim" cx="0" cy="0" r="7"/>
                <circle id="rim2" cx="0" cy="0" r="3.5"/>
                <g id="zoomPlus">
                        <use xlink:href="#rim" fill="#404040">
                                <set attributeName="fill" to="#808080" begin="zoomplus.mouseover" end="zoomplus.mouseout"/>
                        </use>
                        <path d="M-4,0h8M0,-4v8" fill="none" stroke="white" stroke-width="1.5" pointer-events="none"/>
                </g>
                <g id="zoomMin">
                        <use xlink:href="#rim" fill="#404040">
                                <set attributeName="fill" to="#808080" begin="zoomminus.mouseover" end="zoomminus.mouseout"/>
                        </use>
                        <path d="M-4,0h8" fill="none" stroke="white" stroke-width="1.5" pointer-events="none"/>
                </g>
                <g id="dirArrow">
                        <path fill="none" stroke="white" stroke-width="1.5" d="M0,-3.0v7 M-2.5,-0.5L0,-3.0L2.5,-0.5"/>
                </g>
               <g id="resetDef">
                       <use xlink:href="#rim2" fill="#404040">
                               <set attributeName="fill" to="#808080" begin="reset.mouseover" end="reset.mouseout"/>
                       </use>
               </g>
        </defs>

<script type="text/javascript">
var viewWidth = 1507;
var viewHeight = 285;
var sectionId = 'dynsection-1';
</script>
<script xlink:href="svgpan.js"/>
<svg id="graph" class="graph">
<g id="viewport">
<title>src/Carto/Carto.h</title>
<polygon fill="white" stroke="transparent" points="-4,4 -4,-281 1502.5,-281 1502.5,4 -4,4"/>
<!-- Node1 -->
<g id="node1" class="node">
<title>Node1</title>
<g id="a_node1"><a xlink:title="This component describes the cartography&#39;s model. It also allow the user to modify it&#39;s parameters.">
<polygon fill="#bfbfbf" stroke="black" points="657,-257.5 657,-276.5 755,-276.5 755,-257.5 657,-257.5"/>
<text text-anchor="middle" x="706" y="-264.5" font-family="Helvetica,sans-Serif" font-size="10.00">src/Carto/Carto.h</text>
</a>
</g>
</g>
<!-- Node2 -->
<g id="node2" class="node">
<title>Node2</title>
<g id="a_node2"><a xlink:href="Geographer_8h.html" target="_top" xlink:title="This component is the active object of ACDSoft.">
<polygon fill="white" stroke="black" points="508.5,-196 508.5,-215 667.5,-215 667.5,-196 508.5,-196"/>
<text text-anchor="middle" x="588" y="-203" font-family="Helvetica,sans-Serif" font-size="10.00">src/Geographer/Geographer.h</text>
</a>
</g>
</g>
<!-- Node1&#45;&gt;Node2 -->
<g id="edge1" class="edge">
<title>Node1&#45;&gt;Node2</title>
<path fill="none" stroke="midnightblue" d="M679.95,-252.87C657.08,-241.33 624.49,-224.9 604.88,-215.01"/>
<polygon fill="midnightblue" stroke="midnightblue" points="678.59,-256.1 689.09,-257.48 681.74,-249.85 678.59,-256.1"/>
</g>
<!-- Node5 -->
<g id="node5" class="node">
<title>Node5</title>
<g id="a_node5"><a xlink:href="Folder_8h.html" target="_top" xlink:title="Folder.c header file, which manages cartographies in storage, converts position_gtk....">
<polygon fill="white" stroke="black" points="39.5,-62 39.5,-81 144.5,-81 144.5,-62 39.5,-62"/>
<text text-anchor="middle" x="92" y="-69" font-family="Helvetica,sans-Serif" font-size="10.00">src/Folder/Folder.h</text>
</a>
</g>
</g>
<!-- Node1&#45;&gt;Node5 -->
<g id="edge19" class="edge">
<title>Node1&#45;&gt;Node5</title>
<path fill="none" stroke="midnightblue" d="M646.9,-260.28C519.42,-246.99 223.56,-210.79 142,-154 115.44,-135.5 100.33,-97.9 94.64,-81.03"/>
<polygon fill="midnightblue" stroke="midnightblue" points="646.57,-263.76 656.88,-261.31 647.29,-256.8 646.57,-263.76"/>
</g>
<!-- Node14 -->
<g id="node14" class="node">
<title>Node14</title>
<g id="a_node14"><a xlink:href="NetworkC__ProxyCartoManager_8h.html" target="_top" xlink:title="Header file of NetworkC_ProxyCartoManager.c.">
<polygon fill="white" stroke="black" points="735,-190.5 735,-220.5 913,-220.5 913,-190.5 735,-190.5"/>
<text text-anchor="start" x="743" y="-208.5" font-family="Helvetica,sans-Serif" font-size="10.00">src/NetworkC/Proxy</text>
<text text-anchor="middle" x="824" y="-197.5" font-family="Helvetica,sans-Serif" font-size="10.00">/NetworkC_ProxyCartoManager.h</text>
</a>
</g>
</g>
<!-- Node1&#45;&gt;Node14 -->
<g id="edge20" class="edge">
<title>Node1&#45;&gt;Node14</title>
<path fill="none" stroke="midnightblue" d="M731.9,-252.94C750.93,-243.35 776.73,-230.33 796.19,-220.52"/>
<polygon fill="midnightblue" stroke="midnightblue" points="730.26,-249.85 722.91,-257.48 733.41,-256.1 730.26,-249.85"/>
</g>
<!-- Node16 -->
<g id="node16" class="node">
<title>Node16</title>
<g id="a_node16"><a xlink:href="NetworkC__Coder_8h.html" target="_top" xlink:title="Header file of NetworkC_Coder.c.">
<polygon fill="white" stroke="black" points="1099.5,-190.5 1099.5,-220.5 1212.5,-220.5 1212.5,-190.5 1099.5,-190.5"/>
<text text-anchor="start" x="1107.5" y="-208.5" font-family="Helvetica,sans-Serif" font-size="10.00">src/NetworkC/Coder</text>
<text text-anchor="middle" x="1156" y="-197.5" font-family="Helvetica,sans-Serif" font-size="10.00">/NetworkC_Coder.h</text>
</a>
</g>
</g>
<!-- Node1&#45;&gt;Node16 -->
<g id="edge23" class="edge">
<title>Node1&#45;&gt;Node16</title>
<path fill="none" stroke="midnightblue" d="M764.99,-258.2C851.99,-246.7 1013.64,-225.32 1099.3,-214"/>
<polygon fill="midnightblue" stroke="midnightblue" points="764.47,-254.74 755.01,-259.52 765.39,-261.68 764.47,-254.74"/>
</g>
<!-- Node3 -->
<g id="node3" class="node">
<title>Node3</title>
<g id="a_node3"><a xlink:href="Converter_8h.html" target="_top" xlink:title="This component converts the raw data returned by the LiDAR physical component into a two&#45;dimensional ...">
<polygon fill="white" stroke="black" points="151.5,-129 151.5,-148 292.5,-148 292.5,-129 151.5,-129"/>
<text text-anchor="middle" x="222" y="-136" font-family="Helvetica,sans-Serif" font-size="10.00">src/Converter/Converter.h</text>
</a>
</g>
</g>
<!-- Node2&#45;&gt;Node3 -->
<g id="edge2" class="edge">
<title>Node2&#45;&gt;Node3</title>
<path fill="none" stroke="midnightblue" d="M529.53,-194.12C457.59,-181.34 336.82,-159.89 270.04,-148.03"/>
<polygon fill="midnightblue" stroke="midnightblue" points="529.32,-197.63 539.78,-195.94 530.54,-190.74 529.32,-197.63"/>
</g>
<!-- Node6 -->
<g id="node6" class="node">
<title>Node6</title>
<g id="a_node6"><a xlink:href="Folder_8c.html" target="_top" xlink:title="This component manages cartographies in storage, converts position_gtk.txt into integer array,...">
<polygon fill="white" stroke="black" points="0,-0.5 0,-19.5 104,-19.5 104,-0.5 0,-0.5"/>
<text text-anchor="middle" x="52" y="-7.5" font-family="Helvetica,sans-Serif" font-size="10.00">src/Folder/Folder.c</text>
</a>
</g>
</g>
<!-- Node2&#45;&gt;Node6 -->
<g id="edge8" class="edge">
<title>Node2&#45;&gt;Node6</title>
<path fill="none" stroke="midnightblue" d="M498.08,-198.84C387.29,-191.07 205.89,-175.59 142,-154 87.05,-135.43 58.61,-137.46 30,-87 17.4,-64.78 34.72,-34.73 45.14,-19.95"/>
<polygon fill="midnightblue" stroke="midnightblue" points="498.02,-202.34 508.24,-199.54 498.5,-195.36 498.02,-202.34"/>
</g>
<!-- Node7 -->
<g id="node7" class="node">
<title>Node7</title>
<g id="a_node7"><a xlink:href="Geographer_8c.html" target="_top" xlink:title="This component is the active object of ACDSoft.">
<polygon fill="white" stroke="black" points="441,-0.5 441,-19.5 599,-19.5 599,-0.5 441,-0.5"/>
<text text-anchor="middle" x="520" y="-7.5" font-family="Helvetica,sans-Serif" font-size="10.00">src/Geographer/Geographer.c</text>
</a>
</g>
</g>
<!-- Node2&#45;&gt;Node7 -->
<g id="edge9" class="edge">
<title>Node2&#45;&gt;Node7</title>
<path fill="none" stroke="midnightblue" d="M581.61,-186.31C567.39,-145.85 533.58,-49.64 523.13,-19.91"/>
<polygon fill="midnightblue" stroke="midnightblue" points="578.37,-187.66 584.99,-195.94 584.98,-185.34 578.37,-187.66"/>
</g>
<!-- Node8 -->
<g id="node8" class="node">
<title>Node8</title>
<g id="a_node8"><a xlink:href="LiDAR_8h.html" target="_top" xlink:title="This is the header file of LiDAR.c which communicates with the physical LiDAR to get a scan in a txt ...">
<polygon fill="white" stroke="black" points="586,-129 586,-148 690,-148 690,-129 586,-129"/>
<text text-anchor="middle" x="638" y="-136" font-family="Helvetica,sans-Serif" font-size="10.00">src/LiDAR/LiDAR.h</text>
</a>
</g>
</g>
<!-- Node2&#45;&gt;Node8 -->
<g id="edge10" class="edge">
<title>Node2&#45;&gt;Node8</title>
<path fill="none" stroke="midnightblue" d="M600.87,-187.77C610.62,-175.1 623.61,-158.2 631.36,-148.13"/>
<polygon fill="midnightblue" stroke="midnightblue" points="598.07,-185.67 594.74,-195.73 603.61,-189.94 598.07,-185.67"/>
</g>
<!-- Node10 -->
<g id="node10" class="node">
<title>Node10</title>
<g id="a_node10"><a xlink:href="starter_8c.html" target="_top" xlink:title="Starter of ACDSoft.">
<polygon fill="white" stroke="black" points="727,-62 727,-81 801,-81 801,-62 727,-62"/>
<text text-anchor="middle" x="764" y="-69" font-family="Helvetica,sans-Serif" font-size="10.00">src/starter.c</text>
</a>
</g>
</g>
<!-- Node2&#45;&gt;Node10 -->
<g id="edge18" class="edge">
<title>Node2&#45;&gt;Node10</title>
<path fill="none" stroke="midnightblue" d="M625.63,-192.44C648.34,-183.98 677.04,-171.12 699,-154 726.4,-132.63 749.26,-97.47 758.98,-81.23"/>
<polygon fill="midnightblue" stroke="midnightblue" points="624.21,-189.23 615.98,-195.9 626.57,-195.82 624.21,-189.23"/>
</g>
<!-- Node11 -->
<g id="node11" class="node">
<title>Node11</title>
<g id="a_node11"><a xlink:href="Merger_8h.html" target="_top" xlink:title="This component is the raw scan merger.">
<polygon fill="white" stroke="black" points="397,-129 397,-148 511,-148 511,-129 397,-129"/>
<text text-anchor="middle" x="454" y="-136" font-family="Helvetica,sans-Serif" font-size="10.00">src/Merger/Merger.h</text>
</a>
</g>
</g>
<!-- Node2&#45;&gt;Node11 -->
<g id="edge14" class="edge">
<title>Node2&#45;&gt;Node11</title>
<path fill="none" stroke="midnightblue" d="M561.08,-191.44C534.54,-178.57 494.73,-159.26 471.87,-148.17"/>
<polygon fill="midnightblue" stroke="midnightblue" points="559.68,-194.65 570.21,-195.87 562.74,-188.35 559.68,-194.65"/>
</g>
<!-- Node13 -->
<g id="node13" class="node">
<title>Node13</title>
<g id="a_node13"><a xlink:href="NetworkC__Dispatcher_8c.html" target="_top" xlink:title="NetworkC_Dispatcher dispatch the received message.">
<polygon fill="white" stroke="black" points="1106.5,-56.5 1106.5,-86.5 1243.5,-86.5 1243.5,-56.5 1106.5,-56.5"/>
<text text-anchor="start" x="1114.5" y="-74.5" font-family="Helvetica,sans-Serif" font-size="10.00">src/NetworkC/Dispatcher</text>
<text text-anchor="middle" x="1175" y="-63.5" font-family="Helvetica,sans-Serif" font-size="10.00">/NetworkC_Dispatcher.c</text>
</a>
</g>
</g>
<!-- Node2&#45;&gt;Node13 -->
<g id="edge17" class="edge">
<title>Node2&#45;&gt;Node13</title>
<path fill="none" stroke="midnightblue" d="M620.02,-192.45C667.9,-174.86 761.25,-142.15 843,-123 932.97,-101.92 1038.8,-87.58 1106.36,-79.72"/>
<polygon fill="midnightblue" stroke="midnightblue" points="618.68,-189.22 610.52,-195.97 621.11,-195.78 618.68,-189.22"/>
</g>
<!-- Node4 -->
<g id="node4" class="node">
<title>Node4</title>
<g id="a_node4"><a xlink:href="Converter_8c.html" target="_top" xlink:title="This component converts the raw data returned by the LiDAR physical component into a two&#45;dimensional ...">
<polygon fill="white" stroke="black" points="201,-62 201,-81 341,-81 341,-62 201,-62"/>
<text text-anchor="middle" x="271" y="-69" font-family="Helvetica,sans-Serif" font-size="10.00">src/Converter/Converter.c</text>
</a>
</g>
</g>
<!-- Node3&#45;&gt;Node4 -->
<g id="edge3" class="edge">
<title>Node3&#45;&gt;Node4</title>
<path fill="none" stroke="midnightblue" d="M234.89,-120.4C244.41,-107.77 256.98,-91.1 264.5,-81.13"/>
<polygon fill="midnightblue" stroke="midnightblue" points="231.83,-118.64 228.61,-128.73 237.42,-122.86 231.83,-118.64"/>
</g>
<!-- Node3&#45;&gt;Node5 -->
<g id="edge4" class="edge">
<title>Node3&#45;&gt;Node5</title>
<path fill="none" stroke="midnightblue" d="M195.55,-124.27C169.8,-111.4 131.42,-92.21 109.33,-81.17"/>
<polygon fill="midnightblue" stroke="midnightblue" points="194.23,-127.53 204.74,-128.87 197.36,-121.27 194.23,-127.53"/>
</g>
<!-- Node3&#45;&gt;Node7 -->
<g id="edge7" class="edge">
<title>Node3&#45;&gt;Node7</title>
<path fill="none" stroke="midnightblue" d="M207.12,-121.03C192.84,-103.19 175.65,-74.75 192,-56 223.64,-19.72 354.29,-11.65 440.85,-10.41"/>
<polygon fill="midnightblue" stroke="midnightblue" points="204.61,-123.48 213.74,-128.86 209.96,-118.96 204.61,-123.48"/>
</g>
<!-- Node5&#45;&gt;Node6 -->
<g id="edge5" class="edge">
<title>Node5&#45;&gt;Node6</title>
<path fill="none" stroke="midnightblue" d="M80.57,-53.51C73.1,-42.39 63.66,-28.34 57.72,-19.51"/>
<polygon fill="midnightblue" stroke="midnightblue" points="77.79,-55.63 86.27,-61.98 83.59,-51.72 77.79,-55.63"/>
</g>
<!-- Node5&#45;&gt;Node7 -->
<g id="edge6" class="edge">
<title>Node5&#45;&gt;Node7</title>
<path fill="none" stroke="midnightblue" d="M138.6,-59.86C145.42,-58.46 152.38,-57.13 159,-56 255.51,-39.58 367.49,-26.54 440.83,-18.82"/>
<polygon fill="midnightblue" stroke="midnightblue" points="137.81,-56.45 128.75,-61.93 139.25,-63.3 137.81,-56.45"/>
</g>
<!-- Node8&#45;&gt;Node7 -->
<g id="edge11" class="edge">
<title>Node8&#45;&gt;Node7</title>
<path fill="none" stroke="midnightblue" d="M622.91,-121.33C597.68,-94.28 547.76,-40.76 528.17,-19.76"/>
<polygon fill="midnightblue" stroke="midnightblue" points="620.51,-123.88 629.89,-128.81 625.63,-119.11 620.51,-123.88"/>
</g>
<!-- Node9 -->
<g id="node9" class="node">
<title>Node9</title>
<g id="a_node9"><a xlink:href="LiDAR_8c.html" target="_top" xlink:title="This component communicates with the physical LiDAR to get a scan in a txt format and converts it to ...">
<polygon fill="white" stroke="black" points="605,-62 605,-81 709,-81 709,-62 605,-62"/>
<text text-anchor="middle" x="657" y="-69" font-family="Helvetica,sans-Serif" font-size="10.00">src/LiDAR/LiDAR.c</text>
</a>
</g>
</g>
<!-- Node8&#45;&gt;Node9 -->
<g id="edge12" class="edge">
<title>Node8&#45;&gt;Node9</title>
<path fill="none" stroke="midnightblue" d="M643.43,-118.91C647.06,-106.49 651.68,-90.72 654.48,-81.13"/>
<polygon fill="midnightblue" stroke="midnightblue" points="640.01,-118.15 640.56,-128.73 646.73,-120.12 640.01,-118.15"/>
</g>
<!-- Node8&#45;&gt;Node10 -->
<g id="edge13" class="edge">
<title>Node8&#45;&gt;Node10</title>
<path fill="none" stroke="midnightblue" d="M663.64,-124.27C688.59,-111.4 725.8,-92.21 747.2,-81.17"/>
<polygon fill="midnightblue" stroke="midnightblue" points="662.01,-121.17 654.73,-128.87 665.22,-127.39 662.01,-121.17"/>
</g>
<!-- Node11&#45;&gt;Node7 -->
<g id="edge15" class="edge">
<title>Node11&#45;&gt;Node7</title>
<path fill="none" stroke="midnightblue" d="M463.94,-120C469.38,-110.32 476.17,-98.06 482,-87 494.65,-62.99 508.75,-34.23 515.68,-19.96"/>
<polygon fill="midnightblue" stroke="midnightblue" points="460.74,-118.55 458.87,-128.98 466.83,-122 460.74,-118.55"/>
</g>
<!-- Node12 -->
<g id="node12" class="node">
<title>Node12</title>
<g id="a_node12"><a xlink:href="Merger_8c.html" target="_top" xlink:title="This component is the raw scan merger.">
<polygon fill="white" stroke="black" points="359.5,-62 359.5,-81 472.5,-81 472.5,-62 359.5,-62"/>
<text text-anchor="middle" x="416" y="-69" font-family="Helvetica,sans-Serif" font-size="10.00">src/Merger/Merger.c</text>
</a>
</g>
</g>
<!-- Node11&#45;&gt;Node12 -->
<g id="edge16" class="edge">
<title>Node11&#45;&gt;Node12</title>
<path fill="none" stroke="midnightblue" d="M443.79,-120.03C436.43,-107.45 426.82,-91.01 421.04,-81.13"/>
<polygon fill="midnightblue" stroke="midnightblue" points="440.81,-121.87 448.88,-128.73 446.85,-118.33 440.81,-121.87"/>
</g>
<!-- Node14&#45;&gt;Node7 -->
<g id="edge21" class="edge">
<title>Node14&#45;&gt;Node7</title>
<path fill="none" stroke="midnightblue" d="M829.8,-180.33C836.09,-147.58 841.42,-89.37 810,-56 781.97,-26.23 675.1,-16.1 599.26,-12.69"/>
<polygon fill="midnightblue" stroke="midnightblue" points="826.32,-179.88 827.69,-190.39 833.17,-181.33 826.32,-179.88"/>
</g>
<!-- Node15 -->
<g id="node15" class="node">
<title>Node15</title>
<g id="a_node15"><a xlink:href="NetworkC__ProxyCartoManager_8c.html" target="_top" xlink:title="Proxy for CartoManager.">
<polygon fill="white" stroke="black" points="851.5,-123.5 851.5,-153.5 1028.5,-153.5 1028.5,-123.5 851.5,-123.5"/>
<text text-anchor="start" x="859.5" y="-141.5" font-family="Helvetica,sans-Serif" font-size="10.00">src/NetworkC/Proxy</text>
<text text-anchor="middle" x="940" y="-130.5" font-family="Helvetica,sans-Serif" font-size="10.00">/NetworkC_ProxyCartoManager.c</text>
</a>
</g>
</g>
<!-- Node14&#45;&gt;Node15 -->
<g id="edge22" class="edge">
<title>Node14&#45;&gt;Node15</title>
<path fill="none" stroke="midnightblue" d="M858.27,-185.3C876.42,-175.12 898.32,-162.85 914.88,-153.58"/>
<polygon fill="midnightblue" stroke="midnightblue" points="856.18,-182.45 849.17,-190.4 859.6,-188.56 856.18,-182.45"/>
</g>
<!-- Node16&#45;&gt;Node13 -->
<g id="edge29" class="edge">
<title>Node16&#45;&gt;Node13</title>
<path fill="none" stroke="midnightblue" d="M1171.34,-181.54C1176.05,-173.23 1180.61,-163.53 1183,-154 1188.8,-130.83 1183.55,-102.97 1179.24,-86.56"/>
<polygon fill="midnightblue" stroke="midnightblue" points="1168.25,-179.89 1166.07,-190.26 1174.24,-183.51 1168.25,-179.89"/>
</g>
<!-- Node16&#45;&gt;Node15 -->
<g id="edge30" class="edge">
<title>Node16&#45;&gt;Node15</title>
<path fill="none" stroke="midnightblue" d="M1099.77,-187.58C1064.69,-177.02 1020.06,-163.59 986.89,-153.61"/>
<polygon fill="midnightblue" stroke="midnightblue" points="1098.81,-190.95 1109.4,-190.48 1100.83,-184.24 1098.81,-190.95"/>
</g>
<!-- Node17 -->
<g id="node17" class="node">
<title>Node17</title>
<g id="a_node17"><a xlink:href="NetworkC__Coder_8c.html" target="_top" xlink:title="Coder encode end decode message to be send or received.">
<polygon fill="white" stroke="black" points="1385.5,-123.5 1385.5,-153.5 1498.5,-153.5 1498.5,-123.5 1385.5,-123.5"/>
<text text-anchor="start" x="1393.5" y="-141.5" font-family="Helvetica,sans-Serif" font-size="10.00">src/NetworkC/Coder</text>
<text text-anchor="middle" x="1442" y="-130.5" font-family="Helvetica,sans-Serif" font-size="10.00">/NetworkC_Coder.c</text>
</a>
</g>
</g>
<!-- Node16&#45;&gt;Node17 -->
<g id="edge24" class="edge">
<title>Node16&#45;&gt;Node17</title>
<path fill="none" stroke="midnightblue" d="M1222.44,-189.4C1271.74,-178.2 1338.26,-163.08 1385.12,-152.43"/>
<polygon fill="midnightblue" stroke="midnightblue" points="1221.48,-186.03 1212.5,-191.66 1223.03,-192.85 1221.48,-186.03"/>
</g>
<!-- Node18 -->
<g id="node18" class="node">
<title>Node18</title>
<g id="a_node18"><a xlink:href="NetworkC__Dispatcher_8h.html" target="_top" xlink:title="Header file of NetworkC_Dispatcher.c.">
<polygon fill="white" stroke="black" points="1230.5,-123.5 1230.5,-153.5 1367.5,-153.5 1367.5,-123.5 1230.5,-123.5"/>
<text text-anchor="start" x="1238.5" y="-141.5" font-family="Helvetica,sans-Serif" font-size="10.00">src/NetworkC/Dispatcher</text>
<text text-anchor="middle" x="1299" y="-130.5" font-family="Helvetica,sans-Serif" font-size="10.00">/NetworkC_Dispatcher.h</text>
</a>
</g>
</g>
<!-- Node16&#45;&gt;Node18 -->
<g id="edge25" class="edge">
<title>Node16&#45;&gt;Node18</title>
<path fill="none" stroke="midnightblue" d="M1196.41,-186.13C1219.13,-175.8 1247.06,-163.11 1268.03,-153.58"/>
<polygon fill="midnightblue" stroke="midnightblue" points="1194.68,-183.07 1187.03,-190.4 1197.58,-189.44 1194.68,-183.07"/>
</g>
<!-- Node20 -->
<g id="node20" class="node">
<title>Node20</title>
<g id="a_node20"><a xlink:href="NetworkC__ProxyGUI_8c.html" target="_top" xlink:title="Proxy for GUI.">
<polygon fill="white" stroke="black" points="1046.5,-123.5 1046.5,-153.5 1173.5,-153.5 1173.5,-123.5 1046.5,-123.5"/>
<text text-anchor="start" x="1054.5" y="-141.5" font-family="Helvetica,sans-Serif" font-size="10.00">src/NetworkC/Proxy</text>
<text text-anchor="middle" x="1110" y="-130.5" font-family="Helvetica,sans-Serif" font-size="10.00">/NetworkC_ProxyGUI.c</text>
</a>
</g>
</g>
<!-- Node16&#45;&gt;Node20 -->
<g id="edge31" class="edge">
<title>Node16&#45;&gt;Node20</title>
<path fill="none" stroke="midnightblue" d="M1140.19,-182.16C1133.48,-172.68 1125.87,-161.92 1119.96,-153.58"/>
<polygon fill="midnightblue" stroke="midnightblue" points="1137.38,-184.26 1146.02,-190.4 1143.1,-180.21 1137.38,-184.26"/>
</g>
<!-- Node18&#45;&gt;Node10 -->
<g id="edge28" class="edge">
<title>Node18&#45;&gt;Node10</title>
<path fill="none" stroke="midnightblue" d="M1220.36,-127.62C1207.87,-126.07 1195.08,-124.48 1183,-123 1042.1,-105.7 874.47,-85.66 801.28,-76.94"/>
<polygon fill="midnightblue" stroke="midnightblue" points="1219.95,-131.1 1230.31,-128.86 1220.82,-124.15 1219.95,-131.1"/>
</g>
<!-- Node18&#45;&gt;Node13 -->
<g id="edge26" class="edge">
<title>Node18&#45;&gt;Node13</title>
<path fill="none" stroke="midnightblue" d="M1263.16,-118.71C1243.61,-108.46 1219.8,-95.98 1201.85,-86.58"/>
<polygon fill="midnightblue" stroke="midnightblue" points="1261.61,-121.85 1272.09,-123.4 1264.86,-115.65 1261.61,-121.85"/>
</g>
<!-- Node19 -->
<g id="node19" class="node">
<title>Node19</title>
<g id="a_node19"><a xlink:href="NetworkC__Postman_8c.html" target="_top" xlink:title="NetworkC Postman is the interface of the socket.">
<polygon fill="white" stroke="black" points="1262,-56.5 1262,-86.5 1390,-86.5 1390,-56.5 1262,-56.5"/>
<text text-anchor="start" x="1270" y="-74.5" font-family="Helvetica,sans-Serif" font-size="10.00">src/NetworkC/Postman</text>
<text text-anchor="middle" x="1326" y="-63.5" font-family="Helvetica,sans-Serif" font-size="10.00">/NetworkC_Postman.c</text>
</a>
</g>
</g>
<!-- Node18&#45;&gt;Node19 -->
<g id="edge27" class="edge">
<title>Node18&#45;&gt;Node19</title>
<path fill="none" stroke="midnightblue" d="M1308.77,-113.99C1312.58,-104.8 1316.83,-94.58 1320.15,-86.58"/>
<polygon fill="midnightblue" stroke="midnightblue" points="1305.46,-112.82 1304.86,-123.4 1311.93,-115.5 1305.46,-112.82"/>
</g>
</g>
</svg>
        <g id="navigator" transform="translate(0 0)" fill="#404254">
                <rect fill="#f2f5e9" fill-opacity="0.5" stroke="#606060" stroke-width=".5" x="0" y="0" width="60" height="60"/>
                <use id="zoomplus" xlink:href="#zoomPlus" x="17" y="9" onmousedown="handleZoom(evt,'in')"/>
                <use id="zoomminus" xlink:href="#zoomMin" x="42" y="9" onmousedown="handleZoom(evt,'out')"/>
                <use id="reset" xlink:href="#resetDef" x="30" y="36" onmousedown="handleReset()"/>
                <g id="arrowUp" xlink:href="#dirArrow" transform="translate(30 24)" onmousedown="handlePan(0,-1)">
                  <use xlink:href="#rim" fill="#404040">
                        <set attributeName="fill" to="#808080" begin="arrowUp.mouseover" end="arrowUp.mouseout"/>
                  </use>
                  <path fill="none" stroke="white" stroke-width="1.5" d="M0,-3.0v7 M-2.5,-0.5L0,-3.0L2.5,-0.5"/>
                </g>
                <g id="arrowRight" xlink:href="#dirArrow" transform="rotate(90) translate(36 -43)" onmousedown="handlePan(1,0)">
                  <use xlink:href="#rim" fill="#404040">
                        <set attributeName="fill" to="#808080" begin="arrowRight.mouseover" end="arrowRight.mouseout"/>
                  </use>
                  <path fill="none" stroke="white" stroke-width="1.5" d="M0,-3.0v7 M-2.5,-0.5L0,-3.0L2.5,-0.5"/>
                </g>
                <g id="arrowDown" xlink:href="#dirArrow" transform="rotate(180) translate(-30 -48)" onmousedown="handlePan(0,1)">
                  <use xlink:href="#rim" fill="#404040">
                        <set attributeName="fill" to="#808080" begin="arrowDown.mouseover" end="arrowDown.mouseout"/>
                  </use>
                  <path fill="none" stroke="white" stroke-width="1.5" d="M0,-3.0v7 M-2.5,-0.5L0,-3.0L2.5,-0.5"/>
                </g>
                <g id="arrowLeft" xlink:href="#dirArrow" transform="rotate(270) translate(-36 17)" onmousedown="handlePan(-1,0)">
                  <use xlink:href="#rim" fill="#404040">
                        <set attributeName="fill" to="#808080" begin="arrowLeft.mouseover" end="arrowLeft.mouseout"/>
                  </use>
                  <path fill="none" stroke="white" stroke-width="1.5" d="M0,-3.0v7 M-2.5,-0.5L0,-3.0L2.5,-0.5"/>
                </g>
        </g>
        <svg viewBox="0 0 15 15" width="100%" height="30px" preserveAspectRatio="xMaxYMin meet">
         <g id="arrow_out" transform="scale(0.3 0.3)">
          <a xlink:href="Carto_8h__dep__incl_org.svg" target="_base">
           <rect id="button" ry="5" rx="5" y="6" x="6" height="38" width="38"
                fill="#f2f5e9" fill-opacity="0.5" stroke="#606060" stroke-width="1.0"/>
           <path id="arrow"
             d="M 11.500037,31.436501 C 11.940474,20.09759 22.043105,11.32322 32.158766,21.979434 L 37.068811,17.246167 C 37.068811,17.246167 37.088388,32 37.088388,32 L 22.160133,31.978069 C 22.160133,31.978069 26.997745,27.140456 26.997745,27.140456 C 18.528582,18.264221 13.291696,25.230495 11.500037,31.436501 z"
             style="fill:#404040;"/>
          </a>
         </g>
        </svg>
</svg>
