<?xml version="1.0" encoding="UTF-8" standalone="no"?>
<!DOCTYPE svg PUBLIC "-//W3C//DTD SVG 1.1//EN"
 "http://www.w3.org/Graphics/SVG/1.1/DTD/svg11.dtd">
<!-- Generated by graphviz version 2.43.0 (0)
 -->
<!-- Title: src/Config/config.h Pages: 1 -->
<svg width="1472pt" height="341pt"
 viewBox="0.00 0.00 1471.86 341.00" xmlns="http://www.w3.org/2000/svg" xmlns:xlink="http://www.w3.org/1999/xlink">
<g id="graph0" class="graph" transform="scale(1 1) rotate(0) translate(4 337)">
<title>src/Config/config.h</title>
<polygon fill="white" stroke="transparent" points="-4,4 -4,-337 1467.86,-337 1467.86,4 -4,4"/>
<!-- Node1 -->
<g id="node1" class="node">
<title>Node1</title>
<g id="a_node1"><a xlink:title="Global definitions.">
<polygon fill="#bfbfbf" stroke="black" points="660.5,-313.5 660.5,-332.5 766.5,-332.5 766.5,-313.5 660.5,-313.5"/>
<text text-anchor="middle" x="713.5" y="-320.5" font-family="Helvetica,sans-Serif" font-size="10.00">src/Config/config.h</text>
</a>
</g>
</g>
<!-- Node2 -->
<g id="node2" class="node">
<title>Node2</title>
<g id="a_node2"><a xlink:href="Carto_8h.html" target="_top" xlink:title="This component describes the cartography&#39;s model. It also allow the user to modify it&#39;s parameters.">
<polygon fill="white" stroke="black" points="587.5,-257.5 587.5,-276.5 685.5,-276.5 685.5,-257.5 587.5,-257.5"/>
<text text-anchor="middle" x="636.5" y="-264.5" font-family="Helvetica,sans-Serif" font-size="10.00">src/Carto/Carto.h</text>
</a>
</g>
</g>
<!-- Node1&#45;&gt;Node2 -->
<g id="edge1" class="edge">
<title>Node1&#45;&gt;Node2</title>
<path fill="none" stroke="midnightblue" d="M692.6,-307.34C678.59,-297.52 660.62,-284.91 648.84,-276.65"/>
<polygon fill="midnightblue" stroke="midnightblue" points="690.93,-310.45 701.13,-313.32 694.95,-304.72 690.93,-310.45"/>
</g>
<!-- Node3 -->
<g id="node3" class="node">
<title>Node3</title>
<g id="a_node3"><a xlink:href="Geographer_8h.html" target="_top" xlink:title="This component is the active object of ACDSoft.">
<polygon fill="white" stroke="black" points="480,-196 480,-215 639,-215 639,-196 480,-196"/>
<text text-anchor="middle" x="559.5" y="-203" font-family="Helvetica,sans-Serif" font-size="10.00">src/Geographer/Geographer.h</text>
</a>
</g>
</g>
<!-- Node1&#45;&gt;Node3 -->
<g id="edge33" class="edge">
<title>Node1&#45;&gt;Node3</title>
<path fill="none" stroke="midnightblue" d="M650.29,-314.14C624.87,-307.93 597.21,-296.83 578.5,-277 562.15,-259.66 559.57,-229.77 559.35,-215.11"/>
<polygon fill="midnightblue" stroke="midnightblue" points="649.75,-317.6 660.27,-316.36 651.27,-310.77 649.75,-317.6"/>
</g>
<!-- Node6 -->
<g id="node6" class="node">
<title>Node6</title>
<g id="a_node6"><a xlink:href="Folder_8h.html" target="_top" xlink:title="Folder.c header file, which manages cartographies in storage, converts position_gtk....">
<polygon fill="white" stroke="black" points="0,-62 0,-81 105,-81 105,-62 0,-62"/>
<text text-anchor="middle" x="52.5" y="-69" font-family="Helvetica,sans-Serif" font-size="10.00">src/Folder/Folder.h</text>
</a>
</g>
</g>
<!-- Node1&#45;&gt;Node6 -->
<g id="edge34" class="edge">
<title>Node1&#45;&gt;Node6</title>
<path fill="none" stroke="midnightblue" d="M650.2,-314.05C556.85,-301.15 377.66,-271.83 232.5,-221 170.03,-199.13 147.6,-199.46 99.5,-154 76.71,-132.46 61.67,-97.39 55.57,-81.2"/>
<polygon fill="midnightblue" stroke="midnightblue" points="649.95,-317.55 660.33,-315.44 650.89,-310.62 649.95,-317.55"/>
</g>
<!-- Node9 -->
<g id="node9" class="node">
<title>Node9</title>
<g id="a_node9"><a xlink:href="LiDAR_8h.html" target="_top" xlink:title="This is the header file of LiDAR.c which communicates with the physical LiDAR to get a scan in a txt ...">
<polygon fill="white" stroke="black" points="565.5,-129 565.5,-148 669.5,-148 669.5,-129 565.5,-129"/>
<text text-anchor="middle" x="617.5" y="-136" font-family="Helvetica,sans-Serif" font-size="10.00">src/LiDAR/LiDAR.h</text>
</a>
</g>
</g>
<!-- Node1&#45;&gt;Node9 -->
<g id="edge35" class="edge">
<title>Node1&#45;&gt;Node9</title>
<path fill="none" stroke="midnightblue" d="M709.62,-303.44C706.48,-290.15 701.43,-272.01 694.5,-257 674.27,-213.15 639.27,-166.84 624.45,-148.11"/>
<polygon fill="midnightblue" stroke="midnightblue" points="706.23,-304.3 711.81,-313.3 713.06,-302.77 706.23,-304.3"/>
</g>
<!-- Node17 -->
<g id="node17" class="node">
<title>Node17</title>
<g id="a_node17"><a xlink:href="NetworkC__Coder_8h.html" target="_top" xlink:title="Header file of NetworkC_Coder.c.">
<polygon fill="white" stroke="black" points="1008,-190.5 1008,-220.5 1121,-220.5 1121,-190.5 1008,-190.5"/>
<text text-anchor="start" x="1016" y="-208.5" font-family="Helvetica,sans-Serif" font-size="10.00">src/NetworkC/Coder</text>
<text text-anchor="middle" x="1064.5" y="-197.5" font-family="Helvetica,sans-Serif" font-size="10.00">/NetworkC_Coder.h</text>
</a>
</g>
</g>
<!-- Node1&#45;&gt;Node17 -->
<g id="edge37" class="edge">
<title>Node1&#45;&gt;Node17</title>
<path fill="none" stroke="midnightblue" d="M749.41,-310.18C814.54,-288.75 951.86,-243.57 1021.73,-220.58"/>
<polygon fill="midnightblue" stroke="midnightblue" points="748,-306.96 739.6,-313.41 750.19,-313.61 748,-306.96"/>
</g>
<!-- Node18 -->
<g id="node18" class="node">
<title>Node18</title>
<g id="a_node18"><a xlink:href="NetworkC__Coder_8c.html" target="_top" xlink:title="Coder encode end decode message to be send or received.">
<polygon fill="white" stroke="black" points="1335,-123.5 1335,-153.5 1448,-153.5 1448,-123.5 1335,-123.5"/>
<text text-anchor="start" x="1343" y="-141.5" font-family="Helvetica,sans-Serif" font-size="10.00">src/NetworkC/Coder</text>
<text text-anchor="middle" x="1391.5" y="-130.5" font-family="Helvetica,sans-Serif" font-size="10.00">/NetworkC_Coder.c</text>
</a>
</g>
</g>
<!-- Node1&#45;&gt;Node18 -->
<g id="edge36" class="edge">
<title>Node1&#45;&gt;Node18</title>
<path fill="none" stroke="midnightblue" d="M762.57,-311.2C840.8,-293.75 998.42,-257.58 1130.5,-221 1208.27,-199.46 1297.85,-170.59 1349.26,-153.62"/>
<polygon fill="midnightblue" stroke="midnightblue" points="761.52,-307.85 752.52,-313.44 763.04,-314.68 761.52,-307.85"/>
</g>
<!-- Node20 -->
<g id="node20" class="node">
<title>Node20</title>
<g id="a_node20"><a xlink:href="NetworkC__Postman_8c.html" target="_top" xlink:title="NetworkC Postman is the interface of the socket.">
<polygon fill="white" stroke="black" points="1281.5,-56.5 1281.5,-86.5 1409.5,-86.5 1409.5,-56.5 1281.5,-56.5"/>
<text text-anchor="start" x="1289.5" y="-74.5" font-family="Helvetica,sans-Serif" font-size="10.00">src/NetworkC/Postman</text>
<text text-anchor="middle" x="1345.5" y="-63.5" font-family="Helvetica,sans-Serif" font-size="10.00">/NetworkC_Postman.c</text>
</a>
</g>
</g>
<!-- Node1&#45;&gt;Node20 -->
<g id="edge38" class="edge">
<title>Node1&#45;&gt;Node20</title>
<path fill="none" stroke="midnightblue" d="M777.16,-317.67C941.63,-305.01 1373.71,-261.91 1457.5,-154 1480.51,-124.37 1433.88,-100.59 1393.95,-86.53"/>
<polygon fill="midnightblue" stroke="midnightblue" points="776.43,-314.22 766.72,-318.46 776.95,-321.2 776.43,-314.22"/>
</g>
<!-- Node2&#45;&gt;Node3 -->
<g id="edge2" class="edge">
<title>Node2&#45;&gt;Node3</title>
<path fill="none" stroke="midnightblue" d="M617.47,-251.29C602.7,-239.88 582.74,-224.46 570.51,-215.01"/>
<polygon fill="midnightblue" stroke="midnightblue" points="615.41,-254.13 625.47,-257.48 619.69,-248.59 615.41,-254.13"/>
</g>
<!-- Node2&#45;&gt;Node6 -->
<g id="edge20" class="edge">
<title>Node2&#45;&gt;Node6</title>
<path fill="none" stroke="midnightblue" d="M577.2,-261.76C481.77,-252.94 290.29,-226.95 146.5,-154 109.13,-135.04 74.42,-98.01 59.79,-81.19"/>
<polygon fill="midnightblue" stroke="midnightblue" points="576.97,-265.25 587.24,-262.65 577.59,-258.28 576.97,-265.25"/>
</g>
<!-- Node15 -->
<g id="node15" class="node">
<title>Node15</title>
<g id="a_node15"><a xlink:href="NetworkC__ProxyCartoManager_8h.html" target="_top" xlink:title="Header file of NetworkC_ProxyCartoManager.c.">
<polygon fill="white" stroke="black" points="741.5,-190.5 741.5,-220.5 919.5,-220.5 919.5,-190.5 741.5,-190.5"/>
<text text-anchor="start" x="749.5" y="-208.5" font-family="Helvetica,sans-Serif" font-size="10.00">src/NetworkC/Proxy</text>
<text text-anchor="middle" x="830.5" y="-197.5" font-family="Helvetica,sans-Serif" font-size="10.00">/NetworkC_ProxyCartoManager.h</text>
</a>
</g>
</g>
<!-- Node2&#45;&gt;Node15 -->
<g id="edge21" class="edge">
<title>Node2&#45;&gt;Node15</title>
<path fill="none" stroke="midnightblue" d="M674.05,-254.48C705.68,-244.78 751.04,-230.87 784.78,-220.52"/>
<polygon fill="midnightblue" stroke="midnightblue" points="672.83,-251.2 664.3,-257.48 674.88,-257.89 672.83,-251.2"/>
</g>
<!-- Node2&#45;&gt;Node17 -->
<g id="edge24" class="edge">
<title>Node2&#45;&gt;Node17</title>
<path fill="none" stroke="midnightblue" d="M695.56,-257.79C778.04,-246.32 926.7,-225.66 1007.86,-214.37"/>
<polygon fill="midnightblue" stroke="midnightblue" points="695.02,-254.33 685.6,-259.17 695.98,-261.26 695.02,-254.33"/>
</g>
<!-- Node4 -->
<g id="node4" class="node">
<title>Node4</title>
<g id="a_node4"><a xlink:href="Converter_8h.html" target="_top" xlink:title="This component converts the raw data returned by the LiDAR physical component into a two&#45;dimensional ...">
<polygon fill="white" stroke="black" points="180,-129 180,-148 321,-148 321,-129 180,-129"/>
<text text-anchor="middle" x="250.5" y="-136" font-family="Helvetica,sans-Serif" font-size="10.00">src/Converter/Converter.h</text>
</a>
</g>
</g>
<!-- Node3&#45;&gt;Node4 -->
<g id="edge3" class="edge">
<title>Node3&#45;&gt;Node4</title>
<path fill="none" stroke="midnightblue" d="M508.65,-193.8C447.84,-181.01 347.28,-159.86 291.3,-148.08"/>
<polygon fill="midnightblue" stroke="midnightblue" points="508.28,-197.3 518.79,-195.94 509.72,-190.45 508.28,-197.3"/>
</g>
<!-- Node7 -->
<g id="node7" class="node">
<title>Node7</title>
<g id="a_node7"><a xlink:href="Folder_8c.html" target="_top" xlink:title="This component manages cartographies in storage, converts position_gtk.txt into integer array,...">
<polygon fill="white" stroke="black" points="41.5,-0.5 41.5,-19.5 145.5,-19.5 145.5,-0.5 41.5,-0.5"/>
<text text-anchor="middle" x="93.5" y="-7.5" font-family="Helvetica,sans-Serif" font-size="10.00">src/Folder/Folder.c</text>
</a>
</g>
</g>
<!-- Node3&#45;&gt;Node7 -->
<g id="edge9" class="edge">
<title>Node3&#45;&gt;Node7</title>
<path fill="none" stroke="midnightblue" d="M469.87,-202.2C370.39,-198.05 217.61,-186.44 170.5,-154 157.96,-145.37 111.76,-49.5 97.63,-19.75"/>
<polygon fill="midnightblue" stroke="midnightblue" points="469.8,-205.7 479.93,-202.6 470.08,-198.7 469.8,-205.7"/>
</g>
<!-- Node8 -->
<g id="node8" class="node">
<title>Node8</title>
<g id="a_node8"><a xlink:href="Geographer_8c.html" target="_top" xlink:title="This component is the active object of ACDSoft.">
<polygon fill="white" stroke="black" points="373.5,-0.5 373.5,-19.5 531.5,-19.5 531.5,-0.5 373.5,-0.5"/>
<text text-anchor="middle" x="452.5" y="-7.5" font-family="Helvetica,sans-Serif" font-size="10.00">src/Geographer/Geographer.c</text>
</a>
</g>
</g>
<!-- Node3&#45;&gt;Node8 -->
<g id="edge10" class="edge">
<title>Node3&#45;&gt;Node8</title>
<path fill="none" stroke="midnightblue" d="M504.53,-193.25C478.05,-185.65 447.2,-173.37 424.5,-154 398.46,-131.78 395.23,-120.1 386.5,-87 382.99,-73.68 380.06,-68.18 386.5,-56 395.64,-38.71 414.73,-26.82 430.04,-19.62"/>
<polygon fill="midnightblue" stroke="midnightblue" points="503.87,-196.7 514.44,-195.94 505.7,-189.94 503.87,-196.7"/>
</g>
<!-- Node3&#45;&gt;Node9 -->
<g id="edge11" class="edge">
<title>Node3&#45;&gt;Node9</title>
<path fill="none" stroke="midnightblue" d="M574.1,-188.13C585.45,-175.42 600.73,-158.3 609.8,-148.13"/>
<polygon fill="midnightblue" stroke="midnightblue" points="571.37,-185.94 567.32,-195.73 576.59,-190.6 571.37,-185.94"/>
</g>
<!-- Node11 -->
<g id="node11" class="node">
<title>Node11</title>
<g id="a_node11"><a xlink:href="starter_8c.html" target="_top" xlink:title="Starter of ACDSoft.">
<polygon fill="white" stroke="black" points="725.5,-62 725.5,-81 799.5,-81 799.5,-62 725.5,-62"/>
<text text-anchor="middle" x="762.5" y="-69" font-family="Helvetica,sans-Serif" font-size="10.00">src/starter.c</text>
</a>
</g>
</g>
<!-- Node3&#45;&gt;Node11 -->
<g id="edge19" class="edge">
<title>Node3&#45;&gt;Node11</title>
<path fill="none" stroke="midnightblue" d="M597.01,-192.61C621.38,-183.95 653.19,-170.79 678.5,-154 711.01,-132.43 742,-97.37 755.47,-81.19"/>
<polygon fill="midnightblue" stroke="midnightblue" points="595.71,-189.36 587.4,-195.94 598,-195.98 595.71,-189.36"/>
</g>
<!-- Node12 -->
<g id="node12" class="node">
<title>Node12</title>
<g id="a_node12"><a xlink:href="Merger_8h.html" target="_top" xlink:title="This component is the raw scan merger.">
<polygon fill="white" stroke="black" points="433.5,-129 433.5,-148 547.5,-148 547.5,-129 433.5,-129"/>
<text text-anchor="middle" x="490.5" y="-136" font-family="Helvetica,sans-Serif" font-size="10.00">src/Merger/Merger.h</text>
</a>
</g>
</g>
<!-- Node3&#45;&gt;Node12 -->
<g id="edge15" class="edge">
<title>Node3&#45;&gt;Node12</title>
<path fill="none" stroke="midnightblue" d="M542.89,-188.86C529.33,-176.08 510.66,-158.49 499.66,-148.13"/>
<polygon fill="midnightblue" stroke="midnightblue" points="540.52,-191.42 550.19,-195.73 545.32,-186.33 540.52,-191.42"/>
</g>
<!-- Node14 -->
<g id="node14" class="node">
<title>Node14</title>
<g id="a_node14"><a xlink:href="NetworkC__Dispatcher_8c.html" target="_top" xlink:title="NetworkC_Dispatcher dispatch the received message.">
<polygon fill="white" stroke="black" points="996,-56.5 996,-86.5 1133,-86.5 1133,-56.5 996,-56.5"/>
<text text-anchor="start" x="1004" y="-74.5" font-family="Helvetica,sans-Serif" font-size="10.00">src/NetworkC/Dispatcher</text>
<text text-anchor="middle" x="1064.5" y="-63.5" font-family="Helvetica,sans-Serif" font-size="10.00">/NetworkC_Dispatcher.c</text>
</a>
</g>
</g>
<!-- Node3&#45;&gt;Node14 -->
<g id="edge18" class="edge">
<title>Node3&#45;&gt;Node14</title>
<path fill="none" stroke="midnightblue" d="M595.89,-192.77C626.56,-182.77 671.55,-167.87 710.5,-154 747.2,-140.93 754.98,-133.49 792.5,-123 860.61,-103.97 940.36,-90.12 995.82,-81.79"/>
<polygon fill="midnightblue" stroke="midnightblue" points="594.49,-189.54 586.07,-195.96 596.66,-196.2 594.49,-189.54"/>
</g>
<!-- Node5 -->
<g id="node5" class="node">
<title>Node5</title>
<g id="a_node5"><a xlink:href="Converter_8c.html" target="_top" xlink:title="This component converts the raw data returned by the LiDAR physical component into a two&#45;dimensional ...">
<polygon fill="white" stroke="black" points="161.5,-62 161.5,-81 301.5,-81 301.5,-62 161.5,-62"/>
<text text-anchor="middle" x="231.5" y="-69" font-family="Helvetica,sans-Serif" font-size="10.00">src/Converter/Converter.c</text>
</a>
</g>
</g>
<!-- Node4&#45;&gt;Node5 -->
<g id="edge4" class="edge">
<title>Node4&#45;&gt;Node5</title>
<path fill="none" stroke="midnightblue" d="M245.07,-118.91C241.44,-106.49 236.82,-90.72 234.02,-81.13"/>
<polygon fill="midnightblue" stroke="midnightblue" points="241.77,-120.12 247.94,-128.73 248.49,-118.15 241.77,-120.12"/>
</g>
<!-- Node4&#45;&gt;Node6 -->
<g id="edge5" class="edge">
<title>Node4&#45;&gt;Node6</title>
<path fill="none" stroke="midnightblue" d="M214.5,-125.68C175.26,-112.8 113.41,-92.5 78.59,-81.06"/>
<polygon fill="midnightblue" stroke="midnightblue" points="213.61,-129.07 224.21,-128.87 215.8,-122.42 213.61,-129.07"/>
</g>
<!-- Node4&#45;&gt;Node8 -->
<g id="edge8" class="edge">
<title>Node4&#45;&gt;Node8</title>
<path fill="none" stroke="midnightblue" d="M268.53,-122.36C293.14,-101.85 336.18,-66.57 353.5,-56 378.32,-40.85 409.1,-27.64 429.69,-19.52"/>
<polygon fill="midnightblue" stroke="midnightblue" points="266.09,-119.84 260.66,-128.94 270.58,-125.21 266.09,-119.84"/>
</g>
<!-- Node6&#45;&gt;Node7 -->
<g id="edge6" class="edge">
<title>Node6&#45;&gt;Node7</title>
<path fill="none" stroke="midnightblue" d="M64.21,-53.51C71.87,-42.39 81.55,-28.34 87.64,-19.51"/>
<polygon fill="midnightblue" stroke="midnightblue" points="61.17,-51.75 58.37,-61.98 66.93,-55.73 61.17,-51.75"/>
</g>
<!-- Node6&#45;&gt;Node8 -->
<g id="edge7" class="edge">
<title>Node6&#45;&gt;Node8</title>
<path fill="none" stroke="midnightblue" d="M115.22,-61.17C191.99,-49.75 320.91,-30.57 395.15,-19.53"/>
<polygon fill="midnightblue" stroke="midnightblue" points="114.58,-57.73 105.2,-62.66 115.61,-64.65 114.58,-57.73"/>
</g>
<!-- Node9&#45;&gt;Node8 -->
<g id="edge12" class="edge">
<title>Node9&#45;&gt;Node8</title>
<path fill="none" stroke="midnightblue" d="M603.39,-121.19C587.72,-103.69 561.11,-75.77 534.5,-56 514.43,-41.08 488.83,-27.83 471.62,-19.63"/>
<polygon fill="midnightblue" stroke="midnightblue" points="600.91,-123.67 610.15,-128.86 606.16,-119.04 600.91,-123.67"/>
</g>
<!-- Node10 -->
<g id="node10" class="node">
<title>Node10</title>
<g id="a_node10"><a xlink:href="LiDAR_8c.html" target="_top" xlink:title="This component communicates with the physical LiDAR to get a scan in a txt format and converts it to ...">
<polygon fill="white" stroke="black" points="603.5,-62 603.5,-81 707.5,-81 707.5,-62 603.5,-62"/>
<text text-anchor="middle" x="655.5" y="-69" font-family="Helvetica,sans-Serif" font-size="10.00">src/LiDAR/LiDAR.c</text>
</a>
</g>
</g>
<!-- Node9&#45;&gt;Node10 -->
<g id="edge13" class="edge">
<title>Node9&#45;&gt;Node10</title>
<path fill="none" stroke="midnightblue" d="M627.71,-120.03C635.07,-107.45 644.68,-91.01 650.46,-81.13"/>
<polygon fill="midnightblue" stroke="midnightblue" points="624.65,-118.33 622.62,-128.73 630.69,-121.87 624.65,-118.33"/>
</g>
<!-- Node9&#45;&gt;Node11 -->
<g id="edge14" class="edge">
<title>Node9&#45;&gt;Node11</title>
<path fill="none" stroke="midnightblue" d="M646.25,-124.61C674.97,-111.74 718.32,-92.31 743.17,-81.17"/>
<polygon fill="midnightblue" stroke="midnightblue" points="644.45,-121.58 636.75,-128.87 647.31,-127.97 644.45,-121.58"/>
</g>
<!-- Node12&#45;&gt;Node8 -->
<g id="edge16" class="edge">
<title>Node12&#45;&gt;Node8</title>
<path fill="none" stroke="midnightblue" d="M504.01,-120.19C515.48,-103.22 528.47,-76.94 517.5,-56 508.45,-38.74 489.44,-26.78 474.31,-19.55"/>
<polygon fill="midnightblue" stroke="midnightblue" points="500.98,-118.4 497.96,-128.56 506.65,-122.51 500.98,-118.4"/>
</g>
<!-- Node13 -->
<g id="node13" class="node">
<title>Node13</title>
<g id="a_node13"><a xlink:href="Merger_8c.html" target="_top" xlink:title="This component is the raw scan merger.">
<polygon fill="white" stroke="black" points="396,-62 396,-81 509,-81 509,-62 396,-62"/>
<text text-anchor="middle" x="452.5" y="-69" font-family="Helvetica,sans-Serif" font-size="10.00">src/Merger/Merger.c</text>
</a>
</g>
</g>
<!-- Node12&#45;&gt;Node13 -->
<g id="edge17" class="edge">
<title>Node12&#45;&gt;Node13</title>
<path fill="none" stroke="midnightblue" d="M480.29,-120.03C472.93,-107.45 463.32,-91.01 457.54,-81.13"/>
<polygon fill="midnightblue" stroke="midnightblue" points="477.31,-121.87 485.38,-128.73 483.35,-118.33 477.31,-121.87"/>
</g>
<!-- Node15&#45;&gt;Node8 -->
<g id="edge22" class="edge">
<title>Node15&#45;&gt;Node8</title>
<path fill="none" stroke="midnightblue" d="M809.04,-182.44C802.41,-174.19 795.94,-164.3 792.5,-154 788.13,-140.93 789.64,-136.48 792.5,-123 796.13,-105.87 804.87,-104.13 808.5,-87 811.36,-73.52 817.61,-66.34 808.5,-56 790.5,-35.58 631.19,-22.07 531.88,-15.55"/>
<polygon fill="midnightblue" stroke="midnightblue" points="806.45,-184.8 815.62,-190.1 811.76,-180.24 806.45,-184.8"/>
</g>
<!-- Node16 -->
<g id="node16" class="node">
<title>Node16</title>
<g id="a_node16"><a xlink:href="NetworkC__ProxyCartoManager_8c.html" target="_top" xlink:title="Proxy for CartoManager.">
<polygon fill="white" stroke="black" points="801,-123.5 801,-153.5 978,-153.5 978,-123.5 801,-123.5"/>
<text text-anchor="start" x="809" y="-141.5" font-family="Helvetica,sans-Serif" font-size="10.00">src/NetworkC/Proxy</text>
<text text-anchor="middle" x="889.5" y="-130.5" font-family="Helvetica,sans-Serif" font-size="10.00">/NetworkC_ProxyCartoManager.c</text>
</a>
</g>
</g>
<!-- Node15&#45;&gt;Node16 -->
<g id="edge23" class="edge">
<title>Node15&#45;&gt;Node16</title>
<path fill="none" stroke="midnightblue" d="M850.25,-182.74C858.98,-173.12 869,-162.09 876.72,-153.58"/>
<polygon fill="midnightblue" stroke="midnightblue" points="847.43,-180.64 843.3,-190.4 852.61,-185.34 847.43,-180.64"/>
</g>
<!-- Node17&#45;&gt;Node14 -->
<g id="edge30" class="edge">
<title>Node17&#45;&gt;Node14</title>
<path fill="none" stroke="midnightblue" d="M1131.18,-202.09C1212.09,-196.7 1332.47,-179.29 1287.5,-123 1268.39,-99.08 1191.35,-85.65 1133.13,-78.76"/>
<polygon fill="midnightblue" stroke="midnightblue" points="1130.8,-198.61 1121.03,-202.72 1131.23,-205.6 1130.8,-198.61"/>
</g>
<!-- Node17&#45;&gt;Node16 -->
<g id="edge31" class="edge">
<title>Node17&#45;&gt;Node16</title>
<path fill="none" stroke="midnightblue" d="M1016.9,-186.82C988.77,-176.37 953.64,-163.32 927.4,-153.58"/>
<polygon fill="midnightblue" stroke="midnightblue" points="1015.93,-190.2 1026.53,-190.4 1018.37,-183.63 1015.93,-190.2"/>
</g>
<!-- Node17&#45;&gt;Node18 -->
<g id="edge25" class="edge">
<title>Node17&#45;&gt;Node18</title>
<path fill="none" stroke="midnightblue" d="M1131.25,-191.46C1182.92,-181.33 1256.27,-166.89 1320.5,-154 1325.19,-153.06 1330.05,-152.08 1334.93,-151.09"/>
<polygon fill="midnightblue" stroke="midnightblue" points="1130.35,-188.07 1121.21,-193.43 1131.69,-194.94 1130.35,-188.07"/>
</g>
<!-- Node19 -->
<g id="node19" class="node">
<title>Node19</title>
<g id="a_node19"><a xlink:href="NetworkC__Dispatcher_8h.html" target="_top" xlink:title="Header file of NetworkC_Dispatcher.c.">
<polygon fill="white" stroke="black" points="996,-123.5 996,-153.5 1133,-153.5 1133,-123.5 996,-123.5"/>
<text text-anchor="start" x="1004" y="-141.5" font-family="Helvetica,sans-Serif" font-size="10.00">src/NetworkC/Dispatcher</text>
<text text-anchor="middle" x="1064.5" y="-130.5" font-family="Helvetica,sans-Serif" font-size="10.00">/NetworkC_Dispatcher.h</text>
</a>
</g>
</g>
<!-- Node17&#45;&gt;Node19 -->
<g id="edge26" class="edge">
<title>Node17&#45;&gt;Node19</title>
<path fill="none" stroke="midnightblue" d="M1064.5,-180.11C1064.5,-171.15 1064.5,-161.32 1064.5,-153.58"/>
<polygon fill="midnightblue" stroke="midnightblue" points="1061,-180.4 1064.5,-190.4 1068,-180.4 1061,-180.4"/>
</g>
<!-- Node21 -->
<g id="node21" class="node">
<title>Node21</title>
<g id="a_node21"><a xlink:href="NetworkC__ProxyGUI_8c.html" target="_top" xlink:title="Proxy for GUI.">
<polygon fill="white" stroke="black" points="1151,-123.5 1151,-153.5 1278,-153.5 1278,-123.5 1151,-123.5"/>
<text text-anchor="start" x="1159" y="-141.5" font-family="Helvetica,sans-Serif" font-size="10.00">src/NetworkC/Proxy</text>
<text text-anchor="middle" x="1214.5" y="-130.5" font-family="Helvetica,sans-Serif" font-size="10.00">/NetworkC_ProxyGUI.c</text>
</a>
</g>
</g>
<!-- Node17&#45;&gt;Node21 -->
<g id="edge32" class="edge">
<title>Node17&#45;&gt;Node21</title>
<path fill="none" stroke="midnightblue" d="M1106.25,-186.41C1130.2,-176.03 1159.82,-163.2 1182.02,-153.58"/>
<polygon fill="midnightblue" stroke="midnightblue" points="1104.83,-183.21 1097.05,-190.4 1107.61,-189.63 1104.83,-183.21"/>
</g>
<!-- Node19&#45;&gt;Node11 -->
<g id="edge29" class="edge">
<title>Node19&#45;&gt;Node11</title>
<path fill="none" stroke="midnightblue" d="M989.46,-121.35C929.02,-108.34 846.63,-90.61 799.55,-80.47"/>
<polygon fill="midnightblue" stroke="midnightblue" points="988.83,-124.79 999.34,-123.48 990.3,-117.95 988.83,-124.79"/>
</g>
<!-- Node19&#45;&gt;Node14 -->
<g id="edge27" class="edge">
<title>Node19&#45;&gt;Node14</title>
<path fill="none" stroke="midnightblue" d="M1064.5,-113.11C1064.5,-104.15 1064.5,-94.32 1064.5,-86.58"/>
<polygon fill="midnightblue" stroke="midnightblue" points="1061,-113.4 1064.5,-123.4 1068,-113.4 1061,-113.4"/>
</g>
<!-- Node19&#45;&gt;Node20 -->
<g id="edge28" class="edge">
<title>Node19&#45;&gt;Node20</title>
<path fill="none" stroke="midnightblue" d="M1135.03,-121.19C1181.05,-110.54 1240.52,-96.78 1284.5,-86.61"/>
<polygon fill="midnightblue" stroke="midnightblue" points="1134.08,-117.81 1125.13,-123.48 1135.66,-124.63 1134.08,-117.81"/>
</g>
</g>
</svg>
