<?xml version="1.0" encoding="UTF-8" standalone="no"?>
<!DOCTYPE svg PUBLIC "-//W3C//DTD SVG 1.1//EN"
 "http://www.w3.org/Graphics/SVG/1.1/DTD/svg11.dtd">
<!-- Generated by graphviz version 2.43.0 (0)
 -->
<!-- Title: src/Converter/Converter.h Pages: 1 -->
<svg width="379pt" height="140pt"
 viewBox="0.00 0.00 379.00 140.00" xmlns="http://www.w3.org/2000/svg" xmlns:xlink="http://www.w3.org/1999/xlink">
<g id="graph0" class="graph" transform="scale(1 1) rotate(0) translate(4 136)">
<title>src/Converter/Converter.h</title>
<polygon fill="white" stroke="transparent" points="-4,4 -4,-136 375,-136 375,4 -4,4"/>
<!-- Node1 -->
<g id="node1" class="node">
<title>Node1</title>
<g id="a_node1"><a xlink:title="This component converts the raw data returned by the LiDAR physical component into a two&#45;dimensional ...">
<polygon fill="#bfbfbf" stroke="black" points="140.5,-112.5 140.5,-131.5 281.5,-131.5 281.5,-112.5 140.5,-112.5"/>
<text text-anchor="middle" x="211" y="-119.5" font-family="Helvetica,sans-Serif" font-size="10.00">src/Converter/Converter.h</text>
</a>
</g>
</g>
<!-- Node2 -->
<g id="node2" class="node">
<title>Node2</title>
<g id="a_node2"><a xlink:href="Converter_8c.html" target="_top" xlink:title="This component converts the raw data returned by the LiDAR physical component into a two&#45;dimensional ...">
<polygon fill="white" stroke="black" points="0,-56.5 0,-75.5 140,-75.5 140,-56.5 0,-56.5"/>
<text text-anchor="middle" x="70" y="-63.5" font-family="Helvetica,sans-Serif" font-size="10.00">src/Converter/Converter.c</text>
</a>
</g>
</g>
<!-- Node1&#45;&gt;Node2 -->
<g id="edge1" class="edge">
<title>Node1&#45;&gt;Node2</title>
<path fill="none" stroke="midnightblue" d="M179.07,-108.77C152.59,-98.63 115.61,-84.47 92.24,-75.52"/>
<polygon fill="midnightblue" stroke="midnightblue" points="178.07,-112.14 188.66,-112.44 180.57,-105.6 178.07,-112.14"/>
</g>
<!-- Node3 -->
<g id="node3" class="node">
<title>Node3</title>
<g id="a_node3"><a xlink:href="Folder_8h.html" target="_top" xlink:title="Folder.c header file, which manages cartographies in storage, converts position_gtk....">
<polygon fill="white" stroke="black" points="158.5,-56.5 158.5,-75.5 263.5,-75.5 263.5,-56.5 158.5,-56.5"/>
<text text-anchor="middle" x="211" y="-63.5" font-family="Helvetica,sans-Serif" font-size="10.00">src/Folder/Folder.h</text>
</a>
</g>
</g>
<!-- Node1&#45;&gt;Node3 -->
<g id="edge2" class="edge">
<title>Node1&#45;&gt;Node3</title>
<path fill="none" stroke="midnightblue" d="M211,-101.8C211,-92.91 211,-82.78 211,-75.75"/>
<polygon fill="midnightblue" stroke="midnightblue" points="207.5,-102.08 211,-112.08 214.5,-102.08 207.5,-102.08"/>
</g>
<!-- Node5 -->
<g id="node5" class="node">
<title>Node5</title>
<g id="a_node5"><a xlink:href="Geographer_8c.html" target="_top" xlink:title="This component is the active object of ACDSoft.">
<polygon fill="white" stroke="black" points="213,-0.5 213,-19.5 371,-19.5 371,-0.5 213,-0.5"/>
<text text-anchor="middle" x="292" y="-7.5" font-family="Helvetica,sans-Serif" font-size="10.00">src/Geographer/Geographer.c</text>
</a>
</g>
</g>
<!-- Node1&#45;&gt;Node5 -->
<g id="edge5" class="edge">
<title>Node1&#45;&gt;Node5</title>
<path fill="none" stroke="midnightblue" d="M237.15,-107.42C249.64,-99.73 263.82,-89.04 273,-76 285.32,-58.51 289.73,-33.03 291.24,-19.77"/>
<polygon fill="midnightblue" stroke="midnightblue" points="235.34,-104.42 228.46,-112.48 238.86,-110.48 235.34,-104.42"/>
</g>
<!-- Node4 -->
<g id="node4" class="node">
<title>Node4</title>
<g id="a_node4"><a xlink:href="Folder_8c.html" target="_top" xlink:title="This component manages cartographies in storage, converts position_gtk.txt into integer array,...">
<polygon fill="white" stroke="black" points="91,-0.5 91,-19.5 195,-19.5 195,-0.5 91,-0.5"/>
<text text-anchor="middle" x="143" y="-7.5" font-family="Helvetica,sans-Serif" font-size="10.00">src/Folder/Folder.c</text>
</a>
</g>
</g>
<!-- Node3&#45;&gt;Node4 -->
<g id="edge3" class="edge">
<title>Node3&#45;&gt;Node4</title>
<path fill="none" stroke="midnightblue" d="M192.24,-50.1C180,-40.38 164.44,-28.03 154.12,-19.83"/>
<polygon fill="midnightblue" stroke="midnightblue" points="190.07,-52.85 200.07,-56.32 194.42,-47.36 190.07,-52.85"/>
</g>
<!-- Node3&#45;&gt;Node5 -->
<g id="edge4" class="edge">
<title>Node3&#45;&gt;Node5</title>
<path fill="none" stroke="midnightblue" d="M232.57,-50.62C247.36,-40.76 266.51,-27.99 279.02,-19.65"/>
<polygon fill="midnightblue" stroke="midnightblue" points="230.39,-47.86 224.01,-56.32 234.28,-53.69 230.39,-47.86"/>
</g>
</g>
</svg>
