<?xml version="1.0" encoding="UTF-8" standalone="no"?>
<!DOCTYPE svg PUBLIC "-//W3C//DTD SVG 1.1//EN"
 "http://www.w3.org/Graphics/SVG/1.1/DTD/svg11.dtd">
<!-- Generated by graphviz version 2.43.0 (0)
 -->
<!-- Title: src/Converter/Converter.h Pages: 1 -->
<svg width="216pt" height="252pt"
 viewBox="0.00 0.00 215.50 252.00" xmlns="http://www.w3.org/2000/svg" xmlns:xlink="http://www.w3.org/1999/xlink">
<g id="graph0" class="graph" transform="scale(1 1) rotate(0) translate(4 248)">
<title>src/Converter/Converter.h</title>
<polygon fill="white" stroke="transparent" points="-4,4 -4,-248 211.5,-248 211.5,4 -4,4"/>
<!-- Node1 -->
<g id="node1" class="node">
<title>Node1</title>
<g id="a_node1"><a xlink:title="This component converts the raw data returned by the LiDAR physical component into a two&#45;dimensional ...">
<polygon fill="#bfbfbf" stroke="black" points="16.5,-224.5 16.5,-243.5 157.5,-243.5 157.5,-224.5 16.5,-224.5"/>
<text text-anchor="middle" x="87" y="-231.5" font-family="Helvetica,sans-Serif" font-size="10.00">src/Converter/Converter.h</text>
</a>
</g>
</g>
<!-- Node2 -->
<g id="node2" class="node">
<title>Node2</title>
<g id="a_node2"><a xlink:href="Geographer_8h.html" target="_top" xlink:title="This component is the active object of ACDSoft.">
<polygon fill="white" stroke="black" points="11.5,-168.5 11.5,-187.5 162.5,-187.5 162.5,-168.5 11.5,-168.5"/>
<text text-anchor="middle" x="87" y="-175.5" font-family="Helvetica,sans-Serif" font-size="10.00">../Geographer/Geographer.h</text>
</a>
</g>
</g>
<!-- Node1&#45;&gt;Node2 -->
<g id="edge1" class="edge">
<title>Node1&#45;&gt;Node2</title>
<path fill="none" stroke="midnightblue" d="M87,-224.08C87,-217.01 87,-206.86 87,-197.99"/>
<polygon fill="midnightblue" stroke="midnightblue" points="90.5,-197.75 87,-187.75 83.5,-197.75 90.5,-197.75"/>
</g>
<!-- Node3 -->
<g id="node3" class="node">
<title>Node3</title>
<g id="a_node3"><a xlink:href="config_8h.html" target="_top" xlink:title="Global definitions.">
<polygon fill="white" stroke="black" points="0,-56.5 0,-75.5 98,-75.5 98,-56.5 0,-56.5"/>
<text text-anchor="middle" x="49" y="-63.5" font-family="Helvetica,sans-Serif" font-size="10.00">../Config/config.h</text>
</a>
</g>
</g>
<!-- Node2&#45;&gt;Node3 -->
<g id="edge2" class="edge">
<title>Node2&#45;&gt;Node3</title>
<path fill="none" stroke="midnightblue" d="M83.89,-168.39C80.64,-159.34 75.4,-144.69 71,-132 65.57,-116.35 59.55,-98.52 55.18,-85.5"/>
<polygon fill="midnightblue" stroke="midnightblue" points="58.44,-84.22 51.95,-75.85 51.8,-86.44 58.44,-84.22"/>
</g>
<!-- Node5 -->
<g id="node5" class="node">
<title>Node5</title>
<g id="a_node5"><a xlink:href="Carto_8h.html" target="_top" xlink:title="This component describes the cartography&#39;s model. It also allow the user to modify it&#39;s parameters.">
<polygon fill="white" stroke="black" points="80,-112.5 80,-131.5 170,-131.5 170,-112.5 80,-112.5"/>
<text text-anchor="middle" x="125" y="-119.5" font-family="Helvetica,sans-Serif" font-size="10.00">../Carto/Carto.h</text>
</a>
</g>
</g>
<!-- Node2&#45;&gt;Node5 -->
<g id="edge4" class="edge">
<title>Node2&#45;&gt;Node5</title>
<path fill="none" stroke="midnightblue" d="M93.27,-168.08C98.64,-160.46 106.52,-149.26 113.08,-139.94"/>
<polygon fill="midnightblue" stroke="midnightblue" points="115.95,-141.94 118.84,-131.75 110.22,-137.91 115.95,-141.94"/>
</g>
<!-- Node4 -->
<g id="node4" class="node">
<title>Node4</title>
<g id="a_node4"><a xlink:title=" ">
<polygon fill="white" stroke="#bfbfbf" points="56,-0.5 56,-19.5 118,-19.5 118,-0.5 56,-0.5"/>
<text text-anchor="middle" x="87" y="-7.5" font-family="Helvetica,sans-Serif" font-size="10.00">stdbool.h</text>
</a>
</g>
</g>
<!-- Node3&#45;&gt;Node4 -->
<g id="edge3" class="edge">
<title>Node3&#45;&gt;Node4</title>
<path fill="none" stroke="midnightblue" d="M55.27,-56.08C60.64,-48.46 68.52,-37.26 75.08,-27.94"/>
<polygon fill="midnightblue" stroke="midnightblue" points="77.95,-29.94 80.84,-19.75 72.22,-25.91 77.95,-29.94"/>
</g>
<!-- Node5&#45;&gt;Node3 -->
<g id="edge7" class="edge">
<title>Node5&#45;&gt;Node3</title>
<path fill="none" stroke="midnightblue" d="M112.79,-112.32C101.22,-104.11 83.62,-91.6 69.84,-81.81"/>
<polygon fill="midnightblue" stroke="midnightblue" points="71.61,-78.77 61.43,-75.83 67.56,-84.48 71.61,-78.77"/>
</g>
<!-- Node5&#45;&gt;Node4 -->
<g id="edge6" class="edge">
<title>Node5&#45;&gt;Node4</title>
<path fill="none" stroke="midnightblue" d="M123.06,-112.46C120.12,-99.92 114.11,-75.84 107,-56 103.75,-46.95 99.5,-37.16 95.75,-29.03"/>
<polygon fill="midnightblue" stroke="midnightblue" points="98.82,-27.35 91.38,-19.81 92.5,-30.34 98.82,-27.35"/>
</g>
<!-- Node6 -->
<g id="node6" class="node">
<title>Node6</title>
<g id="a_node6"><a xlink:title=" ">
<polygon fill="white" stroke="#bfbfbf" points="154.5,-56.5 154.5,-75.5 207.5,-75.5 207.5,-56.5 154.5,-56.5"/>
<text text-anchor="middle" x="181" y="-63.5" font-family="Helvetica,sans-Serif" font-size="10.00">stdint.h</text>
</a>
</g>
</g>
<!-- Node5&#45;&gt;Node6 -->
<g id="edge5" class="edge">
<title>Node5&#45;&gt;Node6</title>
<path fill="none" stroke="midnightblue" d="M134,-112.32C142.19,-104.42 154.51,-92.55 164.47,-82.94"/>
<polygon fill="midnightblue" stroke="midnightblue" points="167.07,-85.29 171.84,-75.83 162.21,-80.26 167.07,-85.29"/>
</g>
</g>
</svg>
