<?xml version="1.0" encoding="UTF-8" standalone="no"?>
<!DOCTYPE svg PUBLIC "-//W3C//DTD SVG 1.1//EN"
 "http://www.w3.org/Graphics/SVG/1.1/DTD/svg11.dtd">
<!-- Generated by graphviz version 2.43.0 (0)
 -->
<!-- Title: src/Folder Pages: 1 -->
<svg width="180pt" height="223pt"
 viewBox="0.00 0.00 179.50 223.00" xmlns="http://www.w3.org/2000/svg" xmlns:xlink="http://www.w3.org/1999/xlink">
<g id="graph0" class="graph" transform="scale(1 1) rotate(0) translate(4 219)">
<title>src/Folder</title>
<polygon fill="white" stroke="transparent" points="-4,4 -4,-219 175.5,-219 175.5,4 -4,4"/>
<g id="clust1" class="cluster">
<title>clusterdir_68267d1309a1af8e8297ef4c3efbcdba</title>
<g id="a_clust1"><a xlink:href="dir_68267d1309a1af8e8297ef4c3efbcdba.html" target="_top" xlink:title="src">
<polygon fill="#ddddee" stroke="black" points="8,-136 8,-207 78,-207 78,-136 8,-136"/>
<text text-anchor="middle" x="43" y="-195" font-family="Helvetica,sans-Serif" font-size="10.00">src</text>
</a>
</g>
</g>
<!-- dir_f09f6eb2923b2efc6cbc9c192587d945 -->
<g id="node1" class="node">
<title>dir_f09f6eb2923b2efc6cbc9c192587d945</title>
<g id="a_node1"><a xlink:href="dir_f09f6eb2923b2efc6cbc9c192587d945.html" target="_top" xlink:title="Folder">
<polygon fill="#eeeeff" stroke="black" points="70,-180 16,-180 16,-144 70,-144 70,-180"/>
<text text-anchor="middle" x="43" y="-159.5" font-family="Helvetica,sans-Serif" font-size="10.00">Folder</text>
</a>
</g>
</g>
<!-- dir_ab9403a3c36b3efe9fa21f69a7d0ee55 -->
<g id="node2" class="node">
<title>dir_ab9403a3c36b3efe9fa21f69a7d0ee55</title>
<g id="a_node2"><a xlink:href="dir_ab9403a3c36b3efe9fa21f69a7d0ee55.html" target="_top" xlink:title="Geographer">
<polygon fill="none" stroke="black" points="162,-180 88,-180 88,-144 162,-144 162,-180"/>
<text text-anchor="middle" x="125" y="-159.5" font-family="Helvetica,sans-Serif" font-size="10.00">Geographer</text>
</a>
</g>
</g>
<!-- dir_f09f6eb2923b2efc6cbc9c192587d945&#45;&gt;dir_ab9403a3c36b3efe9fa21f69a7d0ee55 -->
<g id="edge8" class="edge">
<title>dir_f09f6eb2923b2efc6cbc9c192587d945&#45;&gt;dir_ab9403a3c36b3efe9fa21f69a7d0ee55</title>
<path fill="none" stroke="black" d="M70.23,-162C72.69,-162 75.16,-162 77.63,-162"/>
<polygon fill="black" stroke="black" points="77.77,-165.5 87.77,-162 77.77,-158.5 77.77,-165.5"/>
<g id="a_edge8&#45;headlabel"><a xlink:href="dir_000004_000005.html" target="_top" xlink:title="1">
<text text-anchor="middle" x="74.18" y="-165.84" font-family="Helvetica,sans-Serif" font-size="10.00">1</text>
</a>
</g>
</g>
<!-- dir_55be27304aee4fac13a1eb8fc08f58b6 -->
<g id="node3" class="node">
<title>dir_55be27304aee4fac13a1eb8fc08f58b6</title>
<g id="a_node3"><a xlink:href="dir_55be27304aee4fac13a1eb8fc08f58b6.html" target="_top" xlink:title="Config">
<polygon fill="none" stroke="black" points="113,-36 59,-36 59,0 113,0 113,-36"/>
<text text-anchor="middle" x="86" y="-15.5" font-family="Helvetica,sans-Serif" font-size="10.00">Config</text>
</a>
</g>
</g>
<!-- dir_f09f6eb2923b2efc6cbc9c192587d945&#45;&gt;dir_55be27304aee4fac13a1eb8fc08f58b6 -->
<g id="edge9" class="edge">
<title>dir_f09f6eb2923b2efc6cbc9c192587d945&#45;&gt;dir_55be27304aee4fac13a1eb8fc08f58b6</title>
<path fill="none" stroke="black" d="M28.53,-143.71C15.03,-125.35 -1.31,-95.77 11,-72 19.32,-55.94 34.99,-43.7 49.87,-35.06"/>
<polygon fill="black" stroke="black" points="51.83,-37.98 58.96,-30.14 48.5,-31.82 51.83,-37.98"/>
<g id="a_edge9&#45;headlabel"><a xlink:href="dir_000004_000002.html" target="_top" xlink:title="2">
<text text-anchor="middle" x="50.02" y="-39.68" font-family="Helvetica,sans-Serif" font-size="10.00">2</text>
</a>
</g>
</g>
<!-- dir_1f71012bc1d8119e3b4520aa9d5d1166 -->
<g id="node4" class="node">
<title>dir_1f71012bc1d8119e3b4520aa9d5d1166</title>
<g id="a_node4"><a xlink:href="dir_1f71012bc1d8119e3b4520aa9d5d1166.html" target="_top" xlink:title="Carto">
<polygon fill="none" stroke="black" points="74,-108 20,-108 20,-72 74,-72 74,-108"/>
<text text-anchor="middle" x="47" y="-87.5" font-family="Helvetica,sans-Serif" font-size="10.00">Carto</text>
</a>
</g>
</g>
<!-- dir_f09f6eb2923b2efc6cbc9c192587d945&#45;&gt;dir_1f71012bc1d8119e3b4520aa9d5d1166 -->
<g id="edge10" class="edge">
<title>dir_f09f6eb2923b2efc6cbc9c192587d945&#45;&gt;dir_1f71012bc1d8119e3b4520aa9d5d1166</title>
<path fill="none" stroke="black" d="M43.99,-143.7C44.43,-135.98 44.96,-126.71 45.45,-118.11"/>
<polygon fill="black" stroke="black" points="48.95,-118.29 46.02,-108.1 41.96,-117.89 48.95,-118.29"/>
<g id="a_edge10&#45;headlabel"><a xlink:href="dir_000004_000001.html" target="_top" xlink:title="1">
<text text-anchor="middle" x="51.58" y="-119.54" font-family="Helvetica,sans-Serif" font-size="10.00">1</text>
</a>
</g>
</g>
<!-- dir_c33a89c1be32644aa250aa503f5b43a8 -->
<g id="node5" class="node">
<title>dir_c33a89c1be32644aa250aa503f5b43a8</title>
<g id="a_node5"><a xlink:href="dir_c33a89c1be32644aa250aa503f5b43a8.html" target="_top" xlink:title="Converter">
<polygon fill="none" stroke="black" points="157.5,-108 92.5,-108 92.5,-72 157.5,-72 157.5,-108"/>
<text text-anchor="middle" x="125" y="-87.5" font-family="Helvetica,sans-Serif" font-size="10.00">Converter</text>
</a>
</g>
</g>
<!-- dir_f09f6eb2923b2efc6cbc9c192587d945&#45;&gt;dir_c33a89c1be32644aa250aa503f5b43a8 -->
<g id="edge11" class="edge">
<title>dir_f09f6eb2923b2efc6cbc9c192587d945&#45;&gt;dir_c33a89c1be32644aa250aa503f5b43a8</title>
<path fill="none" stroke="black" d="M63.27,-143.7C73.5,-134.97 86.06,-124.24 97.18,-114.75"/>
<polygon fill="black" stroke="black" points="99.63,-117.26 104.96,-108.1 95.09,-111.94 99.63,-117.26"/>
<g id="a_edge11&#45;headlabel"><a xlink:href="dir_000004_000003.html" target="_top" xlink:title="1">
<text text-anchor="middle" x="98.74" y="-119.25" font-family="Helvetica,sans-Serif" font-size="10.00">1</text>
</a>
</g>
</g>
<!-- dir_ab9403a3c36b3efe9fa21f69a7d0ee55&#45;&gt;dir_f09f6eb2923b2efc6cbc9c192587d945 -->
<g id="edge4" class="edge">
<title>dir_ab9403a3c36b3efe9fa21f69a7d0ee55&#45;&gt;dir_f09f6eb2923b2efc6cbc9c192587d945</title>
<path fill="none" stroke="black" d="M87.77,-162C85.3,-162 82.84,-162 80.37,-162"/>
<polygon fill="black" stroke="black" points="80.23,-158.5 70.23,-162 80.23,-165.5 80.23,-158.5"/>
<g id="a_edge4&#45;headlabel"><a xlink:href="dir_000005_000004.html" target="_top" xlink:title="1">
<text text-anchor="middle" x="83.82" y="-153.16" font-family="Helvetica,sans-Serif" font-size="10.00">1</text>
</a>
</g>
</g>
<!-- dir_ab9403a3c36b3efe9fa21f69a7d0ee55&#45;&gt;dir_55be27304aee4fac13a1eb8fc08f58b6 -->
<g id="edge1" class="edge">
<title>dir_ab9403a3c36b3efe9fa21f69a7d0ee55&#45;&gt;dir_55be27304aee4fac13a1eb8fc08f58b6</title>
<path fill="none" stroke="black" d="M142.85,-144C159.6,-125.88 180.25,-96.5 167,-72 157.42,-54.29 139.07,-41.55 122.25,-33"/>
<polygon fill="black" stroke="black" points="123.67,-29.8 113.13,-28.68 120.67,-36.13 123.67,-29.8"/>
<g id="a_edge1&#45;headlabel"><a xlink:href="dir_000005_000002.html" target="_top" xlink:title="2">
<text text-anchor="middle" x="128.13" y="-26.27" font-family="Helvetica,sans-Serif" font-size="10.00">2</text>
</a>
</g>
</g>
<!-- dir_ab9403a3c36b3efe9fa21f69a7d0ee55&#45;&gt;dir_1f71012bc1d8119e3b4520aa9d5d1166 -->
<g id="edge2" class="edge">
<title>dir_ab9403a3c36b3efe9fa21f69a7d0ee55&#45;&gt;dir_1f71012bc1d8119e3b4520aa9d5d1166</title>
<path fill="none" stroke="black" d="M105.72,-143.7C96.08,-135.05 84.27,-124.45 73.77,-115.03"/>
<polygon fill="black" stroke="black" points="75.84,-112.18 66.06,-108.1 71.16,-117.39 75.84,-112.18"/>
<g id="a_edge2&#45;headlabel"><a xlink:href="dir_000005_000001.html" target="_top" xlink:title="1">
<text text-anchor="middle" x="80.41" y="-109.97" font-family="Helvetica,sans-Serif" font-size="10.00">1</text>
</a>
</g>
</g>
<!-- dir_ab9403a3c36b3efe9fa21f69a7d0ee55&#45;&gt;dir_c33a89c1be32644aa250aa503f5b43a8 -->
<g id="edge3" class="edge">
<title>dir_ab9403a3c36b3efe9fa21f69a7d0ee55&#45;&gt;dir_c33a89c1be32644aa250aa503f5b43a8</title>
<path fill="none" stroke="black" d="M119.08,-143.7C118.29,-135.98 118.06,-126.71 118.4,-118.11"/>
<polygon fill="black" stroke="black" points="121.9,-118.32 119.1,-108.1 114.92,-117.84 121.9,-118.32"/>
<g id="a_edge3&#45;headlabel"><a xlink:href="dir_000005_000003.html" target="_top" xlink:title="1">
<text text-anchor="middle" x="124.48" y="-119.61" font-family="Helvetica,sans-Serif" font-size="10.00">1</text>
</a>
</g>
</g>
<!-- dir_1f71012bc1d8119e3b4520aa9d5d1166&#45;&gt;dir_55be27304aee4fac13a1eb8fc08f58b6 -->
<g id="edge5" class="edge">
<title>dir_1f71012bc1d8119e3b4520aa9d5d1166&#45;&gt;dir_55be27304aee4fac13a1eb8fc08f58b6</title>
<path fill="none" stroke="black" d="M56.64,-71.7C61.13,-63.64 66.56,-53.89 71.52,-44.98"/>
<polygon fill="black" stroke="black" points="74.66,-46.54 76.47,-36.1 68.55,-43.14 74.66,-46.54"/>
<g id="a_edge5&#45;headlabel"><a xlink:href="dir_000001_000002.html" target="_top" xlink:title="1">
<text text-anchor="middle" x="75.39" y="-48.57" font-family="Helvetica,sans-Serif" font-size="10.00">1</text>
</a>
</g>
</g>
<!-- dir_c33a89c1be32644aa250aa503f5b43a8&#45;&gt;dir_ab9403a3c36b3efe9fa21f69a7d0ee55 -->
<g id="edge6" class="edge">
<title>dir_c33a89c1be32644aa250aa503f5b43a8&#45;&gt;dir_ab9403a3c36b3efe9fa21f69a7d0ee55</title>
<path fill="none" stroke="black" d="M130.9,-108.1C131.7,-115.79 131.94,-125.05 131.6,-133.67"/>
<polygon fill="black" stroke="black" points="128.11,-133.48 130.92,-143.7 135.09,-133.96 128.11,-133.48"/>
<g id="a_edge6&#45;headlabel"><a xlink:href="dir_000003_000005.html" target="_top" xlink:title="1">
<text text-anchor="middle" x="125.52" y="-127.2" font-family="Helvetica,sans-Serif" font-size="10.00">1</text>
</a>
</g>
</g>
<!-- dir_c33a89c1be32644aa250aa503f5b43a8&#45;&gt;dir_55be27304aee4fac13a1eb8fc08f58b6 -->
<g id="edge7" class="edge">
<title>dir_c33a89c1be32644aa250aa503f5b43a8&#45;&gt;dir_55be27304aee4fac13a1eb8fc08f58b6</title>
<path fill="none" stroke="black" d="M115.36,-71.7C110.87,-63.64 105.44,-53.89 100.48,-44.98"/>
<polygon fill="black" stroke="black" points="103.45,-43.14 95.53,-36.1 97.34,-46.54 103.45,-43.14"/>
<g id="a_edge7&#45;headlabel"><a xlink:href="dir_000003_000002.html" target="_top" xlink:title="1">
<text text-anchor="middle" x="107.68" y="-42.39" font-family="Helvetica,sans-Serif" font-size="10.00">1</text>
</a>
</g>
</g>
</g>
</svg>
