<?xml version="1.0" encoding="UTF-8" standalone="no"?>
<!DOCTYPE svg PUBLIC "-//W3C//DTD SVG 1.1//EN"
 "http://www.w3.org/Graphics/SVG/1.1/DTD/svg11.dtd">
<!-- Generated by graphviz version 2.43.0 (0)
 -->
<!-- Title: src Pages: 1 -->
<!--zoomable 508 -->
<svg id="main" version="1.1" xmlns="http://www.w3.org/2000/svg" xmlns:xlink="http://www.w3.org/1999/xlink" xml:space="preserve" onload="init(evt)">
<style type="text/css"><![CDATA[
.edge:hover path { stroke: red; }
.edge:hover polygon { stroke: red; fill: red; }
]]></style>
<script type="text/javascript"><![CDATA[
var edges = document.getElementsByTagName('g');
if (edges && edges.length) {
  for (var i=0;i<edges.length;i++) {
    if (edges[i].id.substr(0,4)=='edge') {
      edges[i].setAttribute('class','edge');
    }
  }
}
]]></script>
        <defs>
                <circle id="rim" cx="0" cy="0" r="7"/>
                <circle id="rim2" cx="0" cy="0" r="3.5"/>
                <g id="zoomPlus">
                        <use xlink:href="#rim" fill="#404040">
                                <set attributeName="fill" to="#808080" begin="zoomplus.mouseover" end="zoomplus.mouseout"/>
                        </use>
                        <path d="M-4,0h8M0,-4v8" fill="none" stroke="white" stroke-width="1.5" pointer-events="none"/>
                </g>
                <g id="zoomMin">
                        <use xlink:href="#rim" fill="#404040">
                                <set attributeName="fill" to="#808080" begin="zoomminus.mouseover" end="zoomminus.mouseout"/>
                        </use>
                        <path d="M-4,0h8" fill="none" stroke="white" stroke-width="1.5" pointer-events="none"/>
                </g>
                <g id="dirArrow">
                        <path fill="none" stroke="white" stroke-width="1.5" d="M0,-3.0v7 M-2.5,-0.5L0,-3.0L2.5,-0.5"/>
                </g>
               <g id="resetDef">
                       <use xlink:href="#rim2" fill="#404040">
                               <set attributeName="fill" to="#808080" begin="reset.mouseover" end="reset.mouseout"/>
                       </use>
               </g>
        </defs>

<script type="text/javascript">
var viewWidth = 358;
var viewHeight = 508;
var sectionId = 'dynsection-0';
</script>
<script xlink:href="svgpan.js"/>
<svg id="graph" class="graph">
<g id="viewport">
<title>src</title>
<polygon fill="white" stroke="transparent" points="-4,4 -4,-504 354,-504 354,4 -4,4"/>
<g id="clust1" class="cluster">
<title>clusterdir_68267d1309a1af8e8297ef4c3efbcdba</title>
<g id="a_clust1"><a xlink:href="dir_68267d1309a1af8e8297ef4c3efbcdba.html" target="_top">
<polygon fill="#eeeeff" stroke="black" points="8,-8 8,-492 342,-492 342,-8 8,-8"/>
</a>
</g>
</g>
<!-- dir_68267d1309a1af8e8297ef4c3efbcdba -->
<g id="node1" class="node">
<title>dir_68267d1309a1af8e8297ef4c3efbcdba</title>
<text text-anchor="middle" x="109" y="-463.5" font-family="Helvetica,sans-Serif" font-size="10.00">src</text>
</g>
<!-- dir_7ad25bca70c4d3d9103f75d82f41ef94 -->
<g id="node10" class="node">
<title>dir_7ad25bca70c4d3d9103f75d82f41ef94</title>
<g id="a_node10"><a xlink:href="dir_7ad25bca70c4d3d9103f75d82f41ef94.html" target="_top" xlink:title="UI">
<polygon fill="white" stroke="black" points="136,-412 82,-412 82,-376 136,-376 136,-412"/>
<text text-anchor="middle" x="109" y="-391.5" font-family="Helvetica,sans-Serif" font-size="10.00">UI</text>
</a>
</g>
</g>
<!-- dir_68267d1309a1af8e8297ef4c3efbcdba&#45;&gt;dir_7ad25bca70c4d3d9103f75d82f41ef94 -->
<g id="edge1" class="edge">
<title>dir_68267d1309a1af8e8297ef4c3efbcdba&#45;&gt;dir_7ad25bca70c4d3d9103f75d82f41ef94</title>
<path fill="none" stroke="black" d="M109,-447.7C109,-439.98 109,-430.71 109,-422.11"/>
<polygon fill="black" stroke="black" points="112.5,-422.1 109,-412.1 105.5,-422.1 112.5,-422.1"/>
<g id="a_edge1&#45;headlabel"><a xlink:href="dir_000000_000013.html" target="_top" xlink:title="1">
<text text-anchor="middle" x="115.34" y="-423.2" font-family="Helvetica,sans-Serif" font-size="10.00">1</text>
</a>
</g>
</g>
<!-- dir_1f71012bc1d8119e3b4520aa9d5d1166 -->
<g id="node2" class="node">
<title>dir_1f71012bc1d8119e3b4520aa9d5d1166</title>
<g id="a_node2"><a xlink:href="dir_1f71012bc1d8119e3b4520aa9d5d1166.html" target="_top" xlink:title="Carto">
<polygon fill="white" stroke="black" points="334,-124 280,-124 280,-88 334,-88 334,-124"/>
<text text-anchor="middle" x="307" y="-103.5" font-family="Helvetica,sans-Serif" font-size="10.00">Carto</text>
</a>
</g>
</g>
<!-- dir_55be27304aee4fac13a1eb8fc08f58b6 -->
<g id="node3" class="node">
<title>dir_55be27304aee4fac13a1eb8fc08f58b6</title>
<g id="a_node3"><a xlink:href="dir_55be27304aee4fac13a1eb8fc08f58b6.html" target="_top" xlink:title="Config">
<polygon fill="white" stroke="black" points="156,-52 102,-52 102,-16 156,-16 156,-52"/>
<text text-anchor="middle" x="129" y="-31.5" font-family="Helvetica,sans-Serif" font-size="10.00">Config</text>
</a>
</g>
</g>
<!-- dir_1f71012bc1d8119e3b4520aa9d5d1166&#45;&gt;dir_55be27304aee4fac13a1eb8fc08f58b6 -->
<g id="edge14" class="edge">
<title>dir_1f71012bc1d8119e3b4520aa9d5d1166&#45;&gt;dir_55be27304aee4fac13a1eb8fc08f58b6</title>
<path fill="none" stroke="black" d="M279.69,-93.57C275.13,-91.69 270.43,-89.78 266,-88 232.16,-74.44 193.4,-59.5 165.76,-48.95"/>
<polygon fill="black" stroke="black" points="166.7,-45.56 156.11,-45.27 164.21,-52.1 166.7,-45.56"/>
<g id="a_edge14&#45;headlabel"><a xlink:href="dir_000001_000002.html" target="_top" xlink:title="1">
<text text-anchor="middle" x="171.07" y="-41.69" font-family="Helvetica,sans-Serif" font-size="10.00">1</text>
</a>
</g>
</g>
<!-- dir_c33a89c1be32644aa250aa503f5b43a8 -->
<g id="node4" class="node">
<title>dir_c33a89c1be32644aa250aa503f5b43a8</title>
<g id="a_node4"><a xlink:href="dir_c33a89c1be32644aa250aa503f5b43a8.html" target="_top" xlink:title="Converter">
<polygon fill="white" stroke="black" points="241.5,-124 176.5,-124 176.5,-88 241.5,-88 241.5,-124"/>
<text text-anchor="middle" x="209" y="-103.5" font-family="Helvetica,sans-Serif" font-size="10.00">Converter</text>
</a>
</g>
</g>
<!-- dir_c33a89c1be32644aa250aa503f5b43a8&#45;&gt;dir_55be27304aee4fac13a1eb8fc08f58b6 -->
<g id="edge16" class="edge">
<title>dir_c33a89c1be32644aa250aa503f5b43a8&#45;&gt;dir_55be27304aee4fac13a1eb8fc08f58b6</title>
<path fill="none" stroke="black" d="M189.22,-87.7C179.25,-78.97 166.99,-68.24 156.14,-58.75"/>
<polygon fill="black" stroke="black" points="158.38,-56.06 148.55,-52.1 153.77,-61.32 158.38,-56.06"/>
<g id="a_edge16&#45;headlabel"><a xlink:href="dir_000003_000002.html" target="_top" xlink:title="1">
<text text-anchor="middle" x="162.95" y="-53.79" font-family="Helvetica,sans-Serif" font-size="10.00">1</text>
</a>
</g>
</g>
<!-- dir_ab9403a3c36b3efe9fa21f69a7d0ee55 -->
<g id="node6" class="node">
<title>dir_ab9403a3c36b3efe9fa21f69a7d0ee55</title>
<g id="a_node6"><a xlink:href="dir_ab9403a3c36b3efe9fa21f69a7d0ee55.html" target="_top" xlink:title="Geographer">
<polygon fill="white" stroke="black" points="212,-268 138,-268 138,-232 212,-232 212,-268"/>
<text text-anchor="middle" x="175" y="-247.5" font-family="Helvetica,sans-Serif" font-size="10.00">Geographer</text>
</a>
</g>
</g>
<!-- dir_c33a89c1be32644aa250aa503f5b43a8&#45;&gt;dir_ab9403a3c36b3efe9fa21f69a7d0ee55 -->
<g id="edge15" class="edge">
<title>dir_c33a89c1be32644aa250aa503f5b43a8&#45;&gt;dir_ab9403a3c36b3efe9fa21f69a7d0ee55</title>
<path fill="none" stroke="black" d="M219.21,-124.17C224.57,-142.42 227.4,-171.92 220,-196 216.96,-205.89 211.38,-215.59 205.07,-223.93"/>
<polygon fill="black" stroke="black" points="202.26,-221.84 198.59,-231.77 207.65,-226.29 202.26,-221.84"/>
<g id="a_edge15&#45;headlabel"><a xlink:href="dir_000003_000005.html" target="_top" xlink:title="1">
<text text-anchor="middle" x="202.36" y="-214.76" font-family="Helvetica,sans-Serif" font-size="10.00">1</text>
</a>
</g>
</g>
<!-- dir_f09f6eb2923b2efc6cbc9c192587d945 -->
<g id="node5" class="node">
<title>dir_f09f6eb2923b2efc6cbc9c192587d945</title>
<g id="a_node5"><a xlink:href="dir_f09f6eb2923b2efc6cbc9c192587d945.html" target="_top" xlink:title="Folder">
<polygon fill="white" stroke="black" points="294,-196 240,-196 240,-160 294,-160 294,-196"/>
<text text-anchor="middle" x="267" y="-175.5" font-family="Helvetica,sans-Serif" font-size="10.00">Folder</text>
</a>
</g>
</g>
<!-- dir_f09f6eb2923b2efc6cbc9c192587d945&#45;&gt;dir_1f71012bc1d8119e3b4520aa9d5d1166 -->
<g id="edge19" class="edge">
<title>dir_f09f6eb2923b2efc6cbc9c192587d945&#45;&gt;dir_1f71012bc1d8119e3b4520aa9d5d1166</title>
<path fill="none" stroke="black" d="M276.89,-159.7C281.49,-151.64 287.06,-141.89 292.15,-132.98"/>
<polygon fill="black" stroke="black" points="295.3,-134.52 297.23,-124.1 289.23,-131.05 295.3,-134.52"/>
<g id="a_edge19&#45;headlabel"><a xlink:href="dir_000004_000001.html" target="_top" xlink:title="1">
<text text-anchor="middle" x="295.99" y="-136.55" font-family="Helvetica,sans-Serif" font-size="10.00">1</text>
</a>
</g>
</g>
<!-- dir_f09f6eb2923b2efc6cbc9c192587d945&#45;&gt;dir_55be27304aee4fac13a1eb8fc08f58b6 -->
<g id="edge18" class="edge">
<title>dir_f09f6eb2923b2efc6cbc9c192587d945&#45;&gt;dir_55be27304aee4fac13a1eb8fc08f58b6</title>
<path fill="none" stroke="black" d="M268.44,-159.66C269.12,-140.17 267.27,-108.56 251,-88 230.22,-61.75 193.85,-48.23 166.21,-41.44"/>
<polygon fill="black" stroke="black" points="166.62,-37.95 156.1,-39.16 165.08,-44.78 166.62,-37.95"/>
<g id="a_edge18&#45;headlabel"><a xlink:href="dir_000004_000002.html" target="_top" xlink:title="2">
<text text-anchor="middle" x="170.75" y="-33.47" font-family="Helvetica,sans-Serif" font-size="10.00">2</text>
</a>
</g>
</g>
<!-- dir_f09f6eb2923b2efc6cbc9c192587d945&#45;&gt;dir_c33a89c1be32644aa250aa503f5b43a8 -->
<g id="edge20" class="edge">
<title>dir_f09f6eb2923b2efc6cbc9c192587d945&#45;&gt;dir_c33a89c1be32644aa250aa503f5b43a8</title>
<path fill="none" stroke="black" d="M252.66,-159.7C245.71,-151.3 237.23,-141.07 229.6,-131.86"/>
<polygon fill="black" stroke="black" points="232.25,-129.57 223.17,-124.1 226.86,-134.04 232.25,-129.57"/>
<g id="a_edge20&#45;headlabel"><a xlink:href="dir_000004_000003.html" target="_top" xlink:title="1">
<text text-anchor="middle" x="236.73" y="-128.03" font-family="Helvetica,sans-Serif" font-size="10.00">1</text>
</a>
</g>
</g>
<!-- dir_f09f6eb2923b2efc6cbc9c192587d945&#45;&gt;dir_ab9403a3c36b3efe9fa21f69a7d0ee55 -->
<g id="edge17" class="edge">
<title>dir_f09f6eb2923b2efc6cbc9c192587d945&#45;&gt;dir_ab9403a3c36b3efe9fa21f69a7d0ee55</title>
<path fill="none" stroke="black" d="M250.31,-196.19C239.43,-205.18 224.96,-216.32 211.56,-226.04"/>
<polygon fill="black" stroke="black" points="209.5,-223.21 203.4,-231.88 213.57,-228.9 209.5,-223.21"/>
<g id="a_edge17&#45;headlabel"><a xlink:href="dir_000004_000005.html" target="_top" xlink:title="1">
<text text-anchor="middle" x="210.77" y="-216.31" font-family="Helvetica,sans-Serif" font-size="10.00">1</text>
</a>
</g>
</g>
<!-- dir_ab9403a3c36b3efe9fa21f69a7d0ee55&#45;&gt;dir_1f71012bc1d8119e3b4520aa9d5d1166 -->
<g id="edge5" class="edge">
<title>dir_ab9403a3c36b3efe9fa21f69a7d0ee55&#45;&gt;dir_1f71012bc1d8119e3b4520aa9d5d1166</title>
<path fill="none" stroke="black" d="M212.01,-244.46C241.9,-238.66 282.29,-225.54 303,-196 315.46,-178.24 315.46,-153.23 312.92,-134.24"/>
<polygon fill="black" stroke="black" points="316.34,-133.42 311.26,-124.12 309.43,-134.56 316.34,-133.42"/>
<g id="a_edge5&#45;headlabel"><a xlink:href="dir_000005_000001.html" target="_top" xlink:title="1">
<text text-anchor="middle" x="319.72" y="-134.01" font-family="Helvetica,sans-Serif" font-size="10.00">1</text>
</a>
</g>
</g>
<!-- dir_ab9403a3c36b3efe9fa21f69a7d0ee55&#45;&gt;dir_55be27304aee4fac13a1eb8fc08f58b6 -->
<g id="edge4" class="edge">
<title>dir_ab9403a3c36b3efe9fa21f69a7d0ee55&#45;&gt;dir_55be27304aee4fac13a1eb8fc08f58b6</title>
<path fill="none" stroke="black" d="M137.83,-241.42C113.09,-234.24 82.41,-220.73 67,-196 39.4,-151.71 78.09,-93.13 105.62,-60.23"/>
<polygon fill="black" stroke="black" points="108.45,-62.3 112.33,-52.44 103.15,-57.73 108.45,-62.3"/>
<g id="a_edge4&#45;headlabel"><a xlink:href="dir_000005_000002.html" target="_top" xlink:title="2">
<text text-anchor="middle" x="108.26" y="-64.38" font-family="Helvetica,sans-Serif" font-size="10.00">2</text>
</a>
</g>
</g>
<!-- dir_ab9403a3c36b3efe9fa21f69a7d0ee55&#45;&gt;dir_c33a89c1be32644aa250aa503f5b43a8 -->
<g id="edge6" class="edge">
<title>dir_ab9403a3c36b3efe9fa21f69a7d0ee55&#45;&gt;dir_c33a89c1be32644aa250aa503f5b43a8</title>
<path fill="none" stroke="black" d="M182.63,-231.77C189.37,-222.03 197.95,-209.18 202,-196 208.16,-175.97 207.23,-152.18 206.34,-134.24"/>
<polygon fill="black" stroke="black" points="209.83,-133.99 205.85,-124.17 202.84,-134.33 209.83,-133.99"/>
<g id="a_edge6&#45;headlabel"><a xlink:href="dir_000005_000003.html" target="_top" xlink:title="1">
<text text-anchor="middle" x="212.84" y="-134.95" font-family="Helvetica,sans-Serif" font-size="10.00">1</text>
</a>
</g>
</g>
<!-- dir_ab9403a3c36b3efe9fa21f69a7d0ee55&#45;&gt;dir_f09f6eb2923b2efc6cbc9c192587d945 -->
<g id="edge7" class="edge">
<title>dir_ab9403a3c36b3efe9fa21f69a7d0ee55&#45;&gt;dir_f09f6eb2923b2efc6cbc9c192587d945</title>
<path fill="none" stroke="black" d="M191.83,-231.7C203.03,-222.44 218,-210.95 231.68,-201.06"/>
<polygon fill="black" stroke="black" points="233.88,-203.8 239.99,-195.14 229.82,-198.09 233.88,-203.8"/>
<g id="a_edge7&#45;headlabel"><a xlink:href="dir_000005_000004.html" target="_top" xlink:title="1">
<text text-anchor="middle" x="232.59" y="-205.69" font-family="Helvetica,sans-Serif" font-size="10.00">1</text>
</a>
</g>
</g>
<!-- dir_9c9eb3fb530f23e4830814b2ac5d708d -->
<g id="node7" class="node">
<title>dir_9c9eb3fb530f23e4830814b2ac5d708d</title>
<g id="a_node7"><a xlink:href="dir_9c9eb3fb530f23e4830814b2ac5d708d.html" target="_top" xlink:title="LiDAR">
<polygon fill="white" stroke="black" points="130,-196 76,-196 76,-160 130,-160 130,-196"/>
<text text-anchor="middle" x="103" y="-175.5" font-family="Helvetica,sans-Serif" font-size="10.00">LiDAR</text>
</a>
</g>
</g>
<!-- dir_ab9403a3c36b3efe9fa21f69a7d0ee55&#45;&gt;dir_9c9eb3fb530f23e4830814b2ac5d708d -->
<g id="edge2" class="edge">
<title>dir_ab9403a3c36b3efe9fa21f69a7d0ee55&#45;&gt;dir_9c9eb3fb530f23e4830814b2ac5d708d</title>
<path fill="none" stroke="black" d="M151.29,-231.7C141.69,-223.22 130.85,-212.86 121.81,-203.58"/>
<polygon fill="black" stroke="black" points="124.12,-200.94 114.7,-196.1 119.05,-205.76 124.12,-200.94"/>
<g id="a_edge2&#45;headlabel"><a xlink:href="dir_000005_000006.html" target="_top" xlink:title="1">
<text text-anchor="middle" x="128.66" y="-199.09" font-family="Helvetica,sans-Serif" font-size="10.00">1</text>
</a>
</g>
</g>
<!-- dir_0a41b9683b5d2ca453c05d42ca8955c7 -->
<g id="node8" class="node">
<title>dir_0a41b9683b5d2ca453c05d42ca8955c7</title>
<g id="a_node8"><a xlink:href="dir_0a41b9683b5d2ca453c05d42ca8955c7.html" target="_top" xlink:title="Merger">
<polygon fill="white" stroke="black" points="202,-196 148,-196 148,-160 202,-160 202,-196"/>
<text text-anchor="middle" x="175" y="-175.5" font-family="Helvetica,sans-Serif" font-size="10.00">Merger</text>
</a>
</g>
</g>
<!-- dir_ab9403a3c36b3efe9fa21f69a7d0ee55&#45;&gt;dir_0a41b9683b5d2ca453c05d42ca8955c7 -->
<g id="edge8" class="edge">
<title>dir_ab9403a3c36b3efe9fa21f69a7d0ee55&#45;&gt;dir_0a41b9683b5d2ca453c05d42ca8955c7</title>
<path fill="none" stroke="black" d="M169.08,-231.7C168.29,-223.98 168.06,-214.71 168.4,-206.11"/>
<polygon fill="black" stroke="black" points="171.9,-206.32 169.1,-196.1 164.92,-205.84 171.9,-206.32"/>
<g id="a_edge8&#45;headlabel"><a xlink:href="dir_000005_000007.html" target="_top" xlink:title="1">
<text text-anchor="middle" x="174.48" y="-207.61" font-family="Helvetica,sans-Serif" font-size="10.00">1</text>
</a>
</g>
</g>
<!-- dir_cba1aa119f8ca2ce6a2213f7cd5265a1 -->
<g id="node9" class="node">
<title>dir_cba1aa119f8ca2ce6a2213f7cd5265a1</title>
<g id="a_node9"><a xlink:href="dir_cba1aa119f8ca2ce6a2213f7cd5265a1.html" target="_top" xlink:title="NetworkC">
<polygon fill="white" stroke="red" points="207.5,-340 142.5,-340 142.5,-304 207.5,-304 207.5,-340"/>
<text text-anchor="middle" x="175" y="-319.5" font-family="Helvetica,sans-Serif" font-size="10.00">NetworkC</text>
</a>
</g>
</g>
<!-- dir_ab9403a3c36b3efe9fa21f69a7d0ee55&#45;&gt;dir_cba1aa119f8ca2ce6a2213f7cd5265a1 -->
<g id="edge3" class="edge">
<title>dir_ab9403a3c36b3efe9fa21f69a7d0ee55&#45;&gt;dir_cba1aa119f8ca2ce6a2213f7cd5265a1</title>
<path fill="none" stroke="black" d="M180.9,-268.1C181.7,-275.79 181.94,-285.05 181.6,-293.67"/>
<polygon fill="black" stroke="black" points="178.11,-293.48 180.92,-303.7 185.09,-293.96 178.11,-293.48"/>
<g id="a_edge3&#45;headlabel"><a xlink:href="dir_000005_000008.html" target="_top" xlink:title="2">
<text text-anchor="middle" x="175.52" y="-287.2" font-family="Helvetica,sans-Serif" font-size="10.00">2</text>
</a>
</g>
</g>
<!-- dir_9c9eb3fb530f23e4830814b2ac5d708d&#45;&gt;dir_55be27304aee4fac13a1eb8fc08f58b6 -->
<g id="edge10" class="edge">
<title>dir_9c9eb3fb530f23e4830814b2ac5d708d&#45;&gt;dir_55be27304aee4fac13a1eb8fc08f58b6</title>
<path fill="none" stroke="black" d="M106.14,-159.87C110.57,-135.67 118.71,-91.21 123.98,-62.39"/>
<polygon fill="black" stroke="black" points="127.49,-62.66 125.85,-52.19 120.61,-61.4 127.49,-62.66"/>
<g id="a_edge10&#45;headlabel"><a xlink:href="dir_000006_000002.html" target="_top" xlink:title="2">
<text text-anchor="middle" x="129.64" y="-64.2" font-family="Helvetica,sans-Serif" font-size="10.00">2</text>
</a>
</g>
</g>
<!-- dir_9c9eb3fb530f23e4830814b2ac5d708d&#45;&gt;dir_ab9403a3c36b3efe9fa21f69a7d0ee55 -->
<g id="edge9" class="edge">
<title>dir_9c9eb3fb530f23e4830814b2ac5d708d&#45;&gt;dir_ab9403a3c36b3efe9fa21f69a7d0ee55</title>
<path fill="none" stroke="black" d="M126.49,-196.1C136.06,-204.55 146.91,-214.9 155.98,-224.2"/>
<polygon fill="black" stroke="black" points="153.69,-226.87 163.12,-231.7 158.76,-222.04 153.69,-226.87"/>
<g id="a_edge9&#45;headlabel"><a xlink:href="dir_000006_000005.html" target="_top" xlink:title="1">
<text text-anchor="middle" x="149.15" y="-223.72" font-family="Helvetica,sans-Serif" font-size="10.00">1</text>
</a>
</g>
</g>
<!-- dir_0a41b9683b5d2ca453c05d42ca8955c7&#45;&gt;dir_55be27304aee4fac13a1eb8fc08f58b6 -->
<g id="edge24" class="edge">
<title>dir_0a41b9683b5d2ca453c05d42ca8955c7&#45;&gt;dir_55be27304aee4fac13a1eb8fc08f58b6</title>
<path fill="none" stroke="black" d="M169.45,-159.87C161.58,-135.56 147.08,-90.82 137.75,-62.01"/>
<polygon fill="black" stroke="black" points="140.98,-60.62 134.57,-52.19 134.32,-62.78 140.98,-60.62"/>
<g id="a_edge24&#45;headlabel"><a xlink:href="dir_000007_000002.html" target="_top" xlink:title="1">
<text text-anchor="middle" x="144.79" y="-60.67" font-family="Helvetica,sans-Serif" font-size="10.00">1</text>
</a>
</g>
</g>
<!-- dir_0a41b9683b5d2ca453c05d42ca8955c7&#45;&gt;dir_ab9403a3c36b3efe9fa21f69a7d0ee55 -->
<g id="edge23" class="edge">
<title>dir_0a41b9683b5d2ca453c05d42ca8955c7&#45;&gt;dir_ab9403a3c36b3efe9fa21f69a7d0ee55</title>
<path fill="none" stroke="black" d="M180.9,-196.1C181.7,-203.79 181.94,-213.05 181.6,-221.67"/>
<polygon fill="black" stroke="black" points="178.11,-221.48 180.92,-231.7 185.09,-221.96 178.11,-221.48"/>
<g id="a_edge23&#45;headlabel"><a xlink:href="dir_000007_000005.html" target="_top" xlink:title="1">
<text text-anchor="middle" x="175.52" y="-215.2" font-family="Helvetica,sans-Serif" font-size="10.00">1</text>
</a>
</g>
</g>
<!-- dir_cba1aa119f8ca2ce6a2213f7cd5265a1&#45;&gt;dir_1f71012bc1d8119e3b4520aa9d5d1166 -->
<g id="edge13" class="edge">
<title>dir_cba1aa119f8ca2ce6a2213f7cd5265a1&#45;&gt;dir_1f71012bc1d8119e3b4520aa9d5d1166</title>
<path fill="none" stroke="black" d="M205.81,-303.89C239.37,-283.28 291.18,-245.2 313,-196 321.65,-176.5 319.25,-152.22 315.19,-133.95"/>
<polygon fill="black" stroke="black" points="318.58,-133.07 312.76,-124.23 311.79,-134.78 318.58,-133.07"/>
<g id="a_edge13&#45;headlabel"><a xlink:href="dir_000008_000001.html" target="_top" xlink:title="2">
<text text-anchor="middle" x="322.21" y="-133.37" font-family="Helvetica,sans-Serif" font-size="10.00">2</text>
</a>
</g>
</g>
<!-- dir_cba1aa119f8ca2ce6a2213f7cd5265a1&#45;&gt;dir_55be27304aee4fac13a1eb8fc08f58b6 -->
<g id="edge12" class="edge">
<title>dir_cba1aa119f8ca2ce6a2213f7cd5265a1&#45;&gt;dir_55be27304aee4fac13a1eb8fc08f58b6</title>
<path fill="none" stroke="black" d="M149,-303.95C119.3,-282.74 72.32,-243.47 53,-196 44.6,-175.38 56.54,-95.98 61,-88 68.54,-74.52 81.04,-63.29 93.29,-54.7"/>
<polygon fill="black" stroke="black" points="95.25,-57.6 101.67,-49.17 91.39,-51.76 95.25,-57.6"/>
<g id="a_edge12&#45;headlabel"><a xlink:href="dir_000008_000002.html" target="_top" xlink:title="9">
<text text-anchor="middle" x="93.81" y="-59.45" font-family="Helvetica,sans-Serif" font-size="10.00">9</text>
</a>
</g>
</g>
<!-- dir_cba1aa119f8ca2ce6a2213f7cd5265a1&#45;&gt;dir_ab9403a3c36b3efe9fa21f69a7d0ee55 -->
<g id="edge11" class="edge">
<title>dir_cba1aa119f8ca2ce6a2213f7cd5265a1&#45;&gt;dir_ab9403a3c36b3efe9fa21f69a7d0ee55</title>
<path fill="none" stroke="black" d="M169.08,-303.7C168.29,-295.98 168.06,-286.71 168.4,-278.11"/>
<polygon fill="black" stroke="black" points="171.9,-278.32 169.1,-268.1 164.92,-277.84 171.9,-278.32"/>
<g id="a_edge11&#45;headlabel"><a xlink:href="dir_000008_000005.html" target="_top" xlink:title="1">
<text text-anchor="middle" x="174.48" y="-279.61" font-family="Helvetica,sans-Serif" font-size="10.00">1</text>
</a>
</g>
</g>
<!-- dir_7ad25bca70c4d3d9103f75d82f41ef94&#45;&gt;dir_55be27304aee4fac13a1eb8fc08f58b6 -->
<g id="edge22" class="edge">
<title>dir_7ad25bca70c4d3d9103f75d82f41ef94&#45;&gt;dir_55be27304aee4fac13a1eb8fc08f58b6</title>
<path fill="none" stroke="black" d="M88.12,-375.63C60.98,-350.97 17,-302.99 17,-251 17,-251 17,-251 17,-177 17,-134.97 23.05,-121.07 49,-88 60.69,-73.1 77.78,-60.98 93.16,-52.11"/>
<polygon fill="black" stroke="black" points="94.89,-55.16 101.97,-47.27 91.52,-49.02 94.89,-55.16"/>
<g id="a_edge22&#45;headlabel"><a xlink:href="dir_000013_000002.html" target="_top" xlink:title="1">
<text text-anchor="middle" x="93.11" y="-56.88" font-family="Helvetica,sans-Serif" font-size="10.00">1</text>
</a>
</g>
</g>
<!-- dir_7ad25bca70c4d3d9103f75d82f41ef94&#45;&gt;dir_cba1aa119f8ca2ce6a2213f7cd5265a1 -->
<g id="edge21" class="edge">
<title>dir_7ad25bca70c4d3d9103f75d82f41ef94&#45;&gt;dir_cba1aa119f8ca2ce6a2213f7cd5265a1</title>
<path fill="none" stroke="black" d="M125.31,-375.7C133.31,-367.22 143.07,-356.86 151.82,-347.58"/>
<polygon fill="black" stroke="black" points="154.56,-349.78 158.87,-340.1 149.47,-344.98 154.56,-349.78"/>
<g id="a_edge21&#45;headlabel"><a xlink:href="dir_000013_000008.html" target="_top" xlink:title="1">
<text text-anchor="middle" x="154.16" y="-351.84" font-family="Helvetica,sans-Serif" font-size="10.00">1</text>
</a>
</g>
</g>
</g>
</svg>
        <g id="navigator" transform="translate(0 0)" fill="#404254">
                <rect fill="#f2f5e9" fill-opacity="0.5" stroke="#606060" stroke-width=".5" x="0" y="0" width="60" height="60"/>
                <use id="zoomplus" xlink:href="#zoomPlus" x="17" y="9" onmousedown="handleZoom(evt,'in')"/>
                <use id="zoomminus" xlink:href="#zoomMin" x="42" y="9" onmousedown="handleZoom(evt,'out')"/>
                <use id="reset" xlink:href="#resetDef" x="30" y="36" onmousedown="handleReset()"/>
                <g id="arrowUp" xlink:href="#dirArrow" transform="translate(30 24)" onmousedown="handlePan(0,-1)">
                  <use xlink:href="#rim" fill="#404040">
                        <set attributeName="fill" to="#808080" begin="arrowUp.mouseover" end="arrowUp.mouseout"/>
                  </use>
                  <path fill="none" stroke="white" stroke-width="1.5" d="M0,-3.0v7 M-2.5,-0.5L0,-3.0L2.5,-0.5"/>
                </g>
                <g id="arrowRight" xlink:href="#dirArrow" transform="rotate(90) translate(36 -43)" onmousedown="handlePan(1,0)">
                  <use xlink:href="#rim" fill="#404040">
                        <set attributeName="fill" to="#808080" begin="arrowRight.mouseover" end="arrowRight.mouseout"/>
                  </use>
                  <path fill="none" stroke="white" stroke-width="1.5" d="M0,-3.0v7 M-2.5,-0.5L0,-3.0L2.5,-0.5"/>
                </g>
                <g id="arrowDown" xlink:href="#dirArrow" transform="rotate(180) translate(-30 -48)" onmousedown="handlePan(0,1)">
                  <use xlink:href="#rim" fill="#404040">
                        <set attributeName="fill" to="#808080" begin="arrowDown.mouseover" end="arrowDown.mouseout"/>
                  </use>
                  <path fill="none" stroke="white" stroke-width="1.5" d="M0,-3.0v7 M-2.5,-0.5L0,-3.0L2.5,-0.5"/>
                </g>
                <g id="arrowLeft" xlink:href="#dirArrow" transform="rotate(270) translate(-36 17)" onmousedown="handlePan(-1,0)">
                  <use xlink:href="#rim" fill="#404040">
                        <set attributeName="fill" to="#808080" begin="arrowLeft.mouseover" end="arrowLeft.mouseout"/>
                  </use>
                  <path fill="none" stroke="white" stroke-width="1.5" d="M0,-3.0v7 M-2.5,-0.5L0,-3.0L2.5,-0.5"/>
                </g>
        </g>
        <svg viewBox="0 0 15 15" width="100%" height="30px" preserveAspectRatio="xMaxYMin meet">
         <g id="arrow_out" transform="scale(0.3 0.3)">
          <a xlink:href="dir_68267d1309a1af8e8297ef4c3efbcdba_dep_org.svg" target="_base">
           <rect id="button" ry="5" rx="5" y="6" x="6" height="38" width="38"
                fill="#f2f5e9" fill-opacity="0.5" stroke="#606060" stroke-width="1.0"/>
           <path id="arrow"
             d="M 11.500037,31.436501 C 11.940474,20.09759 22.043105,11.32322 32.158766,21.979434 L 37.068811,17.246167 C 37.068811,17.246167 37.088388,32 37.088388,32 L 22.160133,31.978069 C 22.160133,31.978069 26.997745,27.140456 26.997745,27.140456 C 18.528582,18.264221 13.291696,25.230495 11.500037,31.436501 z"
             style="fill:#404040;"/>
          </a>
         </g>
        </svg>
</svg>
