<?xml version="1.0" encoding="UTF-8" standalone="no"?>
<!DOCTYPE svg PUBLIC "-//W3C//DTD SVG 1.1//EN"
 "http://www.w3.org/Graphics/SVG/1.1/DTD/svg11.dtd">
<!-- Generated by graphviz version 2.43.0 (0)
 -->
<!-- Title: src/Converter Pages: 1 -->
<svg width="182pt" height="151pt"
 viewBox="0.00 0.00 182.00 151.00" xmlns="http://www.w3.org/2000/svg" xmlns:xlink="http://www.w3.org/1999/xlink">
<g id="graph0" class="graph" transform="scale(1 1) rotate(0) translate(4 147)">
<title>src/Converter</title>
<polygon fill="white" stroke="transparent" points="-4,4 -4,-147 178,-147 178,4 -4,4"/>
<g id="clust1" class="cluster">
<title>clusterdir_68267d1309a1af8e8297ef4c3efbcdba</title>
<g id="a_clust1"><a xlink:href="dir_68267d1309a1af8e8297ef4c3efbcdba.html" target="_top" xlink:title="src">
<polygon fill="#ddddee" stroke="black" points="8,-64 8,-135 90,-135 90,-64 8,-64"/>
<text text-anchor="middle" x="49" y="-123" font-family="Helvetica,sans-Serif" font-size="10.00">src</text>
</a>
</g>
</g>
<!-- dir_c33a89c1be32644aa250aa503f5b43a8 -->
<g id="node1" class="node">
<title>dir_c33a89c1be32644aa250aa503f5b43a8</title>
<g id="a_node1"><a xlink:href="dir_c33a89c1be32644aa250aa503f5b43a8.html" target="_top" xlink:title="Converter">
<polygon fill="#eeeeff" stroke="black" points="81.5,-108 16.5,-108 16.5,-72 81.5,-72 81.5,-108"/>
<text text-anchor="middle" x="49" y="-87.5" font-family="Helvetica,sans-Serif" font-size="10.00">Converter</text>
</a>
</g>
</g>
<!-- dir_ab9403a3c36b3efe9fa21f69a7d0ee55 -->
<g id="node2" class="node">
<title>dir_ab9403a3c36b3efe9fa21f69a7d0ee55</title>
<g id="a_node2"><a xlink:href="dir_ab9403a3c36b3efe9fa21f69a7d0ee55.html" target="_top" xlink:title="Geographer">
<polygon fill="none" stroke="black" points="174,-108 100,-108 100,-72 174,-72 174,-108"/>
<text text-anchor="middle" x="137" y="-87.5" font-family="Helvetica,sans-Serif" font-size="10.00">Geographer</text>
</a>
</g>
</g>
<!-- dir_c33a89c1be32644aa250aa503f5b43a8&#45;&gt;dir_ab9403a3c36b3efe9fa21f69a7d0ee55 -->
<g id="edge3" class="edge">
<title>dir_c33a89c1be32644aa250aa503f5b43a8&#45;&gt;dir_ab9403a3c36b3efe9fa21f69a7d0ee55</title>
<path fill="none" stroke="black" d="M81.66,-90C84.3,-90 86.95,-90 89.6,-90"/>
<polygon fill="black" stroke="black" points="89.82,-93.5 99.82,-90 89.82,-86.5 89.82,-93.5"/>
<g id="a_edge3&#45;headlabel"><a xlink:href="dir_000003_000005.html" target="_top" xlink:title="1">
<text text-anchor="middle" x="86.22" y="-93.84" font-family="Helvetica,sans-Serif" font-size="10.00">1</text>
</a>
</g>
</g>
<!-- dir_55be27304aee4fac13a1eb8fc08f58b6 -->
<g id="node3" class="node">
<title>dir_55be27304aee4fac13a1eb8fc08f58b6</title>
<g id="a_node3"><a xlink:href="dir_55be27304aee4fac13a1eb8fc08f58b6.html" target="_top" xlink:title="Config">
<polygon fill="none" stroke="black" points="120,-36 66,-36 66,0 120,0 120,-36"/>
<text text-anchor="middle" x="93" y="-15.5" font-family="Helvetica,sans-Serif" font-size="10.00">Config</text>
</a>
</g>
</g>
<!-- dir_c33a89c1be32644aa250aa503f5b43a8&#45;&gt;dir_55be27304aee4fac13a1eb8fc08f58b6 -->
<g id="edge4" class="edge">
<title>dir_c33a89c1be32644aa250aa503f5b43a8&#45;&gt;dir_55be27304aee4fac13a1eb8fc08f58b6</title>
<path fill="none" stroke="black" d="M59.88,-71.7C64.99,-63.56 71.2,-53.69 76.84,-44.7"/>
<polygon fill="black" stroke="black" points="79.89,-46.43 82.25,-36.1 73.96,-42.71 79.89,-46.43"/>
<g id="a_edge4&#45;headlabel"><a xlink:href="dir_000003_000002.html" target="_top" xlink:title="1">
<text text-anchor="middle" x="80.38" y="-48.49" font-family="Helvetica,sans-Serif" font-size="10.00">1</text>
</a>
</g>
</g>
<!-- dir_ab9403a3c36b3efe9fa21f69a7d0ee55&#45;&gt;dir_c33a89c1be32644aa250aa503f5b43a8 -->
<g id="edge2" class="edge">
<title>dir_ab9403a3c36b3efe9fa21f69a7d0ee55&#45;&gt;dir_c33a89c1be32644aa250aa503f5b43a8</title>
<path fill="none" stroke="black" d="M99.82,-90C97.17,-90 94.52,-90 91.87,-90"/>
<polygon fill="black" stroke="black" points="91.66,-86.5 81.66,-90 91.66,-93.5 91.66,-86.5"/>
<g id="a_edge2&#45;headlabel"><a xlink:href="dir_000005_000003.html" target="_top" xlink:title="1">
<text text-anchor="middle" x="95.25" y="-81.16" font-family="Helvetica,sans-Serif" font-size="10.00">1</text>
</a>
</g>
</g>
<!-- dir_ab9403a3c36b3efe9fa21f69a7d0ee55&#45;&gt;dir_55be27304aee4fac13a1eb8fc08f58b6 -->
<g id="edge1" class="edge">
<title>dir_ab9403a3c36b3efe9fa21f69a7d0ee55&#45;&gt;dir_55be27304aee4fac13a1eb8fc08f58b6</title>
<path fill="none" stroke="black" d="M126.12,-71.7C121.01,-63.56 114.8,-53.69 109.16,-44.7"/>
<polygon fill="black" stroke="black" points="112.04,-42.71 103.75,-36.1 106.11,-46.43 112.04,-42.71"/>
<g id="a_edge1&#45;headlabel"><a xlink:href="dir_000005_000002.html" target="_top" xlink:title="2">
<text text-anchor="middle" x="116.35" y="-41.74" font-family="Helvetica,sans-Serif" font-size="10.00">2</text>
</a>
</g>
</g>
</g>
</svg>
