<?xml version="1.0" encoding="UTF-8" standalone="no"?>
<!DOCTYPE svg PUBLIC "-//W3C//DTD SVG 1.1//EN"
 "http://www.w3.org/Graphics/SVG/1.1/DTD/svg11.dtd">
<!-- Generated by graphviz version 2.43.0 (0)
 -->
<!-- Title: src/NetworkC/Dispatcher Pages: 1 -->
<svg width="270pt" height="223pt"
 viewBox="0.00 0.00 269.50 223.00" xmlns="http://www.w3.org/2000/svg" xmlns:xlink="http://www.w3.org/1999/xlink">
<g id="graph0" class="graph" transform="scale(1 1) rotate(0) translate(4 219)">
<title>src/NetworkC/Dispatcher</title>
<polygon fill="white" stroke="transparent" points="-4,4 -4,-219 265.5,-219 265.5,4 -4,4"/>
<g id="clust1" class="cluster">
<title>clusterdir_cba1aa119f8ca2ce6a2213f7cd5265a1</title>
<g id="a_clust1"><a xlink:href="dir_cba1aa119f8ca2ce6a2213f7cd5265a1.html" target="_top" xlink:title="NetworkC">
<polygon fill="#ddddee" stroke="black" points="86,-136 86,-207 172,-207 172,-136 86,-136"/>
<text text-anchor="middle" x="129" y="-195" font-family="Helvetica,sans-Serif" font-size="10.00">NetworkC</text>
</a>
</g>
</g>
<!-- dir_e4126c157bc9ea7605ccfde84b90c825 -->
<g id="node1" class="node">
<title>dir_e4126c157bc9ea7605ccfde84b90c825</title>
<g id="a_node1"><a xlink:href="dir_e4126c157bc9ea7605ccfde84b90c825.html" target="_top" xlink:title="Dispatcher">
<polygon fill="#eeeeff" stroke="black" points="163.5,-180 94.5,-180 94.5,-144 163.5,-144 163.5,-180"/>
<text text-anchor="middle" x="129" y="-159.5" font-family="Helvetica,sans-Serif" font-size="10.00">Dispatcher</text>
</a>
</g>
</g>
<!-- dir_ab9403a3c36b3efe9fa21f69a7d0ee55 -->
<g id="node2" class="node">
<title>dir_ab9403a3c36b3efe9fa21f69a7d0ee55</title>
<g id="a_node2"><a xlink:href="dir_ab9403a3c36b3efe9fa21f69a7d0ee55.html" target="_top" xlink:title="Geographer">
<polygon fill="none" stroke="black" points="74,-108 0,-108 0,-72 74,-72 74,-108"/>
<text text-anchor="middle" x="37" y="-87.5" font-family="Helvetica,sans-Serif" font-size="10.00">Geographer</text>
</a>
</g>
</g>
<!-- dir_e4126c157bc9ea7605ccfde84b90c825&#45;&gt;dir_ab9403a3c36b3efe9fa21f69a7d0ee55 -->
<g id="edge2" class="edge">
<title>dir_e4126c157bc9ea7605ccfde84b90c825&#45;&gt;dir_ab9403a3c36b3efe9fa21f69a7d0ee55</title>
<path fill="none" stroke="black" d="M106.26,-143.7C94.56,-134.8 80.14,-123.82 67.49,-114.2"/>
<polygon fill="black" stroke="black" points="69.56,-111.37 59.48,-108.1 65.32,-116.94 69.56,-111.37"/>
<g id="a_edge2&#45;headlabel"><a xlink:href="dir_000010_000005.html" target="_top" xlink:title="1">
<text text-anchor="middle" x="74.14" y="-108.79" font-family="Helvetica,sans-Serif" font-size="10.00">1</text>
</a>
</g>
</g>
<!-- dir_55be27304aee4fac13a1eb8fc08f58b6 -->
<g id="node3" class="node">
<title>dir_55be27304aee4fac13a1eb8fc08f58b6</title>
<g id="a_node3"><a xlink:href="dir_55be27304aee4fac13a1eb8fc08f58b6.html" target="_top" xlink:title="Config">
<polygon fill="none" stroke="black" points="156,-36 102,-36 102,0 156,0 156,-36"/>
<text text-anchor="middle" x="129" y="-15.5" font-family="Helvetica,sans-Serif" font-size="10.00">Config</text>
</a>
</g>
</g>
<!-- dir_e4126c157bc9ea7605ccfde84b90c825&#45;&gt;dir_55be27304aee4fac13a1eb8fc08f58b6 -->
<g id="edge3" class="edge">
<title>dir_e4126c157bc9ea7605ccfde84b90c825&#45;&gt;dir_55be27304aee4fac13a1eb8fc08f58b6</title>
<path fill="none" stroke="black" d="M125.75,-143.89C123.95,-133.54 121.91,-120.06 121,-108 119.8,-92.04 119.8,-87.96 121,-72 121.64,-63.52 122.84,-54.34 124.12,-46.04"/>
<polygon fill="black" stroke="black" points="127.58,-46.55 125.75,-36.11 120.68,-45.41 127.58,-46.55"/>
<g id="a_edge3&#45;headlabel"><a xlink:href="dir_000010_000002.html" target="_top" xlink:title="1">
<text text-anchor="middle" x="129.8" y="-48.05" font-family="Helvetica,sans-Serif" font-size="10.00">1</text>
</a>
</g>
</g>
<!-- dir_dc0b191882b5daf0f93e23f58fd2167d -->
<g id="node4" class="node">
<title>dir_dc0b191882b5daf0f93e23f58fd2167d</title>
<g id="a_node4"><a xlink:href="dir_dc0b191882b5daf0f93e23f58fd2167d.html" target="_top" xlink:title="Coder">
<polygon fill="none" stroke="black" points="184,-108 130,-108 130,-72 184,-72 184,-108"/>
<text text-anchor="middle" x="157" y="-87.5" font-family="Helvetica,sans-Serif" font-size="10.00">Coder</text>
</a>
</g>
</g>
<!-- dir_e4126c157bc9ea7605ccfde84b90c825&#45;&gt;dir_dc0b191882b5daf0f93e23f58fd2167d -->
<g id="edge4" class="edge">
<title>dir_e4126c157bc9ea7605ccfde84b90c825&#45;&gt;dir_dc0b191882b5daf0f93e23f58fd2167d</title>
<path fill="none" stroke="black" d="M135.92,-143.7C139.07,-135.81 142.88,-126.3 146.38,-117.55"/>
<polygon fill="black" stroke="black" points="149.69,-118.69 150.16,-108.1 143.19,-116.09 149.69,-118.69"/>
<g id="a_edge4&#45;headlabel"><a xlink:href="dir_000010_000009.html" target="_top" xlink:title="2">
<text text-anchor="middle" x="151" y="-120.58" font-family="Helvetica,sans-Serif" font-size="10.00">2</text>
</a>
</g>
</g>
<!-- dir_807a98d740a8b74acd334e78119f368d -->
<g id="node5" class="node">
<title>dir_807a98d740a8b74acd334e78119f368d</title>
<g id="a_node5"><a xlink:href="dir_807a98d740a8b74acd334e78119f368d.html" target="_top" xlink:title="Postman">
<polygon fill="none" stroke="black" points="261.5,-108 202.5,-108 202.5,-72 261.5,-72 261.5,-108"/>
<text text-anchor="middle" x="232" y="-87.5" font-family="Helvetica,sans-Serif" font-size="10.00">Postman</text>
</a>
</g>
</g>
<!-- dir_e4126c157bc9ea7605ccfde84b90c825&#45;&gt;dir_807a98d740a8b74acd334e78119f368d -->
<g id="edge5" class="edge">
<title>dir_e4126c157bc9ea7605ccfde84b90c825&#45;&gt;dir_807a98d740a8b74acd334e78119f368d</title>
<path fill="none" stroke="black" d="M148.54,-143.7C161.33,-134.36 178.3,-122.73 193.65,-112.78"/>
<polygon fill="black" stroke="black" points="195.92,-115.48 202.45,-107.14 192.14,-109.59 195.92,-115.48"/>
<g id="a_edge5&#45;headlabel"><a xlink:href="dir_000010_000011.html" target="_top" xlink:title="1">
<text text-anchor="middle" x="194.42" y="-117.31" font-family="Helvetica,sans-Serif" font-size="10.00">1</text>
</a>
</g>
</g>
<!-- dir_ab9403a3c36b3efe9fa21f69a7d0ee55&#45;&gt;dir_55be27304aee4fac13a1eb8fc08f58b6 -->
<g id="edge1" class="edge">
<title>dir_ab9403a3c36b3efe9fa21f69a7d0ee55&#45;&gt;dir_55be27304aee4fac13a1eb8fc08f58b6</title>
<path fill="none" stroke="black" d="M59.74,-71.7C71.44,-62.8 85.86,-51.82 98.51,-42.2"/>
<polygon fill="black" stroke="black" points="100.68,-44.94 106.52,-36.1 96.44,-39.37 100.68,-44.94"/>
<g id="a_edge1&#45;headlabel"><a xlink:href="dir_000005_000002.html" target="_top" xlink:title="2">
<text text-anchor="middle" x="99.54" y="-46.88" font-family="Helvetica,sans-Serif" font-size="10.00">2</text>
</a>
</g>
</g>
<!-- dir_dc0b191882b5daf0f93e23f58fd2167d&#45;&gt;dir_55be27304aee4fac13a1eb8fc08f58b6 -->
<g id="edge6" class="edge">
<title>dir_dc0b191882b5daf0f93e23f58fd2167d&#45;&gt;dir_55be27304aee4fac13a1eb8fc08f58b6</title>
<path fill="none" stroke="black" d="M150.08,-71.7C146.93,-63.81 143.12,-54.3 139.62,-45.55"/>
<polygon fill="black" stroke="black" points="142.81,-44.09 135.84,-36.1 136.31,-46.69 142.81,-44.09"/>
<g id="a_edge6&#45;headlabel"><a xlink:href="dir_000009_000002.html" target="_top" xlink:title="3">
<text text-anchor="middle" x="146.78" y="-43.87" font-family="Helvetica,sans-Serif" font-size="10.00">3</text>
</a>
</g>
</g>
<!-- dir_807a98d740a8b74acd334e78119f368d&#45;&gt;dir_e4126c157bc9ea7605ccfde84b90c825 -->
<g id="edge8" class="edge">
<title>dir_807a98d740a8b74acd334e78119f368d&#45;&gt;dir_e4126c157bc9ea7605ccfde84b90c825</title>
<path fill="none" stroke="black" d="M212.61,-108.19C200.2,-117.27 183.79,-128.53 168.75,-138.31"/>
<polygon fill="black" stroke="black" points="166.61,-135.52 160.09,-143.88 170.4,-141.41 166.61,-135.52"/>
<g id="a_edge8&#45;headlabel"><a xlink:href="dir_000011_000010.html" target="_top" xlink:title="1">
<text text-anchor="middle" x="168.1" y="-128.69" font-family="Helvetica,sans-Serif" font-size="10.00">1</text>
</a>
</g>
</g>
<!-- dir_807a98d740a8b74acd334e78119f368d&#45;&gt;dir_55be27304aee4fac13a1eb8fc08f58b6 -->
<g id="edge7" class="edge">
<title>dir_807a98d740a8b74acd334e78119f368d&#45;&gt;dir_55be27304aee4fac13a1eb8fc08f58b6</title>
<path fill="none" stroke="black" d="M206.8,-71.88C193.59,-62.89 177.21,-51.76 162.89,-42.03"/>
<polygon fill="black" stroke="black" points="164.53,-38.92 154.29,-36.19 160.6,-44.71 164.53,-38.92"/>
<g id="a_edge7&#45;headlabel"><a xlink:href="dir_000011_000002.html" target="_top" xlink:title="2">
<text text-anchor="middle" x="169.1" y="-36.09" font-family="Helvetica,sans-Serif" font-size="10.00">2</text>
</a>
</g>
</g>
</g>
</svg>
