<?xml version="1.0" encoding="UTF-8" standalone="no"?>
<!DOCTYPE svg PUBLIC "-//W3C//DTD SVG 1.1//EN"
 "http://www.w3.org/Graphics/SVG/1.1/DTD/svg11.dtd">
<!-- Generated by graphviz version 2.43.0 (0)
 -->
<!-- Title: src/NetworkC/Proxy Pages: 1 -->
<svg width="194pt" height="295pt"
 viewBox="0.00 0.00 194.16 295.00" xmlns="http://www.w3.org/2000/svg" xmlns:xlink="http://www.w3.org/1999/xlink">
<g id="graph0" class="graph" transform="scale(1 1) rotate(0) translate(4 291)">
<title>src/NetworkC/Proxy</title>
<polygon fill="white" stroke="transparent" points="-4,4 -4,-291 190.16,-291 190.16,4 -4,4"/>
<g id="clust1" class="cluster">
<title>clusterdir_cba1aa119f8ca2ce6a2213f7cd5265a1</title>
<g id="a_clust1"><a xlink:href="dir_cba1aa119f8ca2ce6a2213f7cd5265a1.html" target="_top" xlink:title="NetworkC">
<polygon fill="#ddddee" stroke="black" points="18.66,-208 18.66,-279 88.66,-279 88.66,-208 18.66,-208"/>
<text text-anchor="middle" x="53.66" y="-267" font-family="Helvetica,sans-Serif" font-size="10.00">NetworkC</text>
</a>
</g>
</g>
<!-- dir_c92f50122f48e2bb52850c7e79cf6e6d -->
<g id="node1" class="node">
<title>dir_c92f50122f48e2bb52850c7e79cf6e6d</title>
<g id="a_node1"><a xlink:href="dir_c92f50122f48e2bb52850c7e79cf6e6d.html" target="_top" xlink:title="Proxy">
<polygon fill="#eeeeff" stroke="black" points="80.66,-252 26.66,-252 26.66,-216 80.66,-216 80.66,-252"/>
<text text-anchor="middle" x="53.66" y="-231.5" font-family="Helvetica,sans-Serif" font-size="10.00">Proxy</text>
</a>
</g>
</g>
<!-- dir_55be27304aee4fac13a1eb8fc08f58b6 -->
<g id="node2" class="node">
<title>dir_55be27304aee4fac13a1eb8fc08f58b6</title>
<g id="a_node2"><a xlink:href="dir_55be27304aee4fac13a1eb8fc08f58b6.html" target="_top" xlink:title="Config">
<polygon fill="none" stroke="black" points="97.66,-36 43.66,-36 43.66,0 97.66,0 97.66,-36"/>
<text text-anchor="middle" x="70.66" y="-15.5" font-family="Helvetica,sans-Serif" font-size="10.00">Config</text>
</a>
</g>
</g>
<!-- dir_c92f50122f48e2bb52850c7e79cf6e6d&#45;&gt;dir_55be27304aee4fac13a1eb8fc08f58b6 -->
<g id="edge1" class="edge">
<title>dir_c92f50122f48e2bb52850c7e79cf6e6d&#45;&gt;dir_55be27304aee4fac13a1eb8fc08f58b6</title>
<path fill="none" stroke="black" d="M41.1,-215.92C20.6,-185.83 -15.52,-121.81 7.66,-72 13.62,-59.2 24.37,-48.38 35.32,-39.93"/>
<polygon fill="black" stroke="black" points="37.58,-42.61 43.65,-33.93 33.49,-36.93 37.58,-42.61"/>
<g id="a_edge1&#45;headlabel"><a xlink:href="dir_000012_000002.html" target="_top" xlink:title="2">
<text text-anchor="middle" x="36.32" y="-44.51" font-family="Helvetica,sans-Serif" font-size="10.00">2</text>
</a>
</g>
</g>
<!-- dir_1f71012bc1d8119e3b4520aa9d5d1166 -->
<g id="node3" class="node">
<title>dir_1f71012bc1d8119e3b4520aa9d5d1166</title>
<g id="a_node3"><a xlink:href="dir_1f71012bc1d8119e3b4520aa9d5d1166.html" target="_top" xlink:title="Carto">
<polygon fill="none" stroke="black" points="70.66,-108 16.66,-108 16.66,-72 70.66,-72 70.66,-108"/>
<text text-anchor="middle" x="43.66" y="-87.5" font-family="Helvetica,sans-Serif" font-size="10.00">Carto</text>
</a>
</g>
</g>
<!-- dir_c92f50122f48e2bb52850c7e79cf6e6d&#45;&gt;dir_1f71012bc1d8119e3b4520aa9d5d1166 -->
<g id="edge2" class="edge">
<title>dir_c92f50122f48e2bb52850c7e79cf6e6d&#45;&gt;dir_1f71012bc1d8119e3b4520aa9d5d1166</title>
<path fill="none" stroke="black" d="M50.51,-215.88C48.75,-205.53 46.7,-192.05 45.66,-180 43.88,-159.34 43.42,-135.89 43.38,-118.25"/>
<polygon fill="black" stroke="black" points="46.88,-118.11 43.4,-108.1 39.88,-118.09 46.88,-118.11"/>
<g id="a_edge2&#45;headlabel"><a xlink:href="dir_000012_000001.html" target="_top" xlink:title="1">
<text text-anchor="middle" x="49.71" y="-119.21" font-family="Helvetica,sans-Serif" font-size="10.00">1</text>
</a>
</g>
</g>
<!-- dir_dc0b191882b5daf0f93e23f58fd2167d -->
<g id="node4" class="node">
<title>dir_dc0b191882b5daf0f93e23f58fd2167d</title>
<g id="a_node4"><a xlink:href="dir_dc0b191882b5daf0f93e23f58fd2167d.html" target="_top" xlink:title="Coder">
<polygon fill="none" stroke="black" points="108.66,-180 54.66,-180 54.66,-144 108.66,-144 108.66,-180"/>
<text text-anchor="middle" x="81.66" y="-159.5" font-family="Helvetica,sans-Serif" font-size="10.00">Coder</text>
</a>
</g>
</g>
<!-- dir_c92f50122f48e2bb52850c7e79cf6e6d&#45;&gt;dir_dc0b191882b5daf0f93e23f58fd2167d -->
<g id="edge3" class="edge">
<title>dir_c92f50122f48e2bb52850c7e79cf6e6d&#45;&gt;dir_dc0b191882b5daf0f93e23f58fd2167d</title>
<path fill="none" stroke="black" d="M60.59,-215.7C63.74,-207.81 67.54,-198.3 71.05,-189.55"/>
<polygon fill="black" stroke="black" points="74.36,-190.69 74.82,-180.1 67.86,-188.09 74.36,-190.69"/>
<g id="a_edge3&#45;headlabel"><a xlink:href="dir_000012_000009.html" target="_top" xlink:title="2">
<text text-anchor="middle" x="75.66" y="-192.58" font-family="Helvetica,sans-Serif" font-size="10.00">2</text>
</a>
</g>
</g>
<!-- dir_807a98d740a8b74acd334e78119f368d -->
<g id="node5" class="node">
<title>dir_807a98d740a8b74acd334e78119f368d</title>
<g id="a_node5"><a xlink:href="dir_807a98d740a8b74acd334e78119f368d.html" target="_top" xlink:title="Postman">
<polygon fill="none" stroke="black" points="186.16,-180 127.16,-180 127.16,-144 186.16,-144 186.16,-180"/>
<text text-anchor="middle" x="156.66" y="-159.5" font-family="Helvetica,sans-Serif" font-size="10.00">Postman</text>
</a>
</g>
</g>
<!-- dir_c92f50122f48e2bb52850c7e79cf6e6d&#45;&gt;dir_807a98d740a8b74acd334e78119f368d -->
<g id="edge4" class="edge">
<title>dir_c92f50122f48e2bb52850c7e79cf6e6d&#45;&gt;dir_807a98d740a8b74acd334e78119f368d</title>
<path fill="none" stroke="black" d="M78.86,-215.88C92.08,-206.89 108.46,-195.76 122.77,-186.03"/>
<polygon fill="black" stroke="black" points="125.07,-188.71 131.37,-180.19 121.13,-182.92 125.07,-188.71"/>
<g id="a_edge4&#45;headlabel"><a xlink:href="dir_000012_000011.html" target="_top" xlink:title="2">
<text text-anchor="middle" x="123.69" y="-190.57" font-family="Helvetica,sans-Serif" font-size="10.00">2</text>
</a>
</g>
</g>
<!-- dir_1f71012bc1d8119e3b4520aa9d5d1166&#45;&gt;dir_55be27304aee4fac13a1eb8fc08f58b6 -->
<g id="edge5" class="edge">
<title>dir_1f71012bc1d8119e3b4520aa9d5d1166&#45;&gt;dir_55be27304aee4fac13a1eb8fc08f58b6</title>
<path fill="none" stroke="black" d="M50.34,-71.7C53.38,-63.81 57.05,-54.3 60.42,-45.55"/>
<polygon fill="black" stroke="black" points="63.73,-46.69 64.07,-36.1 57.2,-44.17 63.73,-46.69"/>
<g id="a_edge5&#45;headlabel"><a xlink:href="dir_000001_000002.html" target="_top" xlink:title="1">
<text text-anchor="middle" x="65.09" y="-48.57" font-family="Helvetica,sans-Serif" font-size="10.00">1</text>
</a>
</g>
</g>
<!-- dir_dc0b191882b5daf0f93e23f58fd2167d&#45;&gt;dir_55be27304aee4fac13a1eb8fc08f58b6 -->
<g id="edge6" class="edge">
<title>dir_dc0b191882b5daf0f93e23f58fd2167d&#45;&gt;dir_55be27304aee4fac13a1eb8fc08f58b6</title>
<path fill="none" stroke="black" d="M82.02,-143.89C82.22,-125.94 82.05,-96.92 79.66,-72 78.85,-63.51 77.47,-54.32 76.03,-46.02"/>
<polygon fill="black" stroke="black" points="79.46,-45.31 74.22,-36.1 72.58,-46.57 79.46,-45.31"/>
<g id="a_edge6&#45;headlabel"><a xlink:href="dir_000009_000002.html" target="_top" xlink:title="3">
<text text-anchor="middle" x="82.9" y="-45.83" font-family="Helvetica,sans-Serif" font-size="10.00">3</text>
</a>
</g>
</g>
<!-- dir_dc0b191882b5daf0f93e23f58fd2167d&#45;&gt;dir_1f71012bc1d8119e3b4520aa9d5d1166 -->
<g id="edge7" class="edge">
<title>dir_dc0b191882b5daf0f93e23f58fd2167d&#45;&gt;dir_1f71012bc1d8119e3b4520aa9d5d1166</title>
<path fill="none" stroke="black" d="M72.27,-143.7C67.9,-135.64 62.61,-125.89 57.77,-116.98"/>
<polygon fill="black" stroke="black" points="60.8,-115.22 52.95,-108.1 54.64,-118.56 60.8,-115.22"/>
<g id="a_edge7&#45;headlabel"><a xlink:href="dir_000009_000001.html" target="_top" xlink:title="1">
<text text-anchor="middle" x="65.01" y="-114.53" font-family="Helvetica,sans-Serif" font-size="10.00">1</text>
</a>
</g>
</g>
<!-- dir_807a98d740a8b74acd334e78119f368d&#45;&gt;dir_55be27304aee4fac13a1eb8fc08f58b6 -->
<g id="edge8" class="edge">
<title>dir_807a98d740a8b74acd334e78119f368d&#45;&gt;dir_55be27304aee4fac13a1eb8fc08f58b6</title>
<path fill="none" stroke="black" d="M146.29,-143.87C131.37,-119.24 103.75,-73.64 86.34,-44.88"/>
<polygon fill="black" stroke="black" points="89.25,-42.93 81.07,-36.19 83.26,-46.56 89.25,-42.93"/>
<g id="a_edge8&#45;headlabel"><a xlink:href="dir_000011_000002.html" target="_top" xlink:title="2">
<text text-anchor="middle" x="93.54" y="-42.03" font-family="Helvetica,sans-Serif" font-size="10.00">2</text>
</a>
</g>
</g>
</g>
</svg>
