<?xml version="1.0" encoding="UTF-8" standalone="no"?>
<!DOCTYPE svg PUBLIC "-//W3C//DTD SVG 1.1//EN"
 "http://www.w3.org/Graphics/SVG/1.1/DTD/svg11.dtd">
<!-- Generated by graphviz version 2.43.0 (0)
 -->
<!-- Title: src/UI Pages: 1 -->
<svg width="115pt" height="223pt"
 viewBox="0.00 0.00 114.50 223.00" xmlns="http://www.w3.org/2000/svg" xmlns:xlink="http://www.w3.org/1999/xlink">
<g id="graph0" class="graph" transform="scale(1 1) rotate(0) translate(4 219)">
<title>src/UI</title>
<polygon fill="white" stroke="transparent" points="-4,4 -4,-219 110.5,-219 110.5,4 -4,4"/>
<g id="clust1" class="cluster">
<title>clusterdir_68267d1309a1af8e8297ef4c3efbcdba</title>
<g id="a_clust1"><a xlink:href="dir_68267d1309a1af8e8297ef4c3efbcdba.html" target="_top" xlink:title="src">
<polygon fill="#ddddee" stroke="black" points="28.5,-136 28.5,-207 98.5,-207 98.5,-136 28.5,-136"/>
<text text-anchor="middle" x="63.5" y="-195" font-family="Helvetica,sans-Serif" font-size="10.00">src</text>
</a>
</g>
</g>
<!-- dir_7ad25bca70c4d3d9103f75d82f41ef94 -->
<g id="node1" class="node">
<title>dir_7ad25bca70c4d3d9103f75d82f41ef94</title>
<g id="a_node1"><a xlink:href="dir_7ad25bca70c4d3d9103f75d82f41ef94.html" target="_top" xlink:title="UI">
<polygon fill="#eeeeff" stroke="black" points="90.5,-180 36.5,-180 36.5,-144 90.5,-144 90.5,-180"/>
<text text-anchor="middle" x="63.5" y="-159.5" font-family="Helvetica,sans-Serif" font-size="10.00">UI</text>
</a>
</g>
</g>
<!-- dir_cba1aa119f8ca2ce6a2213f7cd5265a1 -->
<g id="node2" class="node">
<title>dir_cba1aa119f8ca2ce6a2213f7cd5265a1</title>
<g id="a_node2"><a xlink:href="dir_cba1aa119f8ca2ce6a2213f7cd5265a1.html" target="_top" xlink:title="NetworkC">
<polygon fill="white" stroke="red" points="65,-108 0,-108 0,-72 65,-72 65,-108"/>
<text text-anchor="middle" x="32.5" y="-87.5" font-family="Helvetica,sans-Serif" font-size="10.00">NetworkC</text>
</a>
</g>
</g>
<!-- dir_7ad25bca70c4d3d9103f75d82f41ef94&#45;&gt;dir_cba1aa119f8ca2ce6a2213f7cd5265a1 -->
<g id="edge2" class="edge">
<title>dir_7ad25bca70c4d3d9103f75d82f41ef94&#45;&gt;dir_cba1aa119f8ca2ce6a2213f7cd5265a1</title>
<path fill="none" stroke="black" d="M55.84,-143.7C52.31,-135.73 48.04,-126.1 44.13,-117.26"/>
<polygon fill="black" stroke="black" points="47.32,-115.83 40.07,-108.1 40.92,-118.67 47.32,-115.83"/>
<g id="a_edge2&#45;headlabel"><a xlink:href="dir_000013_000008.html" target="_top" xlink:title="1">
<text text-anchor="middle" x="51.38" y="-115.47" font-family="Helvetica,sans-Serif" font-size="10.00">1</text>
</a>
</g>
</g>
<!-- dir_55be27304aee4fac13a1eb8fc08f58b6 -->
<g id="node3" class="node">
<title>dir_55be27304aee4fac13a1eb8fc08f58b6</title>
<g id="a_node3"><a xlink:href="dir_55be27304aee4fac13a1eb8fc08f58b6.html" target="_top" xlink:title="Config">
<polygon fill="none" stroke="black" points="89.5,-36 35.5,-36 35.5,0 89.5,0 89.5,-36"/>
<text text-anchor="middle" x="62.5" y="-15.5" font-family="Helvetica,sans-Serif" font-size="10.00">Config</text>
</a>
</g>
</g>
<!-- dir_7ad25bca70c4d3d9103f75d82f41ef94&#45;&gt;dir_55be27304aee4fac13a1eb8fc08f58b6 -->
<g id="edge3" class="edge">
<title>dir_7ad25bca70c4d3d9103f75d82f41ef94&#45;&gt;dir_55be27304aee4fac13a1eb8fc08f58b6</title>
<path fill="none" stroke="black" d="M67.96,-143.95C70.44,-133.63 73.25,-120.15 74.5,-108 76.13,-92.08 76.28,-87.9 74.5,-72 73.54,-63.43 71.74,-54.22 69.81,-45.93"/>
<polygon fill="black" stroke="black" points="73.16,-44.89 67.37,-36.02 66.37,-46.57 73.16,-44.89"/>
<g id="a_edge3&#45;headlabel"><a xlink:href="dir_000013_000002.html" target="_top" xlink:title="1">
<text text-anchor="middle" x="76.78" y="-45.2" font-family="Helvetica,sans-Serif" font-size="10.00">1</text>
</a>
</g>
</g>
<!-- dir_cba1aa119f8ca2ce6a2213f7cd5265a1&#45;&gt;dir_55be27304aee4fac13a1eb8fc08f58b6 -->
<g id="edge1" class="edge">
<title>dir_cba1aa119f8ca2ce6a2213f7cd5265a1&#45;&gt;dir_55be27304aee4fac13a1eb8fc08f58b6</title>
<path fill="none" stroke="black" d="M39.92,-71.7C43.29,-63.81 47.37,-54.3 51.12,-45.55"/>
<polygon fill="black" stroke="black" points="54.45,-46.67 55.17,-36.1 48.01,-43.92 54.45,-46.67"/>
<g id="a_edge1&#45;headlabel"><a xlink:href="dir_000008_000002.html" target="_top" xlink:title="9">
<text text-anchor="middle" x="55.64" y="-48.6" font-family="Helvetica,sans-Serif" font-size="10.00">9</text>
</a>
</g>
</g>
</g>
</svg>
