<?xml version="1.0" encoding="UTF-8" standalone="no"?>
<!DOCTYPE svg PUBLIC "-//W3C//DTD SVG 1.1//EN"
 "http://www.w3.org/Graphics/SVG/1.1/DTD/svg11.dtd">
<!-- Generated by graphviz version 2.43.0 (0)
 -->
<!-- Title: src/Geographer Pages: 1 -->
<svg width="407pt" height="295pt"
 viewBox="0.00 0.00 407.21 295.00" xmlns="http://www.w3.org/2000/svg" xmlns:xlink="http://www.w3.org/1999/xlink">
<g id="graph0" class="graph" transform="scale(1 1) rotate(0) translate(4 291)">
<title>src/Geographer</title>
<polygon fill="white" stroke="transparent" points="-4,4 -4,-291 403.21,-291 403.21,4 -4,4"/>
<g id="clust1" class="cluster">
<title>clusterdir_68267d1309a1af8e8297ef4c3efbcdba</title>
<g id="a_clust1"><a xlink:href="dir_68267d1309a1af8e8297ef4c3efbcdba.html" target="_top" xlink:title="src">
<polygon fill="#ddddee" stroke="black" points="170,-208 170,-279 260,-279 260,-208 170,-208"/>
<text text-anchor="middle" x="215" y="-267" font-family="Helvetica,sans-Serif" font-size="10.00">src</text>
</a>
</g>
</g>
<!-- dir_ab9403a3c36b3efe9fa21f69a7d0ee55 -->
<g id="node1" class="node">
<title>dir_ab9403a3c36b3efe9fa21f69a7d0ee55</title>
<g id="a_node1"><a xlink:href="dir_ab9403a3c36b3efe9fa21f69a7d0ee55.html" target="_top" xlink:title="Geographer">
<polygon fill="#eeeeff" stroke="black" points="252,-252 178,-252 178,-216 252,-216 252,-252"/>
<text text-anchor="middle" x="215" y="-231.5" font-family="Helvetica,sans-Serif" font-size="10.00">Geographer</text>
</a>
</g>
</g>
<!-- dir_9c9eb3fb530f23e4830814b2ac5d708d -->
<g id="node2" class="node">
<title>dir_9c9eb3fb530f23e4830814b2ac5d708d</title>
<g id="a_node2"><a xlink:href="dir_9c9eb3fb530f23e4830814b2ac5d708d.html" target="_top" xlink:title="LiDAR">
<polygon fill="none" stroke="black" points="164,-180 110,-180 110,-144 164,-144 164,-180"/>
<text text-anchor="middle" x="137" y="-159.5" font-family="Helvetica,sans-Serif" font-size="10.00">LiDAR</text>
</a>
</g>
</g>
<!-- dir_ab9403a3c36b3efe9fa21f69a7d0ee55&#45;&gt;dir_9c9eb3fb530f23e4830814b2ac5d708d -->
<g id="edge1" class="edge">
<title>dir_ab9403a3c36b3efe9fa21f69a7d0ee55&#45;&gt;dir_9c9eb3fb530f23e4830814b2ac5d708d</title>
<path fill="none" stroke="black" d="M189.8,-215.7C179.38,-207.14 167.52,-196.66 157.62,-187.3"/>
<polygon fill="black" stroke="black" points="159.79,-184.53 150.16,-180.1 154.93,-189.57 159.79,-184.53"/>
<g id="a_edge1&#45;headlabel"><a xlink:href="dir_000005_000006.html" target="_top" xlink:title="1">
<text text-anchor="middle" x="164.35" y="-182.49" font-family="Helvetica,sans-Serif" font-size="10.00">1</text>
</a>
</g>
</g>
<!-- dir_cba1aa119f8ca2ce6a2213f7cd5265a1 -->
<g id="node3" class="node">
<title>dir_cba1aa119f8ca2ce6a2213f7cd5265a1</title>
<g id="a_node3"><a xlink:href="dir_cba1aa119f8ca2ce6a2213f7cd5265a1.html" target="_top" xlink:title="NetworkC">
<polygon fill="white" stroke="red" points="247.5,-180 182.5,-180 182.5,-144 247.5,-144 247.5,-180"/>
<text text-anchor="middle" x="215" y="-159.5" font-family="Helvetica,sans-Serif" font-size="10.00">NetworkC</text>
</a>
</g>
</g>
<!-- dir_ab9403a3c36b3efe9fa21f69a7d0ee55&#45;&gt;dir_cba1aa119f8ca2ce6a2213f7cd5265a1 -->
<g id="edge2" class="edge">
<title>dir_ab9403a3c36b3efe9fa21f69a7d0ee55&#45;&gt;dir_cba1aa119f8ca2ce6a2213f7cd5265a1</title>
<path fill="none" stroke="black" d="M215,-215.7C215,-207.98 215,-198.71 215,-190.11"/>
<polygon fill="black" stroke="black" points="218.5,-190.1 215,-180.1 211.5,-190.1 218.5,-190.1"/>
<g id="a_edge2&#45;headlabel"><a xlink:href="dir_000005_000008.html" target="_top" xlink:title="2">
<text text-anchor="middle" x="221.34" y="-191.2" font-family="Helvetica,sans-Serif" font-size="10.00">2</text>
</a>
</g>
</g>
<!-- dir_55be27304aee4fac13a1eb8fc08f58b6 -->
<g id="node4" class="node">
<title>dir_55be27304aee4fac13a1eb8fc08f58b6</title>
<g id="a_node4"><a xlink:href="dir_55be27304aee4fac13a1eb8fc08f58b6.html" target="_top" xlink:title="Config">
<polygon fill="none" stroke="black" points="242,-36 188,-36 188,0 242,0 242,-36"/>
<text text-anchor="middle" x="215" y="-15.5" font-family="Helvetica,sans-Serif" font-size="10.00">Config</text>
</a>
</g>
</g>
<!-- dir_ab9403a3c36b3efe9fa21f69a7d0ee55&#45;&gt;dir_55be27304aee4fac13a1eb8fc08f58b6 -->
<g id="edge3" class="edge">
<title>dir_ab9403a3c36b3efe9fa21f69a7d0ee55&#45;&gt;dir_55be27304aee4fac13a1eb8fc08f58b6</title>
<path fill="none" stroke="black" d="M177.78,-226.52C151.39,-219.77 117.78,-206.31 101,-180 68.54,-129.11 134.81,-71.98 179.25,-41.32"/>
<polygon fill="black" stroke="black" points="181.48,-44.04 187.81,-35.55 177.56,-38.24 181.48,-44.04"/>
<g id="a_edge3&#45;headlabel"><a xlink:href="dir_000005_000002.html" target="_top" xlink:title="2">
<text text-anchor="middle" x="180.08" y="-45.91" font-family="Helvetica,sans-Serif" font-size="10.00">2</text>
</a>
</g>
</g>
<!-- dir_1f71012bc1d8119e3b4520aa9d5d1166 -->
<g id="node5" class="node">
<title>dir_1f71012bc1d8119e3b4520aa9d5d1166</title>
<g id="a_node5"><a xlink:href="dir_1f71012bc1d8119e3b4520aa9d5d1166.html" target="_top" xlink:title="Carto">
<polygon fill="none" stroke="black" points="300,-108 246,-108 246,-72 300,-72 300,-108"/>
<text text-anchor="middle" x="273" y="-87.5" font-family="Helvetica,sans-Serif" font-size="10.00">Carto</text>
</a>
</g>
</g>
<!-- dir_ab9403a3c36b3efe9fa21f69a7d0ee55&#45;&gt;dir_1f71012bc1d8119e3b4520aa9d5d1166 -->
<g id="edge4" class="edge">
<title>dir_ab9403a3c36b3efe9fa21f69a7d0ee55&#45;&gt;dir_1f71012bc1d8119e3b4520aa9d5d1166</title>
<path fill="none" stroke="black" d="M232.21,-215.84C240.97,-206.12 251.01,-193.27 257,-180 265.81,-160.47 269.78,-136.48 271.56,-118.32"/>
<polygon fill="black" stroke="black" points="275.06,-118.38 272.39,-108.13 268.09,-117.81 275.06,-118.38"/>
<g id="a_edge4&#45;headlabel"><a xlink:href="dir_000005_000001.html" target="_top" xlink:title="1">
<text text-anchor="middle" x="277.6" y="-119.7" font-family="Helvetica,sans-Serif" font-size="10.00">1</text>
</a>
</g>
</g>
<!-- dir_c33a89c1be32644aa250aa503f5b43a8 -->
<g id="node6" class="node">
<title>dir_c33a89c1be32644aa250aa503f5b43a8</title>
<g id="a_node6"><a xlink:href="dir_c33a89c1be32644aa250aa503f5b43a8.html" target="_top" xlink:title="Converter">
<polygon fill="none" stroke="black" points="369.5,-180 304.5,-180 304.5,-144 369.5,-144 369.5,-180"/>
<text text-anchor="middle" x="337" y="-159.5" font-family="Helvetica,sans-Serif" font-size="10.00">Converter</text>
</a>
</g>
</g>
<!-- dir_ab9403a3c36b3efe9fa21f69a7d0ee55&#45;&gt;dir_c33a89c1be32644aa250aa503f5b43a8 -->
<g id="edge5" class="edge">
<title>dir_ab9403a3c36b3efe9fa21f69a7d0ee55&#45;&gt;dir_c33a89c1be32644aa250aa503f5b43a8</title>
<path fill="none" stroke="black" d="M238.95,-215.88C255.02,-206.07 276.48,-193.7 295.27,-183.39"/>
<polygon fill="black" stroke="black" points="297.13,-186.36 304.24,-178.51 293.79,-180.21 297.13,-186.36"/>
<g id="a_edge5&#45;headlabel"><a xlink:href="dir_000005_000003.html" target="_top" xlink:title="1">
<text text-anchor="middle" x="295.32" y="-188.07" font-family="Helvetica,sans-Serif" font-size="10.00">1</text>
</a>
</g>
</g>
<!-- dir_f09f6eb2923b2efc6cbc9c192587d945 -->
<g id="node7" class="node">
<title>dir_f09f6eb2923b2efc6cbc9c192587d945</title>
<g id="a_node7"><a xlink:href="dir_f09f6eb2923b2efc6cbc9c192587d945.html" target="_top" xlink:title="Folder">
<polygon fill="none" stroke="black" points="394,-252 340,-252 340,-216 394,-216 394,-252"/>
<text text-anchor="middle" x="367" y="-231.5" font-family="Helvetica,sans-Serif" font-size="10.00">Folder</text>
</a>
</g>
</g>
<!-- dir_ab9403a3c36b3efe9fa21f69a7d0ee55&#45;&gt;dir_f09f6eb2923b2efc6cbc9c192587d945 -->
<g id="edge6" class="edge">
<title>dir_ab9403a3c36b3efe9fa21f69a7d0ee55&#45;&gt;dir_f09f6eb2923b2efc6cbc9c192587d945</title>
<path fill="none" stroke="black" d="M252.11,-234C277.86,-234 303.62,-234 329.37,-234"/>
<polygon fill="black" stroke="black" points="329.62,-237.5 339.62,-234 329.62,-230.5 329.62,-237.5"/>
<g id="a_edge6&#45;headlabel"><a xlink:href="dir_000005_000004.html" target="_top" xlink:title="1">
<text text-anchor="middle" x="326.03" y="-237.84" font-family="Helvetica,sans-Serif" font-size="10.00">1</text>
</a>
</g>
</g>
<!-- dir_0a41b9683b5d2ca453c05d42ca8955c7 -->
<g id="node8" class="node">
<title>dir_0a41b9683b5d2ca453c05d42ca8955c7</title>
<g id="a_node8"><a xlink:href="dir_0a41b9683b5d2ca453c05d42ca8955c7.html" target="_top" xlink:title="Merger">
<polygon fill="none" stroke="black" points="54,-180 0,-180 0,-144 54,-144 54,-180"/>
<text text-anchor="middle" x="27" y="-159.5" font-family="Helvetica,sans-Serif" font-size="10.00">Merger</text>
</a>
</g>
</g>
<!-- dir_ab9403a3c36b3efe9fa21f69a7d0ee55&#45;&gt;dir_0a41b9683b5d2ca453c05d42ca8955c7 -->
<g id="edge7" class="edge">
<title>dir_ab9403a3c36b3efe9fa21f69a7d0ee55&#45;&gt;dir_0a41b9683b5d2ca453c05d42ca8955c7</title>
<path fill="none" stroke="black" d="M177.86,-222.55C148.14,-212.88 105.6,-197.84 63.68,-181.77"/>
<polygon fill="black" stroke="black" points="64.78,-178.44 54.19,-178.11 62.26,-184.97 64.78,-178.44"/>
<g id="a_edge7&#45;headlabel"><a xlink:href="dir_000005_000007.html" target="_top" xlink:title="1">
<text text-anchor="middle" x="69.15" y="-174.59" font-family="Helvetica,sans-Serif" font-size="10.00">1</text>
</a>
</g>
</g>
<!-- dir_9c9eb3fb530f23e4830814b2ac5d708d&#45;&gt;dir_ab9403a3c36b3efe9fa21f69a7d0ee55 -->
<g id="edge8" class="edge">
<title>dir_9c9eb3fb530f23e4830814b2ac5d708d&#45;&gt;dir_ab9403a3c36b3efe9fa21f69a7d0ee55</title>
<path fill="none" stroke="black" d="M161.95,-180.1C172.35,-188.64 184.22,-199.11 194.15,-208.48"/>
<polygon fill="black" stroke="black" points="192.01,-211.27 201.63,-215.7 196.87,-206.24 192.01,-211.27"/>
<g id="a_edge8&#45;headlabel"><a xlink:href="dir_000006_000005.html" target="_top" xlink:title="1">
<text text-anchor="middle" x="187.45" y="-208.32" font-family="Helvetica,sans-Serif" font-size="10.00">1</text>
</a>
</g>
</g>
<!-- dir_9c9eb3fb530f23e4830814b2ac5d708d&#45;&gt;dir_55be27304aee4fac13a1eb8fc08f58b6 -->
<g id="edge9" class="edge">
<title>dir_9c9eb3fb530f23e4830814b2ac5d708d&#45;&gt;dir_55be27304aee4fac13a1eb8fc08f58b6</title>
<path fill="none" stroke="black" d="M146.41,-143.87C159.88,-119.35 184.77,-74.03 200.58,-45.26"/>
<polygon fill="black" stroke="black" points="203.81,-46.64 205.56,-36.19 197.68,-43.27 203.81,-46.64"/>
<g id="a_edge9&#45;headlabel"><a xlink:href="dir_000006_000002.html" target="_top" xlink:title="2">
<text text-anchor="middle" x="204.57" y="-48.66" font-family="Helvetica,sans-Serif" font-size="10.00">2</text>
</a>
</g>
</g>
<!-- dir_cba1aa119f8ca2ce6a2213f7cd5265a1&#45;&gt;dir_55be27304aee4fac13a1eb8fc08f58b6 -->
<g id="edge10" class="edge">
<title>dir_cba1aa119f8ca2ce6a2213f7cd5265a1&#45;&gt;dir_55be27304aee4fac13a1eb8fc08f58b6</title>
<path fill="none" stroke="black" d="M215,-143.87C215,-119.67 215,-75.21 215,-46.39"/>
<polygon fill="black" stroke="black" points="218.5,-46.19 215,-36.19 211.5,-46.19 218.5,-46.19"/>
<g id="a_edge10&#45;headlabel"><a xlink:href="dir_000008_000002.html" target="_top" xlink:title="9">
<text text-anchor="middle" x="221.34" y="-47.28" font-family="Helvetica,sans-Serif" font-size="10.00">9</text>
</a>
</g>
</g>
<!-- dir_cba1aa119f8ca2ce6a2213f7cd5265a1&#45;&gt;dir_1f71012bc1d8119e3b4520aa9d5d1166 -->
<g id="edge11" class="edge">
<title>dir_cba1aa119f8ca2ce6a2213f7cd5265a1&#45;&gt;dir_1f71012bc1d8119e3b4520aa9d5d1166</title>
<path fill="none" stroke="black" d="M229.34,-143.7C236.29,-135.3 244.77,-125.07 252.4,-115.86"/>
<polygon fill="black" stroke="black" points="255.14,-118.04 258.83,-108.1 249.75,-113.57 255.14,-118.04"/>
<g id="a_edge11&#45;headlabel"><a xlink:href="dir_000008_000001.html" target="_top" xlink:title="2">
<text text-anchor="middle" x="255.04" y="-120.12" font-family="Helvetica,sans-Serif" font-size="10.00">2</text>
</a>
</g>
</g>
<!-- dir_1f71012bc1d8119e3b4520aa9d5d1166&#45;&gt;dir_55be27304aee4fac13a1eb8fc08f58b6 -->
<g id="edge12" class="edge">
<title>dir_1f71012bc1d8119e3b4520aa9d5d1166&#45;&gt;dir_55be27304aee4fac13a1eb8fc08f58b6</title>
<path fill="none" stroke="black" d="M258.66,-71.7C251.71,-63.3 243.23,-53.07 235.6,-43.86"/>
<polygon fill="black" stroke="black" points="238.25,-41.57 229.17,-36.1 232.86,-46.04 238.25,-41.57"/>
<g id="a_edge12&#45;headlabel"><a xlink:href="dir_000001_000002.html" target="_top" xlink:title="1">
<text text-anchor="middle" x="242.73" y="-40.03" font-family="Helvetica,sans-Serif" font-size="10.00">1</text>
</a>
</g>
</g>
<!-- dir_c33a89c1be32644aa250aa503f5b43a8&#45;&gt;dir_ab9403a3c36b3efe9fa21f69a7d0ee55 -->
<g id="edge13" class="edge">
<title>dir_c33a89c1be32644aa250aa503f5b43a8&#45;&gt;dir_ab9403a3c36b3efe9fa21f69a7d0ee55</title>
<path fill="none" stroke="black" d="M312.94,-180.19C297.79,-189.44 277.87,-200.95 259.92,-210.86"/>
<polygon fill="black" stroke="black" points="257.84,-208.01 250.74,-215.88 261.19,-214.15 257.84,-208.01"/>
<g id="a_edge13&#45;headlabel"><a xlink:href="dir_000003_000005.html" target="_top" xlink:title="1">
<text text-anchor="middle" x="259.63" y="-201.29" font-family="Helvetica,sans-Serif" font-size="10.00">1</text>
</a>
</g>
</g>
<!-- dir_c33a89c1be32644aa250aa503f5b43a8&#45;&gt;dir_55be27304aee4fac13a1eb8fc08f58b6 -->
<g id="edge14" class="edge">
<title>dir_c33a89c1be32644aa250aa503f5b43a8&#45;&gt;dir_55be27304aee4fac13a1eb8fc08f58b6</title>
<path fill="none" stroke="black" d="M335.38,-143.83C332.76,-124.49 326.03,-93.02 309,-72 294.1,-53.61 271.01,-40.47 251.45,-31.87"/>
<polygon fill="black" stroke="black" points="252.76,-28.62 242.18,-28.01 250.07,-35.08 252.76,-28.62"/>
<g id="a_edge14&#45;headlabel"><a xlink:href="dir_000003_000002.html" target="_top" xlink:title="1">
<text text-anchor="middle" x="257.17" y="-24.88" font-family="Helvetica,sans-Serif" font-size="10.00">1</text>
</a>
</g>
</g>
<!-- dir_f09f6eb2923b2efc6cbc9c192587d945&#45;&gt;dir_ab9403a3c36b3efe9fa21f69a7d0ee55 -->
<g id="edge15" class="edge">
<title>dir_f09f6eb2923b2efc6cbc9c192587d945&#45;&gt;dir_ab9403a3c36b3efe9fa21f69a7d0ee55</title>
<path fill="none" stroke="black" d="M339.62,-234C313.87,-234 288.12,-234 262.36,-234"/>
<polygon fill="black" stroke="black" points="262.11,-230.5 252.11,-234 262.11,-237.5 262.11,-230.5"/>
<g id="a_edge15&#45;headlabel"><a xlink:href="dir_000004_000005.html" target="_top" xlink:title="1">
<text text-anchor="middle" x="265.7" y="-225.16" font-family="Helvetica,sans-Serif" font-size="10.00">1</text>
</a>
</g>
</g>
<!-- dir_f09f6eb2923b2efc6cbc9c192587d945&#45;&gt;dir_55be27304aee4fac13a1eb8fc08f58b6 -->
<g id="edge16" class="edge">
<title>dir_f09f6eb2923b2efc6cbc9c192587d945&#45;&gt;dir_55be27304aee4fac13a1eb8fc08f58b6</title>
<path fill="none" stroke="black" d="M379.64,-215.77C391.26,-197.71 405.36,-168.61 396,-144 372.42,-81.98 297.47,-46.56 251.74,-30.21"/>
<polygon fill="black" stroke="black" points="252.78,-26.87 242.18,-26.92 250.5,-33.48 252.78,-26.87"/>
<g id="a_edge16&#45;headlabel"><a xlink:href="dir_000004_000002.html" target="_top" xlink:title="2">
<text text-anchor="middle" x="257.1" y="-22.85" font-family="Helvetica,sans-Serif" font-size="10.00">2</text>
</a>
</g>
</g>
<!-- dir_f09f6eb2923b2efc6cbc9c192587d945&#45;&gt;dir_1f71012bc1d8119e3b4520aa9d5d1166 -->
<g id="edge17" class="edge">
<title>dir_f09f6eb2923b2efc6cbc9c192587d945&#45;&gt;dir_1f71012bc1d8119e3b4520aa9d5d1166</title>
<path fill="none" stroke="black" d="M375.45,-215.9C383.52,-196.9 392.61,-166.02 379,-144 363.98,-119.7 334.06,-106.16 309.83,-98.87"/>
<polygon fill="black" stroke="black" points="310.77,-95.5 300.19,-96.2 308.9,-102.24 310.77,-95.5"/>
<g id="a_edge17&#45;headlabel"><a xlink:href="dir_000004_000001.html" target="_top" xlink:title="1">
<text text-anchor="middle" x="314.99" y="-91.22" font-family="Helvetica,sans-Serif" font-size="10.00">1</text>
</a>
</g>
</g>
<!-- dir_f09f6eb2923b2efc6cbc9c192587d945&#45;&gt;dir_c33a89c1be32644aa250aa503f5b43a8 -->
<g id="edge18" class="edge">
<title>dir_f09f6eb2923b2efc6cbc9c192587d945&#45;&gt;dir_c33a89c1be32644aa250aa503f5b43a8</title>
<path fill="none" stroke="black" d="M359.58,-215.7C356.21,-207.81 352.13,-198.3 348.38,-189.55"/>
<polygon fill="black" stroke="black" points="351.49,-187.92 344.33,-180.1 345.05,-190.67 351.49,-187.92"/>
<g id="a_edge18&#45;headlabel"><a xlink:href="dir_000004_000003.html" target="_top" xlink:title="1">
<text text-anchor="middle" x="355.51" y="-187.6" font-family="Helvetica,sans-Serif" font-size="10.00">1</text>
</a>
</g>
</g>
<!-- dir_0a41b9683b5d2ca453c05d42ca8955c7&#45;&gt;dir_ab9403a3c36b3efe9fa21f69a7d0ee55 -->
<g id="edge19" class="edge">
<title>dir_0a41b9683b5d2ca453c05d42ca8955c7&#45;&gt;dir_ab9403a3c36b3efe9fa21f69a7d0ee55</title>
<path fill="none" stroke="black" d="M54.13,-170.97C61.67,-173.89 69.67,-177.16 77,-180 107.3,-191.74 141.43,-204.1 168.25,-213.92"/>
<polygon fill="black" stroke="black" points="167.19,-217.26 177.78,-217.42 169.6,-210.69 167.19,-217.26"/>
<g id="a_edge19&#45;headlabel"><a xlink:href="dir_000007_000005.html" target="_top" xlink:title="1">
<text text-anchor="middle" x="162.83" y="-216.19" font-family="Helvetica,sans-Serif" font-size="10.00">1</text>
</a>
</g>
</g>
<!-- dir_0a41b9683b5d2ca453c05d42ca8955c7&#45;&gt;dir_55be27304aee4fac13a1eb8fc08f58b6 -->
<g id="edge20" class="edge">
<title>dir_0a41b9683b5d2ca453c05d42ca8955c7&#45;&gt;dir_55be27304aee4fac13a1eb8fc08f58b6</title>
<path fill="none" stroke="black" d="M30.65,-143.89C35.74,-124 46.82,-91.44 68,-72 98.66,-43.86 145.36,-30.41 177.86,-24.16"/>
<polygon fill="black" stroke="black" points="178.65,-27.57 187.88,-22.37 177.42,-20.68 178.65,-27.57"/>
<g id="a_edge20&#45;headlabel"><a xlink:href="dir_000007_000002.html" target="_top" xlink:title="1">
<text text-anchor="middle" x="175.61" y="-28.5" font-family="Helvetica,sans-Serif" font-size="10.00">1</text>
</a>
</g>
</g>
</g>
</svg>
