<?xml version="1.0" encoding="UTF-8" standalone="no"?>
<!DOCTYPE svg PUBLIC "-//W3C//DTD SVG 1.1//EN"
 "http://www.w3.org/Graphics/SVG/1.1/DTD/svg11.dtd">
<!-- Generated by graphviz version 2.43.0 (0)
 -->
<!-- Title: src/Merger Pages: 1 -->
<svg width="170pt" height="151pt"
 viewBox="0.00 0.00 170.00 151.00" xmlns="http://www.w3.org/2000/svg" xmlns:xlink="http://www.w3.org/1999/xlink">
<g id="graph0" class="graph" transform="scale(1 1) rotate(0) translate(4 147)">
<title>src/Merger</title>
<polygon fill="white" stroke="transparent" points="-4,4 -4,-147 166,-147 166,4 -4,4"/>
<g id="clust1" class="cluster">
<title>clusterdir_68267d1309a1af8e8297ef4c3efbcdba</title>
<g id="a_clust1"><a xlink:href="dir_68267d1309a1af8e8297ef4c3efbcdba.html" target="_top" xlink:title="src">
<polygon fill="#ddddee" stroke="black" points="8,-64 8,-135 78,-135 78,-64 8,-64"/>
<text text-anchor="middle" x="43" y="-123" font-family="Helvetica,sans-Serif" font-size="10.00">src</text>
</a>
</g>
</g>
<!-- dir_0a41b9683b5d2ca453c05d42ca8955c7 -->
<g id="node1" class="node">
<title>dir_0a41b9683b5d2ca453c05d42ca8955c7</title>
<g id="a_node1"><a xlink:href="dir_0a41b9683b5d2ca453c05d42ca8955c7.html" target="_top" xlink:title="Merger">
<polygon fill="#eeeeff" stroke="black" points="70,-108 16,-108 16,-72 70,-72 70,-108"/>
<text text-anchor="middle" x="43" y="-87.5" font-family="Helvetica,sans-Serif" font-size="10.00">Merger</text>
</a>
</g>
</g>
<!-- dir_ab9403a3c36b3efe9fa21f69a7d0ee55 -->
<g id="node2" class="node">
<title>dir_ab9403a3c36b3efe9fa21f69a7d0ee55</title>
<g id="a_node2"><a xlink:href="dir_ab9403a3c36b3efe9fa21f69a7d0ee55.html" target="_top" xlink:title="Geographer">
<polygon fill="none" stroke="black" points="162,-108 88,-108 88,-72 162,-72 162,-108"/>
<text text-anchor="middle" x="125" y="-87.5" font-family="Helvetica,sans-Serif" font-size="10.00">Geographer</text>
</a>
</g>
</g>
<!-- dir_0a41b9683b5d2ca453c05d42ca8955c7&#45;&gt;dir_ab9403a3c36b3efe9fa21f69a7d0ee55 -->
<g id="edge3" class="edge">
<title>dir_0a41b9683b5d2ca453c05d42ca8955c7&#45;&gt;dir_ab9403a3c36b3efe9fa21f69a7d0ee55</title>
<path fill="none" stroke="black" d="M70.23,-90C72.69,-90 75.16,-90 77.63,-90"/>
<polygon fill="black" stroke="black" points="77.77,-93.5 87.77,-90 77.77,-86.5 77.77,-93.5"/>
<g id="a_edge3&#45;headlabel"><a xlink:href="dir_000007_000005.html" target="_top" xlink:title="1">
<text text-anchor="middle" x="74.18" y="-93.84" font-family="Helvetica,sans-Serif" font-size="10.00">1</text>
</a>
</g>
</g>
<!-- dir_55be27304aee4fac13a1eb8fc08f58b6 -->
<g id="node3" class="node">
<title>dir_55be27304aee4fac13a1eb8fc08f58b6</title>
<g id="a_node3"><a xlink:href="dir_55be27304aee4fac13a1eb8fc08f58b6.html" target="_top" xlink:title="Config">
<polygon fill="none" stroke="black" points="111,-36 57,-36 57,0 111,0 111,-36"/>
<text text-anchor="middle" x="84" y="-15.5" font-family="Helvetica,sans-Serif" font-size="10.00">Config</text>
</a>
</g>
</g>
<!-- dir_0a41b9683b5d2ca453c05d42ca8955c7&#45;&gt;dir_55be27304aee4fac13a1eb8fc08f58b6 -->
<g id="edge4" class="edge">
<title>dir_0a41b9683b5d2ca453c05d42ca8955c7&#45;&gt;dir_55be27304aee4fac13a1eb8fc08f58b6</title>
<path fill="none" stroke="black" d="M53.13,-71.7C57.85,-63.64 63.56,-53.89 68.78,-44.98"/>
<polygon fill="black" stroke="black" points="71.95,-46.5 73.98,-36.1 65.91,-42.96 71.95,-46.5"/>
<g id="a_edge4&#45;headlabel"><a xlink:href="dir_000007_000002.html" target="_top" xlink:title="1">
<text text-anchor="middle" x="72.58" y="-48.54" font-family="Helvetica,sans-Serif" font-size="10.00">1</text>
</a>
</g>
</g>
<!-- dir_ab9403a3c36b3efe9fa21f69a7d0ee55&#45;&gt;dir_0a41b9683b5d2ca453c05d42ca8955c7 -->
<g id="edge2" class="edge">
<title>dir_ab9403a3c36b3efe9fa21f69a7d0ee55&#45;&gt;dir_0a41b9683b5d2ca453c05d42ca8955c7</title>
<path fill="none" stroke="black" d="M87.77,-90C85.3,-90 82.84,-90 80.37,-90"/>
<polygon fill="black" stroke="black" points="80.23,-86.5 70.23,-90 80.23,-93.5 80.23,-86.5"/>
<g id="a_edge2&#45;headlabel"><a xlink:href="dir_000005_000007.html" target="_top" xlink:title="1">
<text text-anchor="middle" x="83.82" y="-81.16" font-family="Helvetica,sans-Serif" font-size="10.00">1</text>
</a>
</g>
</g>
<!-- dir_ab9403a3c36b3efe9fa21f69a7d0ee55&#45;&gt;dir_55be27304aee4fac13a1eb8fc08f58b6 -->
<g id="edge1" class="edge">
<title>dir_ab9403a3c36b3efe9fa21f69a7d0ee55&#45;&gt;dir_55be27304aee4fac13a1eb8fc08f58b6</title>
<path fill="none" stroke="black" d="M114.87,-71.7C110.15,-63.64 104.44,-53.89 99.22,-44.98"/>
<polygon fill="black" stroke="black" points="102.09,-42.96 94.02,-36.1 96.05,-46.5 102.09,-42.96"/>
<g id="a_edge1&#45;headlabel"><a xlink:href="dir_000005_000002.html" target="_top" xlink:title="2">
<text text-anchor="middle" x="106.36" y="-42.13" font-family="Helvetica,sans-Serif" font-size="10.00">2</text>
</a>
</g>
</g>
</g>
</svg>
