<?xml version="1.0" encoding="UTF-8" standalone="no"?>
<!DOCTYPE svg PUBLIC "-//W3C//DTD SVG 1.1//EN"
 "http://www.w3.org/Graphics/SVG/1.1/DTD/svg11.dtd">
<!-- Generated by graphviz version 2.43.0 (0)
 -->
<!-- Title: src/NetworkC Pages: 1 -->
<svg width="305pt" height="339pt"
 viewBox="0.00 0.00 305.38 339.00" xmlns="http://www.w3.org/2000/svg" xmlns:xlink="http://www.w3.org/1999/xlink">
<g id="graph0" class="graph" transform="scale(1 1) rotate(0) translate(4 335)">
<title>src/NetworkC</title>
<polygon fill="white" stroke="transparent" points="-4,4 -4,-335 301.38,-335 301.38,4 -4,4"/>
<g id="clust1" class="cluster">
<title>clusterdir_68267d1309a1af8e8297ef4c3efbcdba</title>
<g id="a_clust1"><a xlink:href="dir_68267d1309a1af8e8297ef4c3efbcdba.html" target="_top" xlink:title="src">
<polygon fill="#ddddee" stroke="black" points="18.47,-128 18.47,-287 275.47,-287 275.47,-128 18.47,-128"/>
<text text-anchor="middle" x="146.97" y="-275" font-family="Helvetica,sans-Serif" font-size="10.00">src</text>
</a>
</g>
</g>
<g id="clust2" class="cluster">
<title>clusterdir_cba1aa119f8ca2ce6a2213f7cd5265a1</title>
<g id="a_clust2"><a xlink:href="dir_cba1aa119f8ca2ce6a2213f7cd5265a1.html" target="_top">
<polygon fill="#eeeeff" stroke="black" points="26.47,-136 26.47,-260 267.47,-260 267.47,-136 26.47,-136"/>
</a>
</g>
</g>
<!-- dir_cba1aa119f8ca2ce6a2213f7cd5265a1 -->
<g id="node1" class="node">
<title>dir_cba1aa119f8ca2ce6a2213f7cd5265a1</title>
<text text-anchor="middle" x="226.47" y="-231.5" font-family="Helvetica,sans-Serif" font-size="10.00">NetworkC</text>
</g>
<!-- dir_dc0b191882b5daf0f93e23f58fd2167d -->
<g id="node2" class="node">
<title>dir_dc0b191882b5daf0f93e23f58fd2167d</title>
<g id="a_node2"><a xlink:href="dir_dc0b191882b5daf0f93e23f58fd2167d.html" target="_top" xlink:title="Coder">
<polygon fill="white" stroke="black" points="93.47,-180 39.47,-180 39.47,-144 93.47,-144 93.47,-180"/>
<text text-anchor="middle" x="66.47" y="-159.5" font-family="Helvetica,sans-Serif" font-size="10.00">Coder</text>
</a>
</g>
</g>
<!-- dir_55be27304aee4fac13a1eb8fc08f58b6 -->
<g id="node7" class="node">
<title>dir_55be27304aee4fac13a1eb8fc08f58b6</title>
<g id="a_node7"><a xlink:href="dir_55be27304aee4fac13a1eb8fc08f58b6.html" target="_top" xlink:title="Config">
<polygon fill="none" stroke="black" points="207.47,-36 153.47,-36 153.47,0 207.47,0 207.47,-36"/>
<text text-anchor="middle" x="180.47" y="-15.5" font-family="Helvetica,sans-Serif" font-size="10.00">Config</text>
</a>
</g>
</g>
<!-- dir_dc0b191882b5daf0f93e23f58fd2167d&#45;&gt;dir_55be27304aee4fac13a1eb8fc08f58b6 -->
<g id="edge14" class="edge">
<title>dir_dc0b191882b5daf0f93e23f58fd2167d&#45;&gt;dir_55be27304aee4fac13a1eb8fc08f58b6</title>
<path fill="none" stroke="black" d="M80.22,-143.87C100.17,-119.03 137.24,-72.85 160.29,-44.14"/>
<polygon fill="black" stroke="black" points="163.14,-46.18 166.67,-36.19 157.68,-41.8 163.14,-46.18"/>
<g id="a_edge14&#45;headlabel"><a xlink:href="dir_000009_000002.html" target="_top" xlink:title="3">
<text text-anchor="middle" x="163.11" y="-48.26" font-family="Helvetica,sans-Serif" font-size="10.00">3</text>
</a>
</g>
</g>
<!-- dir_1f71012bc1d8119e3b4520aa9d5d1166 -->
<g id="node8" class="node">
<title>dir_1f71012bc1d8119e3b4520aa9d5d1166</title>
<g id="a_node8"><a xlink:href="dir_1f71012bc1d8119e3b4520aa9d5d1166.html" target="_top" xlink:title="Carto">
<polygon fill="none" stroke="black" points="58.47,-108 4.47,-108 4.47,-72 58.47,-72 58.47,-108"/>
<text text-anchor="middle" x="31.47" y="-87.5" font-family="Helvetica,sans-Serif" font-size="10.00">Carto</text>
</a>
</g>
</g>
<!-- dir_dc0b191882b5daf0f93e23f58fd2167d&#45;&gt;dir_1f71012bc1d8119e3b4520aa9d5d1166 -->
<g id="edge15" class="edge">
<title>dir_dc0b191882b5daf0f93e23f58fd2167d&#45;&gt;dir_1f71012bc1d8119e3b4520aa9d5d1166</title>
<path fill="none" stroke="black" d="M57.82,-143.7C53.84,-135.73 49.02,-126.1 44.61,-117.26"/>
<polygon fill="black" stroke="black" points="47.63,-115.48 40.03,-108.1 41.37,-118.61 47.63,-115.48"/>
<g id="a_edge15&#45;headlabel"><a xlink:href="dir_000009_000001.html" target="_top" xlink:title="1">
<text text-anchor="middle" x="51.78" y="-114.93" font-family="Helvetica,sans-Serif" font-size="10.00">1</text>
</a>
</g>
</g>
<!-- dir_e4126c157bc9ea7605ccfde84b90c825 -->
<g id="node3" class="node">
<title>dir_e4126c157bc9ea7605ccfde84b90c825</title>
<g id="a_node3"><a xlink:href="dir_e4126c157bc9ea7605ccfde84b90c825.html" target="_top" xlink:title="Dispatcher">
<polygon fill="white" stroke="black" points="175.97,-252 106.97,-252 106.97,-216 175.97,-216 175.97,-252"/>
<text text-anchor="middle" x="141.47" y="-231.5" font-family="Helvetica,sans-Serif" font-size="10.00">Dispatcher</text>
</a>
</g>
</g>
<!-- dir_e4126c157bc9ea7605ccfde84b90c825&#45;&gt;dir_dc0b191882b5daf0f93e23f58fd2167d -->
<g id="edge12" class="edge">
<title>dir_e4126c157bc9ea7605ccfde84b90c825&#45;&gt;dir_dc0b191882b5daf0f93e23f58fd2167d</title>
<path fill="none" stroke="black" d="M122.93,-215.7C113.67,-207.05 102.31,-196.45 92.22,-187.03"/>
<polygon fill="black" stroke="black" points="94.5,-184.37 84.8,-180.1 89.72,-189.49 94.5,-184.37"/>
<g id="a_edge12&#45;headlabel"><a xlink:href="dir_000010_000009.html" target="_top" xlink:title="2">
<text text-anchor="middle" x="99.06" y="-182.25" font-family="Helvetica,sans-Serif" font-size="10.00">2</text>
</a>
</g>
</g>
<!-- dir_807a98d740a8b74acd334e78119f368d -->
<g id="node4" class="node">
<title>dir_807a98d740a8b74acd334e78119f368d</title>
<g id="a_node4"><a xlink:href="dir_807a98d740a8b74acd334e78119f368d.html" target="_top" xlink:title="Postman">
<polygon fill="white" stroke="black" points="170.97,-180 111.97,-180 111.97,-144 170.97,-144 170.97,-180"/>
<text text-anchor="middle" x="141.47" y="-159.5" font-family="Helvetica,sans-Serif" font-size="10.00">Postman</text>
</a>
</g>
</g>
<!-- dir_e4126c157bc9ea7605ccfde84b90c825&#45;&gt;dir_807a98d740a8b74acd334e78119f368d -->
<g id="edge13" class="edge">
<title>dir_e4126c157bc9ea7605ccfde84b90c825&#45;&gt;dir_807a98d740a8b74acd334e78119f368d</title>
<path fill="none" stroke="black" d="M135.56,-215.7C134.76,-207.98 134.54,-198.71 134.88,-190.11"/>
<polygon fill="black" stroke="black" points="138.37,-190.32 135.58,-180.1 131.39,-189.84 138.37,-190.32"/>
<g id="a_edge13&#45;headlabel"><a xlink:href="dir_000010_000011.html" target="_top" xlink:title="1">
<text text-anchor="middle" x="140.95" y="-191.61" font-family="Helvetica,sans-Serif" font-size="10.00">1</text>
</a>
</g>
</g>
<!-- dir_ab9403a3c36b3efe9fa21f69a7d0ee55 -->
<g id="node6" class="node">
<title>dir_ab9403a3c36b3efe9fa21f69a7d0ee55</title>
<g id="a_node6"><a xlink:href="dir_ab9403a3c36b3efe9fa21f69a7d0ee55.html" target="_top" xlink:title="Geographer">
<polygon fill="none" stroke="black" points="178.47,-331 104.47,-331 104.47,-295 178.47,-295 178.47,-331"/>
<text text-anchor="middle" x="141.47" y="-310.5" font-family="Helvetica,sans-Serif" font-size="10.00">Geographer</text>
</a>
</g>
</g>
<!-- dir_e4126c157bc9ea7605ccfde84b90c825&#45;&gt;dir_ab9403a3c36b3efe9fa21f69a7d0ee55 -->
<g id="edge10" class="edge">
<title>dir_e4126c157bc9ea7605ccfde84b90c825&#45;&gt;dir_ab9403a3c36b3efe9fa21f69a7d0ee55</title>
<path fill="none" stroke="black" d="M141.47,-252.04C141.47,-261.6 141.47,-273.76 141.47,-284.62"/>
<polygon fill="black" stroke="black" points="137.97,-284.91 141.47,-294.91 144.97,-284.91 137.97,-284.91"/>
<g id="a_edge10&#45;headlabel"><a xlink:href="dir_000010_000005.html" target="_top" xlink:title="1">
<text text-anchor="middle" x="135.13" y="-278.82" font-family="Helvetica,sans-Serif" font-size="10.00">1</text>
</a>
</g>
</g>
<!-- dir_e4126c157bc9ea7605ccfde84b90c825&#45;&gt;dir_55be27304aee4fac13a1eb8fc08f58b6 -->
<g id="edge11" class="edge">
<title>dir_e4126c157bc9ea7605ccfde84b90c825&#45;&gt;dir_55be27304aee4fac13a1eb8fc08f58b6</title>
<path fill="none" stroke="black" d="M175.99,-216.75C190.34,-208.03 205.49,-195.79 213.47,-180 235.13,-137.16 226.67,-118.15 213.47,-72 210.76,-62.51 205.8,-53.06 200.54,-44.83"/>
<polygon fill="black" stroke="black" points="203.33,-42.72 194.8,-36.43 197.55,-46.67 203.33,-42.72"/>
<g id="a_edge11&#45;headlabel"><a xlink:href="dir_000010_000002.html" target="_top" xlink:title="1">
<text text-anchor="middle" x="207.7" y="-41.58" font-family="Helvetica,sans-Serif" font-size="10.00">1</text>
</a>
</g>
</g>
<!-- dir_807a98d740a8b74acd334e78119f368d&#45;&gt;dir_e4126c157bc9ea7605ccfde84b90c825 -->
<g id="edge17" class="edge">
<title>dir_807a98d740a8b74acd334e78119f368d&#45;&gt;dir_e4126c157bc9ea7605ccfde84b90c825</title>
<path fill="none" stroke="black" d="M147.37,-180.1C148.17,-187.79 148.41,-197.05 148.08,-205.67"/>
<polygon fill="black" stroke="black" points="144.58,-205.48 147.39,-215.7 151.57,-205.96 144.58,-205.48"/>
<g id="a_edge17&#45;headlabel"><a xlink:href="dir_000011_000010.html" target="_top" xlink:title="1">
<text text-anchor="middle" x="142" y="-199.2" font-family="Helvetica,sans-Serif" font-size="10.00">1</text>
</a>
</g>
</g>
<!-- dir_807a98d740a8b74acd334e78119f368d&#45;&gt;dir_55be27304aee4fac13a1eb8fc08f58b6 -->
<g id="edge16" class="edge">
<title>dir_807a98d740a8b74acd334e78119f368d&#45;&gt;dir_55be27304aee4fac13a1eb8fc08f58b6</title>
<path fill="none" stroke="black" d="M146.18,-143.87C152.85,-119.56 165.14,-74.82 173.05,-46.01"/>
<polygon fill="black" stroke="black" points="176.48,-46.76 175.75,-36.19 169.73,-44.91 176.48,-46.76"/>
<g id="a_edge16&#45;headlabel"><a xlink:href="dir_000011_000002.html" target="_top" xlink:title="2">
<text text-anchor="middle" x="178.27" y="-48.48" font-family="Helvetica,sans-Serif" font-size="10.00">2</text>
</a>
</g>
</g>
<!-- dir_c92f50122f48e2bb52850c7e79cf6e6d -->
<g id="node5" class="node">
<title>dir_c92f50122f48e2bb52850c7e79cf6e6d</title>
<g id="a_node5"><a xlink:href="dir_c92f50122f48e2bb52850c7e79cf6e6d.html" target="_top" xlink:title="Proxy">
<polygon fill="white" stroke="black" points="88.47,-252 34.47,-252 34.47,-216 88.47,-216 88.47,-252"/>
<text text-anchor="middle" x="61.47" y="-231.5" font-family="Helvetica,sans-Serif" font-size="10.00">Proxy</text>
</a>
</g>
</g>
<!-- dir_c92f50122f48e2bb52850c7e79cf6e6d&#45;&gt;dir_dc0b191882b5daf0f93e23f58fd2167d -->
<g id="edge7" class="edge">
<title>dir_c92f50122f48e2bb52850c7e79cf6e6d&#45;&gt;dir_dc0b191882b5daf0f93e23f58fd2167d</title>
<path fill="none" stroke="black" d="M62.71,-215.7C63.26,-207.98 63.92,-198.71 64.54,-190.11"/>
<polygon fill="black" stroke="black" points="68.03,-190.33 65.25,-180.1 61.05,-189.83 68.03,-190.33"/>
<g id="a_edge7&#45;headlabel"><a xlink:href="dir_000012_000009.html" target="_top" xlink:title="2">
<text text-anchor="middle" x="70.61" y="-191.62" font-family="Helvetica,sans-Serif" font-size="10.00">2</text>
</a>
</g>
</g>
<!-- dir_c92f50122f48e2bb52850c7e79cf6e6d&#45;&gt;dir_807a98d740a8b74acd334e78119f368d -->
<g id="edge8" class="edge">
<title>dir_c92f50122f48e2bb52850c7e79cf6e6d&#45;&gt;dir_807a98d740a8b74acd334e78119f368d</title>
<path fill="none" stroke="black" d="M81.25,-215.7C91.23,-206.97 103.48,-196.24 114.33,-186.75"/>
<polygon fill="black" stroke="black" points="116.7,-189.32 121.93,-180.1 112.1,-184.06 116.7,-189.32"/>
<g id="a_edge8&#45;headlabel"><a xlink:href="dir_000012_000011.html" target="_top" xlink:title="2">
<text text-anchor="middle" x="115.87" y="-191.33" font-family="Helvetica,sans-Serif" font-size="10.00">2</text>
</a>
</g>
</g>
<!-- dir_c92f50122f48e2bb52850c7e79cf6e6d&#45;&gt;dir_55be27304aee4fac13a1eb8fc08f58b6 -->
<g id="edge5" class="edge">
<title>dir_c92f50122f48e2bb52850c7e79cf6e6d&#45;&gt;dir_55be27304aee4fac13a1eb8fc08f58b6</title>
<path fill="none" stroke="black" d="M88.53,-220.51C91.87,-218.98 95.25,-217.45 98.47,-216 134.78,-199.69 158.71,-213.32 180.47,-180 206.93,-139.49 197.61,-80.16 188.8,-45.97"/>
<polygon fill="black" stroke="black" points="192.14,-44.94 186.12,-36.22 185.39,-46.79 192.14,-44.94"/>
<g id="a_edge5&#45;headlabel"><a xlink:href="dir_000012_000002.html" target="_top" xlink:title="2">
<text text-anchor="middle" x="195.83" y="-45.15" font-family="Helvetica,sans-Serif" font-size="10.00">2</text>
</a>
</g>
</g>
<!-- dir_c92f50122f48e2bb52850c7e79cf6e6d&#45;&gt;dir_1f71012bc1d8119e3b4520aa9d5d1166 -->
<g id="edge6" class="edge">
<title>dir_c92f50122f48e2bb52850c7e79cf6e6d&#45;&gt;dir_1f71012bc1d8119e3b4520aa9d5d1166</title>
<path fill="none" stroke="black" d="M48.33,-215.91C41.55,-206.01 33.99,-192.96 30.47,-180 24.99,-159.77 25.6,-136 27.38,-118.11"/>
<polygon fill="black" stroke="black" points="30.87,-118.42 28.57,-108.08 23.92,-117.6 30.87,-118.42"/>
<g id="a_edge6&#45;headlabel"><a xlink:href="dir_000012_000001.html" target="_top" xlink:title="1">
<text text-anchor="middle" x="33.27" y="-119.82" font-family="Helvetica,sans-Serif" font-size="10.00">1</text>
</a>
</g>
</g>
<!-- dir_ab9403a3c36b3efe9fa21f69a7d0ee55&#45;&gt;dir_cba1aa119f8ca2ce6a2213f7cd5265a1 -->
<g id="edge2" class="edge">
<title>dir_ab9403a3c36b3efe9fa21f69a7d0ee55&#45;&gt;dir_cba1aa119f8ca2ce6a2213f7cd5265a1</title>
<path fill="none" stroke="black" d="M175.08,-294.75C178.73,-292.35 182.28,-289.75 185.47,-287 194.33,-279.39 202.61,-269.64 209.38,-260.64"/>
<polygon fill="black" stroke="black" points="212.36,-262.49 215.37,-252.33 206.68,-258.39 212.36,-262.49"/>
<g id="a_edge2&#45;headlabel"><a xlink:href="dir_000005_000008.html" target="_top" xlink:title="2">
<text text-anchor="middle" x="212.55" y="-264.56" font-family="Helvetica,sans-Serif" font-size="10.00">2</text>
</a>
</g>
</g>
<!-- dir_ab9403a3c36b3efe9fa21f69a7d0ee55&#45;&gt;dir_c92f50122f48e2bb52850c7e79cf6e6d -->
<g id="edge1" class="edge">
<title>dir_ab9403a3c36b3efe9fa21f69a7d0ee55&#45;&gt;dir_c92f50122f48e2bb52850c7e79cf6e6d</title>
<path fill="none" stroke="black" d="M108.51,-294.84C104.96,-292.42 101.54,-289.79 98.47,-287 90.25,-279.5 82.78,-269.87 76.74,-260.94"/>
<polygon fill="black" stroke="black" points="79.56,-258.86 71.2,-252.36 73.68,-262.66 79.56,-258.86"/>
<g id="a_edge1&#45;headlabel"><a xlink:href="dir_000005_000012.html" target="_top" xlink:title="2">
<text text-anchor="middle" x="83.9" y="-257.85" font-family="Helvetica,sans-Serif" font-size="10.00">2</text>
</a>
</g>
</g>
<!-- dir_ab9403a3c36b3efe9fa21f69a7d0ee55&#45;&gt;dir_55be27304aee4fac13a1eb8fc08f58b6 -->
<g id="edge3" class="edge">
<title>dir_ab9403a3c36b3efe9fa21f69a7d0ee55&#45;&gt;dir_55be27304aee4fac13a1eb8fc08f58b6</title>
<path fill="none" stroke="black" d="M178.63,-309.99C212.8,-307.28 259.87,-301.04 271.47,-287 316.48,-232.52 293.04,-195.3 271.47,-128 260.44,-93.56 232.17,-62.8 210.04,-42.81"/>
<polygon fill="black" stroke="black" points="212.33,-40.16 202.5,-36.2 207.71,-45.42 212.33,-40.16"/>
<g id="a_edge3&#45;headlabel"><a xlink:href="dir_000005_000002.html" target="_top" xlink:title="2">
<text text-anchor="middle" x="216.9" y="-37.9" font-family="Helvetica,sans-Serif" font-size="10.00">2</text>
</a>
</g>
</g>
<!-- dir_ab9403a3c36b3efe9fa21f69a7d0ee55&#45;&gt;dir_1f71012bc1d8119e3b4520aa9d5d1166 -->
<g id="edge4" class="edge">
<title>dir_ab9403a3c36b3efe9fa21f69a7d0ee55&#45;&gt;dir_1f71012bc1d8119e3b4520aa9d5d1166</title>
<path fill="none" stroke="black" d="M104.43,-309.24C73.44,-306.06 32.69,-299.58 22.47,-287 -16.89,-238.5 4.76,-158.91 20.21,-117.66"/>
<polygon fill="black" stroke="black" points="23.49,-118.87 23.87,-108.28 16.97,-116.32 23.49,-118.87"/>
<g id="a_edge4&#45;headlabel"><a xlink:href="dir_000005_000001.html" target="_top" xlink:title="1">
<text text-anchor="middle" x="24.83" y="-120.75" font-family="Helvetica,sans-Serif" font-size="10.00">1</text>
</a>
</g>
</g>
<!-- dir_1f71012bc1d8119e3b4520aa9d5d1166&#45;&gt;dir_55be27304aee4fac13a1eb8fc08f58b6 -->
<g id="edge9" class="edge">
<title>dir_1f71012bc1d8119e3b4520aa9d5d1166&#45;&gt;dir_55be27304aee4fac13a1eb8fc08f58b6</title>
<path fill="none" stroke="black" d="M58.8,-76.16C82.75,-64.91 117.73,-48.48 144.05,-36.11"/>
<polygon fill="black" stroke="black" points="145.76,-39.18 153.32,-31.76 142.78,-32.84 145.76,-39.18"/>
<g id="a_edge9&#45;headlabel"><a xlink:href="dir_000001_000002.html" target="_top" xlink:title="1">
<text text-anchor="middle" x="143.71" y="-40.78" font-family="Helvetica,sans-Serif" font-size="10.00">1</text>
</a>
</g>
</g>
</g>
</svg>
