<?xml version="1.0" encoding="UTF-8" standalone="no"?>
<!DOCTYPE svg PUBLIC "-//W3C//DTD SVG 1.1//EN"
 "http://www.w3.org/Graphics/SVG/1.1/DTD/svg11.dtd">
<!-- Generated by graphviz version 2.43.0 (0)
 -->
<!-- Title: src/NetworkC/Postman Pages: 1 -->
<svg width="171pt" height="151pt"
 viewBox="0.00 0.00 170.50 151.00" xmlns="http://www.w3.org/2000/svg" xmlns:xlink="http://www.w3.org/1999/xlink">
<g id="graph0" class="graph" transform="scale(1 1) rotate(0) translate(4 147)">
<title>src/NetworkC/Postman</title>
<polygon fill="white" stroke="transparent" points="-4,4 -4,-147 166.5,-147 166.5,4 -4,4"/>
<g id="clust1" class="cluster">
<title>clusterdir_cba1aa119f8ca2ce6a2213f7cd5265a1</title>
<g id="a_clust1"><a xlink:href="dir_cba1aa119f8ca2ce6a2213f7cd5265a1.html" target="_top" xlink:title="NetworkC">
<polygon fill="#ddddee" stroke="black" points="8,-64 8,-135 84,-135 84,-64 8,-64"/>
<text text-anchor="middle" x="46" y="-123" font-family="Helvetica,sans-Serif" font-size="10.00">NetworkC</text>
</a>
</g>
</g>
<!-- dir_807a98d740a8b74acd334e78119f368d -->
<g id="node1" class="node">
<title>dir_807a98d740a8b74acd334e78119f368d</title>
<g id="a_node1"><a xlink:href="dir_807a98d740a8b74acd334e78119f368d.html" target="_top" xlink:title="Postman">
<polygon fill="#eeeeff" stroke="black" points="75.5,-108 16.5,-108 16.5,-72 75.5,-72 75.5,-108"/>
<text text-anchor="middle" x="46" y="-87.5" font-family="Helvetica,sans-Serif" font-size="10.00">Postman</text>
</a>
</g>
</g>
<!-- dir_55be27304aee4fac13a1eb8fc08f58b6 -->
<g id="node2" class="node">
<title>dir_55be27304aee4fac13a1eb8fc08f58b6</title>
<g id="a_node2"><a xlink:href="dir_55be27304aee4fac13a1eb8fc08f58b6.html" target="_top" xlink:title="Config">
<polygon fill="none" stroke="black" points="114,-36 60,-36 60,0 114,0 114,-36"/>
<text text-anchor="middle" x="87" y="-15.5" font-family="Helvetica,sans-Serif" font-size="10.00">Config</text>
</a>
</g>
</g>
<!-- dir_807a98d740a8b74acd334e78119f368d&#45;&gt;dir_55be27304aee4fac13a1eb8fc08f58b6 -->
<g id="edge3" class="edge">
<title>dir_807a98d740a8b74acd334e78119f368d&#45;&gt;dir_55be27304aee4fac13a1eb8fc08f58b6</title>
<path fill="none" stroke="black" d="M56.13,-71.7C60.85,-63.64 66.56,-53.89 71.78,-44.98"/>
<polygon fill="black" stroke="black" points="74.95,-46.5 76.98,-36.1 68.91,-42.96 74.95,-46.5"/>
<g id="a_edge3&#45;headlabel"><a xlink:href="dir_000011_000002.html" target="_top" xlink:title="2">
<text text-anchor="middle" x="75.58" y="-48.54" font-family="Helvetica,sans-Serif" font-size="10.00">2</text>
</a>
</g>
</g>
<!-- dir_e4126c157bc9ea7605ccfde84b90c825 -->
<g id="node3" class="node">
<title>dir_e4126c157bc9ea7605ccfde84b90c825</title>
<g id="a_node3"><a xlink:href="dir_e4126c157bc9ea7605ccfde84b90c825.html" target="_top" xlink:title="Dispatcher">
<polygon fill="none" stroke="black" points="162.5,-108 93.5,-108 93.5,-72 162.5,-72 162.5,-108"/>
<text text-anchor="middle" x="128" y="-87.5" font-family="Helvetica,sans-Serif" font-size="10.00">Dispatcher</text>
</a>
</g>
</g>
<!-- dir_807a98d740a8b74acd334e78119f368d&#45;&gt;dir_e4126c157bc9ea7605ccfde84b90c825 -->
<g id="edge4" class="edge">
<title>dir_807a98d740a8b74acd334e78119f368d&#45;&gt;dir_e4126c157bc9ea7605ccfde84b90c825</title>
<path fill="none" stroke="black" d="M75.79,-90C78.26,-90 80.72,-90 83.19,-90"/>
<polygon fill="black" stroke="black" points="83.33,-93.5 93.33,-90 83.33,-86.5 83.33,-93.5"/>
<g id="a_edge4&#45;headlabel"><a xlink:href="dir_000011_000010.html" target="_top" xlink:title="1">
<text text-anchor="middle" x="79.73" y="-93.84" font-family="Helvetica,sans-Serif" font-size="10.00">1</text>
</a>
</g>
</g>
<!-- dir_e4126c157bc9ea7605ccfde84b90c825&#45;&gt;dir_807a98d740a8b74acd334e78119f368d -->
<g id="edge2" class="edge">
<title>dir_e4126c157bc9ea7605ccfde84b90c825&#45;&gt;dir_807a98d740a8b74acd334e78119f368d</title>
<path fill="none" stroke="black" d="M93.33,-90C90.86,-90 88.4,-90 85.93,-90"/>
<polygon fill="black" stroke="black" points="85.79,-86.5 75.79,-90 85.79,-93.5 85.79,-86.5"/>
<g id="a_edge2&#45;headlabel"><a xlink:href="dir_000010_000011.html" target="_top" xlink:title="1">
<text text-anchor="middle" x="89.38" y="-81.16" font-family="Helvetica,sans-Serif" font-size="10.00">1</text>
</a>
</g>
</g>
<!-- dir_e4126c157bc9ea7605ccfde84b90c825&#45;&gt;dir_55be27304aee4fac13a1eb8fc08f58b6 -->
<g id="edge1" class="edge">
<title>dir_e4126c157bc9ea7605ccfde84b90c825&#45;&gt;dir_55be27304aee4fac13a1eb8fc08f58b6</title>
<path fill="none" stroke="black" d="M117.87,-71.7C113.15,-63.64 107.44,-53.89 102.22,-44.98"/>
<polygon fill="black" stroke="black" points="105.09,-42.96 97.02,-36.1 99.05,-46.5 105.09,-42.96"/>
<g id="a_edge1&#45;headlabel"><a xlink:href="dir_000010_000002.html" target="_top" xlink:title="1">
<text text-anchor="middle" x="109.36" y="-42.13" font-family="Helvetica,sans-Serif" font-size="10.00">1</text>
</a>
</g>
</g>
</g>
</svg>
