<?xml version="1.0" encoding="UTF-8" standalone="no"?>
<!DOCTYPE svg PUBLIC "-//W3C//DTD SVG 1.1//EN"
 "http://www.w3.org/Graphics/SVG/1.1/DTD/svg11.dtd">
<!-- Generated by graphviz version 2.43.0 (0)
 -->
<!-- Title: src/Folder/Folder.h Pages: 1 -->
<svg width="244pt" height="308pt"
 viewBox="0.00 0.00 243.75 308.00" xmlns="http://www.w3.org/2000/svg" xmlns:xlink="http://www.w3.org/1999/xlink">
<g id="graph0" class="graph" transform="scale(1 1) rotate(0) translate(4 304)">
<title>src/Folder/Folder.h</title>
<polygon fill="white" stroke="transparent" points="-4,4 -4,-304 239.75,-304 239.75,4 -4,4"/>
<!-- Node1 -->
<g id="node1" class="node">
<title>Node1</title>
<g id="a_node1"><a xlink:title="Folder.c header file, which manages cartographies in storage, converts position_gtk....">
<polygon fill="#bfbfbf" stroke="black" points="97.25,-280.5 97.25,-299.5 202.25,-299.5 202.25,-280.5 97.25,-280.5"/>
<text text-anchor="middle" x="149.75" y="-287.5" font-family="Helvetica,sans-Serif" font-size="10.00">src/Folder/Folder.h</text>
</a>
</g>
</g>
<!-- Node2 -->
<g id="node2" class="node">
<title>Node2</title>
<g id="a_node2"><a xlink:title=" ">
<polygon fill="white" stroke="#bfbfbf" points="127.75,-0.5 127.75,-19.5 189.75,-19.5 189.75,-0.5 127.75,-0.5"/>
<text text-anchor="middle" x="158.75" y="-7.5" font-family="Helvetica,sans-Serif" font-size="10.00">stdbool.h</text>
</a>
</g>
</g>
<!-- Node1&#45;&gt;Node2 -->
<g id="edge1" class="edge">
<title>Node1&#45;&gt;Node2</title>
<path fill="none" stroke="midnightblue" d="M163.57,-280.28C187.88,-263.74 235.75,-225.3 235.75,-179 235.75,-179 235.75,-179 235.75,-121 235.75,-90.9 233.69,-80.88 216.75,-56 208.18,-43.41 194.97,-32.76 183.32,-24.99"/>
<polygon fill="midnightblue" stroke="midnightblue" points="185.14,-22.01 174.81,-19.63 181.4,-27.93 185.14,-22.01"/>
</g>
<!-- Node3 -->
<g id="node3" class="node">
<title>Node3</title>
<g id="a_node3"><a xlink:href="Carto_8h.html" target="_top" xlink:title="This component describes the cartography&#39;s model. It also allow the user to modify it&#39;s parameters.">
<polygon fill="white" stroke="black" points="19.75,-112.5 19.75,-131.5 109.75,-131.5 109.75,-112.5 19.75,-112.5"/>
<text text-anchor="middle" x="64.75" y="-119.5" font-family="Helvetica,sans-Serif" font-size="10.00">../Carto/Carto.h</text>
</a>
</g>
</g>
<!-- Node1&#45;&gt;Node3 -->
<g id="edge2" class="edge">
<title>Node1&#45;&gt;Node3</title>
<path fill="none" stroke="midnightblue" d="M97.01,-282.51C70.89,-276.63 40.92,-265.41 21.75,-244 -1.11,-218.47 -6.06,-198.9 8.75,-168 15,-154.95 27.09,-144.49 38.43,-136.95"/>
<polygon fill="midnightblue" stroke="midnightblue" points="40.56,-139.75 47.25,-131.54 36.9,-133.79 40.56,-139.75"/>
</g>
<!-- Node5 -->
<g id="node5" class="node">
<title>Node5</title>
<g id="a_node5"><a xlink:href="config_8h.html" target="_top" xlink:title="Global definitions.">
<polygon fill="white" stroke="black" points="109.75,-56.5 109.75,-75.5 207.75,-75.5 207.75,-56.5 109.75,-56.5"/>
<text text-anchor="middle" x="158.75" y="-63.5" font-family="Helvetica,sans-Serif" font-size="10.00">../Config/config.h</text>
</a>
</g>
</g>
<!-- Node1&#45;&gt;Node5 -->
<g id="edge11" class="edge">
<title>Node1&#45;&gt;Node5</title>
<path fill="none" stroke="midnightblue" d="M155.64,-280.49C161.34,-271.76 169.71,-257.58 173.75,-244 190.37,-188.21 174.33,-118.47 164.75,-85.68"/>
<polygon fill="midnightblue" stroke="midnightblue" points="167.97,-84.24 161.7,-75.7 161.28,-86.29 167.97,-84.24"/>
</g>
<!-- Node6 -->
<g id="node6" class="node">
<title>Node6</title>
<g id="a_node6"><a xlink:href="Converter_8h.html" target="_top" xlink:title="This component converts the raw data returned by the LiDAR physical component into a two&#45;dimensional ...">
<polygon fill="white" stroke="black" points="31.25,-224.5 31.25,-243.5 164.25,-243.5 164.25,-224.5 31.25,-224.5"/>
<text text-anchor="middle" x="97.75" y="-231.5" font-family="Helvetica,sans-Serif" font-size="10.00">../Converter/Converter.h</text>
</a>
</g>
</g>
<!-- Node1&#45;&gt;Node6 -->
<g id="edge7" class="edge">
<title>Node1&#45;&gt;Node6</title>
<path fill="none" stroke="midnightblue" d="M141.16,-280.08C133.59,-272.22 122.37,-260.57 113.24,-251.08"/>
<polygon fill="midnightblue" stroke="midnightblue" points="115.63,-248.53 106.18,-243.75 110.59,-253.38 115.63,-248.53"/>
</g>
<!-- Node3&#45;&gt;Node2 -->
<g id="edge4" class="edge">
<title>Node3&#45;&gt;Node2</title>
<path fill="none" stroke="midnightblue" d="M53.55,-112.22C38.55,-99.37 15.28,-74.91 28.75,-56 48.7,-27.98 87.35,-17.25 117.34,-13.21"/>
<polygon fill="midnightblue" stroke="midnightblue" points="118,-16.66 127.54,-12.05 117.21,-9.71 118,-16.66"/>
</g>
<!-- Node4 -->
<g id="node4" class="node">
<title>Node4</title>
<g id="a_node4"><a xlink:title=" ">
<polygon fill="white" stroke="#bfbfbf" points="38.25,-56.5 38.25,-75.5 91.25,-75.5 91.25,-56.5 38.25,-56.5"/>
<text text-anchor="middle" x="64.75" y="-63.5" font-family="Helvetica,sans-Serif" font-size="10.00">stdint.h</text>
</a>
</g>
</g>
<!-- Node3&#45;&gt;Node4 -->
<g id="edge3" class="edge">
<title>Node3&#45;&gt;Node4</title>
<path fill="none" stroke="midnightblue" d="M64.75,-112.08C64.75,-105.01 64.75,-94.86 64.75,-85.99"/>
<polygon fill="midnightblue" stroke="midnightblue" points="68.25,-85.75 64.75,-75.75 61.25,-85.75 68.25,-85.75"/>
</g>
<!-- Node3&#45;&gt;Node5 -->
<g id="edge5" class="edge">
<title>Node3&#45;&gt;Node5</title>
<path fill="none" stroke="midnightblue" d="M79.85,-112.32C94.65,-103.82 117.44,-90.73 134.73,-80.8"/>
<polygon fill="midnightblue" stroke="midnightblue" points="136.76,-83.67 143.68,-75.65 133.27,-77.6 136.76,-83.67"/>
</g>
<!-- Node5&#45;&gt;Node2 -->
<g id="edge6" class="edge">
<title>Node5&#45;&gt;Node2</title>
<path fill="none" stroke="midnightblue" d="M158.75,-56.08C158.75,-49.01 158.75,-38.86 158.75,-29.99"/>
<polygon fill="midnightblue" stroke="midnightblue" points="162.25,-29.75 158.75,-19.75 155.25,-29.75 162.25,-29.75"/>
</g>
<!-- Node7 -->
<g id="node7" class="node">
<title>Node7</title>
<g id="a_node7"><a xlink:href="Geographer_8h.html" target="_top" xlink:title="This component is the active object of ACDSoft.">
<polygon fill="white" stroke="black" points="18.25,-168.5 18.25,-187.5 169.25,-187.5 169.25,-168.5 18.25,-168.5"/>
<text text-anchor="middle" x="93.75" y="-175.5" font-family="Helvetica,sans-Serif" font-size="10.00">../Geographer/Geographer.h</text>
</a>
</g>
</g>
<!-- Node6&#45;&gt;Node7 -->
<g id="edge8" class="edge">
<title>Node6&#45;&gt;Node7</title>
<path fill="none" stroke="midnightblue" d="M97.09,-224.08C96.56,-217.01 95.81,-206.86 95.16,-197.99"/>
<polygon fill="midnightblue" stroke="midnightblue" points="98.63,-197.47 94.4,-187.75 91.65,-197.98 98.63,-197.47"/>
</g>
<!-- Node7&#45;&gt;Node3 -->
<g id="edge10" class="edge">
<title>Node7&#45;&gt;Node3</title>
<path fill="none" stroke="midnightblue" d="M88.96,-168.08C84.99,-160.69 79.22,-149.95 74.31,-140.81"/>
<polygon fill="midnightblue" stroke="midnightblue" points="77.26,-138.91 69.45,-131.75 71.1,-142.22 77.26,-138.91"/>
</g>
<!-- Node7&#45;&gt;Node5 -->
<g id="edge9" class="edge">
<title>Node7&#45;&gt;Node5</title>
<path fill="none" stroke="midnightblue" d="M98.85,-168.37C109.53,-150.3 134.42,-108.18 148.52,-84.31"/>
<polygon fill="midnightblue" stroke="midnightblue" points="151.6,-85.98 153.67,-75.59 145.57,-82.42 151.6,-85.98"/>
</g>
</g>
</svg>
