<?xml version="1.0" encoding="UTF-8" standalone="no"?>
<!DOCTYPE svg PUBLIC "-//W3C//DTD SVG 1.1//EN"
 "http://www.w3.org/Graphics/SVG/1.1/DTD/svg11.dtd">
<!-- Generated by graphviz version 2.43.0 (0)
 -->
<!-- Title: src/Folder/Folder.c Pages: 1 -->
<!--zoomable 364 -->
<svg id="main" version="1.1" xmlns="http://www.w3.org/2000/svg" xmlns:xlink="http://www.w3.org/1999/xlink" xml:space="preserve" onload="init(evt)">
<style type="text/css"><![CDATA[
.edge:hover path { stroke: red; }
.edge:hover polygon { stroke: red; fill: red; }
]]></style>
<script type="text/javascript"><![CDATA[
var edges = document.getElementsByTagName('g');
if (edges && edges.length) {
  for (var i=0;i<edges.length;i++) {
    if (edges[i].id.substr(0,4)=='edge') {
      edges[i].setAttribute('class','edge');
    }
  }
}
]]></script>
        <defs>
                <circle id="rim" cx="0" cy="0" r="7"/>
                <circle id="rim2" cx="0" cy="0" r="3.5"/>
                <g id="zoomPlus">
                        <use xlink:href="#rim" fill="#404040">
                                <set attributeName="fill" to="#808080" begin="zoomplus.mouseover" end="zoomplus.mouseout"/>
                        </use>
                        <path d="M-4,0h8M0,-4v8" fill="none" stroke="white" stroke-width="1.5" pointer-events="none"/>
                </g>
                <g id="zoomMin">
                        <use xlink:href="#rim" fill="#404040">
                                <set attributeName="fill" to="#808080" begin="zoomminus.mouseover" end="zoomminus.mouseout"/>
                        </use>
                        <path d="M-4,0h8" fill="none" stroke="white" stroke-width="1.5" pointer-events="none"/>
                </g>
                <g id="dirArrow">
                        <path fill="none" stroke="white" stroke-width="1.5" d="M0,-3.0v7 M-2.5,-0.5L0,-3.0L2.5,-0.5"/>
                </g>
               <g id="resetDef">
                       <use xlink:href="#rim2" fill="#404040">
                               <set attributeName="fill" to="#808080" begin="reset.mouseover" end="reset.mouseout"/>
                       </use>
               </g>
        </defs>

<script type="text/javascript">
var viewWidth = 785;
var viewHeight = 364;
var sectionId = 'dynsection-0';
</script>
<script xlink:href="svgpan.js"/>
<svg id="graph" class="graph">
<g id="viewport">
<title>src/Folder/Folder.c</title>
<polygon fill="white" stroke="transparent" points="-4,4 -4,-360 780.5,-360 780.5,4 -4,4"/>
<!-- Node1 -->
<g id="node1" class="node">
<title>Node1</title>
<g id="a_node1"><a xlink:title="This component manages cartographies in storage, converts position_gtk.txt into integer array,...">
<polygon fill="#bfbfbf" stroke="black" points="302,-336.5 302,-355.5 406,-355.5 406,-336.5 302,-336.5"/>
<text text-anchor="middle" x="354" y="-343.5" font-family="Helvetica,sans-Serif" font-size="10.00">src/Folder/Folder.c</text>
</a>
</g>
</g>
<!-- Node2 -->
<g id="node2" class="node">
<title>Node2</title>
<g id="a_node2"><a xlink:title=" ">
<polygon fill="white" stroke="#bfbfbf" points="0,-224.5 0,-243.5 50,-243.5 50,-224.5 0,-224.5"/>
<text text-anchor="middle" x="25" y="-231.5" font-family="Helvetica,sans-Serif" font-size="10.00">stdio.h</text>
</a>
</g>
</g>
<!-- Node1&#45;&gt;Node2 -->
<g id="edge1" class="edge">
<title>Node1&#45;&gt;Node2</title>
<path fill="none" stroke="midnightblue" d="M301.96,-345.29C246.49,-343.58 157.53,-334.91 90,-300 67.96,-288.61 48.71,-267.07 37,-251.92"/>
<polygon fill="midnightblue" stroke="midnightblue" points="39.78,-249.8 31.01,-243.86 34.16,-253.98 39.78,-249.8"/>
</g>
<!-- Node3 -->
<g id="node3" class="node">
<title>Node3</title>
<g id="a_node3"><a xlink:title=" ">
<polygon fill="white" stroke="#bfbfbf" points="363.5,-280.5 363.5,-299.5 416.5,-299.5 416.5,-280.5 363.5,-280.5"/>
<text text-anchor="middle" x="390" y="-287.5" font-family="Helvetica,sans-Serif" font-size="10.00">stdlib.h</text>
</a>
</g>
</g>
<!-- Node1&#45;&gt;Node3 -->
<g id="edge2" class="edge">
<title>Node1&#45;&gt;Node3</title>
<path fill="none" stroke="midnightblue" d="M359.94,-336.08C364.98,-328.53 372.34,-317.49 378.51,-308.23"/>
<polygon fill="midnightblue" stroke="midnightblue" points="381.53,-310.01 384.17,-299.75 375.71,-306.13 381.53,-310.01"/>
</g>
<!-- Node4 -->
<g id="node4" class="node">
<title>Node4</title>
<g id="a_node4"><a xlink:title=" ">
<polygon fill="white" stroke="#bfbfbf" points="68.5,-224.5 68.5,-243.5 121.5,-243.5 121.5,-224.5 68.5,-224.5"/>
<text text-anchor="middle" x="95" y="-231.5" font-family="Helvetica,sans-Serif" font-size="10.00">string.h</text>
</a>
</g>
</g>
<!-- Node1&#45;&gt;Node4 -->
<g id="edge3" class="edge">
<title>Node1&#45;&gt;Node4</title>
<path fill="none" stroke="midnightblue" d="M301.95,-342.75C236.53,-338.77 129.55,-328.05 103,-300 91.65,-288.01 90.6,-268.71 91.82,-254.25"/>
<polygon fill="midnightblue" stroke="midnightblue" points="95.34,-254.29 93.13,-243.93 88.4,-253.41 95.34,-254.29"/>
</g>
<!-- Node5 -->
<g id="node5" class="node">
<title>Node5</title>
<g id="a_node5"><a xlink:title=" ">
<polygon fill="white" stroke="#bfbfbf" points="434.5,-280.5 434.5,-299.5 481.5,-299.5 481.5,-280.5 434.5,-280.5"/>
<text text-anchor="middle" x="458" y="-287.5" font-family="Helvetica,sans-Serif" font-size="10.00">fcntl.h</text>
</a>
</g>
</g>
<!-- Node1&#45;&gt;Node5 -->
<g id="edge4" class="edge">
<title>Node1&#45;&gt;Node5</title>
<path fill="none" stroke="midnightblue" d="M370.71,-336.32C387.31,-327.7 413,-314.36 432.22,-304.39"/>
<polygon fill="midnightblue" stroke="midnightblue" points="434.07,-307.37 441.33,-299.65 430.84,-301.16 434.07,-307.37"/>
</g>
<!-- Node6 -->
<g id="node6" class="node">
<title>Node6</title>
<g id="a_node6"><a xlink:title=" ">
<polygon fill="white" stroke="#bfbfbf" points="500,-280.5 500,-299.5 556,-299.5 556,-280.5 500,-280.5"/>
<text text-anchor="middle" x="528" y="-287.5" font-family="Helvetica,sans-Serif" font-size="10.00">unistd.h</text>
</a>
</g>
</g>
<!-- Node1&#45;&gt;Node6 -->
<g id="edge5" class="edge">
<title>Node1&#45;&gt;Node6</title>
<path fill="none" stroke="midnightblue" d="M381.57,-336.44C411.1,-327.28 458.12,-312.69 490.88,-302.52"/>
<polygon fill="midnightblue" stroke="midnightblue" points="492.04,-305.82 500.56,-299.52 489.97,-299.14 492.04,-305.82"/>
</g>
<!-- Node7 -->
<g id="node7" class="node">
<title>Node7</title>
<g id="a_node7"><a xlink:title=" ">
<polygon fill="white" stroke="#bfbfbf" points="574,-280.5 574,-299.5 628,-299.5 628,-280.5 574,-280.5"/>
<text text-anchor="middle" x="601" y="-287.5" font-family="Helvetica,sans-Serif" font-size="10.00">dirent.h</text>
</a>
</g>
</g>
<!-- Node1&#45;&gt;Node7 -->
<g id="edge6" class="edge">
<title>Node1&#45;&gt;Node7</title>
<path fill="none" stroke="midnightblue" d="M396.13,-336.47C436.71,-328.14 500.05,-314.89 564.04,-300.16"/>
<polygon fill="midnightblue" stroke="midnightblue" points="564.94,-303.55 573.9,-297.88 563.37,-296.73 564.94,-303.55"/>
</g>
<!-- Node8 -->
<g id="node8" class="node">
<title>Node8</title>
<g id="a_node8"><a xlink:title=" ">
<polygon fill="white" stroke="#bfbfbf" points="646.5,-280.5 646.5,-299.5 699.5,-299.5 699.5,-280.5 646.5,-280.5"/>
<text text-anchor="middle" x="673" y="-287.5" font-family="Helvetica,sans-Serif" font-size="10.00">ctype.h</text>
</a>
</g>
</g>
<!-- Node1&#45;&gt;Node8 -->
<g id="edge7" class="edge">
<title>Node1&#45;&gt;Node8</title>
<path fill="none" stroke="midnightblue" d="M406.15,-338.1C461,-330.53 550.02,-317.36 636.36,-299.97"/>
<polygon fill="midnightblue" stroke="midnightblue" points="637.22,-303.37 646.32,-297.94 635.83,-296.51 637.22,-303.37"/>
</g>
<!-- Node9 -->
<g id="node9" class="node">
<title>Node9</title>
<g id="a_node9"><a xlink:title=" ">
<polygon fill="white" stroke="#bfbfbf" points="178,-224.5 178,-243.5 234,-243.5 234,-224.5 178,-224.5"/>
<text text-anchor="middle" x="206" y="-231.5" font-family="Helvetica,sans-Serif" font-size="10.00">assert.h</text>
</a>
</g>
</g>
<!-- Node1&#45;&gt;Node9 -->
<g id="edge8" class="edge">
<title>Node1&#45;&gt;Node9</title>
<path fill="none" stroke="midnightblue" d="M320.66,-336.45C298.27,-329.45 269.11,-317.76 248,-300 232.78,-287.2 221.11,-267.46 213.98,-253.09"/>
<polygon fill="midnightblue" stroke="midnightblue" points="217.02,-251.33 209.61,-243.76 210.68,-254.3 217.02,-251.33"/>
</g>
<!-- Node10 -->
<g id="node10" class="node">
<title>Node10</title>
<g id="a_node10"><a xlink:href="util_8h.html" target="_top" xlink:title="Macros to color the terminal in debug mode and do assert.">
<polygon fill="white" stroke="black" points="112,-280.5 112,-299.5 196,-299.5 196,-280.5 112,-280.5"/>
<text text-anchor="middle" x="154" y="-287.5" font-family="Helvetica,sans-Serif" font-size="10.00">../Config/util.h</text>
</a>
</g>
</g>
<!-- Node1&#45;&gt;Node10 -->
<g id="edge9" class="edge">
<title>Node1&#45;&gt;Node10</title>
<path fill="none" stroke="midnightblue" d="M322.31,-336.44C287.93,-327.16 232.92,-312.31 195.21,-302.13"/>
<polygon fill="midnightblue" stroke="midnightblue" points="196.11,-298.74 185.54,-299.52 194.28,-305.5 196.11,-298.74"/>
</g>
<!-- Node12 -->
<g id="node12" class="node">
<title>Node12</title>
<g id="a_node12"><a xlink:href="Folder_8h.html" target="_top" xlink:title="Folder.c header file, which manages cartographies in storage, converts position_gtk....">
<polygon fill="white" stroke="black" points="290.5,-280.5 290.5,-299.5 345.5,-299.5 345.5,-280.5 290.5,-280.5"/>
<text text-anchor="middle" x="318" y="-287.5" font-family="Helvetica,sans-Serif" font-size="10.00">Folder.h</text>
</a>
</g>
</g>
<!-- Node1&#45;&gt;Node12 -->
<g id="edge14" class="edge">
<title>Node1&#45;&gt;Node12</title>
<path fill="none" stroke="midnightblue" d="M348.06,-336.08C343.02,-328.53 335.66,-317.49 329.49,-308.23"/>
<polygon fill="midnightblue" stroke="midnightblue" points="332.29,-306.13 323.83,-299.75 326.47,-310.01 332.29,-306.13"/>
</g>
<!-- Node17 -->
<g id="node17" class="node">
<title>Node17</title>
<g id="a_node17"><a xlink:href="Geographer_8h.html" target="_top" xlink:title="This component is the active object of ACDSoft.">
<polygon fill="white" stroke="black" points="319.5,-168.5 319.5,-187.5 470.5,-187.5 470.5,-168.5 319.5,-168.5"/>
<text text-anchor="middle" x="395" y="-175.5" font-family="Helvetica,sans-Serif" font-size="10.00">../Geographer/Geographer.h</text>
</a>
</g>
</g>
<!-- Node1&#45;&gt;Node17 -->
<g id="edge26" class="edge">
<title>Node1&#45;&gt;Node17</title>
<path fill="none" stroke="midnightblue" d="M327.79,-336.41C311.15,-329.44 290.94,-317.81 281,-300 276.67,-292.24 278.39,-288.5 281,-280 289.83,-251.25 297.09,-244.6 319,-224 332.88,-210.95 351.18,-199.97 366.35,-192.12"/>
<polygon fill="midnightblue" stroke="midnightblue" points="367.93,-195.25 375.32,-187.65 364.81,-188.98 367.93,-195.25"/>
</g>
<!-- Node18 -->
<g id="node18" class="node">
<title>Node18</title>
<g id="a_node18"><a xlink:href="libbmp_8h.html" target="_top" xlink:title="Project libBMP Source">
<polygon fill="white" stroke="black" points="717.5,-280.5 717.5,-299.5 776.5,-299.5 776.5,-280.5 717.5,-280.5"/>
<text text-anchor="middle" x="747" y="-287.5" font-family="Helvetica,sans-Serif" font-size="10.00">libbmp.h</text>
</a>
</g>
</g>
<!-- Node1&#45;&gt;Node18 -->
<g id="edge27" class="edge">
<title>Node1&#45;&gt;Node18</title>
<path fill="none" stroke="midnightblue" d="M406,-340.16C473.38,-333.5 594.65,-320.2 707.04,-300.21"/>
<polygon fill="midnightblue" stroke="midnightblue" points="707.97,-303.59 717.19,-298.38 706.73,-296.71 707.97,-303.59"/>
</g>
<!-- Node10&#45;&gt;Node2 -->
<g id="edge10" class="edge">
<title>Node10&#45;&gt;Node2</title>
<path fill="none" stroke="midnightblue" d="M133.56,-280.44C112.33,-271.56 78.9,-257.56 54.75,-247.45"/>
<polygon fill="midnightblue" stroke="midnightblue" points="55.92,-244.15 45.34,-243.52 53.22,-250.61 55.92,-244.15"/>
</g>
<!-- Node10&#45;&gt;Node4 -->
<g id="edge11" class="edge">
<title>Node10&#45;&gt;Node4</title>
<path fill="none" stroke="midnightblue" d="M144.52,-280.32C135.8,-272.34 122.66,-260.31 112.1,-250.65"/>
<polygon fill="midnightblue" stroke="midnightblue" points="114.39,-248 104.65,-243.83 109.67,-253.17 114.39,-248"/>
</g>
<!-- Node10&#45;&gt;Node9 -->
<g id="edge12" class="edge">
<title>Node10&#45;&gt;Node9</title>
<path fill="none" stroke="midnightblue" d="M162.59,-280.08C170.16,-272.22 181.38,-260.57 190.51,-251.08"/>
<polygon fill="midnightblue" stroke="midnightblue" points="193.16,-253.38 197.57,-243.75 188.12,-248.53 193.16,-253.38"/>
</g>
<!-- Node11 -->
<g id="node11" class="node">
<title>Node11</title>
<g id="a_node11"><a xlink:title=" ">
<polygon fill="white" stroke="#bfbfbf" points="180.5,-56.5 180.5,-75.5 233.5,-75.5 233.5,-56.5 180.5,-56.5"/>
<text text-anchor="middle" x="207" y="-63.5" font-family="Helvetica,sans-Serif" font-size="10.00">stdint.h</text>
</a>
</g>
</g>
<!-- Node10&#45;&gt;Node11 -->
<g id="edge13" class="edge">
<title>Node10&#45;&gt;Node11</title>
<path fill="none" stroke="midnightblue" d="M156.01,-280.16C158.86,-267.65 164.26,-244.06 169,-224 180.85,-173.89 195.25,-114.89 202.45,-85.53"/>
<polygon fill="midnightblue" stroke="midnightblue" points="205.92,-86.05 204.91,-75.5 199.13,-84.38 205.92,-86.05"/>
</g>
<!-- Node13 -->
<g id="node13" class="node">
<title>Node13</title>
<g id="a_node13"><a xlink:title=" ">
<polygon fill="white" stroke="#bfbfbf" points="397,-0.5 397,-19.5 459,-19.5 459,-0.5 397,-0.5"/>
<text text-anchor="middle" x="428" y="-7.5" font-family="Helvetica,sans-Serif" font-size="10.00">stdbool.h</text>
</a>
</g>
</g>
<!-- Node12&#45;&gt;Node13 -->
<g id="edge15" class="edge">
<title>Node12&#45;&gt;Node13</title>
<path fill="none" stroke="midnightblue" d="M345.57,-282.3C392.62,-270.8 483.97,-248.13 490,-244 519.42,-223.86 537,-214.65 537,-179 537,-179 537,-179 537,-121 537,-75.12 488.56,-41.53 456.27,-24.23"/>
<polygon fill="midnightblue" stroke="midnightblue" points="457.73,-21.04 447.24,-19.58 454.53,-27.27 457.73,-21.04"/>
</g>
<!-- Node14 -->
<g id="node14" class="node">
<title>Node14</title>
<g id="a_node14"><a xlink:href="Carto_8h.html" target="_top" xlink:title="This component describes the cartography&#39;s model. It also allow the user to modify it&#39;s parameters.">
<polygon fill="white" stroke="black" points="306,-112.5 306,-131.5 396,-131.5 396,-112.5 306,-112.5"/>
<text text-anchor="middle" x="351" y="-119.5" font-family="Helvetica,sans-Serif" font-size="10.00">../Carto/Carto.h</text>
</a>
</g>
</g>
<!-- Node12&#45;&gt;Node14 -->
<g id="edge16" class="edge">
<title>Node12&#45;&gt;Node14</title>
<path fill="none" stroke="midnightblue" d="M315.03,-280.41C308.5,-260.07 294.64,-207.66 310,-168 314.45,-156.5 323.37,-146.13 331.75,-138.25"/>
<polygon fill="midnightblue" stroke="midnightblue" points="334.24,-140.73 339.46,-131.51 329.63,-135.46 334.24,-140.73"/>
</g>
<!-- Node15 -->
<g id="node15" class="node">
<title>Node15</title>
<g id="a_node15"><a xlink:href="config_8h.html" target="_top" xlink:title="Global definitions.">
<polygon fill="white" stroke="black" points="379,-56.5 379,-75.5 477,-75.5 477,-56.5 379,-56.5"/>
<text text-anchor="middle" x="428" y="-63.5" font-family="Helvetica,sans-Serif" font-size="10.00">../Config/config.h</text>
</a>
</g>
</g>
<!-- Node12&#45;&gt;Node15 -->
<g id="edge25" class="edge">
<title>Node12&#45;&gt;Node15</title>
<path fill="none" stroke="midnightblue" d="M345.8,-281.64C388.75,-270.17 466.77,-248.8 471,-244 511.88,-197.58 465.18,-118.76 440.88,-84.15"/>
<polygon fill="midnightblue" stroke="midnightblue" points="443.4,-81.68 434.7,-75.63 437.73,-85.78 443.4,-81.68"/>
</g>
<!-- Node16 -->
<g id="node16" class="node">
<title>Node16</title>
<g id="a_node16"><a xlink:href="Converter_8h.html" target="_top" xlink:title="This component converts the raw data returned by the LiDAR physical component into a two&#45;dimensional ...">
<polygon fill="white" stroke="black" points="328.5,-224.5 328.5,-243.5 461.5,-243.5 461.5,-224.5 328.5,-224.5"/>
<text text-anchor="middle" x="395" y="-231.5" font-family="Helvetica,sans-Serif" font-size="10.00">../Converter/Converter.h</text>
</a>
</g>
</g>
<!-- Node12&#45;&gt;Node16 -->
<g id="edge21" class="edge">
<title>Node12&#45;&gt;Node16</title>
<path fill="none" stroke="midnightblue" d="M330.37,-280.32C342.16,-272.06 360.13,-259.45 374.14,-249.63"/>
<polygon fill="midnightblue" stroke="midnightblue" points="376.48,-252.26 382.66,-243.65 372.46,-246.53 376.48,-252.26"/>
</g>
<!-- Node14&#45;&gt;Node11 -->
<g id="edge17" class="edge">
<title>Node14&#45;&gt;Node11</title>
<path fill="none" stroke="midnightblue" d="M328.18,-112.44C304.17,-103.44 266.17,-89.19 239.13,-79.05"/>
<polygon fill="midnightblue" stroke="midnightblue" points="240.3,-75.75 229.71,-75.52 237.84,-82.3 240.3,-75.75"/>
</g>
<!-- Node14&#45;&gt;Node13 -->
<g id="edge18" class="edge">
<title>Node14&#45;&gt;Node13</title>
<path fill="none" stroke="midnightblue" d="M351.83,-112.28C353.44,-99.08 357.96,-73.69 370,-56 378.57,-43.41 391.78,-32.76 403.43,-24.99"/>
<polygon fill="midnightblue" stroke="midnightblue" points="405.35,-27.93 411.94,-19.63 401.61,-22.01 405.35,-27.93"/>
</g>
<!-- Node14&#45;&gt;Node15 -->
<g id="edge19" class="edge">
<title>Node14&#45;&gt;Node15</title>
<path fill="none" stroke="midnightblue" d="M363.37,-112.32C375.16,-104.06 393.13,-91.45 407.14,-81.63"/>
<polygon fill="midnightblue" stroke="midnightblue" points="409.48,-84.26 415.66,-75.65 405.46,-78.53 409.48,-84.26"/>
</g>
<!-- Node15&#45;&gt;Node13 -->
<g id="edge20" class="edge">
<title>Node15&#45;&gt;Node13</title>
<path fill="none" stroke="midnightblue" d="M428,-56.08C428,-49.01 428,-38.86 428,-29.99"/>
<polygon fill="midnightblue" stroke="midnightblue" points="431.5,-29.75 428,-19.75 424.5,-29.75 431.5,-29.75"/>
</g>
<!-- Node16&#45;&gt;Node17 -->
<g id="edge22" class="edge">
<title>Node16&#45;&gt;Node17</title>
<path fill="none" stroke="midnightblue" d="M395,-224.08C395,-217.01 395,-206.86 395,-197.99"/>
<polygon fill="midnightblue" stroke="midnightblue" points="398.5,-197.75 395,-187.75 391.5,-197.75 398.5,-197.75"/>
</g>
<!-- Node17&#45;&gt;Node14 -->
<g id="edge24" class="edge">
<title>Node17&#45;&gt;Node14</title>
<path fill="none" stroke="midnightblue" d="M387.73,-168.08C381.46,-160.38 372.21,-149.03 364.57,-139.65"/>
<polygon fill="midnightblue" stroke="midnightblue" points="367.16,-137.29 358.13,-131.75 361.73,-141.71 367.16,-137.29"/>
</g>
<!-- Node17&#45;&gt;Node15 -->
<g id="edge23" class="edge">
<title>Node17&#45;&gt;Node15</title>
<path fill="none" stroke="midnightblue" d="M397.59,-168.37C402.94,-150.54 415.31,-109.3 422.52,-85.27"/>
<polygon fill="midnightblue" stroke="midnightblue" points="425.9,-86.18 425.42,-75.59 419.2,-84.16 425.9,-86.18"/>
</g>
</g>
</svg>
        <g id="navigator" transform="translate(0 0)" fill="#404254">
                <rect fill="#f2f5e9" fill-opacity="0.5" stroke="#606060" stroke-width=".5" x="0" y="0" width="60" height="60"/>
                <use id="zoomplus" xlink:href="#zoomPlus" x="17" y="9" onmousedown="handleZoom(evt,'in')"/>
                <use id="zoomminus" xlink:href="#zoomMin" x="42" y="9" onmousedown="handleZoom(evt,'out')"/>
                <use id="reset" xlink:href="#resetDef" x="30" y="36" onmousedown="handleReset()"/>
                <g id="arrowUp" xlink:href="#dirArrow" transform="translate(30 24)" onmousedown="handlePan(0,-1)">
                  <use xlink:href="#rim" fill="#404040">
                        <set attributeName="fill" to="#808080" begin="arrowUp.mouseover" end="arrowUp.mouseout"/>
                  </use>
                  <path fill="none" stroke="white" stroke-width="1.5" d="M0,-3.0v7 M-2.5,-0.5L0,-3.0L2.5,-0.5"/>
                </g>
                <g id="arrowRight" xlink:href="#dirArrow" transform="rotate(90) translate(36 -43)" onmousedown="handlePan(1,0)">
                  <use xlink:href="#rim" fill="#404040">
                        <set attributeName="fill" to="#808080" begin="arrowRight.mouseover" end="arrowRight.mouseout"/>
                  </use>
                  <path fill="none" stroke="white" stroke-width="1.5" d="M0,-3.0v7 M-2.5,-0.5L0,-3.0L2.5,-0.5"/>
                </g>
                <g id="arrowDown" xlink:href="#dirArrow" transform="rotate(180) translate(-30 -48)" onmousedown="handlePan(0,1)">
                  <use xlink:href="#rim" fill="#404040">
                        <set attributeName="fill" to="#808080" begin="arrowDown.mouseover" end="arrowDown.mouseout"/>
                  </use>
                  <path fill="none" stroke="white" stroke-width="1.5" d="M0,-3.0v7 M-2.5,-0.5L0,-3.0L2.5,-0.5"/>
                </g>
                <g id="arrowLeft" xlink:href="#dirArrow" transform="rotate(270) translate(-36 17)" onmousedown="handlePan(-1,0)">
                  <use xlink:href="#rim" fill="#404040">
                        <set attributeName="fill" to="#808080" begin="arrowLeft.mouseover" end="arrowLeft.mouseout"/>
                  </use>
                  <path fill="none" stroke="white" stroke-width="1.5" d="M0,-3.0v7 M-2.5,-0.5L0,-3.0L2.5,-0.5"/>
                </g>
        </g>
        <svg viewBox="0 0 15 15" width="100%" height="30px" preserveAspectRatio="xMaxYMin meet">
         <g id="arrow_out" transform="scale(0.3 0.3)">
          <a xlink:href="Folder_8c__incl_org.svg" target="_base">
           <rect id="button" ry="5" rx="5" y="6" x="6" height="38" width="38"
                fill="#f2f5e9" fill-opacity="0.5" stroke="#606060" stroke-width="1.0"/>
           <path id="arrow"
             d="M 11.500037,31.436501 C 11.940474,20.09759 22.043105,11.32322 32.158766,21.979434 L 37.068811,17.246167 C 37.068811,17.246167 37.088388,32 37.088388,32 L 22.160133,31.978069 C 22.160133,31.978069 26.997745,27.140456 26.997745,27.140456 C 18.528582,18.264221 13.291696,25.230495 11.500037,31.436501 z"
             style="fill:#404040;"/>
          </a>
         </g>
        </svg>
</svg>
