<?xml version="1.0" encoding="UTF-8" standalone="no"?>
<!DOCTYPE svg PUBLIC "-//W3C//DTD SVG 1.1//EN"
 "http://www.w3.org/Graphics/SVG/1.1/DTD/svg11.dtd">
<!-- Generated by graphviz version 2.43.0 (0)
 -->
<!-- Title: src/Geographer/Geographer.h Pages: 1 -->
<svg width="965pt" height="207pt"
 viewBox="0.00 0.00 964.50 207.00" xmlns="http://www.w3.org/2000/svg" xmlns:xlink="http://www.w3.org/1999/xlink">
<g id="graph0" class="graph" transform="scale(1 1) rotate(0) translate(4 203)">
<title>src/Geographer/Geographer.h</title>
<polygon fill="white" stroke="transparent" points="-4,4 -4,-203 960.5,-203 960.5,4 -4,4"/>
<!-- Node1 -->
<g id="node1" class="node">
<title>Node1</title>
<g id="a_node1"><a xlink:title="This component is the active object of ACDSoft.">
<polygon fill="#bfbfbf" stroke="black" points="466.5,-179.5 466.5,-198.5 625.5,-198.5 625.5,-179.5 466.5,-179.5"/>
<text text-anchor="middle" x="546" y="-186.5" font-family="Helvetica,sans-Serif" font-size="10.00">src/Geographer/Geographer.h</text>
</a>
</g>
</g>
<!-- Node2 -->
<g id="node2" class="node">
<title>Node2</title>
<g id="a_node2"><a xlink:href="Converter_8h.html" target="_top" xlink:title="This component converts the raw data returned by the LiDAR physical component into a two&#45;dimensional ...">
<polygon fill="white" stroke="black" points="201.5,-118 201.5,-137 342.5,-137 342.5,-118 201.5,-118"/>
<text text-anchor="middle" x="272" y="-125" font-family="Helvetica,sans-Serif" font-size="10.00">src/Converter/Converter.h</text>
</a>
</g>
</g>
<!-- Node1&#45;&gt;Node2 -->
<g id="edge1" class="edge">
<title>Node1&#45;&gt;Node2</title>
<path fill="none" stroke="midnightblue" d="M496.87,-177.33C443.73,-165.79 360.08,-147.63 311.18,-137.01"/>
<polygon fill="midnightblue" stroke="midnightblue" points="496.23,-180.77 506.74,-179.48 497.71,-173.93 496.23,-180.77"/>
</g>
<!-- Node5 -->
<g id="node5" class="node">
<title>Node5</title>
<g id="a_node5"><a xlink:href="Folder_8c.html" target="_top" xlink:title="This component manages cartographies in storage, converts position_gtk.txt into integer array,...">
<polygon fill="white" stroke="black" points="0,-0.5 0,-19.5 104,-19.5 104,-0.5 0,-0.5"/>
<text text-anchor="middle" x="52" y="-7.5" font-family="Helvetica,sans-Serif" font-size="10.00">src/Folder/Folder.c</text>
</a>
</g>
</g>
<!-- Node1&#45;&gt;Node5 -->
<g id="edge7" class="edge">
<title>Node1&#45;&gt;Node5</title>
<path fill="none" stroke="midnightblue" d="M456.47,-183.21C384.14,-177.77 280.22,-166.4 192,-143 116.69,-123.02 73.3,-140.77 30,-76 17.95,-57.97 34.15,-32.73 44.53,-19.64"/>
<polygon fill="midnightblue" stroke="midnightblue" points="456.23,-186.7 466.46,-183.94 456.74,-179.72 456.23,-186.7"/>
</g>
<!-- Node6 -->
<g id="node6" class="node">
<title>Node6</title>
<g id="a_node6"><a xlink:href="Geographer_8c.html" target="_top" xlink:title="This component is the active object of ACDSoft.">
<polygon fill="white" stroke="black" points="290,-0.5 290,-19.5 448,-19.5 448,-0.5 290,-0.5"/>
<text text-anchor="middle" x="369" y="-7.5" font-family="Helvetica,sans-Serif" font-size="10.00">src/Geographer/Geographer.c</text>
</a>
</g>
</g>
<!-- Node1&#45;&gt;Node6 -->
<g id="edge8" class="edge">
<title>Node1&#45;&gt;Node6</title>
<path fill="none" stroke="midnightblue" d="M602.78,-177.34C686.57,-159.25 827.75,-118.32 772,-56 750.85,-32.36 559.69,-19.7 448.42,-14.28"/>
<polygon fill="midnightblue" stroke="midnightblue" points="601.92,-173.95 592.86,-179.43 603.37,-180.79 601.92,-173.95"/>
</g>
<!-- Node7 -->
<g id="node7" class="node">
<title>Node7</title>
<g id="a_node7"><a xlink:href="LiDAR_8h.html" target="_top" xlink:title="This is the header file of LiDAR.c which communicates with the physical LiDAR to get a scan in a txt ...">
<polygon fill="white" stroke="black" points="411,-118 411,-137 515,-137 515,-118 411,-118"/>
<text text-anchor="middle" x="463" y="-125" font-family="Helvetica,sans-Serif" font-size="10.00">src/LiDAR/LiDAR.h</text>
</a>
</g>
</g>
<!-- Node1&#45;&gt;Node7 -->
<g id="edge9" class="edge">
<title>Node1&#45;&gt;Node7</title>
<path fill="none" stroke="midnightblue" d="M525.93,-173.61C509.97,-162.17 488.17,-146.55 474.87,-137.01"/>
<polygon fill="midnightblue" stroke="midnightblue" points="523.94,-176.49 534.11,-179.48 528.02,-170.8 523.94,-176.49"/>
</g>
<!-- Node9 -->
<g id="node9" class="node">
<title>Node9</title>
<g id="a_node9"><a xlink:href="starter_8c.html" target="_top" xlink:title="Starter of ACDSoft.">
<polygon fill="white" stroke="black" points="519,-56.5 519,-75.5 593,-75.5 593,-56.5 519,-56.5"/>
<text text-anchor="middle" x="556" y="-63.5" font-family="Helvetica,sans-Serif" font-size="10.00">src/starter.c</text>
</a>
</g>
</g>
<!-- Node1&#45;&gt;Node9 -->
<g id="edge17" class="edge">
<title>Node1&#45;&gt;Node9</title>
<path fill="none" stroke="midnightblue" d="M547.57,-168.99C549.77,-142.35 553.69,-95 555.29,-75.62"/>
<polygon fill="midnightblue" stroke="midnightblue" points="544.05,-169.04 546.72,-179.3 551.03,-169.62 544.05,-169.04"/>
</g>
<!-- Node10 -->
<g id="node10" class="node">
<title>Node10</title>
<g id="a_node10"><a xlink:href="Merger_8h.html" target="_top" xlink:title="This component is the raw scan merger.">
<polygon fill="white" stroke="black" points="574,-118 574,-137 688,-137 688,-118 574,-118"/>
<text text-anchor="middle" x="631" y="-125" font-family="Helvetica,sans-Serif" font-size="10.00">src/Merger/Merger.h</text>
</a>
</g>
</g>
<!-- Node1&#45;&gt;Node10 -->
<g id="edge13" class="edge">
<title>Node1&#45;&gt;Node10</title>
<path fill="none" stroke="midnightblue" d="M566.55,-173.61C582.9,-162.17 605.22,-146.55 618.84,-137.01"/>
<polygon fill="midnightblue" stroke="midnightblue" points="564.36,-170.87 558.18,-179.48 568.38,-176.61 564.36,-170.87"/>
</g>
<!-- Node12 -->
<g id="node12" class="node">
<title>Node12</title>
<g id="a_node12"><a xlink:href="NetworkC__Dispatcher_8c.html" target="_top" xlink:title="NetworkC_Dispatcher dispatch the received message.">
<polygon fill="white" stroke="black" points="819.5,-112.5 819.5,-142.5 956.5,-142.5 956.5,-112.5 819.5,-112.5"/>
<text text-anchor="start" x="827.5" y="-130.5" font-family="Helvetica,sans-Serif" font-size="10.00">src/NetworkC/Dispatcher</text>
<text text-anchor="middle" x="888" y="-119.5" font-family="Helvetica,sans-Serif" font-size="10.00">/NetworkC_Dispatcher.c</text>
</a>
</g>
</g>
<!-- Node1&#45;&gt;Node12 -->
<g id="edge16" class="edge">
<title>Node1&#45;&gt;Node12</title>
<path fill="none" stroke="midnightblue" d="M605.31,-177.71C657.81,-168.6 736.5,-154.93 805,-143 809.61,-142.2 814.37,-141.37 819.16,-140.53"/>
<polygon fill="midnightblue" stroke="midnightblue" points="604.43,-174.31 595.17,-179.47 605.62,-181.21 604.43,-174.31"/>
</g>
<!-- Node3 -->
<g id="node3" class="node">
<title>Node3</title>
<g id="a_node3"><a xlink:href="Converter_8c.html" target="_top" xlink:title="This component converts the raw data returned by the LiDAR physical component into a two&#45;dimensional ...">
<polygon fill="white" stroke="black" points="163,-56.5 163,-75.5 303,-75.5 303,-56.5 163,-56.5"/>
<text text-anchor="middle" x="233" y="-63.5" font-family="Helvetica,sans-Serif" font-size="10.00">src/Converter/Converter.c</text>
</a>
</g>
</g>
<!-- Node2&#45;&gt;Node3 -->
<g id="edge2" class="edge">
<title>Node2&#45;&gt;Node3</title>
<path fill="none" stroke="midnightblue" d="M260.86,-109.51C253.57,-98.39 244.37,-84.34 238.58,-75.51"/>
<polygon fill="midnightblue" stroke="midnightblue" points="258,-111.53 266.41,-117.98 263.86,-107.69 258,-111.53"/>
</g>
<!-- Node4 -->
<g id="node4" class="node">
<title>Node4</title>
<g id="a_node4"><a xlink:href="Folder_8h.html" target="_top" xlink:title="Folder.c header file, which manages cartographies in storage, converts position_gtk....">
<polygon fill="white" stroke="black" points="39.5,-56.5 39.5,-75.5 144.5,-75.5 144.5,-56.5 39.5,-56.5"/>
<text text-anchor="middle" x="92" y="-63.5" font-family="Helvetica,sans-Serif" font-size="10.00">src/Folder/Folder.h</text>
</a>
</g>
</g>
<!-- Node2&#45;&gt;Node4 -->
<g id="edge3" class="edge">
<title>Node2&#45;&gt;Node4</title>
<path fill="none" stroke="midnightblue" d="M236.4,-114.73C201.41,-103.17 148.86,-85.8 117.74,-75.51"/>
<polygon fill="midnightblue" stroke="midnightblue" points="235.62,-118.16 246.21,-117.98 237.81,-111.51 235.62,-118.16"/>
</g>
<!-- Node2&#45;&gt;Node6 -->
<g id="edge6" class="edge">
<title>Node2&#45;&gt;Node6</title>
<path fill="none" stroke="midnightblue" d="M285.86,-110C306.72,-85.16 345.47,-39.02 361.62,-19.78"/>
<polygon fill="midnightblue" stroke="midnightblue" points="283.04,-107.91 279.29,-117.82 288.4,-112.41 283.04,-107.91"/>
</g>
<!-- Node4&#45;&gt;Node5 -->
<g id="edge4" class="edge">
<title>Node4&#45;&gt;Node5</title>
<path fill="none" stroke="midnightblue" d="M79.3,-47.86C72.37,-38.5 64.09,-27.33 58.48,-19.75"/>
<polygon fill="midnightblue" stroke="midnightblue" points="76.63,-50.13 85.39,-56.08 82.25,-45.96 76.63,-50.13"/>
</g>
<!-- Node4&#45;&gt;Node6 -->
<g id="edge5" class="edge">
<title>Node4&#45;&gt;Node6</title>
<path fill="none" stroke="midnightblue" d="M146,-54.47C198.35,-44.27 276.77,-28.98 325.31,-19.52"/>
<polygon fill="midnightblue" stroke="midnightblue" points="145.04,-51.09 135.89,-56.44 146.38,-57.97 145.04,-51.09"/>
</g>
<!-- Node7&#45;&gt;Node6 -->
<g id="edge10" class="edge">
<title>Node7&#45;&gt;Node6</title>
<path fill="none" stroke="midnightblue" d="M433.91,-113.15C418.23,-104.59 399.74,-92.06 388,-76 375.37,-58.73 371.1,-33.16 369.68,-19.82"/>
<polygon fill="midnightblue" stroke="midnightblue" points="432.74,-116.49 443.23,-117.97 435.95,-110.27 432.74,-116.49"/>
</g>
<!-- Node8 -->
<g id="node8" class="node">
<title>Node8</title>
<g id="a_node8"><a xlink:href="LiDAR_8c.html" target="_top" xlink:title="This component communicates with the physical LiDAR to get a scan in a txt format and converts it to ...">
<polygon fill="white" stroke="black" points="397,-56.5 397,-75.5 501,-75.5 501,-56.5 397,-56.5"/>
<text text-anchor="middle" x="449" y="-63.5" font-family="Helvetica,sans-Serif" font-size="10.00">src/LiDAR/LiDAR.c</text>
</a>
</g>
</g>
<!-- Node7&#45;&gt;Node8 -->
<g id="edge11" class="edge">
<title>Node7&#45;&gt;Node8</title>
<path fill="none" stroke="midnightblue" d="M458.68,-108.16C456.12,-97.27 453,-83.99 451,-75.51"/>
<polygon fill="midnightblue" stroke="midnightblue" points="455.3,-109.04 460.99,-117.98 462.11,-107.44 455.3,-109.04"/>
</g>
<!-- Node7&#45;&gt;Node9 -->
<g id="edge12" class="edge">
<title>Node7&#45;&gt;Node9</title>
<path fill="none" stroke="midnightblue" d="M484.99,-112.43C502.92,-100.96 527.66,-85.13 542.7,-75.51"/>
<polygon fill="midnightblue" stroke="midnightblue" points="482.86,-109.64 476.32,-117.98 486.63,-115.53 482.86,-109.64"/>
</g>
<!-- Node10&#45;&gt;Node6 -->
<g id="edge14" class="edge">
<title>Node10&#45;&gt;Node6</title>
<path fill="none" stroke="midnightblue" d="M628.29,-107.59C624.95,-91.43 617.65,-68.8 602,-56 578.72,-36.96 506.21,-25 448.19,-18.24"/>
<polygon fill="midnightblue" stroke="midnightblue" points="624.86,-108.3 630.02,-117.55 631.76,-107.1 624.86,-108.3"/>
</g>
<!-- Node11 -->
<g id="node11" class="node">
<title>Node11</title>
<g id="a_node11"><a xlink:href="Merger_8c.html" target="_top" xlink:title="This component is the raw scan merger.">
<polygon fill="white" stroke="black" points="649.5,-56.5 649.5,-75.5 762.5,-75.5 762.5,-56.5 649.5,-56.5"/>
<text text-anchor="middle" x="706" y="-63.5" font-family="Helvetica,sans-Serif" font-size="10.00">src/Merger/Merger.c</text>
</a>
</g>
</g>
<!-- Node10&#45;&gt;Node11 -->
<g id="edge15" class="edge">
<title>Node10&#45;&gt;Node11</title>
<path fill="none" stroke="midnightblue" d="M649.94,-111.47C664.29,-100.09 683.48,-84.87 695.27,-75.51"/>
<polygon fill="midnightblue" stroke="midnightblue" points="647.4,-109.02 641.75,-117.98 651.76,-114.5 647.4,-109.02"/>
</g>
</g>
</svg>
