<?xml version="1.0" encoding="UTF-8" standalone="no"?>
<!DOCTYPE svg PUBLIC "-//W3C//DTD SVG 1.1//EN"
 "http://www.w3.org/Graphics/SVG/1.1/DTD/svg11.dtd">
<!-- Generated by graphviz version 2.43.0 (0)
 -->
<!-- Title: src/Geographer/Geographer.c Pages: 1 -->
<svg width="1125pt" height="386pt"
 viewBox="0.00 0.00 1125.00 386.00" xmlns="http://www.w3.org/2000/svg" xmlns:xlink="http://www.w3.org/1999/xlink">
<g id="graph0" class="graph" transform="scale(1 1) rotate(0) translate(4 382)">
<title>src/Geographer/Geographer.c</title>
<polygon fill="white" stroke="transparent" points="-4,4 -4,-382 1121,-382 1121,4 -4,4"/>
<!-- Node1 -->
<g id="node1" class="node">
<title>Node1</title>
<g id="a_node1"><a xlink:title="This component is the active object of ACDSoft.">
<polygon fill="#bfbfbf" stroke="black" points="412.5,-358.5 412.5,-377.5 570.5,-377.5 570.5,-358.5 412.5,-358.5"/>
<text text-anchor="middle" x="491.5" y="-365.5" font-family="Helvetica,sans-Serif" font-size="10.00">src/Geographer/Geographer.c</text>
</a>
</g>
</g>
<!-- Node2 -->
<g id="node2" class="node">
<title>Node2</title>
<g id="a_node2"><a xlink:title=" ">
<polygon fill="white" stroke="#bfbfbf" points="0,-297 0,-316 53,-316 53,-297 0,-297"/>
<text text-anchor="middle" x="26.5" y="-304" font-family="Helvetica,sans-Serif" font-size="10.00">stdlib.h</text>
</a>
</g>
</g>
<!-- Node1&#45;&gt;Node2 -->
<g id="edge1" class="edge">
<title>Node1&#45;&gt;Node2</title>
<path fill="none" stroke="midnightblue" d="M412.24,-365.52C325.04,-362.32 181.36,-352.42 61.5,-322 58.99,-321.36 56.42,-320.58 53.88,-319.71"/>
<polygon fill="midnightblue" stroke="midnightblue" points="54.92,-316.36 44.33,-316.05 52.41,-322.89 54.92,-316.36"/>
</g>
<!-- Node3 -->
<g id="node3" class="node">
<title>Node3</title>
<g id="a_node3"><a xlink:title=" ">
<polygon fill="white" stroke="#bfbfbf" points="71,-297 71,-316 134,-316 134,-297 71,-297"/>
<text text-anchor="middle" x="102.5" y="-304" font-family="Helvetica,sans-Serif" font-size="10.00">pthread.h</text>
</a>
</g>
</g>
<!-- Node1&#45;&gt;Node3 -->
<g id="edge2" class="edge">
<title>Node1&#45;&gt;Node3</title>
<path fill="none" stroke="midnightblue" d="M412.28,-361.77C340.95,-355.88 233.63,-344.11 142.5,-322 139.44,-321.26 136.29,-320.36 133.17,-319.38"/>
<polygon fill="midnightblue" stroke="midnightblue" points="134,-315.97 123.41,-316.06 131.75,-322.59 134,-315.97"/>
</g>
<!-- Node4 -->
<g id="node4" class="node">
<title>Node4</title>
<g id="a_node4"><a xlink:title=" ">
<polygon fill="white" stroke="#bfbfbf" points="152,-297 152,-316 217,-316 217,-297 152,-297"/>
<text text-anchor="middle" x="184.5" y="-304" font-family="Helvetica,sans-Serif" font-size="10.00">mqueue.h</text>
</a>
</g>
</g>
<!-- Node1&#45;&gt;Node4 -->
<g id="edge3" class="edge">
<title>Node1&#45;&gt;Node4</title>
<path fill="none" stroke="midnightblue" d="M422.77,-358.49C368.89,-351.06 292.28,-338.82 226.5,-322 223.29,-321.18 219.97,-320.22 216.67,-319.2"/>
<polygon fill="midnightblue" stroke="midnightblue" points="217.55,-315.81 206.96,-316.02 215.37,-322.46 217.55,-315.81"/>
</g>
<!-- Node5 -->
<g id="node5" class="node">
<title>Node5</title>
<g id="a_node5"><a xlink:title=" ">
<polygon fill="white" stroke="#bfbfbf" points="235.5,-297 235.5,-316 291.5,-316 291.5,-297 235.5,-297"/>
<text text-anchor="middle" x="263.5" y="-304" font-family="Helvetica,sans-Serif" font-size="10.00">unistd.h</text>
</a>
</g>
</g>
<!-- Node1&#45;&gt;Node5 -->
<g id="edge4" class="edge">
<title>Node1&#45;&gt;Node5</title>
<path fill="none" stroke="midnightblue" d="M447.4,-358.47C408.38,-350.48 350.1,-337.47 300.5,-322 298.08,-321.24 295.59,-320.41 293.11,-319.53"/>
<polygon fill="midnightblue" stroke="midnightblue" points="294.26,-316.22 283.67,-316 291.81,-322.78 294.26,-316.22"/>
</g>
<!-- Node6 -->
<g id="node6" class="node">
<title>Node6</title>
<g id="a_node6"><a xlink:title=" ">
<polygon fill="white" stroke="#bfbfbf" points="310,-297 310,-316 361,-316 361,-297 310,-297"/>
<text text-anchor="middle" x="335.5" y="-304" font-family="Helvetica,sans-Serif" font-size="10.00">errno.h</text>
</a>
</g>
</g>
<!-- Node1&#45;&gt;Node6 -->
<g id="edge5" class="edge">
<title>Node1&#45;&gt;Node6</title>
<path fill="none" stroke="midnightblue" d="M467.75,-358.46C443.28,-349.59 404.08,-335.2 370.5,-322 368.86,-321.36 367.18,-320.69 365.48,-320.01"/>
<polygon fill="midnightblue" stroke="midnightblue" points="366.39,-316.6 355.81,-316.06 363.75,-323.08 366.39,-316.6"/>
</g>
<!-- Node7 -->
<g id="node7" class="node">
<title>Node7</title>
<g id="a_node7"><a xlink:href="util_8h.html" target="_top" xlink:title="Macros to color the terminal in debug mode and do assert.">
<polygon fill="white" stroke="black" points="379.5,-297 379.5,-316 463.5,-316 463.5,-297 379.5,-297"/>
<text text-anchor="middle" x="421.5" y="-304" font-family="Helvetica,sans-Serif" font-size="10.00">../Config/util.h</text>
</a>
</g>
</g>
<!-- Node1&#45;&gt;Node7 -->
<g id="edge6" class="edge">
<title>Node1&#45;&gt;Node7</title>
<path fill="none" stroke="midnightblue" d="M481.47,-358.48C470.45,-349.11 452.54,-333.88 439.16,-322.51"/>
<polygon fill="midnightblue" stroke="midnightblue" points="441.4,-319.82 431.51,-316.01 436.86,-325.15 441.4,-319.82"/>
</g>
<!-- Node12 -->
<g id="node12" class="node">
<title>Node12</title>
<g id="a_node12"><a xlink:href="Geographer_8h.html" target="_top" xlink:title="This component is the active object of ACDSoft.">
<polygon fill="white" stroke="black" points="779.5,-174 779.5,-193 861.5,-193 861.5,-174 779.5,-174"/>
<text text-anchor="middle" x="820.5" y="-181" font-family="Helvetica,sans-Serif" font-size="10.00">Geographer.h</text>
</a>
</g>
</g>
<!-- Node1&#45;&gt;Node12 -->
<g id="edge11" class="edge">
<title>Node1&#45;&gt;Node12</title>
<path fill="none" stroke="midnightblue" d="M501.27,-358.25C531,-331.75 620.41,-253.1 654.5,-235 660.28,-231.93 734.59,-209.79 781.81,-195.86"/>
<polygon fill="midnightblue" stroke="midnightblue" points="782.84,-199.21 791.44,-193.03 780.86,-192.5 782.84,-199.21"/>
</g>
<!-- Node16 -->
<g id="node16" class="node">
<title>Node16</title>
<g id="a_node16"><a xlink:href="Converter_8h.html" target="_top" xlink:title="This component converts the raw data returned by the LiDAR physical component into a two&#45;dimensional ...">
<polygon fill="white" stroke="black" points="788,-235.5 788,-254.5 921,-254.5 921,-235.5 788,-235.5"/>
<text text-anchor="middle" x="854.5" y="-242.5" font-family="Helvetica,sans-Serif" font-size="10.00">../Converter/Converter.h</text>
</a>
</g>
</g>
<!-- Node1&#45;&gt;Node16 -->
<g id="edge18" class="edge">
<title>Node1&#45;&gt;Node16</title>
<path fill="none" stroke="midnightblue" d="M536.94,-358.45C575.41,-350.66 631.75,-337.95 679.5,-322 733.83,-303.86 794.61,-275.54 828.34,-259.08"/>
<polygon fill="midnightblue" stroke="midnightblue" points="830.08,-262.13 837.51,-254.57 826.99,-255.85 830.08,-262.13"/>
</g>
<!-- Node17 -->
<g id="node17" class="node">
<title>Node17</title>
<g id="a_node17"><a xlink:href="LiDAR_8h.html" target="_top" xlink:title="This is the header file of LiDAR.c which communicates with the physical LiDAR to get a scan in a txt ...">
<polygon fill="white" stroke="black" points="511.5,-235.5 511.5,-254.5 607.5,-254.5 607.5,-235.5 511.5,-235.5"/>
<text text-anchor="middle" x="559.5" y="-242.5" font-family="Helvetica,sans-Serif" font-size="10.00">../LiDAR/LiDAR.h</text>
</a>
</g>
</g>
<!-- Node1&#45;&gt;Node17 -->
<g id="edge20" class="edge">
<title>Node1&#45;&gt;Node17</title>
<path fill="none" stroke="midnightblue" d="M496.39,-358.3C507.52,-338.5 534.9,-289.78 549.67,-263.49"/>
<polygon fill="midnightblue" stroke="midnightblue" points="552.81,-265.06 554.65,-254.62 546.7,-261.63 552.81,-265.06"/>
</g>
<!-- Node19 -->
<g id="node19" class="node">
<title>Node19</title>
<g id="a_node19"><a xlink:href="Folder_8h.html" target="_top" xlink:title="Folder.c header file, which manages cartographies in storage, converts position_gtk....">
<polygon fill="white" stroke="black" points="853,-297 853,-316 950,-316 950,-297 853,-297"/>
<text text-anchor="middle" x="901.5" y="-304" font-family="Helvetica,sans-Serif" font-size="10.00">../Folder/Folder.h</text>
</a>
</g>
</g>
<!-- Node1&#45;&gt;Node19 -->
<g id="edge24" class="edge">
<title>Node1&#45;&gt;Node19</title>
<path fill="none" stroke="midnightblue" d="M557.57,-358.47C623.3,-349.84 726.99,-335.83 816.5,-322 825.1,-320.67 834.18,-319.2 843.07,-317.72"/>
<polygon fill="midnightblue" stroke="midnightblue" points="843.72,-321.16 853,-316.04 842.55,-314.25 843.72,-321.16"/>
</g>
<!-- Node20 -->
<g id="node20" class="node">
<title>Node20</title>
<g id="a_node20"><a xlink:href="Merger_8h.html" target="_top" xlink:title="This component is the raw scan merger.">
<polygon fill="white" stroke="black" points="663.5,-235.5 663.5,-254.5 769.5,-254.5 769.5,-235.5 663.5,-235.5"/>
<text text-anchor="middle" x="716.5" y="-242.5" font-family="Helvetica,sans-Serif" font-size="10.00">../Merger/Merger.h</text>
</a>
</g>
</g>
<!-- Node1&#45;&gt;Node20 -->
<g id="edge29" class="edge">
<title>Node1&#45;&gt;Node20</title>
<path fill="none" stroke="midnightblue" d="M550.34,-358.5C581.58,-352.02 619.59,-340.87 649.5,-322 673.47,-306.87 693.82,-280.67 705.6,-263.34"/>
<polygon fill="midnightblue" stroke="midnightblue" points="708.68,-265.03 711.23,-254.74 702.82,-261.19 708.68,-265.03"/>
</g>
<!-- Node21 -->
<g id="node21" class="node">
<title>Node21</title>
<g id="a_node21"><a xlink:href="NetworkC__ProxyCartoManager_8h.html" target="_top" xlink:title="Header file of NetworkC_ProxyCartoManager.c.">
<polygon fill="white" stroke="black" points="457,-168.5 457,-198.5 606,-198.5 606,-168.5 457,-168.5"/>
<text text-anchor="start" x="465" y="-186.5" font-family="Helvetica,sans-Serif" font-size="10.00">../NetworkC/Proxy/Network</text>
<text text-anchor="middle" x="531.5" y="-175.5" font-family="Helvetica,sans-Serif" font-size="10.00">C_ProxyCartoManager.h</text>
</a>
</g>
</g>
<!-- Node1&#45;&gt;Node21 -->
<g id="edge31" class="edge">
<title>Node1&#45;&gt;Node21</title>
<path fill="none" stroke="midnightblue" d="M490.95,-358.42C489.84,-337.02 488.54,-279.79 502.5,-235 505.51,-225.36 510.58,-215.56 515.65,-207.18"/>
<polygon fill="midnightblue" stroke="midnightblue" points="518.62,-209.04 521.06,-198.73 512.72,-205.27 518.62,-209.04"/>
</g>
<!-- Node22 -->
<g id="node22" class="node">
<title>Node22</title>
<g id="a_node22"><a xlink:href="NetworkC__ProxyGUI_8h.html" target="_top" xlink:title="Header file of NetworkC_ProxyGUI.c.">
<polygon fill="white" stroke="black" points="968,-291.5 968,-321.5 1117,-321.5 1117,-291.5 968,-291.5"/>
<text text-anchor="start" x="976" y="-309.5" font-family="Helvetica,sans-Serif" font-size="10.00">../NetworkC/Proxy/Network</text>
<text text-anchor="middle" x="1042.5" y="-298.5" font-family="Helvetica,sans-Serif" font-size="10.00">C_ProxyGUI.h</text>
</a>
</g>
</g>
<!-- Node1&#45;&gt;Node22 -->
<g id="edge33" class="edge">
<title>Node1&#45;&gt;Node22</title>
<path fill="none" stroke="midnightblue" d="M570.79,-361.25C661.86,-354.22 815.97,-341.04 957.7,-322.18"/>
<polygon fill="midnightblue" stroke="midnightblue" points="958.44,-325.61 967.89,-320.81 957.51,-318.68 958.44,-325.61"/>
</g>
<!-- Node8 -->
<g id="node8" class="node">
<title>Node8</title>
<g id="a_node8"><a xlink:title=" ">
<polygon fill="white" stroke="#bfbfbf" points="205.5,-235.5 205.5,-254.5 255.5,-254.5 255.5,-235.5 205.5,-235.5"/>
<text text-anchor="middle" x="230.5" y="-242.5" font-family="Helvetica,sans-Serif" font-size="10.00">stdio.h</text>
</a>
</g>
</g>
<!-- Node7&#45;&gt;Node8 -->
<g id="edge7" class="edge">
<title>Node7&#45;&gt;Node8</title>
<path fill="none" stroke="midnightblue" d="M394.13,-296.98C360.29,-286.43 302.61,-268.46 265.55,-256.92"/>
<polygon fill="midnightblue" stroke="midnightblue" points="266.27,-253.48 255.68,-253.85 264.19,-260.16 266.27,-253.48"/>
</g>
<!-- Node9 -->
<g id="node9" class="node">
<title>Node9</title>
<g id="a_node9"><a xlink:title=" ">
<polygon fill="white" stroke="#bfbfbf" points="274,-235.5 274,-254.5 327,-254.5 327,-235.5 274,-235.5"/>
<text text-anchor="middle" x="300.5" y="-242.5" font-family="Helvetica,sans-Serif" font-size="10.00">string.h</text>
</a>
</g>
</g>
<!-- Node7&#45;&gt;Node9 -->
<g id="edge8" class="edge">
<title>Node7&#45;&gt;Node9</title>
<path fill="none" stroke="midnightblue" d="M404.16,-296.98C383.95,-287.03 350.31,-270.49 326.86,-258.96"/>
<polygon fill="midnightblue" stroke="midnightblue" points="328.32,-255.78 317.8,-254.51 325.23,-262.06 328.32,-255.78"/>
</g>
<!-- Node10 -->
<g id="node10" class="node">
<title>Node10</title>
<g id="a_node10"><a xlink:title=" ">
<polygon fill="white" stroke="#bfbfbf" points="345.5,-235.5 345.5,-254.5 401.5,-254.5 401.5,-235.5 345.5,-235.5"/>
<text text-anchor="middle" x="373.5" y="-242.5" font-family="Helvetica,sans-Serif" font-size="10.00">assert.h</text>
</a>
</g>
</g>
<!-- Node7&#45;&gt;Node10 -->
<g id="edge9" class="edge">
<title>Node7&#45;&gt;Node10</title>
<path fill="none" stroke="midnightblue" d="M414.62,-296.98C407.35,-287.96 395.7,-273.52 386.66,-262.31"/>
<polygon fill="midnightblue" stroke="midnightblue" points="389.37,-260.09 380.36,-254.51 383.92,-264.49 389.37,-260.09"/>
</g>
<!-- Node11 -->
<g id="node11" class="node">
<title>Node11</title>
<g id="a_node11"><a xlink:title=" ">
<polygon fill="white" stroke="#bfbfbf" points="487,-56.5 487,-75.5 540,-75.5 540,-56.5 487,-56.5"/>
<text text-anchor="middle" x="513.5" y="-63.5" font-family="Helvetica,sans-Serif" font-size="10.00">stdint.h</text>
</a>
</g>
</g>
<!-- Node7&#45;&gt;Node11 -->
<g id="edge10" class="edge">
<title>Node7&#45;&gt;Node11</title>
<path fill="none" stroke="midnightblue" d="M422.07,-296.81C423.76,-274.6 429.87,-214.26 448.5,-168 461.48,-135.77 485.1,-102.71 500.01,-83.55"/>
<polygon fill="midnightblue" stroke="midnightblue" points="502.88,-85.56 506.36,-75.56 497.4,-81.21 502.88,-85.56"/>
</g>
<!-- Node13 -->
<g id="node13" class="node">
<title>Node13</title>
<g id="a_node13"><a xlink:href="config_8h.html" target="_top" xlink:title="Global definitions.">
<polygon fill="white" stroke="black" points="725.5,-56.5 725.5,-75.5 823.5,-75.5 823.5,-56.5 725.5,-56.5"/>
<text text-anchor="middle" x="774.5" y="-63.5" font-family="Helvetica,sans-Serif" font-size="10.00">../Config/config.h</text>
</a>
</g>
</g>
<!-- Node12&#45;&gt;Node13 -->
<g id="edge12" class="edge">
<title>Node12&#45;&gt;Node13</title>
<path fill="none" stroke="midnightblue" d="M817.04,-173.82C809.58,-155.09 791.84,-110.55 781.79,-85.29"/>
<polygon fill="midnightblue" stroke="midnightblue" points="784.95,-83.78 778,-75.78 778.45,-86.37 784.95,-83.78"/>
</g>
<!-- Node15 -->
<g id="node15" class="node">
<title>Node15</title>
<g id="a_node15"><a xlink:href="Carto_8h.html" target="_top" xlink:title="This component describes the cartography&#39;s model. It also allow the user to modify it&#39;s parameters.">
<polygon fill="white" stroke="black" points="515.5,-112.5 515.5,-131.5 605.5,-131.5 605.5,-112.5 515.5,-112.5"/>
<text text-anchor="middle" x="560.5" y="-119.5" font-family="Helvetica,sans-Serif" font-size="10.00">../Carto/Carto.h</text>
</a>
</g>
</g>
<!-- Node12&#45;&gt;Node15 -->
<g id="edge14" class="edge">
<title>Node12&#45;&gt;Node15</title>
<path fill="none" stroke="midnightblue" d="M792.3,-173.94C785.21,-171.9 777.6,-169.79 770.5,-168 717.95,-154.77 657.37,-142.05 614.83,-133.54"/>
<polygon fill="midnightblue" stroke="midnightblue" points="615.45,-130.09 604.96,-131.57 614.08,-136.96 615.45,-130.09"/>
</g>
<!-- Node14 -->
<g id="node14" class="node">
<title>Node14</title>
<g id="a_node14"><a xlink:title=" ">
<polygon fill="white" stroke="#bfbfbf" points="743.5,-0.5 743.5,-19.5 805.5,-19.5 805.5,-0.5 743.5,-0.5"/>
<text text-anchor="middle" x="774.5" y="-7.5" font-family="Helvetica,sans-Serif" font-size="10.00">stdbool.h</text>
</a>
</g>
</g>
<!-- Node13&#45;&gt;Node14 -->
<g id="edge13" class="edge">
<title>Node13&#45;&gt;Node14</title>
<path fill="none" stroke="midnightblue" d="M774.5,-56.08C774.5,-49.01 774.5,-38.86 774.5,-29.99"/>
<polygon fill="midnightblue" stroke="midnightblue" points="778,-29.75 774.5,-19.75 771,-29.75 778,-29.75"/>
</g>
<!-- Node15&#45;&gt;Node11 -->
<g id="edge15" class="edge">
<title>Node15&#45;&gt;Node11</title>
<path fill="none" stroke="midnightblue" d="M552.74,-112.08C545.96,-104.3 535.96,-92.8 527.74,-83.37"/>
<polygon fill="midnightblue" stroke="midnightblue" points="530.32,-81 521.12,-75.75 525.04,-85.59 530.32,-81"/>
</g>
<!-- Node15&#45;&gt;Node13 -->
<g id="edge17" class="edge">
<title>Node15&#45;&gt;Node13</title>
<path fill="none" stroke="midnightblue" d="M594.41,-112.44C631.35,-103.12 690.55,-88.18 730.92,-78"/>
<polygon fill="midnightblue" stroke="midnightblue" points="731.91,-81.36 740.75,-75.52 730.2,-74.57 731.91,-81.36"/>
</g>
<!-- Node15&#45;&gt;Node14 -->
<g id="edge16" class="edge">
<title>Node15&#45;&gt;Node14</title>
<path fill="none" stroke="midnightblue" d="M577.29,-112.37C614.56,-93.21 704.39,-47.04 748.79,-24.22"/>
<polygon fill="midnightblue" stroke="midnightblue" points="750.49,-27.28 757.79,-19.59 747.29,-21.05 750.49,-27.28"/>
</g>
<!-- Node16&#45;&gt;Node12 -->
<g id="edge19" class="edge">
<title>Node16&#45;&gt;Node12</title>
<path fill="none" stroke="midnightblue" d="M849.63,-235.48C844.63,-226.73 836.71,-212.87 830.39,-201.81"/>
<polygon fill="midnightblue" stroke="midnightblue" points="833.36,-199.96 825.36,-193.01 827.28,-203.43 833.36,-199.96"/>
</g>
<!-- Node17&#45;&gt;Node12 -->
<g id="edge22" class="edge">
<title>Node17&#45;&gt;Node12</title>
<path fill="none" stroke="midnightblue" d="M604.17,-235.45C647.03,-227.01 713.47,-213.33 770.5,-199 774.38,-198.02 778.42,-196.95 782.44,-195.85"/>
<polygon fill="midnightblue" stroke="midnightblue" points="783.63,-199.15 792.3,-193.06 781.73,-192.41 783.63,-199.15"/>
</g>
<!-- Node17&#45;&gt;Node13 -->
<g id="edge21" class="edge">
<title>Node17&#45;&gt;Node13</title>
<path fill="none" stroke="midnightblue" d="M570.29,-235.44C581.6,-226.43 599.88,-211.82 615.5,-199 632.08,-185.39 636.02,-181.73 652.5,-168 689.19,-137.44 732.25,-101.86 756.15,-82.14"/>
<polygon fill="midnightblue" stroke="midnightblue" points="758.55,-84.69 764.04,-75.63 754.1,-79.29 758.55,-84.69"/>
</g>
<!-- Node18 -->
<g id="node18" class="node">
<title>Node18</title>
<g id="a_node18"><a xlink:href="LiDAR__A1M8_8hpp_source.html" target="_top" xlink:title=" ">
<polygon fill="white" stroke="black" points="661.5,-174 661.5,-193 761.5,-193 761.5,-174 661.5,-174"/>
<text text-anchor="middle" x="711.5" y="-181" font-family="Helvetica,sans-Serif" font-size="10.00">LiDAR_A1M8.hpp</text>
</a>
</g>
</g>
<!-- Node17&#45;&gt;Node18 -->
<g id="edge23" class="edge">
<title>Node17&#45;&gt;Node18</title>
<path fill="none" stroke="midnightblue" d="M581.28,-235.48C607.24,-225.31 650.81,-208.26 680.33,-196.7"/>
<polygon fill="midnightblue" stroke="midnightblue" points="681.73,-199.91 689.76,-193.01 679.17,-193.4 681.73,-199.91"/>
</g>
<!-- Node19&#45;&gt;Node13 -->
<g id="edge28" class="edge">
<title>Node19&#45;&gt;Node13</title>
<path fill="none" stroke="midnightblue" d="M912.67,-296.87C923.42,-287.79 938.97,-272.42 945.5,-255 948.62,-246.68 947.91,-243.56 945.5,-235 924.36,-159.96 842.59,-104.78 800.25,-80.58"/>
<polygon fill="midnightblue" stroke="midnightblue" points="801.8,-77.44 791.36,-75.63 798.39,-83.55 801.8,-77.44"/>
</g>
<!-- Node19&#45;&gt;Node14 -->
<g id="edge25" class="edge">
<title>Node19&#45;&gt;Node14</title>
<path fill="none" stroke="midnightblue" d="M921.98,-296.92C957.2,-280.62 1025.5,-241.65 1025.5,-184.5 1025.5,-184.5 1025.5,-184.5 1025.5,-121 1025.5,-30.6 887.24,-13.8 815.95,-11.14"/>
<polygon fill="midnightblue" stroke="midnightblue" points="815.63,-7.63 805.53,-10.83 815.42,-14.63 815.63,-7.63"/>
</g>
<!-- Node19&#45;&gt;Node15 -->
<g id="edge26" class="edge">
<title>Node19&#45;&gt;Node15</title>
<path fill="none" stroke="midnightblue" d="M909.52,-296.87C920.82,-283.64 939.1,-257.5 930.5,-235 916.23,-197.66 905.73,-186.89 870.5,-168 827.5,-144.94 692.47,-132.1 615.55,-126.48"/>
<polygon fill="midnightblue" stroke="midnightblue" points="615.78,-122.99 605.56,-125.77 615.28,-129.97 615.78,-122.99"/>
</g>
<!-- Node19&#45;&gt;Node16 -->
<g id="edge27" class="edge">
<title>Node19&#45;&gt;Node16</title>
<path fill="none" stroke="midnightblue" d="M894.77,-296.98C887.72,-288.05 876.47,-273.81 867.65,-262.64"/>
<polygon fill="midnightblue" stroke="midnightblue" points="870.17,-260.19 861.22,-254.51 864.67,-264.53 870.17,-260.19"/>
</g>
<!-- Node20&#45;&gt;Node12 -->
<g id="edge30" class="edge">
<title>Node20&#45;&gt;Node12</title>
<path fill="none" stroke="midnightblue" d="M731.4,-235.48C748.47,-225.71 776.66,-209.58 796.76,-198.08"/>
<polygon fill="midnightblue" stroke="midnightblue" points="798.69,-201.01 805.63,-193.01 795.21,-194.94 798.69,-201.01"/>
</g>
<!-- Node21&#45;&gt;Node15 -->
<g id="edge32" class="edge">
<title>Node21&#45;&gt;Node15</title>
<path fill="none" stroke="midnightblue" d="M538.37,-168.4C542.41,-160.11 547.56,-149.55 551.87,-140.71"/>
<polygon fill="midnightblue" stroke="midnightblue" points="555.05,-142.18 556.28,-131.66 548.75,-139.11 555.05,-142.18"/>
</g>
</g>
</svg>
