<?xml version="1.0" encoding="UTF-8" standalone="no"?><svg xmlns="http://www.w3.org/2000/svg" xmlns:xlink="http://www.w3.org/1999/xlink" contentStyleType="text/css" height="524px" preserveAspectRatio="none" style="width:912px;height:524px;background:#FFFFFF;" version="1.1" viewBox="0 0 912 524" width="912px" zoomAndPan="magnify"><defs/><g><ellipse cx="394.18" cy="16" fill="#222222" rx="10" ry="10" style="stroke:none;stroke-width:1.0;"/><g id="S_IDLE"><rect fill="#F1F1F1" height="50" rx="12.5" ry="12.5" style="stroke:#181818;stroke-width:0.5;" width="66" x="361.18" y="87"/><line style="stroke:#181818;stroke-width:0.5;" x1="361.18" x2="427.18" y1="113.2969" y2="113.2969"/><text fill="#000000" font-family="sans-serif" font-size="14" lengthAdjust="spacing" textLength="46" x="371.18" y="104.9951">S_IDLE</text></g><g id="S_SCANNING"><rect fill="#F1F1F1" height="50" rx="12.5" ry="12.5" style="stroke:#181818;stroke-width:0.5;" width="108" x="70.18" y="214"/><line style="stroke:#181818;stroke-width:0.5;" x1="70.18" x2="178.18" y1="240.2969" y2="240.2969"/><text fill="#000000" font-family="sans-serif" font-size="14" lengthAdjust="spacing" textLength="88" x="80.18" y="231.9951">S_SCANNING</text></g><g id="S_END_SCAN"><rect fill="#F1F1F1" height="50" rx="12.5" ry="12.5" style="stroke:#181818;stroke-width:0.5;" width="111" x="256.68" y="341"/><line style="stroke:#181818;stroke-width:0.5;" x1="256.68" x2="367.68" y1="367.2969" y2="367.2969"/><text fill="#000000" font-family="sans-serif" font-size="14" lengthAdjust="spacing" textLength="91" x="266.68" y="358.9951">S_END_SCAN</text></g><g id="S_SAVE"><rect fill="#F1F1F1" height="50" rx="12.5" ry="12.5" style="stroke:#181818;stroke-width:0.5;" width="72" x="635.18" y="214"/><line style="stroke:#181818;stroke-width:0.5;" x1="635.18" x2="707.18" y1="240.2969" y2="240.2969"/><text fill="#000000" font-family="sans-serif" font-size="14" lengthAdjust="spacing" textLength="52" x="645.18" y="231.9951">S_SAVE</text></g><g id="S_DEATH"><rect fill="#F1F1F1" height="50" rx="12.5" ry="12.5" style="stroke:#181818;stroke-width:0.5;" width="84" x="143.18" y="468"/><line style="stroke:#181818;stroke-width:0.5;" x1="143.18" x2="227.18" y1="494.2969" y2="494.2969"/><text fill="#000000" font-family="sans-serif" font-size="14" lengthAdjust="spacing" textLength="64" x="153.18" y="485.9951">S_DEATH</text></g><!--MD5=[2477e51b5ac20eb089b661cd16fbefce]
link *start to S_IDLE--><g id="link_*start_S_IDLE"><path d="M394.18,26.01 C394.18,38.7 394.18,62.41 394.18,81.57 " fill="none" id="*start-to-S_IDLE" style="stroke:#181818;stroke-width:1.0;"/><polygon fill="#181818" points="394.18,86.84,398.18,77.84,394.18,81.84,390.18,77.84,394.18,86.84" style="stroke:#181818;stroke-width:1.0;"/></g><!--MD5=[62e09a380d2a0d92e77490e068cef4d6]
link S_IDLE to S_SCANNING--><g id="link_S_IDLE_S_SCANNING"><path d="M360.93,114.44 C294.58,118.09 149.47,130.18 119.18,167 C109.81,178.39 110.26,194.59 113.41,208.64 " fill="none" id="S_IDLE-to-S_SCANNING" style="stroke:#181818;stroke-width:1.0;"/><polygon fill="#181818" points="114.68,213.71,116.3777,204.0086,113.4673,208.8593,108.6166,205.9489,114.68,213.71" style="stroke:#181818;stroke-width:1.0;"/><text fill="#000000" font-family="sans-serif" font-size="13" lengthAdjust="spacing" textLength="247" x="120.18" y="180.0669">E_ASK_4_SCAN / A_RESET_RAW_SCAN</text></g><!--MD5=[12545be42cfca02359fde6a2f183a1e7]
link S_SCANNING to S_END_SCAN--><g id="link_S_SCANNING_S_END_SCAN"><path d="M138.18,264.07 C148.02,279.23 162.4,298.28 179.18,311 C200.59,327.23 227.55,339.37 251.6,347.98 " fill="none" id="S_SCANNING-to-S_END_SCAN" style="stroke:#181818;stroke-width:1.0;"/><polygon fill="#181818" points="256.36,349.66,249.1958,342.9017,251.6429,348.0019,246.5428,350.449,256.36,349.66" style="stroke:#181818;stroke-width:1.0;"/><text fill="#000000" font-family="sans-serif" font-size="13" lengthAdjust="spacing" textLength="187" x="180.18" y="307.0669">E_END_SCAN / A_END_SCAN</text></g><!--MD5=[b0195ed00dbb511c96d20b11e19934f7]
link S_END_SCAN to S_IDLE--><g id="link_S_END_SCAN_S_IDLE"><path d="M347.56,340.76 C357.09,332.45 366.35,322.35 372.18,311 C400.14,256.52 399.95,182.69 397.17,142.34 " fill="none" id="S_END_SCAN-to-S_IDLE" style="stroke:#181818;stroke-width:1.0;"/><polygon fill="#181818" points="396.78,137.11,393.4597,146.3823,397.1515,142.0962,401.4376,145.788,396.78,137.11" style="stroke:#181818;stroke-width:1.0;"/><text fill="#000000" font-family="sans-serif" font-size="13" lengthAdjust="spacing" textLength="204" x="397.18" y="243.5669">E_ACK_CARTO / A_ACK_4_SCAN</text></g><!--MD5=[e360159094cbc843508471d1c0c93035]
link S_IDLE to S_SAVE--><g id="link_S_IDLE_S_SAVE"><path d="M406.76,137.19 C416.27,153.02 430.82,172.77 449.18,184 C510.52,221.53 538.97,194.46 608.18,214 C615.31,216.02 622.78,218.5 629.97,221.11 " fill="none" id="S_IDLE-to-S_SAVE" style="stroke:#181818;stroke-width:1.0;"/><polygon fill="#181818" points="634.9,222.92,627.8339,216.0593,630.2073,221.1941,625.0725,223.5676,634.9,222.92" style="stroke:#181818;stroke-width:1.0;"/><text fill="#000000" font-family="sans-serif" font-size="13" lengthAdjust="spacing" textLength="193" x="450.18" y="180.0669">E_SET_CARTO / A_ACK_CARTO</text></g><!--MD5=[63f0c5538c1a85427cd6b8ccf0ef53c3]
link S_SAVE to S_IDLE--><g id="link_S_SAVE_S_IDLE"><path d="M669.43,213.94 C667.02,198.38 661.36,178.88 648.18,167 C616.82,138.74 495.46,122.93 432.52,116.48 " fill="none" id="S_SAVE-to-S_IDLE" style="stroke:#181818;stroke-width:1.0;"/><polygon fill="#181818" points="427.36,115.96,435.9145,120.8406,432.3349,116.4603,436.7151,112.8807,427.36,115.96" style="stroke:#181818;stroke-width:1.0;"/><text fill="#000000" font-family="sans-serif" font-size="13" lengthAdjust="spacing" textLength="244" x="660.18" y="180.0669">E_ACK_SAVE / A_ACK_4_SAVE_CARTO</text></g><!--MD5=[8927fa8bf7d22338144613945406efc2]
link S_IDLE to S_DEATH--><g id="link_S_IDLE_S_DEATH"><path d="M361.04,113.4 C305.19,115.29 190.01,124.53 104.18,167 C76.26,180.82 69.7,188.24 52.18,214 C26.8,251.31 6,268.87 22.18,311 C47.26,376.33 108.01,432.82 147.85,464.61 " fill="none" id="S_IDLE-to-S_DEATH" style="stroke:#181818;stroke-width:1.0;"/><polygon fill="#181818" points="152.12,467.99,147.5326,459.2748,148.1949,464.8927,142.5769,465.555,152.12,467.99" style="stroke:#181818;stroke-width:1.0;"/><text fill="#000000" font-family="sans-serif" font-size="13" lengthAdjust="spacing" textLength="95" x="23.18" y="307.0669">E_EXIT / A_EXIT</text></g><!--MD5=[15e3ae92f500eb2be9b024276fcbfc94]
link S_SCANNING to S_DEATH--><g id="link_S_SCANNING_S_DEATH"><path d="M124.95,264.19 C126.4,294.35 130.51,347.25 142.18,391 C148.9,416.23 160.75,443.39 170.3,463.18 " fill="none" id="S_SCANNING-to-S_DEATH" style="stroke:#181818;stroke-width:1.0;"/><polygon fill="#181818" points="172.55,467.79,172.2036,457.9472,170.3599,463.2952,165.0119,461.4515,172.55,467.79" style="stroke:#181818;stroke-width:1.0;"/><text fill="#000000" font-family="sans-serif" font-size="13" lengthAdjust="spacing" textLength="95" x="143.18" y="370.5669">E_EXIT / A_EXIT</text></g><!--MD5=[6733961bdaee3edecfcb529dcef6571d]
link S_END_SCAN to S_DEATH--><g id="link_S_END_SCAN_S_DEATH"><path d="M287.69,391.1 C266.43,412.03 235.65,442.32 213.37,464.25 " fill="none" id="S_END_SCAN-to-S_DEATH" style="stroke:#181818;stroke-width:1.0;"/><polygon fill="#181818" points="209.59,467.97,218.8036,464.4902,213.1469,464.456,213.1812,458.7992,209.59,467.97" style="stroke:#181818;stroke-width:1.0;"/><text fill="#000000" font-family="sans-serif" font-size="13" lengthAdjust="spacing" textLength="95" x="258.18" y="434.0669">E_EXIT / A_EXIT</text></g><!--MD5=[007b9bc895a8644961c00c0bf7da03a0]
link S_SAVE to S_DEATH--><g id="link_S_SAVE_S_DEATH"><path d="M639.94,264.18 C585.97,304.96 470.62,387.87 362.18,438 C320.07,457.47 269.15,472.15 232.75,481.26 " fill="none" id="S_SAVE-to-S_DEATH" style="stroke:#181818;stroke-width:1.0;"/><polygon fill="#181818" points="227.49,482.56,237.1914,484.2577,232.3407,481.3473,235.2511,476.4966,227.49,482.56" style="stroke:#181818;stroke-width:1.0;"/><text fill="#000000" font-family="sans-serif" font-size="13" lengthAdjust="spacing" textLength="95" x="531.18" y="370.5669">E_EXIT / A_EXIT</text></g><!--MD5=[cc39954f9a3a5b0f58106815cbc3757d]
@startuml inline_umlgraph_1.svg
[*] - ->S_IDLE
S_IDLE - -> S_SCANNING : E_ASK_4_SCAN / A_RESET_RAW_SCAN
S_SCANNING - -> S_END_SCAN : E_END_SCAN / A_END_SCAN
S_END_SCAN - -> S_IDLE : E_ACK_CARTO / A_ACK_4_SCAN
S_IDLE - -> S_SAVE : E_SET_CARTO / A_ACK_CARTO
S_SAVE - -> S_IDLE : E_ACK_SAVE / A_ACK_4_SAVE_CARTO
S_IDLE - -> S_DEATH : E_EXIT / A_EXIT
S_SCANNING - -> S_DEATH : E_EXIT / A_EXIT
S_END_SCAN - -> S_DEATH : E_EXIT / A_EXIT
S_SAVE - -> S_DEATH : E_EXIT / A_EXIT
@enduml

PlantUML version 1.2022.5(Sat Apr 30 12:55:52 CEST 2022)
(GPL source distribution)
Java Runtime: OpenJDK Runtime Environment
JVM: OpenJDK 64-Bit Server VM
Default Encoding: UTF-8
Language: en
Country: US
--></g></svg>