<?xml version="1.0" encoding="UTF-8" standalone="no"?><svg xmlns="http://www.w3.org/2000/svg" xmlns:xlink="http://www.w3.org/1999/xlink" contentStyleType="text/css" height="524px" preserveAspectRatio="none" style="width:702px;height:524px;background:#FFFFFF;" version="1.1" viewBox="0 0 702 524" width="702px" zoomAndPan="magnify"><defs/><g><ellipse cx="452.5" cy="16" fill="#222222" rx="10" ry="10" style="stroke:none;stroke-width:1.0;"/><g id="S_WAITING"><rect fill="#F1F1F1" height="50" rx="12.5" ry="12.5" style="stroke:#181818;stroke-width:0.5;" width="94" x="405.5" y="87"/><line style="stroke:#181818;stroke-width:0.5;" x1="405.5" x2="499.5" y1="113.2969" y2="113.2969"/><text fill="#000000" font-family="sans-serif" font-size="14" lengthAdjust="spacing" textLength="74" x="415.5" y="104.9951">S_WAITING</text></g><g id="S_CONNECTED"><rect fill="#F1F1F1" height="50" rx="12.5" ry="12.5" style="stroke:#181818;stroke-width:0.5;" width="125" x="7" y="214"/><line style="stroke:#181818;stroke-width:0.5;" x1="7" x2="132" y1="240.2969" y2="240.2969"/><text fill="#000000" font-family="sans-serif" font-size="14" lengthAdjust="spacing" textLength="105" x="17" y="231.9951">S_CONNECTED</text></g><g id="S_ERROR"><rect fill="#F1F1F1" height="50" rx="12.5" ry="12.5" style="stroke:#181818;stroke-width:0.5;" width="86" x="179.5" y="341"/><line style="stroke:#181818;stroke-width:0.5;" x1="179.5" x2="265.5" y1="367.2969" y2="367.2969"/><text fill="#000000" font-family="sans-serif" font-size="14" lengthAdjust="spacing" textLength="66" x="189.5" y="358.9951">S_ERROR</text></g><g id="S_DEATH"><rect fill="#F1F1F1" height="50" rx="12.5" ry="12.5" style="stroke:#181818;stroke-width:0.5;" width="84" x="180.5" y="468"/><line style="stroke:#181818;stroke-width:0.5;" x1="180.5" x2="264.5" y1="494.2969" y2="494.2969"/><text fill="#000000" font-family="sans-serif" font-size="14" lengthAdjust="spacing" textLength="64" x="190.5" y="485.9951">S_DEATH</text></g><!--MD5=[31340890eccf8f112b20ea33b11022d9]
link *start to S_WAITING--><g id="link_*start_S_WAITING"><path d="M452.5,26.01 C452.5,38.7 452.5,62.41 452.5,81.57 " fill="none" id="*start-to-S_WAITING" style="stroke:#181818;stroke-width:1.0;"/><polygon fill="#181818" points="452.5,86.84,456.5,77.84,452.5,81.84,448.5,77.84,452.5,86.84" style="stroke:#181818;stroke-width:1.0;"/></g><!--MD5=[f04e06c164929f38aa6507980944a6fe]
link S_WAITING to S_CONNECTED--><g id="link_S_WAITING_S_CONNECTED"><path d="M405.25,120.87 C357.58,129.53 282.25,145.16 219.5,167 C184.63,179.14 147.09,196.91 118.28,211.64 " fill="none" id="S_WAITING-to-S_CONNECTED" style="stroke:#181818;stroke-width:1.0;"/><polygon fill="#181818" points="113.73,213.98,123.5629,213.4196,118.1761,211.6926,119.9031,206.3058,113.73,213.98" style="stroke:#181818;stroke-width:1.0;"/><text fill="#000000" font-family="sans-serif" font-size="13" lengthAdjust="spacing" textLength="205" x="220.5" y="180.0669">E_CONNECTED / A_CONNECTED</text></g><!--MD5=[c421dcfbf8348692c94638bdd4b0315b]
link S_WAITING to S_ERROR--><g id="link_S_WAITING_S_ERROR"><path d="M455.16,137.24 C458.25,178.49 458.15,262.58 413.5,311 C377.14,350.44 314.37,361.88 270.76,364.79 " fill="none" id="S_WAITING-to-S_ERROR" style="stroke:#181818;stroke-width:1.0;"/><polygon fill="#181818" points="265.54,365.1,274.764,368.5522,270.531,364.7997,274.2835,360.5667,265.54,365.1" style="stroke:#181818;stroke-width:1.0;"/><text fill="#000000" font-family="sans-serif" font-size="13" lengthAdjust="spacing" textLength="127" x="453.5" y="243.5669">E_ERROR / A_ERROR</text></g><!--MD5=[20a4ccb4b0292e73d071846f0acaa6f1]
link S_CONNECTED to S_ERROR--><g id="link_S_CONNECTED_S_ERROR"><path d="M53.43,264.28 C45.9,278.97 40.53,297.42 50.5,311 C65.3,331.16 128.67,347.2 174.19,356.4 " fill="none" id="S_CONNECTED-to-S_ERROR" style="stroke:#181818;stroke-width:1.0;"/><polygon fill="#181818" points="179.37,357.43,171.3197,351.7562,174.4655,356.4577,169.764,359.6034,179.37,357.43" style="stroke:#181818;stroke-width:1.0;"/><text fill="#000000" font-family="sans-serif" font-size="13" lengthAdjust="spacing" textLength="127" x="51.5" y="307.0669">E_ERROR / A_ERROR</text></g><!--MD5=[2566bdb25114d7899c657884f8ac64e9]
link S_ERROR to S_CONNECTED--><g id="link_S_ERROR_S_CONNECTED"><path d="M213.72,340.8 C207.26,325.77 197.22,306.92 183.5,294 C170.17,281.44 153.38,271.33 136.81,263.4 " fill="none" id="S_ERROR-to-S_CONNECTED" style="stroke:#181818;stroke-width:1.0;"/><polygon fill="#181818" points="132.15,261.22,138.6128,268.6518,136.6806,263.3352,141.9972,261.4029,132.15,261.22" style="stroke:#181818;stroke-width:1.0;"/><text fill="#000000" font-family="sans-serif" font-size="13" lengthAdjust="spacing" textLength="205" x="199.5" y="307.0669">E_CONNECTED / A_CONNECTED</text></g><!--MD5=[bc03e43d60a4dd8c6cad746ea3c0bd21]
link S_WAITING to S_WAITING--><g id="link_S_WAITING_S_WAITING"><path d="M499.69,101.94 C518.61,101.37 534.5,104.72 534.5,112 C534.5,118.6 521.45,121.97 504.92,122.12 " fill="none" id="S_WAITING-to-S_WAITING" style="stroke:#181818;stroke-width:1.0;"/><polygon fill="#181818" points="499.69,122.06,508.6437,126.1626,504.6897,122.1171,508.7351,118.1631,499.69,122.06" style="stroke:#181818;stroke-width:1.0;"/><text fill="#000000" font-family="sans-serif" font-size="13" lengthAdjust="spacing" textLength="149" x="540.5" y="116.5669">E_WAITING / A_WAITING</text></g><!--MD5=[8331b17c07e5d098a7a20e519fdb19fb]
link S_ERROR to S_ERROR--><g id="link_S_ERROR_S_ERROR"><path d="M265.81,354.51 C284.5,353.57 300.5,357.4 300.5,366 C300.5,373.79 287.36,377.67 270.99,377.62 " fill="none" id="S_ERROR-to-S_ERROR" style="stroke:#181818;stroke-width:1.0;"/><polygon fill="#181818" points="265.81,377.49,274.7042,381.72,270.8083,377.6185,274.9098,373.7227,265.81,377.49" style="stroke:#181818;stroke-width:1.0;"/><text fill="#000000" font-family="sans-serif" font-size="13" lengthAdjust="spacing" textLength="127" x="306.5" y="370.5669">E_ERROR / A_ERROR</text></g><!--MD5=[dd59b4375803efbca415ec37ca4401b9]
link S_CONNECTED to S_CONNECTED--><g id="link_S_CONNECTED_S_CONNECTED"><path d="M132.33,227.39 C151.75,227.62 167,231.49 167,239 C167,245.8 154.48,249.62 137.67,250.45 " fill="none" id="S_CONNECTED-to-S_CONNECTED" style="stroke:#181818;stroke-width:1.0;"/><polygon fill="#181818" points="132.33,250.61,141.4512,254.3253,137.3275,250.4529,141.1999,246.3293,132.33,250.61" style="stroke:#181818;stroke-width:1.0;"/><text fill="#000000" font-family="sans-serif" font-size="13" lengthAdjust="spacing" textLength="205" x="173" y="243.5669">E_CONNECTED / A_CONNECTED</text></g><!--MD5=[3bda9d41b7736f581c2ae7736fa21919]
link S_CONNECTED to S_DEATH--><g id="link_S_CONNECTED_S_DEATH"><path d="M51.54,264.01 C45.89,272.95 40.38,283.49 37.5,294 C27.69,329.79 58.65,381.13 66.5,391 C95.43,427.37 141.19,454.78 175.68,471.81 " fill="none" id="S_CONNECTED-to-S_DEATH" style="stroke:#181818;stroke-width:1.0;"/><polygon fill="#181818" points="180.26,474.04,173.9215,466.5019,175.7652,471.8499,170.4172,473.6936,180.26,474.04" style="stroke:#181818;stroke-width:1.0;"/><text fill="#000000" font-family="sans-serif" font-size="13" lengthAdjust="spacing" textLength="93" x="67.5" y="370.5669">E_KILL / A_KILL</text></g><!--MD5=[dfc79c0e608e0eb74e031d8bd42bf53f]
link S_WAITING to S_DEATH--><g id="link_S_WAITING_S_DEATH"><path d="M499.57,133.5 C531.34,150.14 570.78,176.94 589.5,214 C599.52,233.84 598.81,243.82 589.5,264 C529.39,394.21 354.36,457.1 269.6,480.6 " fill="none" id="S_WAITING-to-S_DEATH" style="stroke:#181818;stroke-width:1.0;"/><polygon fill="#181818" points="264.64,481.95,274.3757,483.4386,269.4635,480.6332,272.2688,475.721,264.64,481.95" style="stroke:#181818;stroke-width:1.0;"/><text fill="#000000" font-family="sans-serif" font-size="13" lengthAdjust="spacing" textLength="93" x="572.5" y="307.0669">E_KILL / A_KILL</text></g><!--MD5=[05fe254c2bacb10d2c40e554bdfdc5af]
link S_ERROR to S_DEATH--><g id="link_S_ERROR_S_DEATH"><path d="M222.5,391.1 C222.5,411.59 222.5,441.08 222.5,462.88 " fill="none" id="S_ERROR-to-S_DEATH" style="stroke:#181818;stroke-width:1.0;"/><polygon fill="#181818" points="222.5,467.97,226.5,458.97,222.5,462.97,218.5,458.97,222.5,467.97" style="stroke:#181818;stroke-width:1.0;"/><text fill="#000000" font-family="sans-serif" font-size="13" lengthAdjust="spacing" textLength="93" x="223.5" y="434.0669">E_KILL / A_KILL</text></g><!--MD5=[6bf4db2da493e98a5dfc0c76fd8519f7]
@startuml inline_umlgraph_2.svg
[*] - -> S_WAITING
S_WAITING - -> S_CONNECTED : E_CONNECTED / A_CONNECTED
S_WAITING - -> S_ERROR : E_ERROR / A_ERROR
S_CONNECTED - -> S_ERROR : E_ERROR / A_ERROR
S_ERROR - -> S_CONNECTED : E_CONNECTED / A_CONNECTED
S_WAITING - -> S_WAITING : E_WAITING / A_WAITING
S_ERROR - -> S_ERROR : E_ERROR / A_ERROR
S_CONNECTED - -> S_CONNECTED : E_CONNECTED / A_CONNECTED
S_CONNECTED - -> S_DEATH : E_KILL / A_KILL
S_WAITING - -> S_DEATH : E_KILL / A_KILL
S_ERROR - -> S_DEATH : E_KILL / A_KILL
@enduml

PlantUML version 1.2022.5(Sat Apr 30 12:55:52 CEST 2022)
(GPL source distribution)
Java Runtime: OpenJDK Runtime Environment
JVM: OpenJDK 64-Bit Server VM
Default Encoding: UTF-8
Language: en
Country: US
--></g></svg>