<?xml version="1.0" encoding="UTF-8" standalone="no"?>
<!DOCTYPE svg PUBLIC "-//W3C//DTD SVG 1.1//EN"
 "http://www.w3.org/Graphics/SVG/1.1/DTD/svg11.dtd">
<!-- Generated by graphviz version 2.43.0 (0)
 -->
<!-- Title: src/LiDAR/LiDAR.h Pages: 1 -->
<svg width="321pt" height="252pt"
 viewBox="0.00 0.00 321.00 252.00" xmlns="http://www.w3.org/2000/svg" xmlns:xlink="http://www.w3.org/1999/xlink">
<g id="graph0" class="graph" transform="scale(1 1) rotate(0) translate(4 248)">
<title>src/LiDAR/LiDAR.h</title>
<polygon fill="white" stroke="transparent" points="-4,4 -4,-248 317,-248 317,4 -4,4"/>
<!-- Node1 -->
<g id="node1" class="node">
<title>Node1</title>
<g id="a_node1"><a xlink:title="This is the header file of LiDAR.c which communicates with the physical LiDAR to get a scan in a txt ...">
<polygon fill="#bfbfbf" stroke="black" points="67,-224.5 67,-243.5 171,-243.5 171,-224.5 67,-224.5"/>
<text text-anchor="middle" x="119" y="-231.5" font-family="Helvetica,sans-Serif" font-size="10.00">src/LiDAR/LiDAR.h</text>
</a>
</g>
</g>
<!-- Node2 -->
<g id="node2" class="node">
<title>Node2</title>
<g id="a_node2"><a xlink:href="config_8h.html" target="_top" xlink:title="Global definitions.">
<polygon fill="white" stroke="black" points="0,-56.5 0,-75.5 98,-75.5 98,-56.5 0,-56.5"/>
<text text-anchor="middle" x="49" y="-63.5" font-family="Helvetica,sans-Serif" font-size="10.00">../Config/config.h</text>
</a>
</g>
</g>
<!-- Node1&#45;&gt;Node2 -->
<g id="edge1" class="edge">
<title>Node1&#45;&gt;Node2</title>
<path fill="none" stroke="midnightblue" d="M85.2,-224.39C66.61,-217.74 45.11,-206.45 34,-188 14.61,-155.79 29.35,-110.02 40.19,-85.02"/>
<polygon fill="midnightblue" stroke="midnightblue" points="43.49,-86.23 44.49,-75.68 37.13,-83.3 43.49,-86.23"/>
</g>
<!-- Node4 -->
<g id="node4" class="node">
<title>Node4</title>
<g id="a_node4"><a xlink:href="Geographer_8h.html" target="_top" xlink:title="This component is the active object of ACDSoft.">
<polygon fill="white" stroke="black" points="43.5,-168.5 43.5,-187.5 194.5,-187.5 194.5,-168.5 43.5,-168.5"/>
<text text-anchor="middle" x="119" y="-175.5" font-family="Helvetica,sans-Serif" font-size="10.00">../Geographer/Geographer.h</text>
</a>
</g>
</g>
<!-- Node1&#45;&gt;Node4 -->
<g id="edge3" class="edge">
<title>Node1&#45;&gt;Node4</title>
<path fill="none" stroke="midnightblue" d="M119,-224.08C119,-217.01 119,-206.86 119,-197.99"/>
<polygon fill="midnightblue" stroke="midnightblue" points="122.5,-197.75 119,-187.75 115.5,-197.75 122.5,-197.75"/>
</g>
<!-- Node7 -->
<g id="node7" class="node">
<title>Node7</title>
<g id="a_node7"><a xlink:href="LiDAR__A1M8_8hpp_source.html" target="_top" xlink:title=" ">
<polygon fill="white" stroke="black" points="213,-168.5 213,-187.5 313,-187.5 313,-168.5 213,-168.5"/>
<text text-anchor="middle" x="263" y="-175.5" font-family="Helvetica,sans-Serif" font-size="10.00">LiDAR_A1M8.hpp</text>
</a>
</g>
</g>
<!-- Node1&#45;&gt;Node7 -->
<g id="edge9" class="edge">
<title>Node1&#45;&gt;Node7</title>
<path fill="none" stroke="midnightblue" d="M141.82,-224.44C165.83,-215.44 203.83,-201.19 230.87,-191.05"/>
<polygon fill="midnightblue" stroke="midnightblue" points="232.16,-194.3 240.29,-187.52 229.7,-187.75 232.16,-194.3"/>
</g>
<!-- Node3 -->
<g id="node3" class="node">
<title>Node3</title>
<g id="a_node3"><a xlink:title=" ">
<polygon fill="white" stroke="#bfbfbf" points="56,-0.5 56,-19.5 118,-19.5 118,-0.5 56,-0.5"/>
<text text-anchor="middle" x="87" y="-7.5" font-family="Helvetica,sans-Serif" font-size="10.00">stdbool.h</text>
</a>
</g>
</g>
<!-- Node2&#45;&gt;Node3 -->
<g id="edge2" class="edge">
<title>Node2&#45;&gt;Node3</title>
<path fill="none" stroke="midnightblue" d="M55.27,-56.08C60.64,-48.46 68.52,-37.26 75.08,-27.94"/>
<polygon fill="midnightblue" stroke="midnightblue" points="77.95,-29.94 80.84,-19.75 72.22,-25.91 77.95,-29.94"/>
</g>
<!-- Node4&#45;&gt;Node2 -->
<g id="edge4" class="edge">
<title>Node4&#45;&gt;Node2</title>
<path fill="none" stroke="midnightblue" d="M107.06,-168.22C96.53,-159.93 81.44,-146.61 72,-132 62.76,-117.7 56.69,-99.24 53.12,-85.64"/>
<polygon fill="midnightblue" stroke="midnightblue" points="56.44,-84.47 50.69,-75.57 49.63,-86.11 56.44,-84.47"/>
</g>
<!-- Node5 -->
<g id="node5" class="node">
<title>Node5</title>
<g id="a_node5"><a xlink:href="Carto_8h.html" target="_top" xlink:title="This component describes the cartography&#39;s model. It also allow the user to modify it&#39;s parameters.">
<polygon fill="white" stroke="black" points="81,-112.5 81,-131.5 171,-131.5 171,-112.5 81,-112.5"/>
<text text-anchor="middle" x="126" y="-119.5" font-family="Helvetica,sans-Serif" font-size="10.00">../Carto/Carto.h</text>
</a>
</g>
</g>
<!-- Node4&#45;&gt;Node5 -->
<g id="edge5" class="edge">
<title>Node4&#45;&gt;Node5</title>
<path fill="none" stroke="midnightblue" d="M120.16,-168.08C121.08,-160.93 122.42,-150.64 123.58,-141.69"/>
<polygon fill="midnightblue" stroke="midnightblue" points="127.05,-142.12 124.87,-131.75 120.11,-141.22 127.05,-142.12"/>
</g>
<!-- Node5&#45;&gt;Node2 -->
<g id="edge8" class="edge">
<title>Node5&#45;&gt;Node2</title>
<path fill="none" stroke="midnightblue" d="M113.63,-112.32C101.84,-104.06 83.87,-91.45 69.86,-81.63"/>
<polygon fill="midnightblue" stroke="midnightblue" points="71.54,-78.53 61.34,-75.65 67.52,-84.26 71.54,-78.53"/>
</g>
<!-- Node5&#45;&gt;Node3 -->
<g id="edge7" class="edge">
<title>Node5&#45;&gt;Node3</title>
<path fill="none" stroke="midnightblue" d="M123.9,-112.47C120.72,-99.93 114.28,-75.87 107,-56 103.69,-46.97 99.43,-37.19 95.69,-29.05"/>
<polygon fill="midnightblue" stroke="midnightblue" points="98.77,-27.38 91.34,-19.82 92.43,-30.36 98.77,-27.38"/>
</g>
<!-- Node6 -->
<g id="node6" class="node">
<title>Node6</title>
<g id="a_node6"><a xlink:title=" ">
<polygon fill="white" stroke="#bfbfbf" points="154.5,-56.5 154.5,-75.5 207.5,-75.5 207.5,-56.5 154.5,-56.5"/>
<text text-anchor="middle" x="181" y="-63.5" font-family="Helvetica,sans-Serif" font-size="10.00">stdint.h</text>
</a>
</g>
</g>
<!-- Node5&#45;&gt;Node6 -->
<g id="edge6" class="edge">
<title>Node5&#45;&gt;Node6</title>
<path fill="none" stroke="midnightblue" d="M135.08,-112.08C143.17,-104.14 155.2,-92.34 164.91,-82.8"/>
<polygon fill="midnightblue" stroke="midnightblue" points="167.4,-85.25 172.09,-75.75 162.5,-80.26 167.4,-85.25"/>
</g>
</g>
</svg>
