<?xml version="1.0" encoding="UTF-8" standalone="no"?>
<!DOCTYPE svg PUBLIC "-//W3C//DTD SVG 1.1//EN"
 "http://www.w3.org/Graphics/SVG/1.1/DTD/svg11.dtd">
<!-- Generated by graphviz version 2.43.0 (0)
 -->
<!-- Title: src/LiDAR/LiDAR.h Pages: 1 -->
<svg width="380pt" height="84pt"
 viewBox="0.00 0.00 380.00 84.00" xmlns="http://www.w3.org/2000/svg" xmlns:xlink="http://www.w3.org/1999/xlink">
<g id="graph0" class="graph" transform="scale(1 1) rotate(0) translate(4 80)">
<title>src/LiDAR/LiDAR.h</title>
<polygon fill="white" stroke="transparent" points="-4,4 -4,-80 376,-80 376,4 -4,4"/>
<!-- Node1 -->
<g id="node1" class="node">
<title>Node1</title>
<g id="a_node1"><a xlink:title="This is the header file of LiDAR.c which communicates with the physical LiDAR to get a scan in a txt ...">
<polygon fill="#bfbfbf" stroke="black" points="176,-56.5 176,-75.5 280,-75.5 280,-56.5 176,-56.5"/>
<text text-anchor="middle" x="228" y="-63.5" font-family="Helvetica,sans-Serif" font-size="10.00">src/LiDAR/LiDAR.h</text>
</a>
</g>
</g>
<!-- Node2 -->
<g id="node2" class="node">
<title>Node2</title>
<g id="a_node2"><a xlink:href="Geographer_8c.html" target="_top" xlink:title="This component is the active object of ACDSoft.">
<polygon fill="white" stroke="black" points="0,-0.5 0,-19.5 158,-19.5 158,-0.5 0,-0.5"/>
<text text-anchor="middle" x="79" y="-7.5" font-family="Helvetica,sans-Serif" font-size="10.00">src/Geographer/Geographer.c</text>
</a>
</g>
</g>
<!-- Node1&#45;&gt;Node2 -->
<g id="edge1" class="edge">
<title>Node1&#45;&gt;Node2</title>
<path fill="none" stroke="midnightblue" d="M194.63,-52.91C166.62,-42.75 127.3,-28.51 102.5,-19.52"/>
<polygon fill="midnightblue" stroke="midnightblue" points="193.8,-56.33 204.39,-56.44 196.18,-49.75 193.8,-56.33"/>
</g>
<!-- Node3 -->
<g id="node3" class="node">
<title>Node3</title>
<g id="a_node3"><a xlink:href="LiDAR_8c.html" target="_top" xlink:title="This component communicates with the physical LiDAR to get a scan in a txt format and converts it to ...">
<polygon fill="white" stroke="black" points="176,-0.5 176,-19.5 280,-19.5 280,-0.5 176,-0.5"/>
<text text-anchor="middle" x="228" y="-7.5" font-family="Helvetica,sans-Serif" font-size="10.00">src/LiDAR/LiDAR.c</text>
</a>
</g>
</g>
<!-- Node1&#45;&gt;Node3 -->
<g id="edge2" class="edge">
<title>Node1&#45;&gt;Node3</title>
<path fill="none" stroke="midnightblue" d="M228,-45.8C228,-36.91 228,-26.78 228,-19.75"/>
<polygon fill="midnightblue" stroke="midnightblue" points="224.5,-46.08 228,-56.08 231.5,-46.08 224.5,-46.08"/>
</g>
<!-- Node4 -->
<g id="node4" class="node">
<title>Node4</title>
<g id="a_node4"><a xlink:href="starter_8c.html" target="_top" xlink:title="Starter of ACDSoft.">
<polygon fill="white" stroke="black" points="298,-0.5 298,-19.5 372,-19.5 372,-0.5 298,-0.5"/>
<text text-anchor="middle" x="335" y="-7.5" font-family="Helvetica,sans-Serif" font-size="10.00">src/starter.c</text>
</a>
</g>
</g>
<!-- Node1&#45;&gt;Node4 -->
<g id="edge3" class="edge">
<title>Node1&#45;&gt;Node4</title>
<path fill="none" stroke="midnightblue" d="M254.3,-51.73C274.11,-41.73 300.71,-28.31 317.85,-19.65"/>
<polygon fill="midnightblue" stroke="midnightblue" points="252.54,-48.69 245.19,-56.32 255.7,-54.94 252.54,-48.69"/>
</g>
</g>
</svg>
