<?xml version="1.0" encoding="UTF-8" standalone="no"?>
<!DOCTYPE svg PUBLIC "-//W3C//DTD SVG 1.1//EN"
 "http://www.w3.org/Graphics/SVG/1.1/DTD/svg11.dtd">
<!-- Generated by graphviz version 2.43.0 (0)
 -->
<!-- Title: src/Merger/Merger.h Pages: 1 -->
<svg width="298pt" height="84pt"
 viewBox="0.00 0.00 297.50 84.00" xmlns="http://www.w3.org/2000/svg" xmlns:xlink="http://www.w3.org/1999/xlink">
<g id="graph0" class="graph" transform="scale(1 1) rotate(0) translate(4 80)">
<title>src/Merger/Merger.h</title>
<polygon fill="white" stroke="transparent" points="-4,4 -4,-80 293.5,-80 293.5,4 -4,4"/>
<!-- Node1 -->
<g id="node1" class="node">
<title>Node1</title>
<g id="a_node1"><a xlink:title="This component is the raw scan merger.">
<polygon fill="#bfbfbf" stroke="black" points="99,-56.5 99,-75.5 213,-75.5 213,-56.5 99,-56.5"/>
<text text-anchor="middle" x="156" y="-63.5" font-family="Helvetica,sans-Serif" font-size="10.00">src/Merger/Merger.h</text>
</a>
</g>
</g>
<!-- Node2 -->
<g id="node2" class="node">
<title>Node2</title>
<g id="a_node2"><a xlink:href="Geographer_8c.html" target="_top" xlink:title="This component is the active object of ACDSoft.">
<polygon fill="white" stroke="black" points="0,-0.5 0,-19.5 158,-19.5 158,-0.5 0,-0.5"/>
<text text-anchor="middle" x="79" y="-7.5" font-family="Helvetica,sans-Serif" font-size="10.00">src/Geographer/Geographer.c</text>
</a>
</g>
</g>
<!-- Node1&#45;&gt;Node2 -->
<g id="edge1" class="edge">
<title>Node1&#45;&gt;Node2</title>
<path fill="none" stroke="midnightblue" d="M135.1,-50.34C121.09,-40.52 103.12,-27.91 91.34,-19.65"/>
<polygon fill="midnightblue" stroke="midnightblue" points="133.43,-53.45 143.63,-56.32 137.45,-47.72 133.43,-53.45"/>
</g>
<!-- Node3 -->
<g id="node3" class="node">
<title>Node3</title>
<g id="a_node3"><a xlink:href="Merger_8c.html" target="_top" xlink:title="This component is the raw scan merger.">
<polygon fill="white" stroke="black" points="176.5,-0.5 176.5,-19.5 289.5,-19.5 289.5,-0.5 176.5,-0.5"/>
<text text-anchor="middle" x="233" y="-7.5" font-family="Helvetica,sans-Serif" font-size="10.00">src/Merger/Merger.c</text>
</a>
</g>
</g>
<!-- Node1&#45;&gt;Node3 -->
<g id="edge2" class="edge">
<title>Node1&#45;&gt;Node3</title>
<path fill="none" stroke="midnightblue" d="M176.9,-50.34C190.91,-40.52 208.88,-27.91 220.66,-19.65"/>
<polygon fill="midnightblue" stroke="midnightblue" points="174.55,-47.72 168.37,-56.32 178.57,-53.45 174.55,-47.72"/>
</g>
</g>
</svg>
