<?xml version="1.0" encoding="UTF-8" standalone="no"?>
<!DOCTYPE svg PUBLIC "-//W3C//DTD SVG 1.1//EN"
 "http://www.w3.org/Graphics/SVG/1.1/DTD/svg11.dtd">
<!-- Generated by graphviz version 2.43.0 (0)
 -->
<!-- Title: src/Merger/Merger.c Pages: 1 -->
<svg width="411pt" height="308pt"
 viewBox="0.00 0.00 411.00 308.00" xmlns="http://www.w3.org/2000/svg" xmlns:xlink="http://www.w3.org/1999/xlink">
<g id="graph0" class="graph" transform="scale(1 1) rotate(0) translate(4 304)">
<title>src/Merger/Merger.c</title>
<polygon fill="white" stroke="transparent" points="-4,4 -4,-304 407,-304 407,4 -4,4"/>
<!-- Node1 -->
<g id="node1" class="node">
<title>Node1</title>
<g id="a_node1"><a xlink:title="This component is the raw scan merger.">
<polygon fill="#bfbfbf" stroke="black" points="144,-280.5 144,-299.5 257,-299.5 257,-280.5 144,-280.5"/>
<text text-anchor="middle" x="200.5" y="-287.5" font-family="Helvetica,sans-Serif" font-size="10.00">src/Merger/Merger.c</text>
</a>
</g>
</g>
<!-- Node2 -->
<g id="node2" class="node">
<title>Node2</title>
<g id="a_node2"><a xlink:href="util_8h.html" target="_top" xlink:title="Macros to color the terminal in debug mode and do assert.">
<polygon fill="white" stroke="black" points="113.5,-224.5 113.5,-243.5 197.5,-243.5 197.5,-224.5 113.5,-224.5"/>
<text text-anchor="middle" x="155.5" y="-231.5" font-family="Helvetica,sans-Serif" font-size="10.00">../Config/util.h</text>
</a>
</g>
</g>
<!-- Node1&#45;&gt;Node2 -->
<g id="edge1" class="edge">
<title>Node1&#45;&gt;Node2</title>
<path fill="none" stroke="midnightblue" d="M193.07,-280.08C186.65,-272.38 177.19,-261.03 169.38,-251.65"/>
<polygon fill="midnightblue" stroke="midnightblue" points="171.88,-249.19 162.79,-243.75 166.51,-253.67 171.88,-249.19"/>
</g>
<!-- Node7 -->
<g id="node7" class="node">
<title>Node7</title>
<g id="a_node7"><a xlink:href="Merger_8h.html" target="_top" xlink:title="This component is the raw scan merger.">
<polygon fill="white" stroke="black" points="257,-224.5 257,-243.5 316,-243.5 316,-224.5 257,-224.5"/>
<text text-anchor="middle" x="286.5" y="-231.5" font-family="Helvetica,sans-Serif" font-size="10.00">Merger.h</text>
</a>
</g>
</g>
<!-- Node1&#45;&gt;Node7 -->
<g id="edge6" class="edge">
<title>Node1&#45;&gt;Node7</title>
<path fill="none" stroke="midnightblue" d="M214.32,-280.32C227.73,-271.9 248.32,-258.97 264.09,-249.07"/>
<polygon fill="midnightblue" stroke="midnightblue" points="266.11,-251.94 272.72,-243.65 262.39,-246.01 266.11,-251.94"/>
</g>
<!-- Node3 -->
<g id="node3" class="node">
<title>Node3</title>
<g id="a_node3"><a xlink:title=" ">
<polygon fill="white" stroke="#bfbfbf" points="183.5,-168.5 183.5,-187.5 233.5,-187.5 233.5,-168.5 183.5,-168.5"/>
<text text-anchor="middle" x="208.5" y="-175.5" font-family="Helvetica,sans-Serif" font-size="10.00">stdio.h</text>
</a>
</g>
</g>
<!-- Node2&#45;&gt;Node3 -->
<g id="edge2" class="edge">
<title>Node2&#45;&gt;Node3</title>
<path fill="none" stroke="midnightblue" d="M164.25,-224.08C171.97,-216.22 183.4,-204.57 192.72,-195.08"/>
<polygon fill="midnightblue" stroke="midnightblue" points="195.4,-197.34 199.91,-187.75 190.41,-192.44 195.4,-197.34"/>
</g>
<!-- Node4 -->
<g id="node4" class="node">
<title>Node4</title>
<g id="a_node4"><a xlink:title=" ">
<polygon fill="white" stroke="#bfbfbf" points="0,-168.5 0,-187.5 53,-187.5 53,-168.5 0,-168.5"/>
<text text-anchor="middle" x="26.5" y="-175.5" font-family="Helvetica,sans-Serif" font-size="10.00">string.h</text>
</a>
</g>
</g>
<!-- Node2&#45;&gt;Node4 -->
<g id="edge3" class="edge">
<title>Node2&#45;&gt;Node4</title>
<path fill="none" stroke="midnightblue" d="M135.06,-224.44C113.83,-215.56 80.4,-201.56 56.25,-191.45"/>
<polygon fill="midnightblue" stroke="midnightblue" points="57.42,-188.15 46.84,-187.52 54.72,-194.61 57.42,-188.15"/>
</g>
<!-- Node5 -->
<g id="node5" class="node">
<title>Node5</title>
<g id="a_node5"><a xlink:title=" ">
<polygon fill="white" stroke="#bfbfbf" points="71.5,-168.5 71.5,-187.5 127.5,-187.5 127.5,-168.5 71.5,-168.5"/>
<text text-anchor="middle" x="99.5" y="-175.5" font-family="Helvetica,sans-Serif" font-size="10.00">assert.h</text>
</a>
</g>
</g>
<!-- Node2&#45;&gt;Node5 -->
<g id="edge4" class="edge">
<title>Node2&#45;&gt;Node5</title>
<path fill="none" stroke="midnightblue" d="M146.5,-224.32C138.31,-216.42 125.99,-204.55 116.03,-194.94"/>
<polygon fill="midnightblue" stroke="midnightblue" points="118.29,-192.26 108.66,-187.83 113.43,-197.29 118.29,-192.26"/>
</g>
<!-- Node6 -->
<g id="node6" class="node">
<title>Node6</title>
<g id="a_node6"><a xlink:title=" ">
<polygon fill="white" stroke="#bfbfbf" points="149,-56.5 149,-75.5 202,-75.5 202,-56.5 149,-56.5"/>
<text text-anchor="middle" x="175.5" y="-63.5" font-family="Helvetica,sans-Serif" font-size="10.00">stdint.h</text>
</a>
</g>
</g>
<!-- Node2&#45;&gt;Node6 -->
<g id="edge5" class="edge">
<title>Node2&#45;&gt;Node6</title>
<path fill="none" stroke="midnightblue" d="M156.58,-224.08C159.72,-197.95 168.97,-121.21 173.26,-85.58"/>
<polygon fill="midnightblue" stroke="midnightblue" points="176.75,-85.92 174.47,-75.57 169.8,-85.08 176.75,-85.92"/>
</g>
<!-- Node8 -->
<g id="node8" class="node">
<title>Node8</title>
<g id="a_node8"><a xlink:href="Geographer_8h.html" target="_top" xlink:title="This component is the active object of ACDSoft.">
<polygon fill="white" stroke="black" points="252,-168.5 252,-187.5 403,-187.5 403,-168.5 252,-168.5"/>
<text text-anchor="middle" x="327.5" y="-175.5" font-family="Helvetica,sans-Serif" font-size="10.00">../Geographer/Geographer.h</text>
</a>
</g>
</g>
<!-- Node7&#45;&gt;Node8 -->
<g id="edge7" class="edge">
<title>Node7&#45;&gt;Node8</title>
<path fill="none" stroke="midnightblue" d="M293.27,-224.08C299.06,-216.46 307.56,-205.26 314.64,-195.94"/>
<polygon fill="midnightblue" stroke="midnightblue" points="317.6,-197.83 320.86,-187.75 312.02,-193.6 317.6,-197.83"/>
</g>
<!-- Node9 -->
<g id="node9" class="node">
<title>Node9</title>
<g id="a_node9"><a xlink:href="config_8h.html" target="_top" xlink:title="Global definitions.">
<polygon fill="white" stroke="black" points="278.5,-56.5 278.5,-75.5 376.5,-75.5 376.5,-56.5 278.5,-56.5"/>
<text text-anchor="middle" x="327.5" y="-63.5" font-family="Helvetica,sans-Serif" font-size="10.00">../Config/config.h</text>
</a>
</g>
</g>
<!-- Node8&#45;&gt;Node9 -->
<g id="edge8" class="edge">
<title>Node8&#45;&gt;Node9</title>
<path fill="none" stroke="midnightblue" d="M327.5,-168.37C327.5,-150.62 327.5,-109.67 327.5,-85.6"/>
<polygon fill="midnightblue" stroke="midnightblue" points="331,-85.59 327.5,-75.59 324,-85.59 331,-85.59"/>
</g>
<!-- Node11 -->
<g id="node11" class="node">
<title>Node11</title>
<g id="a_node11"><a xlink:href="Carto_8h.html" target="_top" xlink:title="This component describes the cartography&#39;s model. It also allow the user to modify it&#39;s parameters.">
<polygon fill="white" stroke="black" points="207.5,-112.5 207.5,-131.5 297.5,-131.5 297.5,-112.5 207.5,-112.5"/>
<text text-anchor="middle" x="252.5" y="-119.5" font-family="Helvetica,sans-Serif" font-size="10.00">../Carto/Carto.h</text>
</a>
</g>
</g>
<!-- Node8&#45;&gt;Node11 -->
<g id="edge10" class="edge">
<title>Node8&#45;&gt;Node11</title>
<path fill="none" stroke="midnightblue" d="M315.45,-168.32C304.04,-160.11 286.67,-147.6 273.07,-137.81"/>
<polygon fill="midnightblue" stroke="midnightblue" points="274.93,-134.84 264.77,-131.83 270.84,-140.52 274.93,-134.84"/>
</g>
<!-- Node10 -->
<g id="node10" class="node">
<title>Node10</title>
<g id="a_node10"><a xlink:title=" ">
<polygon fill="white" stroke="#bfbfbf" points="257.5,-0.5 257.5,-19.5 319.5,-19.5 319.5,-0.5 257.5,-0.5"/>
<text text-anchor="middle" x="288.5" y="-7.5" font-family="Helvetica,sans-Serif" font-size="10.00">stdbool.h</text>
</a>
</g>
</g>
<!-- Node9&#45;&gt;Node10 -->
<g id="edge9" class="edge">
<title>Node9&#45;&gt;Node10</title>
<path fill="none" stroke="midnightblue" d="M321.06,-56.08C315.55,-48.46 307.47,-37.26 300.74,-27.94"/>
<polygon fill="midnightblue" stroke="midnightblue" points="303.51,-25.81 294.82,-19.75 297.84,-29.91 303.51,-25.81"/>
</g>
<!-- Node11&#45;&gt;Node6 -->
<g id="edge11" class="edge">
<title>Node11&#45;&gt;Node6</title>
<path fill="none" stroke="midnightblue" d="M240.13,-112.32C228.34,-104.06 210.37,-91.45 196.36,-81.63"/>
<polygon fill="midnightblue" stroke="midnightblue" points="198.04,-78.53 187.84,-75.65 194.02,-84.26 198.04,-78.53"/>
</g>
<!-- Node11&#45;&gt;Node9 -->
<g id="edge13" class="edge">
<title>Node11&#45;&gt;Node9</title>
<path fill="none" stroke="midnightblue" d="M264.55,-112.32C275.96,-104.11 293.33,-91.6 306.93,-81.81"/>
<polygon fill="midnightblue" stroke="midnightblue" points="309.16,-84.52 315.23,-75.83 305.07,-78.84 309.16,-84.52"/>
</g>
<!-- Node11&#45;&gt;Node10 -->
<g id="edge12" class="edge">
<title>Node11&#45;&gt;Node10</title>
<path fill="none" stroke="midnightblue" d="M254.32,-112.47C257.08,-99.94 262.74,-75.88 269.5,-56 272.57,-46.97 276.61,-37.18 280.18,-29.05"/>
<polygon fill="midnightblue" stroke="midnightblue" points="283.42,-30.37 284.33,-19.82 277.04,-27.5 283.42,-30.37"/>
</g>
</g>
</svg>
