<?xml version="1.0" encoding="UTF-8" standalone="no"?>
<!DOCTYPE svg PUBLIC "-//W3C//DTD SVG 1.1//EN"
 "http://www.w3.org/Graphics/SVG/1.1/DTD/svg11.dtd">
<!-- Generated by graphviz version 2.43.0 (0)
 -->
<!-- Title: src/NetworkC/NetworkC.h Pages: 1 -->
<svg width="535pt" height="95pt"
 viewBox="0.00 0.00 534.50 95.00" xmlns="http://www.w3.org/2000/svg" xmlns:xlink="http://www.w3.org/1999/xlink">
<g id="graph0" class="graph" transform="scale(1 1) rotate(0) translate(4 91)">
<title>src/NetworkC/NetworkC.h</title>
<polygon fill="white" stroke="transparent" points="-4,4 -4,-91 530.5,-91 530.5,4 -4,4"/>
<!-- Node1 -->
<g id="node1" class="node">
<title>Node1</title>
<g id="a_node1"><a xlink:title="Header file of NetworkC.c.">
<polygon fill="#bfbfbf" stroke="black" points="230.5,-67.5 230.5,-86.5 372.5,-86.5 372.5,-67.5 230.5,-67.5"/>
<text text-anchor="middle" x="301.5" y="-74.5" font-family="Helvetica,sans-Serif" font-size="10.00">src/NetworkC/NetworkC.h</text>
</a>
</g>
</g>
<!-- Node2 -->
<g id="node2" class="node">
<title>Node2</title>
<g id="a_node2"><a xlink:href="NetworkC__Dispatcher_8c.html" target="_top" xlink:title="NetworkC_Dispatcher dispatch the received message.">
<polygon fill="white" stroke="black" points="0,-0.5 0,-30.5 137,-30.5 137,-0.5 0,-0.5"/>
<text text-anchor="start" x="8" y="-18.5" font-family="Helvetica,sans-Serif" font-size="10.00">src/NetworkC/Dispatcher</text>
<text text-anchor="middle" x="68.5" y="-7.5" font-family="Helvetica,sans-Serif" font-size="10.00">/NetworkC_Dispatcher.c</text>
</a>
</g>
</g>
<!-- Node1&#45;&gt;Node2 -->
<g id="edge1" class="edge">
<title>Node1&#45;&gt;Node2</title>
<path fill="none" stroke="midnightblue" d="M258.36,-64.98C220.3,-55.27 164.64,-41.05 123.41,-30.52"/>
<polygon fill="midnightblue" stroke="midnightblue" points="257.56,-68.39 268.12,-67.48 259.29,-61.61 257.56,-68.39"/>
</g>
<!-- Node3 -->
<g id="node3" class="node">
<title>Node3</title>
<g id="a_node3"><a xlink:href="NetworkC_8c.html" target="_top" xlink:title="NetworkC has the ability to relates the connection state of the socket.">
<polygon fill="white" stroke="black" points="155,-6 155,-25 296,-25 296,-6 155,-6"/>
<text text-anchor="middle" x="225.5" y="-13" font-family="Helvetica,sans-Serif" font-size="10.00">src/NetworkC/NetworkC.c</text>
</a>
</g>
</g>
<!-- Node1&#45;&gt;Node3 -->
<g id="edge2" class="edge">
<title>Node1&#45;&gt;Node3</title>
<path fill="none" stroke="midnightblue" d="M282.72,-61.29C268.14,-49.88 248.44,-34.46 236.37,-25.01"/>
<polygon fill="midnightblue" stroke="midnightblue" points="280.58,-64.07 290.61,-67.48 284.89,-58.55 280.58,-64.07"/>
</g>
<!-- Node4 -->
<g id="node4" class="node">
<title>Node4</title>
<g id="a_node4"><a xlink:href="NetworkC__Postman_8c.html" target="_top" xlink:title="NetworkC Postman is the interface of the socket.">
<polygon fill="white" stroke="black" points="314.5,-0.5 314.5,-30.5 442.5,-30.5 442.5,-0.5 314.5,-0.5"/>
<text text-anchor="start" x="322.5" y="-18.5" font-family="Helvetica,sans-Serif" font-size="10.00">src/NetworkC/Postman</text>
<text text-anchor="middle" x="378.5" y="-7.5" font-family="Helvetica,sans-Serif" font-size="10.00">/NetworkC_Postman.c</text>
</a>
</g>
</g>
<!-- Node1&#45;&gt;Node4 -->
<g id="edge3" class="edge">
<title>Node1&#45;&gt;Node4</title>
<path fill="none" stroke="midnightblue" d="M320.66,-61.2C332.8,-51.81 348.41,-39.75 360.35,-30.52"/>
<polygon fill="midnightblue" stroke="midnightblue" points="318.31,-58.59 312.53,-67.48 322.59,-64.13 318.31,-58.59"/>
</g>
<!-- Node5 -->
<g id="node5" class="node">
<title>Node5</title>
<g id="a_node5"><a xlink:href="UI_8c.html" target="_top" xlink:title="This component displays a window with a color related to the current connection state and a quit butt...">
<polygon fill="white" stroke="black" points="460.5,-6 460.5,-25 526.5,-25 526.5,-6 460.5,-6"/>
<text text-anchor="middle" x="493.5" y="-13" font-family="Helvetica,sans-Serif" font-size="10.00">src/UI/UI.c</text>
</a>
</g>
</g>
<!-- Node1&#45;&gt;Node5 -->
<g id="edge4" class="edge">
<title>Node1&#45;&gt;Node5</title>
<path fill="none" stroke="midnightblue" d="M340.99,-64.63C371.32,-55.79 414.19,-43.03 451.5,-31 457.23,-29.15 463.36,-27.09 469.13,-25.1"/>
<polygon fill="midnightblue" stroke="midnightblue" points="339.84,-61.32 331.21,-67.48 341.79,-68.05 339.84,-61.32"/>
</g>
</g>
</svg>
