<?xml version="1.0" encoding="UTF-8" standalone="no"?>
<!DOCTYPE svg PUBLIC "-//W3C//DTD SVG 1.1//EN"
 "http://www.w3.org/Graphics/SVG/1.1/DTD/svg11.dtd">
<!-- Generated by graphviz version 2.43.0 (0)
 -->
<!-- Title: src/NetworkC/Coder/NetworkC_Coder.c Pages: 1 -->
<svg width="444pt" height="263pt"
 viewBox="0.00 0.00 443.50 263.00" xmlns="http://www.w3.org/2000/svg" xmlns:xlink="http://www.w3.org/1999/xlink">
<g id="graph0" class="graph" transform="scale(1 1) rotate(0) translate(4 259)">
<title>src/NetworkC/Coder/NetworkC_Coder.c</title>
<polygon fill="white" stroke="transparent" points="-4,4 -4,-259 439.5,-259 439.5,4 -4,4"/>
<!-- Node1 -->
<g id="node1" class="node">
<title>Node1</title>
<g id="a_node1"><a xlink:title="Coder encode end decode message to be send or received.">
<polygon fill="#bfbfbf" stroke="black" points="128.5,-224.5 128.5,-254.5 241.5,-254.5 241.5,-224.5 128.5,-224.5"/>
<text text-anchor="start" x="136.5" y="-242.5" font-family="Helvetica,sans-Serif" font-size="10.00">src/NetworkC/Coder</text>
<text text-anchor="middle" x="185" y="-231.5" font-family="Helvetica,sans-Serif" font-size="10.00">/NetworkC_Coder.c</text>
</a>
</g>
</g>
<!-- Node2 -->
<g id="node2" class="node">
<title>Node2</title>
<g id="a_node2"><a xlink:title=" ">
<polygon fill="white" stroke="#bfbfbf" points="0,-112.5 0,-131.5 50,-131.5 50,-112.5 0,-112.5"/>
<text text-anchor="middle" x="25" y="-119.5" font-family="Helvetica,sans-Serif" font-size="10.00">stdio.h</text>
</a>
</g>
</g>
<!-- Node1&#45;&gt;Node2 -->
<g id="edge1" class="edge">
<title>Node1&#45;&gt;Node2</title>
<path fill="none" stroke="midnightblue" d="M128.49,-231.39C98.89,-224.83 64.28,-212.22 42,-188 30.54,-175.53 26.61,-156.3 25.35,-141.99"/>
<polygon fill="midnightblue" stroke="midnightblue" points="28.84,-141.59 24.83,-131.78 21.85,-141.95 28.84,-141.59"/>
</g>
<!-- Node3 -->
<g id="node3" class="node">
<title>Node3</title>
<g id="a_node3"><a xlink:title=" ">
<polygon fill="white" stroke="#bfbfbf" points="51.5,-168.5 51.5,-187.5 120.5,-187.5 120.5,-168.5 51.5,-168.5"/>
<text text-anchor="middle" x="86" y="-175.5" font-family="Helvetica,sans-Serif" font-size="10.00">arpa/inet.h</text>
</a>
</g>
</g>
<!-- Node1&#45;&gt;Node3 -->
<g id="edge2" class="edge">
<title>Node1&#45;&gt;Node3</title>
<path fill="none" stroke="midnightblue" d="M161.54,-224.4C145.67,-214.86 124.81,-202.32 109.03,-192.84"/>
<polygon fill="midnightblue" stroke="midnightblue" points="110.78,-189.81 100.41,-187.66 107.17,-195.81 110.78,-189.81"/>
</g>
<!-- Node4 -->
<g id="node4" class="node">
<title>Node4</title>
<g id="a_node4"><a xlink:href="util_8h.html" target="_top" xlink:title="Macros to color the terminal in debug mode and do assert.">
<polygon fill="white" stroke="black" points="138.5,-168.5 138.5,-187.5 231.5,-187.5 231.5,-168.5 138.5,-168.5"/>
<text text-anchor="middle" x="185" y="-175.5" font-family="Helvetica,sans-Serif" font-size="10.00">../../Config/util.h</text>
</a>
</g>
</g>
<!-- Node1&#45;&gt;Node4 -->
<g id="edge3" class="edge">
<title>Node1&#45;&gt;Node4</title>
<path fill="none" stroke="midnightblue" d="M185,-224.4C185,-216.47 185,-206.46 185,-197.86"/>
<polygon fill="midnightblue" stroke="midnightblue" points="188.5,-197.66 185,-187.66 181.5,-197.66 188.5,-197.66"/>
</g>
<!-- Node8 -->
<g id="node8" class="node">
<title>Node8</title>
<g id="a_node8"><a xlink:href="config_8h.html" target="_top" xlink:title="Global definitions.">
<polygon fill="white" stroke="black" points="328.5,-56.5 328.5,-75.5 435.5,-75.5 435.5,-56.5 328.5,-56.5"/>
<text text-anchor="middle" x="382" y="-63.5" font-family="Helvetica,sans-Serif" font-size="10.00">../../Config/config.h</text>
</a>
</g>
</g>
<!-- Node1&#45;&gt;Node8 -->
<g id="edge8" class="edge">
<title>Node1&#45;&gt;Node8</title>
<path fill="none" stroke="midnightblue" d="M241.86,-236.79C281.49,-232.56 332.83,-220.55 365,-188 391.75,-160.94 389.36,-112.39 385.53,-85.76"/>
<polygon fill="midnightblue" stroke="midnightblue" points="388.97,-85.1 383.88,-75.81 382.07,-86.25 388.97,-85.1"/>
</g>
<!-- Node10 -->
<g id="node10" class="node">
<title>Node10</title>
<g id="a_node10"><a xlink:href="NetworkC__Coder_8h.html" target="_top" xlink:title="Header file of NetworkC_Coder.c.">
<polygon fill="white" stroke="black" points="249.5,-168.5 249.5,-187.5 356.5,-187.5 356.5,-168.5 249.5,-168.5"/>
<text text-anchor="middle" x="303" y="-175.5" font-family="Helvetica,sans-Serif" font-size="10.00">NetworkC_Coder.h</text>
</a>
</g>
</g>
<!-- Node1&#45;&gt;Node10 -->
<g id="edge10" class="edge">
<title>Node1&#45;&gt;Node10</title>
<path fill="none" stroke="midnightblue" d="M212.96,-224.4C232.32,-214.64 257.91,-201.74 276.86,-192.18"/>
<polygon fill="midnightblue" stroke="midnightblue" points="278.48,-195.29 285.83,-187.66 275.33,-189.04 278.48,-195.29"/>
</g>
<!-- Node4&#45;&gt;Node2 -->
<g id="edge4" class="edge">
<title>Node4&#45;&gt;Node2</title>
<path fill="none" stroke="midnightblue" d="M159.65,-168.44C132.73,-159.36 90,-144.94 59.91,-134.78"/>
<polygon fill="midnightblue" stroke="midnightblue" points="60.83,-131.4 50.23,-131.52 58.59,-138.03 60.83,-131.4"/>
</g>
<!-- Node5 -->
<g id="node5" class="node">
<title>Node5</title>
<g id="a_node5"><a xlink:title=" ">
<polygon fill="white" stroke="#bfbfbf" points="181.5,-112.5 181.5,-131.5 234.5,-131.5 234.5,-112.5 181.5,-112.5"/>
<text text-anchor="middle" x="208" y="-119.5" font-family="Helvetica,sans-Serif" font-size="10.00">string.h</text>
</a>
</g>
</g>
<!-- Node4&#45;&gt;Node5 -->
<g id="edge5" class="edge">
<title>Node4&#45;&gt;Node5</title>
<path fill="none" stroke="midnightblue" d="M188.8,-168.08C191.91,-160.77 196.42,-150.18 200.29,-141.1"/>
<polygon fill="midnightblue" stroke="midnightblue" points="203.57,-142.32 204.27,-131.75 197.13,-139.58 203.57,-142.32"/>
</g>
<!-- Node6 -->
<g id="node6" class="node">
<title>Node6</title>
<g id="a_node6"><a xlink:title=" ">
<polygon fill="white" stroke="#bfbfbf" points="69,-112.5 69,-131.5 125,-131.5 125,-112.5 69,-112.5"/>
<text text-anchor="middle" x="97" y="-119.5" font-family="Helvetica,sans-Serif" font-size="10.00">assert.h</text>
</a>
</g>
</g>
<!-- Node4&#45;&gt;Node6 -->
<g id="edge6" class="edge">
<title>Node4&#45;&gt;Node6</title>
<path fill="none" stroke="midnightblue" d="M170.86,-168.32C157.13,-159.9 136.06,-146.97 119.94,-137.07"/>
<polygon fill="midnightblue" stroke="midnightblue" points="121.46,-133.9 111.1,-131.65 117.8,-139.87 121.46,-133.9"/>
</g>
<!-- Node7 -->
<g id="node7" class="node">
<title>Node7</title>
<g id="a_node7"><a xlink:title=" ">
<polygon fill="white" stroke="#bfbfbf" points="173.5,-56.5 173.5,-75.5 226.5,-75.5 226.5,-56.5 173.5,-56.5"/>
<text text-anchor="middle" x="200" y="-63.5" font-family="Helvetica,sans-Serif" font-size="10.00">stdint.h</text>
</a>
</g>
</g>
<!-- Node4&#45;&gt;Node7 -->
<g id="edge7" class="edge">
<title>Node4&#45;&gt;Node7</title>
<path fill="none" stroke="midnightblue" d="M180.74,-168.48C175.05,-155.96 166.31,-131.92 172,-112 174.9,-101.84 180.83,-91.75 186.49,-83.7"/>
<polygon fill="midnightblue" stroke="midnightblue" points="189.38,-85.69 192.59,-75.59 183.78,-81.48 189.38,-85.69"/>
</g>
<!-- Node9 -->
<g id="node9" class="node">
<title>Node9</title>
<g id="a_node9"><a xlink:title=" ">
<polygon fill="white" stroke="#bfbfbf" points="310,-0.5 310,-19.5 372,-19.5 372,-0.5 310,-0.5"/>
<text text-anchor="middle" x="341" y="-7.5" font-family="Helvetica,sans-Serif" font-size="10.00">stdbool.h</text>
</a>
</g>
</g>
<!-- Node8&#45;&gt;Node9 -->
<g id="edge9" class="edge">
<title>Node8&#45;&gt;Node9</title>
<path fill="none" stroke="midnightblue" d="M375.23,-56.08C369.44,-48.46 360.94,-37.26 353.86,-27.94"/>
<polygon fill="midnightblue" stroke="midnightblue" points="356.48,-25.6 347.64,-19.75 350.9,-29.83 356.48,-25.6"/>
</g>
<!-- Node10&#45;&gt;Node8 -->
<g id="edge11" class="edge">
<title>Node10&#45;&gt;Node8</title>
<path fill="none" stroke="midnightblue" d="M318.69,-168.45C331.76,-160.58 349.95,-147.75 361,-132 370.68,-118.2 376.09,-99.67 378.98,-85.93"/>
<polygon fill="midnightblue" stroke="midnightblue" points="382.49,-86.19 380.86,-75.72 375.61,-84.93 382.49,-86.19"/>
</g>
<!-- Node11 -->
<g id="node11" class="node">
<title>Node11</title>
<g id="a_node11"><a xlink:href="Carto_8h.html" target="_top" xlink:title="This component describes the cartography&#39;s model. It also allow the user to modify it&#39;s parameters.">
<polygon fill="white" stroke="black" points="252.5,-112.5 252.5,-131.5 351.5,-131.5 351.5,-112.5 252.5,-112.5"/>
<text text-anchor="middle" x="302" y="-119.5" font-family="Helvetica,sans-Serif" font-size="10.00">../../Carto/Carto.h</text>
</a>
</g>
</g>
<!-- Node10&#45;&gt;Node11 -->
<g id="edge12" class="edge">
<title>Node10&#45;&gt;Node11</title>
<path fill="none" stroke="midnightblue" d="M302.83,-168.08C302.7,-161.01 302.52,-150.86 302.35,-141.99"/>
<polygon fill="midnightblue" stroke="midnightblue" points="305.85,-141.68 302.16,-131.75 298.85,-141.81 305.85,-141.68"/>
</g>
<!-- Node11&#45;&gt;Node7 -->
<g id="edge13" class="edge">
<title>Node11&#45;&gt;Node7</title>
<path fill="none" stroke="midnightblue" d="M285.61,-112.32C269.33,-103.7 244.13,-90.36 225.28,-80.39"/>
<polygon fill="midnightblue" stroke="midnightblue" points="226.82,-77.24 216.35,-75.65 223.55,-83.43 226.82,-77.24"/>
</g>
<!-- Node11&#45;&gt;Node8 -->
<g id="edge15" class="edge">
<title>Node11&#45;&gt;Node8</title>
<path fill="none" stroke="midnightblue" d="M314.85,-112.32C327.22,-103.98 346.13,-91.21 360.74,-81.35"/>
<polygon fill="midnightblue" stroke="midnightblue" points="362.85,-84.15 369.18,-75.65 358.93,-78.35 362.85,-84.15"/>
</g>
<!-- Node11&#45;&gt;Node9 -->
<g id="edge14" class="edge">
<title>Node11&#45;&gt;Node9</title>
<path fill="none" stroke="midnightblue" d="M303.89,-112.44C306.77,-99.88 312.71,-75.77 320,-56 323.36,-46.9 327.82,-37.11 331.77,-28.99"/>
<polygon fill="midnightblue" stroke="midnightblue" points="335.03,-30.29 336.37,-19.78 328.77,-27.16 335.03,-30.29"/>
</g>
</g>
</svg>
