<?xml version="1.0" encoding="UTF-8" standalone="no"?>
<!DOCTYPE svg PUBLIC "-//W3C//DTD SVG 1.1//EN"
 "http://www.w3.org/Graphics/SVG/1.1/DTD/svg11.dtd">
<!-- Generated by graphviz version 2.43.0 (0)
 -->
<!-- Title: src/NetworkC/Proxy/NetworkC_ProxyGUI.h Pages: 1 -->
<svg width="312pt" height="106pt"
 viewBox="0.00 0.00 311.50 106.00" xmlns="http://www.w3.org/2000/svg" xmlns:xlink="http://www.w3.org/1999/xlink">
<g id="graph0" class="graph" transform="scale(1 1) rotate(0) translate(4 102)">
<title>src/NetworkC/Proxy/NetworkC_ProxyGUI.h</title>
<polygon fill="white" stroke="transparent" points="-4,4 -4,-102 307.5,-102 307.5,4 -4,4"/>
<!-- Node1 -->
<g id="node1" class="node">
<title>Node1</title>
<g id="a_node1"><a xlink:title="Header file of NetworkC_ProxyGUI.c.">
<polygon fill="#bfbfbf" stroke="black" points="95,-67.5 95,-97.5 223,-97.5 223,-67.5 95,-67.5"/>
<text text-anchor="start" x="103" y="-85.5" font-family="Helvetica,sans-Serif" font-size="10.00">src/NetworkC/Proxy</text>
<text text-anchor="middle" x="159" y="-74.5" font-family="Helvetica,sans-Serif" font-size="10.00">/NetworkC_ProxyGUI.h</text>
</a>
</g>
</g>
<!-- Node2 -->
<g id="node2" class="node">
<title>Node2</title>
<g id="a_node2"><a xlink:href="Geographer_8c.html" target="_top" xlink:title="This component is the active object of ACDSoft.">
<polygon fill="white" stroke="black" points="0,-6 0,-25 158,-25 158,-6 0,-6"/>
<text text-anchor="middle" x="79" y="-13" font-family="Helvetica,sans-Serif" font-size="10.00">src/Geographer/Geographer.c</text>
</a>
</g>
</g>
<!-- Node1&#45;&gt;Node2 -->
<g id="edge1" class="edge">
<title>Node1&#45;&gt;Node2</title>
<path fill="none" stroke="midnightblue" d="M133.78,-61.01C118.93,-48.94 100.91,-34.3 89.7,-25.19"/>
<polygon fill="midnightblue" stroke="midnightblue" points="131.67,-63.81 141.64,-67.4 136.09,-58.37 131.67,-63.81"/>
</g>
<!-- Node3 -->
<g id="node3" class="node">
<title>Node3</title>
<g id="a_node3"><a xlink:href="NetworkC__ProxyGUI_8c.html" target="_top" xlink:title="Proxy for GUI.">
<polygon fill="white" stroke="black" points="176.5,-0.5 176.5,-30.5 303.5,-30.5 303.5,-0.5 176.5,-0.5"/>
<text text-anchor="start" x="184.5" y="-18.5" font-family="Helvetica,sans-Serif" font-size="10.00">src/NetworkC/Proxy</text>
<text text-anchor="middle" x="240" y="-7.5" font-family="Helvetica,sans-Serif" font-size="10.00">/NetworkC_ProxyGUI.c</text>
</a>
</g>
</g>
<!-- Node1&#45;&gt;Node3 -->
<g id="edge2" class="edge">
<title>Node1&#45;&gt;Node3</title>
<path fill="none" stroke="midnightblue" d="M184.69,-60.88C197,-51.01 211.43,-39.43 222.46,-30.58"/>
<polygon fill="midnightblue" stroke="midnightblue" points="182.18,-58.41 176.58,-67.4 186.57,-63.87 182.18,-58.41"/>
</g>
</g>
</svg>
