<?xml version="1.0" encoding="UTF-8" standalone="no"?>
<!DOCTYPE svg PUBLIC "-//W3C//DTD SVG 1.1//EN"
 "http://www.w3.org/Graphics/SVG/1.1/DTD/svg11.dtd">
<!-- Generated by graphviz version 2.43.0 (0)
 -->
<!-- Title: src/NetworkC/Postman/NetworkC_Postman.c Pages: 1 -->
<svg width="1128pt" height="330pt"
 viewBox="0.00 0.00 1128.00 330.00" xmlns="http://www.w3.org/2000/svg" xmlns:xlink="http://www.w3.org/1999/xlink">
<g id="graph0" class="graph" transform="scale(1 1) rotate(0) translate(4 326)">
<title>src/NetworkC/Postman/NetworkC_Postman.c</title>
<polygon fill="white" stroke="transparent" points="-4,4 -4,-326 1124,-326 1124,4 -4,4"/>
<!-- Node1 -->
<g id="node1" class="node">
<title>Node1</title>
<g id="a_node1"><a xlink:title="NetworkC Postman is the interface of the socket.">
<polygon fill="#bfbfbf" stroke="black" points="436.5,-291.5 436.5,-321.5 564.5,-321.5 564.5,-291.5 436.5,-291.5"/>
<text text-anchor="start" x="444.5" y="-309.5" font-family="Helvetica,sans-Serif" font-size="10.00">src/NetworkC/Postman</text>
<text text-anchor="middle" x="500.5" y="-298.5" font-family="Helvetica,sans-Serif" font-size="10.00">/NetworkC_Postman.c</text>
</a>
</g>
</g>
<!-- Node2 -->
<g id="node2" class="node">
<title>Node2</title>
<g id="a_node2"><a xlink:title=" ">
<polygon fill="white" stroke="#bfbfbf" points="0,-230 0,-249 63,-249 63,-230 0,-230"/>
<text text-anchor="middle" x="31.5" y="-237" font-family="Helvetica,sans-Serif" font-size="10.00">pthread.h</text>
</a>
</g>
</g>
<!-- Node1&#45;&gt;Node2 -->
<g id="edge1" class="edge">
<title>Node1&#45;&gt;Node2</title>
<path fill="none" stroke="midnightblue" d="M436.29,-302.38C351.89,-297.27 199.48,-284.56 72.5,-255 69.26,-254.25 65.93,-253.32 62.63,-252.31"/>
<polygon fill="midnightblue" stroke="midnightblue" points="63.53,-248.92 52.94,-249.09 61.32,-255.57 63.53,-248.92"/>
</g>
<!-- Node3 -->
<g id="node3" class="node">
<title>Node3</title>
<g id="a_node3"><a xlink:title=" ">
<polygon fill="white" stroke="#bfbfbf" points="81.5,-230 81.5,-249 153.5,-249 153.5,-230 81.5,-230"/>
<text text-anchor="middle" x="117.5" y="-237" font-family="Helvetica,sans-Serif" font-size="10.00">sys/types.h</text>
</a>
</g>
</g>
<!-- Node1&#45;&gt;Node3 -->
<g id="edge2" class="edge">
<title>Node1&#45;&gt;Node3</title>
<path fill="none" stroke="midnightblue" d="M436.37,-299.08C367.94,-291.49 256.66,-277.05 162.5,-255 158.85,-254.15 155.07,-253.13 151.32,-252.05"/>
<polygon fill="midnightblue" stroke="midnightblue" points="152.17,-248.65 141.58,-249.06 150.12,-255.34 152.17,-248.65"/>
</g>
<!-- Node4 -->
<g id="node4" class="node">
<title>Node4</title>
<g id="a_node4"><a xlink:title=" ">
<polygon fill="white" stroke="#bfbfbf" points="172,-230 172,-249 249,-249 249,-230 172,-230"/>
<text text-anchor="middle" x="210.5" y="-237" font-family="Helvetica,sans-Serif" font-size="10.00">sys/socket.h</text>
</a>
</g>
</g>
<!-- Node1&#45;&gt;Node4 -->
<g id="edge3" class="edge">
<title>Node1&#45;&gt;Node4</title>
<path fill="none" stroke="midnightblue" d="M436.42,-293.89C387.2,-284.57 317.69,-270.5 257.5,-255 253.9,-254.07 250.16,-253.04 246.44,-251.97"/>
<polygon fill="midnightblue" stroke="midnightblue" points="247.31,-248.57 236.72,-249.07 245.31,-255.28 247.31,-248.57"/>
</g>
<!-- Node5 -->
<g id="node5" class="node">
<title>Node5</title>
<g id="a_node5"><a xlink:title=" ">
<polygon fill="white" stroke="#bfbfbf" points="267,-230 267,-249 320,-249 320,-230 267,-230"/>
<text text-anchor="middle" x="293.5" y="-237" font-family="Helvetica,sans-Serif" font-size="10.00">netdb.h</text>
</a>
</g>
</g>
<!-- Node1&#45;&gt;Node5 -->
<g id="edge4" class="edge">
<title>Node1&#45;&gt;Node5</title>
<path fill="none" stroke="midnightblue" d="M447.34,-291.48C413.11,-282.06 367.83,-268.87 328.5,-255 326.59,-254.33 324.64,-253.61 322.68,-252.86"/>
<polygon fill="midnightblue" stroke="midnightblue" points="323.56,-249.45 312.98,-249 320.98,-255.95 323.56,-249.45"/>
</g>
<!-- Node6 -->
<g id="node6" class="node">
<title>Node6</title>
<g id="a_node6"><a xlink:title=" ">
<polygon fill="white" stroke="#bfbfbf" points="338,-230 338,-249 389,-249 389,-230 338,-230"/>
<text text-anchor="middle" x="363.5" y="-237" font-family="Helvetica,sans-Serif" font-size="10.00">errno.h</text>
</a>
</g>
</g>
<!-- Node1&#45;&gt;Node6 -->
<g id="edge5" class="edge">
<title>Node1&#45;&gt;Node6</title>
<path fill="none" stroke="midnightblue" d="M470.77,-291.4C446.95,-280.09 413.79,-264.36 390.67,-253.39"/>
<polygon fill="midnightblue" stroke="midnightblue" points="391.97,-250.13 381.43,-249.01 388.96,-256.46 391.97,-250.13"/>
</g>
<!-- Node7 -->
<g id="node7" class="node">
<title>Node7</title>
<g id="a_node7"><a xlink:title=" ">
<polygon fill="white" stroke="#bfbfbf" points="407,-230 407,-249 472,-249 472,-230 407,-230"/>
<text text-anchor="middle" x="439.5" y="-237" font-family="Helvetica,sans-Serif" font-size="10.00">mqueue.h</text>
</a>
</g>
</g>
<!-- Node1&#45;&gt;Node7 -->
<g id="edge6" class="edge">
<title>Node1&#45;&gt;Node7</title>
<path fill="none" stroke="midnightblue" d="M487.26,-291.4C477.66,-281.16 464.65,-267.3 454.63,-256.62"/>
<polygon fill="midnightblue" stroke="midnightblue" points="457.05,-254.09 447.66,-249.19 451.95,-258.88 457.05,-254.09"/>
</g>
<!-- Node8 -->
<g id="node8" class="node">
<title>Node8</title>
<g id="a_node8"><a xlink:title=" ">
<polygon fill="white" stroke="#bfbfbf" points="551.5,-0.5 551.5,-19.5 613.5,-19.5 613.5,-0.5 551.5,-0.5"/>
<text text-anchor="middle" x="582.5" y="-7.5" font-family="Helvetica,sans-Serif" font-size="10.00">stdbool.h</text>
</a>
</g>
</g>
<!-- Node1&#45;&gt;Node8 -->
<g id="edge7" class="edge">
<title>Node1&#45;&gt;Node8</title>
<path fill="none" stroke="midnightblue" d="M500.5,-291.46C500.5,-268.12 500.5,-219.85 500.5,-179 500.5,-179 500.5,-179 500.5,-121 500.5,-90.9 502.07,-80.54 519.5,-56 528.77,-42.95 543.05,-32.3 555.67,-24.65"/>
<polygon fill="midnightblue" stroke="midnightblue" points="557.53,-27.61 564.47,-19.61 554.05,-21.54 557.53,-27.61"/>
</g>
<!-- Node9 -->
<g id="node9" class="node">
<title>Node9</title>
<g id="a_node9"><a xlink:title=" ">
<polygon fill="white" stroke="#bfbfbf" points="825,-230 825,-249 878,-249 878,-230 825,-230"/>
<text text-anchor="middle" x="851.5" y="-237" font-family="Helvetica,sans-Serif" font-size="10.00">stdlib.h</text>
</a>
</g>
</g>
<!-- Node1&#45;&gt;Node9 -->
<g id="edge8" class="edge">
<title>Node1&#45;&gt;Node9</title>
<path fill="none" stroke="midnightblue" d="M564.7,-299.69C629.23,-292.83 731.1,-279.15 816.5,-255 818.94,-254.31 821.43,-253.5 823.91,-252.62"/>
<polygon fill="midnightblue" stroke="midnightblue" points="825.2,-255.88 833.26,-249 822.67,-249.35 825.2,-255.88"/>
</g>
<!-- Node10 -->
<g id="node10" class="node">
<title>Node10</title>
<g id="a_node10"><a xlink:href="util_8h.html" target="_top" xlink:title="Macros to color the terminal in debug mode and do assert.">
<polygon fill="white" stroke="black" points="714,-230 714,-249 807,-249 807,-230 714,-230"/>
<text text-anchor="middle" x="760.5" y="-237" font-family="Helvetica,sans-Serif" font-size="10.00">../../Config/util.h</text>
</a>
</g>
</g>
<!-- Node1&#45;&gt;Node10 -->
<g id="edge9" class="edge">
<title>Node1&#45;&gt;Node10</title>
<path fill="none" stroke="midnightblue" d="M558.14,-291.41C599.02,-281.37 655.16,-267.49 704.5,-255 708.83,-253.9 713.35,-252.75 717.86,-251.59"/>
<polygon fill="midnightblue" stroke="midnightblue" points="718.84,-254.95 727.65,-249.07 717.09,-248.18 718.84,-254.95"/>
</g>
<!-- Node15 -->
<g id="node15" class="node">
<title>Node15</title>
<g id="a_node15"><a xlink:href="config_8h.html" target="_top" xlink:title="Global definitions.">
<polygon fill="white" stroke="black" points="529,-56.5 529,-75.5 636,-75.5 636,-56.5 529,-56.5"/>
<text text-anchor="middle" x="582.5" y="-63.5" font-family="Helvetica,sans-Serif" font-size="10.00">../../Config/config.h</text>
</a>
</g>
</g>
<!-- Node1&#45;&gt;Node15 -->
<g id="edge14" class="edge">
<title>Node1&#45;&gt;Node15</title>
<path fill="none" stroke="midnightblue" d="M505.38,-291.29C519.49,-250.26 560.31,-131.55 576.13,-85.53"/>
<polygon fill="midnightblue" stroke="midnightblue" points="579.48,-86.54 579.42,-75.95 572.86,-84.26 579.48,-86.54"/>
</g>
<!-- Node16 -->
<g id="node16" class="node">
<title>Node16</title>
<g id="a_node16"><a xlink:href="NetworkC__Postman_8h.html" target="_top" xlink:title="Header File for NetworkC_Postman.c.">
<polygon fill="white" stroke="black" points="896.5,-230 896.5,-249 1018.5,-249 1018.5,-230 896.5,-230"/>
<text text-anchor="middle" x="957.5" y="-237" font-family="Helvetica,sans-Serif" font-size="10.00">NetworkC_Postman.h</text>
</a>
</g>
</g>
<!-- Node1&#45;&gt;Node16 -->
<g id="edge16" class="edge">
<title>Node1&#45;&gt;Node16</title>
<path fill="none" stroke="midnightblue" d="M564.74,-298.6C641.7,-289.99 774.42,-274.06 887.5,-255 894.32,-253.85 901.5,-252.51 908.54,-251.12"/>
<polygon fill="midnightblue" stroke="midnightblue" points="909.61,-254.48 918.72,-249.07 908.22,-247.62 909.61,-254.48"/>
</g>
<!-- Node17 -->
<g id="node17" class="node">
<title>Node17</title>
<g id="a_node17"><a xlink:href="NetworkC__Dispatcher_8h.html" target="_top" xlink:title="Header file of NetworkC_Dispatcher.c.">
<polygon fill="white" stroke="black" points="567,-224.5 567,-254.5 696,-254.5 696,-224.5 567,-224.5"/>
<text text-anchor="start" x="575" y="-242.5" font-family="Helvetica,sans-Serif" font-size="10.00">../Dispatcher/NetworkC</text>
<text text-anchor="middle" x="631.5" y="-231.5" font-family="Helvetica,sans-Serif" font-size="10.00">_Dispatcher.h</text>
</a>
</g>
</g>
<!-- Node1&#45;&gt;Node17 -->
<g id="edge17" class="edge">
<title>Node1&#45;&gt;Node17</title>
<path fill="none" stroke="midnightblue" d="M528.93,-291.4C547.98,-281.94 573.28,-269.39 593.98,-259.12"/>
<polygon fill="midnightblue" stroke="midnightblue" points="595.73,-262.16 603.13,-254.58 592.62,-255.89 595.73,-262.16"/>
</g>
<!-- Node20 -->
<g id="node20" class="node">
<title>Node20</title>
<g id="a_node20"><a xlink:href="NetworkC_8h.html" target="_top" xlink:title="Header file of NetworkC.c.">
<polygon fill="white" stroke="black" points="1037,-230 1037,-249 1120,-249 1120,-230 1037,-230"/>
<text text-anchor="middle" x="1078.5" y="-237" font-family="Helvetica,sans-Serif" font-size="10.00">../NetworkC.h</text>
</a>
</g>
</g>
<!-- Node1&#45;&gt;Node20 -->
<g id="edge24" class="edge">
<title>Node1&#45;&gt;Node20</title>
<path fill="none" stroke="midnightblue" d="M564.71,-303.1C664.48,-298.54 862.44,-286.11 1027.5,-255 1032.28,-254.1 1037.26,-252.95 1042.15,-251.7"/>
<polygon fill="midnightblue" stroke="midnightblue" points="1043.25,-255.03 1051.98,-249.02 1041.42,-248.27 1043.25,-255.03"/>
</g>
<!-- Node11 -->
<g id="node11" class="node">
<title>Node11</title>
<g id="a_node11"><a xlink:title=" ">
<polygon fill="white" stroke="#bfbfbf" points="770.5,-168.5 770.5,-187.5 820.5,-187.5 820.5,-168.5 770.5,-168.5"/>
<text text-anchor="middle" x="795.5" y="-175.5" font-family="Helvetica,sans-Serif" font-size="10.00">stdio.h</text>
</a>
</g>
</g>
<!-- Node10&#45;&gt;Node11 -->
<g id="edge10" class="edge">
<title>Node10&#45;&gt;Node11</title>
<path fill="none" stroke="midnightblue" d="M765.51,-229.98C770.66,-221.23 778.81,-207.37 785.32,-196.31"/>
<polygon fill="midnightblue" stroke="midnightblue" points="788.44,-197.9 790.49,-187.51 782.41,-194.35 788.44,-197.9"/>
</g>
<!-- Node12 -->
<g id="node12" class="node">
<title>Node12</title>
<g id="a_node12"><a xlink:title=" ">
<polygon fill="white" stroke="#bfbfbf" points="839,-168.5 839,-187.5 892,-187.5 892,-168.5 839,-168.5"/>
<text text-anchor="middle" x="865.5" y="-175.5" font-family="Helvetica,sans-Serif" font-size="10.00">string.h</text>
</a>
</g>
</g>
<!-- Node10&#45;&gt;Node12 -->
<g id="edge11" class="edge">
<title>Node10&#45;&gt;Node12</title>
<path fill="none" stroke="midnightblue" d="M775.54,-229.98C792.78,-220.21 821.24,-204.08 841.53,-192.58"/>
<polygon fill="midnightblue" stroke="midnightblue" points="843.51,-195.48 850.48,-187.51 840.06,-189.39 843.51,-195.48"/>
</g>
<!-- Node13 -->
<g id="node13" class="node">
<title>Node13</title>
<g id="a_node13"><a xlink:title=" ">
<polygon fill="white" stroke="#bfbfbf" points="910.5,-168.5 910.5,-187.5 966.5,-187.5 966.5,-168.5 910.5,-168.5"/>
<text text-anchor="middle" x="938.5" y="-175.5" font-family="Helvetica,sans-Serif" font-size="10.00">assert.h</text>
</a>
</g>
</g>
<!-- Node10&#45;&gt;Node13 -->
<g id="edge12" class="edge">
<title>Node10&#45;&gt;Node13</title>
<path fill="none" stroke="midnightblue" d="M786,-229.98C816.8,-219.68 868.77,-202.31 903.35,-190.75"/>
<polygon fill="midnightblue" stroke="midnightblue" points="904.67,-194 913.04,-187.51 902.45,-187.36 904.67,-194"/>
</g>
<!-- Node14 -->
<g id="node14" class="node">
<title>Node14</title>
<g id="a_node14"><a xlink:title=" ">
<polygon fill="white" stroke="#bfbfbf" points="704,-56.5 704,-75.5 757,-75.5 757,-56.5 704,-56.5"/>
<text text-anchor="middle" x="730.5" y="-63.5" font-family="Helvetica,sans-Serif" font-size="10.00">stdint.h</text>
</a>
</g>
</g>
<!-- Node10&#45;&gt;Node14 -->
<g id="edge13" class="edge">
<title>Node10&#45;&gt;Node14</title>
<path fill="none" stroke="midnightblue" d="M758.97,-229.76C754.32,-203.15 740.25,-122.71 733.8,-85.84"/>
<polygon fill="midnightblue" stroke="midnightblue" points="737.16,-84.77 731.99,-75.52 730.27,-85.97 737.16,-84.77"/>
</g>
<!-- Node15&#45;&gt;Node8 -->
<g id="edge15" class="edge">
<title>Node15&#45;&gt;Node8</title>
<path fill="none" stroke="midnightblue" d="M582.5,-56.08C582.5,-49.01 582.5,-38.86 582.5,-29.99"/>
<polygon fill="midnightblue" stroke="midnightblue" points="586,-29.75 582.5,-19.75 579,-29.75 586,-29.75"/>
</g>
<!-- Node18 -->
<g id="node18" class="node">
<title>Node18</title>
<g id="a_node18"><a xlink:href="NetworkC__Coder_8h.html" target="_top" xlink:title="Header file of NetworkC_Coder.c.">
<polygon fill="white" stroke="black" points="567,-168.5 567,-187.5 714,-187.5 714,-168.5 567,-168.5"/>
<text text-anchor="middle" x="640.5" y="-175.5" font-family="Helvetica,sans-Serif" font-size="10.00">../Coder/NetworkC_Coder.h</text>
</a>
</g>
</g>
<!-- Node17&#45;&gt;Node18 -->
<g id="edge18" class="edge">
<title>Node17&#45;&gt;Node18</title>
<path fill="none" stroke="midnightblue" d="M633.63,-224.4C634.85,-216.38 636.38,-206.23 637.69,-197.57"/>
<polygon fill="midnightblue" stroke="midnightblue" points="641.16,-198.07 639.19,-187.66 634.23,-197.02 641.16,-198.07"/>
</g>
<!-- Node18&#45;&gt;Node15 -->
<g id="edge19" class="edge">
<title>Node18&#45;&gt;Node15</title>
<path fill="none" stroke="midnightblue" d="M631.76,-168.43C623.46,-159.88 611.17,-146.02 603.5,-132 595.5,-117.37 589.95,-99.2 586.58,-85.79"/>
<polygon fill="midnightblue" stroke="midnightblue" points="589.93,-84.77 584.25,-75.83 583.12,-86.37 589.93,-84.77"/>
</g>
<!-- Node19 -->
<g id="node19" class="node">
<title>Node19</title>
<g id="a_node19"><a xlink:href="Carto_8h.html" target="_top" xlink:title="This component describes the cartography&#39;s model. It also allow the user to modify it&#39;s parameters.">
<polygon fill="white" stroke="black" points="613,-112.5 613,-131.5 712,-131.5 712,-112.5 613,-112.5"/>
<text text-anchor="middle" x="662.5" y="-119.5" font-family="Helvetica,sans-Serif" font-size="10.00">../../Carto/Carto.h</text>
</a>
</g>
</g>
<!-- Node18&#45;&gt;Node19 -->
<g id="edge20" class="edge">
<title>Node18&#45;&gt;Node19</title>
<path fill="none" stroke="midnightblue" d="M644.13,-168.08C647.11,-160.77 651.43,-150.18 655.12,-141.1"/>
<polygon fill="midnightblue" stroke="midnightblue" points="658.4,-142.33 658.93,-131.75 651.92,-139.69 658.4,-142.33"/>
</g>
<!-- Node19&#45;&gt;Node8 -->
<g id="edge22" class="edge">
<title>Node19&#45;&gt;Node8</title>
<path fill="none" stroke="midnightblue" d="M661.9,-112.24C660.62,-98.98 656.65,-73.51 644.5,-56 635.47,-42.99 621.42,-32.34 608.98,-24.68"/>
<polygon fill="midnightblue" stroke="midnightblue" points="610.71,-21.63 600.3,-19.63 607.19,-27.68 610.71,-21.63"/>
</g>
<!-- Node19&#45;&gt;Node14 -->
<g id="edge21" class="edge">
<title>Node19&#45;&gt;Node14</title>
<path fill="none" stroke="midnightblue" d="M673.43,-112.32C683.67,-104.18 699.22,-91.84 711.5,-82.09"/>
<polygon fill="midnightblue" stroke="midnightblue" points="713.72,-84.79 719.38,-75.83 709.37,-79.31 713.72,-84.79"/>
</g>
<!-- Node19&#45;&gt;Node15 -->
<g id="edge23" class="edge">
<title>Node19&#45;&gt;Node15</title>
<path fill="none" stroke="midnightblue" d="M649.65,-112.32C637.28,-103.98 618.37,-91.21 603.76,-81.35"/>
<polygon fill="midnightblue" stroke="midnightblue" points="605.57,-78.35 595.32,-75.65 601.65,-84.15 605.57,-78.35"/>
</g>
</g>
</svg>
