<?xml version="1.0" encoding="UTF-8" standalone="no"?>
<!DOCTYPE svg PUBLIC "-//W3C//DTD SVG 1.1//EN"
 "http://www.w3.org/Graphics/SVG/1.1/DTD/svg11.dtd">
<!-- Generated by graphviz version 2.43.0 (0)
 -->
<!-- Title: src/NetworkC/Dispatcher/NetworkC_Dispatcher.c Pages: 1 -->
<!--zoomable 330 -->
<svg id="main" version="1.1" xmlns="http://www.w3.org/2000/svg" xmlns:xlink="http://www.w3.org/1999/xlink" xml:space="preserve" onload="init(evt)">
<style type="text/css"><![CDATA[
.edge:hover path { stroke: red; }
.edge:hover polygon { stroke: red; fill: red; }
]]></style>
<script type="text/javascript"><![CDATA[
var edges = document.getElementsByTagName('g');
if (edges && edges.length) {
  for (var i=0;i<edges.length;i++) {
    if (edges[i].id.substr(0,4)=='edge') {
      edges[i].setAttribute('class','edge');
    }
  }
}
]]></script>
        <defs>
                <circle id="rim" cx="0" cy="0" r="7"/>
                <circle id="rim2" cx="0" cy="0" r="3.5"/>
                <g id="zoomPlus">
                        <use xlink:href="#rim" fill="#404040">
                                <set attributeName="fill" to="#808080" begin="zoomplus.mouseover" end="zoomplus.mouseout"/>
                        </use>
                        <path d="M-4,0h8M0,-4v8" fill="none" stroke="white" stroke-width="1.5" pointer-events="none"/>
                </g>
                <g id="zoomMin">
                        <use xlink:href="#rim" fill="#404040">
                                <set attributeName="fill" to="#808080" begin="zoomminus.mouseover" end="zoomminus.mouseout"/>
                        </use>
                        <path d="M-4,0h8" fill="none" stroke="white" stroke-width="1.5" pointer-events="none"/>
                </g>
                <g id="dirArrow">
                        <path fill="none" stroke="white" stroke-width="1.5" d="M0,-3.0v7 M-2.5,-0.5L0,-3.0L2.5,-0.5"/>
                </g>
               <g id="resetDef">
                       <use xlink:href="#rim2" fill="#404040">
                               <set attributeName="fill" to="#808080" begin="reset.mouseover" end="reset.mouseout"/>
                       </use>
               </g>
        </defs>

<script type="text/javascript">
var viewWidth = 895;
var viewHeight = 330;
var sectionId = 'dynsection-0';
</script>
<script xlink:href="svgpan.js"/>
<svg id="graph" class="graph">
<g id="viewport">
<title>src/NetworkC/Dispatcher/NetworkC_Dispatcher.c</title>
<polygon fill="white" stroke="transparent" points="-4,4 -4,-326 891,-326 891,4 -4,4"/>
<!-- Node1 -->
<g id="node1" class="node">
<title>Node1</title>
<g id="a_node1"><a xlink:title="NetworkC_Dispatcher dispatch the received message.">
<polygon fill="#bfbfbf" stroke="black" points="350,-291.5 350,-321.5 487,-321.5 487,-291.5 350,-291.5"/>
<text text-anchor="start" x="358" y="-309.5" font-family="Helvetica,sans-Serif" font-size="10.00">src/NetworkC/Dispatcher</text>
<text text-anchor="middle" x="418.5" y="-298.5" font-family="Helvetica,sans-Serif" font-size="10.00">/NetworkC_Dispatcher.c</text>
</a>
</g>
</g>
<!-- Node2 -->
<g id="node2" class="node">
<title>Node2</title>
<g id="a_node2"><a xlink:title=" ">
<polygon fill="white" stroke="#bfbfbf" points="0,-230 0,-249 63,-249 63,-230 0,-230"/>
<text text-anchor="middle" x="31.5" y="-237" font-family="Helvetica,sans-Serif" font-size="10.00">pthread.h</text>
</a>
</g>
</g>
<!-- Node1&#45;&gt;Node2 -->
<g id="edge1" class="edge">
<title>Node1&#45;&gt;Node2</title>
<path fill="none" stroke="midnightblue" d="M349.97,-298.58C280.69,-290.83 170.82,-276.47 77.5,-255 73.66,-254.12 69.68,-253.07 65.74,-251.95"/>
<polygon fill="midnightblue" stroke="midnightblue" points="66.71,-248.58 56.13,-249.05 64.7,-255.29 66.71,-248.58"/>
</g>
<!-- Node3 -->
<g id="node3" class="node">
<title>Node3</title>
<g id="a_node3"><a xlink:title=" ">
<polygon fill="white" stroke="#bfbfbf" points="239.5,-0.5 239.5,-19.5 301.5,-19.5 301.5,-0.5 239.5,-0.5"/>
<text text-anchor="middle" x="270.5" y="-7.5" font-family="Helvetica,sans-Serif" font-size="10.00">stdbool.h</text>
</a>
</g>
</g>
<!-- Node1&#45;&gt;Node3 -->
<g id="edge2" class="edge">
<title>Node1&#45;&gt;Node3</title>
<path fill="none" stroke="midnightblue" d="M349.9,-297.71C304.05,-290.7 243.25,-277.85 193.5,-255 142.13,-231.4 91.5,-235.53 91.5,-179 91.5,-179 91.5,-179 91.5,-121 91.5,-56.71 176.35,-28.81 229.21,-17.66"/>
<polygon fill="midnightblue" stroke="midnightblue" points="230.2,-21.03 239.32,-15.65 228.83,-14.16 230.2,-21.03"/>
</g>
<!-- Node4 -->
<g id="node4" class="node">
<title>Node4</title>
<g id="a_node4"><a xlink:title=" ">
<polygon fill="white" stroke="#bfbfbf" points="521,-230 521,-249 574,-249 574,-230 521,-230"/>
<text text-anchor="middle" x="547.5" y="-237" font-family="Helvetica,sans-Serif" font-size="10.00">stdlib.h</text>
</a>
</g>
</g>
<!-- Node1&#45;&gt;Node4 -->
<g id="edge3" class="edge">
<title>Node1&#45;&gt;Node4</title>
<path fill="none" stroke="midnightblue" d="M446.49,-291.4C468.83,-280.14 499.87,-264.5 521.63,-253.54"/>
<polygon fill="midnightblue" stroke="midnightblue" points="523.26,-256.63 530.62,-249.01 520.11,-250.38 523.26,-256.63"/>
</g>
<!-- Node5 -->
<g id="node5" class="node">
<title>Node5</title>
<g id="a_node5"><a xlink:title=" ">
<polygon fill="white" stroke="#bfbfbf" points="592.5,-230 592.5,-249 648.5,-249 648.5,-230 592.5,-230"/>
<text text-anchor="middle" x="620.5" y="-237" font-family="Helvetica,sans-Serif" font-size="10.00">unistd.h</text>
</a>
</g>
</g>
<!-- Node1&#45;&gt;Node5 -->
<g id="edge4" class="edge">
<title>Node1&#45;&gt;Node5</title>
<path fill="none" stroke="midnightblue" d="M467.91,-291.45C500.86,-281.82 545.03,-268.4 583.5,-255 585.62,-254.26 587.79,-253.48 589.98,-252.67"/>
<polygon fill="midnightblue" stroke="midnightblue" points="591.37,-255.89 599.47,-249.06 588.88,-249.34 591.37,-255.89"/>
</g>
<!-- Node6 -->
<g id="node6" class="node">
<title>Node6</title>
<g id="a_node6"><a xlink:href="util_8h.html" target="_top" xlink:title="Macros to color the terminal in debug mode and do assert.">
<polygon fill="white" stroke="black" points="410,-230 410,-249 503,-249 503,-230 410,-230"/>
<text text-anchor="middle" x="456.5" y="-237" font-family="Helvetica,sans-Serif" font-size="10.00">../../Config/util.h</text>
</a>
</g>
</g>
<!-- Node1&#45;&gt;Node6 -->
<g id="edge5" class="edge">
<title>Node1&#45;&gt;Node6</title>
<path fill="none" stroke="midnightblue" d="M426.75,-291.4C432.49,-281.56 440.2,-268.38 446.33,-257.89"/>
<polygon fill="midnightblue" stroke="midnightblue" points="449.39,-259.59 451.42,-249.19 443.35,-256.06 449.39,-259.59"/>
</g>
<!-- Node11 -->
<g id="node11" class="node">
<title>Node11</title>
<g id="a_node11"><a xlink:href="NetworkC__Dispatcher_8h.html" target="_top" xlink:title="Header file of NetworkC_Dispatcher.c.">
<polygon fill="white" stroke="black" points="222,-230 222,-249 353,-249 353,-230 222,-230"/>
<text text-anchor="middle" x="287.5" y="-237" font-family="Helvetica,sans-Serif" font-size="10.00">NetworkC_Dispatcher.h</text>
</a>
</g>
</g>
<!-- Node1&#45;&gt;Node11 -->
<g id="edge10" class="edge">
<title>Node1&#45;&gt;Node11</title>
<path fill="none" stroke="midnightblue" d="M390.07,-291.4C367.39,-280.14 335.87,-264.5 313.78,-253.54"/>
<polygon fill="midnightblue" stroke="midnightblue" points="315.16,-250.32 304.64,-249.01 312.05,-256.59 315.16,-250.32"/>
</g>
<!-- Node12 -->
<g id="node12" class="node">
<title>Node12</title>
<g id="a_node12"><a xlink:href="NetworkC__Coder_8h.html" target="_top" xlink:title="Header file of NetworkC_Coder.c.">
<polygon fill="white" stroke="black" points="120,-168.5 120,-187.5 267,-187.5 267,-168.5 120,-168.5"/>
<text text-anchor="middle" x="193.5" y="-175.5" font-family="Helvetica,sans-Serif" font-size="10.00">../Coder/NetworkC_Coder.h</text>
</a>
</g>
</g>
<!-- Node1&#45;&gt;Node12 -->
<g id="edge19" class="edge">
<title>Node1&#45;&gt;Node12</title>
<path fill="none" stroke="midnightblue" d="M349.89,-296.24C298.11,-287.89 232.8,-274 213.5,-255 198.41,-240.15 194.27,-215.37 193.34,-198.16"/>
<polygon fill="midnightblue" stroke="midnightblue" points="196.83,-197.6 193.12,-187.68 189.83,-197.75 196.83,-197.6"/>
</g>
<!-- Node15 -->
<g id="node15" class="node">
<title>Node15</title>
<g id="a_node15"><a xlink:href="NetworkC_8h.html" target="_top" xlink:title="Header file of NetworkC.c.">
<polygon fill="white" stroke="black" points="667,-230 667,-249 750,-249 750,-230 667,-230"/>
<text text-anchor="middle" x="708.5" y="-237" font-family="Helvetica,sans-Serif" font-size="10.00">../NetworkC.h</text>
</a>
</g>
</g>
<!-- Node1&#45;&gt;Node15 -->
<g id="edge18" class="edge">
<title>Node1&#45;&gt;Node15</title>
<path fill="none" stroke="midnightblue" d="M487.04,-292.32C534.97,-282.78 600.38,-269.14 657.5,-255 661.57,-253.99 665.81,-252.88 670.02,-251.74"/>
<polygon fill="midnightblue" stroke="midnightblue" points="671.03,-255.1 679.73,-249.05 669.16,-248.35 671.03,-255.1"/>
</g>
<!-- Node16 -->
<g id="node16" class="node">
<title>Node16</title>
<g id="a_node16"><a xlink:href="NetworkC__Postman_8h.html" target="_top" xlink:title="Header File for NetworkC_Postman.c.">
<polygon fill="white" stroke="black" points="768,-224.5 768,-254.5 887,-254.5 887,-224.5 768,-224.5"/>
<text text-anchor="start" x="776" y="-242.5" font-family="Helvetica,sans-Serif" font-size="10.00">../Postman/NetworkC</text>
<text text-anchor="middle" x="827.5" y="-231.5" font-family="Helvetica,sans-Serif" font-size="10.00">_Postman.h</text>
</a>
</g>
</g>
<!-- Node1&#45;&gt;Node16 -->
<g id="edge20" class="edge">
<title>Node1&#45;&gt;Node16</title>
<path fill="none" stroke="midnightblue" d="M487.29,-296.61C554.08,-287.68 658.56,-272.94 757.93,-255.22"/>
<polygon fill="midnightblue" stroke="midnightblue" points="758.61,-258.66 767.84,-253.44 757.38,-251.77 758.61,-258.66"/>
</g>
<!-- Node17 -->
<g id="node17" class="node">
<title>Node17</title>
<g id="a_node17"><a xlink:href="Geographer_8h.html" target="_top" xlink:title="This component is the active object of ACDSoft.">
<polygon fill="white" stroke="black" points="285.5,-168.5 285.5,-187.5 445.5,-187.5 445.5,-168.5 285.5,-168.5"/>
<text text-anchor="middle" x="365.5" y="-175.5" font-family="Helvetica,sans-Serif" font-size="10.00">../../Geographer/Geographer.h</text>
</a>
</g>
</g>
<!-- Node1&#45;&gt;Node17 -->
<g id="edge21" class="edge">
<title>Node1&#45;&gt;Node17</title>
<path fill="none" stroke="midnightblue" d="M412.63,-291.48C402.96,-268.41 383.72,-222.48 373.05,-197.03"/>
<polygon fill="midnightblue" stroke="midnightblue" points="376.27,-195.66 369.18,-187.79 369.82,-198.36 376.27,-195.66"/>
</g>
<!-- Node7 -->
<g id="node7" class="node">
<title>Node7</title>
<g id="a_node7"><a xlink:title=" ">
<polygon fill="white" stroke="#bfbfbf" points="647.5,-168.5 647.5,-187.5 697.5,-187.5 697.5,-168.5 647.5,-168.5"/>
<text text-anchor="middle" x="672.5" y="-175.5" font-family="Helvetica,sans-Serif" font-size="10.00">stdio.h</text>
</a>
</g>
</g>
<!-- Node6&#45;&gt;Node7 -->
<g id="edge6" class="edge">
<title>Node6&#45;&gt;Node7</title>
<path fill="none" stroke="midnightblue" d="M487.45,-229.98C527.21,-219.02 596.06,-200.06 637.63,-188.6"/>
<polygon fill="midnightblue" stroke="midnightblue" points="638.62,-191.96 647.33,-185.93 636.76,-185.21 638.62,-191.96"/>
</g>
<!-- Node8 -->
<g id="node8" class="node">
<title>Node8</title>
<g id="a_node8"><a xlink:title=" ">
<polygon fill="white" stroke="#bfbfbf" points="464,-168.5 464,-187.5 517,-187.5 517,-168.5 464,-168.5"/>
<text text-anchor="middle" x="490.5" y="-175.5" font-family="Helvetica,sans-Serif" font-size="10.00">string.h</text>
</a>
</g>
</g>
<!-- Node6&#45;&gt;Node8 -->
<g id="edge7" class="edge">
<title>Node6&#45;&gt;Node8</title>
<path fill="none" stroke="midnightblue" d="M461.37,-229.98C466.37,-221.23 474.29,-207.37 480.61,-196.31"/>
<polygon fill="midnightblue" stroke="midnightblue" points="483.72,-197.93 485.64,-187.51 477.64,-194.46 483.72,-197.93"/>
</g>
<!-- Node9 -->
<g id="node9" class="node">
<title>Node9</title>
<g id="a_node9"><a xlink:title=" ">
<polygon fill="white" stroke="#bfbfbf" points="535.5,-168.5 535.5,-187.5 591.5,-187.5 591.5,-168.5 535.5,-168.5"/>
<text text-anchor="middle" x="563.5" y="-175.5" font-family="Helvetica,sans-Serif" font-size="10.00">assert.h</text>
</a>
</g>
</g>
<!-- Node6&#45;&gt;Node9 -->
<g id="edge8" class="edge">
<title>Node6&#45;&gt;Node9</title>
<path fill="none" stroke="midnightblue" d="M471.83,-229.98C489.47,-220.17 518.66,-203.93 539.36,-192.42"/>
<polygon fill="midnightblue" stroke="midnightblue" points="541.16,-195.43 548.2,-187.51 537.76,-189.31 541.16,-195.43"/>
</g>
<!-- Node10 -->
<g id="node10" class="node">
<title>Node10</title>
<g id="a_node10"><a xlink:title=" ">
<polygon fill="white" stroke="#bfbfbf" points="493,-56.5 493,-75.5 546,-75.5 546,-56.5 493,-56.5"/>
<text text-anchor="middle" x="519.5" y="-63.5" font-family="Helvetica,sans-Serif" font-size="10.00">stdint.h</text>
</a>
</g>
</g>
<!-- Node6&#45;&gt;Node10 -->
<g id="edge9" class="edge">
<title>Node6&#45;&gt;Node10</title>
<path fill="none" stroke="midnightblue" d="M486.56,-229.97C526.73,-218.28 593.68,-197.62 600.5,-188 627.36,-150.11 573.95,-104.28 541.65,-81.43"/>
<polygon fill="midnightblue" stroke="midnightblue" points="543.4,-78.39 533.18,-75.62 539.44,-84.16 543.4,-78.39"/>
</g>
<!-- Node11&#45;&gt;Node12 -->
<g id="edge11" class="edge">
<title>Node11&#45;&gt;Node12</title>
<path fill="none" stroke="midnightblue" d="M274.03,-229.98C258.82,-220.34 233.81,-204.52 215.7,-193.05"/>
<polygon fill="midnightblue" stroke="midnightblue" points="217.26,-189.9 206.94,-187.51 213.52,-195.81 217.26,-189.9"/>
</g>
<!-- Node13 -->
<g id="node13" class="node">
<title>Node13</title>
<g id="a_node13"><a xlink:href="config_8h.html" target="_top" xlink:title="Global definitions.">
<polygon fill="white" stroke="black" points="217,-56.5 217,-75.5 324,-75.5 324,-56.5 217,-56.5"/>
<text text-anchor="middle" x="270.5" y="-63.5" font-family="Helvetica,sans-Serif" font-size="10.00">../../Config/config.h</text>
</a>
</g>
</g>
<!-- Node12&#45;&gt;Node13 -->
<g id="edge12" class="edge">
<title>Node12&#45;&gt;Node13</title>
<path fill="none" stroke="midnightblue" d="M199.54,-168.37C212.25,-150.22 241.94,-107.8 258.61,-83.99"/>
<polygon fill="midnightblue" stroke="midnightblue" points="261.62,-85.79 264.49,-75.59 255.88,-81.78 261.62,-85.79"/>
</g>
<!-- Node14 -->
<g id="node14" class="node">
<title>Node14</title>
<g id="a_node14"><a xlink:href="Carto_8h.html" target="_top" xlink:title="This component describes the cartography&#39;s model. It also allow the user to modify it&#39;s parameters.">
<polygon fill="white" stroke="black" points="303,-112.5 303,-131.5 402,-131.5 402,-112.5 303,-112.5"/>
<text text-anchor="middle" x="352.5" y="-119.5" font-family="Helvetica,sans-Serif" font-size="10.00">../../Carto/Carto.h</text>
</a>
</g>
</g>
<!-- Node12&#45;&gt;Node14 -->
<g id="edge14" class="edge">
<title>Node12&#45;&gt;Node14</title>
<path fill="none" stroke="midnightblue" d="M218.69,-168.44C245.44,-159.36 287.9,-144.94 317.81,-134.78"/>
<polygon fill="midnightblue" stroke="midnightblue" points="319.08,-138.05 327.42,-131.52 316.83,-131.42 319.08,-138.05"/>
</g>
<!-- Node13&#45;&gt;Node3 -->
<g id="edge13" class="edge">
<title>Node13&#45;&gt;Node3</title>
<path fill="none" stroke="midnightblue" d="M270.5,-56.08C270.5,-49.01 270.5,-38.86 270.5,-29.99"/>
<polygon fill="midnightblue" stroke="midnightblue" points="274,-29.75 270.5,-19.75 267,-29.75 274,-29.75"/>
</g>
<!-- Node14&#45;&gt;Node3 -->
<g id="edge16" class="edge">
<title>Node14&#45;&gt;Node3</title>
<path fill="none" stroke="midnightblue" d="M351.76,-112.22C350.27,-98.94 345.89,-73.45 333.5,-56 324.23,-42.95 309.95,-32.3 297.33,-24.65"/>
<polygon fill="midnightblue" stroke="midnightblue" points="298.95,-21.54 288.53,-19.61 295.47,-27.61 298.95,-21.54"/>
</g>
<!-- Node14&#45;&gt;Node10 -->
<g id="edge15" class="edge">
<title>Node14&#45;&gt;Node10</title>
<path fill="none" stroke="midnightblue" d="M378.96,-112.44C407.18,-103.32 452.04,-88.81 483.47,-78.65"/>
<polygon fill="midnightblue" stroke="midnightblue" points="484.72,-81.92 493.16,-75.52 482.57,-75.26 484.72,-81.92"/>
</g>
<!-- Node14&#45;&gt;Node13 -->
<g id="edge17" class="edge">
<title>Node14&#45;&gt;Node13</title>
<path fill="none" stroke="midnightblue" d="M339.33,-112.32C326.65,-103.98 307.27,-91.21 292.29,-81.35"/>
<polygon fill="midnightblue" stroke="midnightblue" points="293.92,-78.23 283.64,-75.65 290.07,-84.08 293.92,-78.23"/>
</g>
<!-- Node17&#45;&gt;Node13 -->
<g id="edge22" class="edge">
<title>Node17&#45;&gt;Node13</title>
<path fill="none" stroke="midnightblue" d="M344.86,-168.39C329.1,-160.88 307.89,-148.57 294.5,-132 283.64,-118.56 277.41,-99.75 274.04,-85.82"/>
<polygon fill="midnightblue" stroke="midnightblue" points="277.43,-84.93 271.91,-75.89 270.58,-86.4 277.43,-84.93"/>
</g>
<!-- Node17&#45;&gt;Node14 -->
<g id="edge23" class="edge">
<title>Node17&#45;&gt;Node14</title>
<path fill="none" stroke="midnightblue" d="M363.35,-168.08C361.63,-160.93 359.15,-150.64 357,-141.69"/>
<polygon fill="midnightblue" stroke="midnightblue" points="360.35,-140.65 354.61,-131.75 353.54,-142.29 360.35,-140.65"/>
</g>
</g>
</svg>
        <g id="navigator" transform="translate(0 0)" fill="#404254">
                <rect fill="#f2f5e9" fill-opacity="0.5" stroke="#606060" stroke-width=".5" x="0" y="0" width="60" height="60"/>
                <use id="zoomplus" xlink:href="#zoomPlus" x="17" y="9" onmousedown="handleZoom(evt,'in')"/>
                <use id="zoomminus" xlink:href="#zoomMin" x="42" y="9" onmousedown="handleZoom(evt,'out')"/>
                <use id="reset" xlink:href="#resetDef" x="30" y="36" onmousedown="handleReset()"/>
                <g id="arrowUp" xlink:href="#dirArrow" transform="translate(30 24)" onmousedown="handlePan(0,-1)">
                  <use xlink:href="#rim" fill="#404040">
                        <set attributeName="fill" to="#808080" begin="arrowUp.mouseover" end="arrowUp.mouseout"/>
                  </use>
                  <path fill="none" stroke="white" stroke-width="1.5" d="M0,-3.0v7 M-2.5,-0.5L0,-3.0L2.5,-0.5"/>
                </g>
                <g id="arrowRight" xlink:href="#dirArrow" transform="rotate(90) translate(36 -43)" onmousedown="handlePan(1,0)">
                  <use xlink:href="#rim" fill="#404040">
                        <set attributeName="fill" to="#808080" begin="arrowRight.mouseover" end="arrowRight.mouseout"/>
                  </use>
                  <path fill="none" stroke="white" stroke-width="1.5" d="M0,-3.0v7 M-2.5,-0.5L0,-3.0L2.5,-0.5"/>
                </g>
                <g id="arrowDown" xlink:href="#dirArrow" transform="rotate(180) translate(-30 -48)" onmousedown="handlePan(0,1)">
                  <use xlink:href="#rim" fill="#404040">
                        <set attributeName="fill" to="#808080" begin="arrowDown.mouseover" end="arrowDown.mouseout"/>
                  </use>
                  <path fill="none" stroke="white" stroke-width="1.5" d="M0,-3.0v7 M-2.5,-0.5L0,-3.0L2.5,-0.5"/>
                </g>
                <g id="arrowLeft" xlink:href="#dirArrow" transform="rotate(270) translate(-36 17)" onmousedown="handlePan(-1,0)">
                  <use xlink:href="#rim" fill="#404040">
                        <set attributeName="fill" to="#808080" begin="arrowLeft.mouseover" end="arrowLeft.mouseout"/>
                  </use>
                  <path fill="none" stroke="white" stroke-width="1.5" d="M0,-3.0v7 M-2.5,-0.5L0,-3.0L2.5,-0.5"/>
                </g>
        </g>
        <svg viewBox="0 0 15 15" width="100%" height="30px" preserveAspectRatio="xMaxYMin meet">
         <g id="arrow_out" transform="scale(0.3 0.3)">
          <a xlink:href="NetworkC__Dispatcher_8c__incl_org.svg" target="_base">
           <rect id="button" ry="5" rx="5" y="6" x="6" height="38" width="38"
                fill="#f2f5e9" fill-opacity="0.5" stroke="#606060" stroke-width="1.0"/>
           <path id="arrow"
             d="M 11.500037,31.436501 C 11.940474,20.09759 22.043105,11.32322 32.158766,21.979434 L 37.068811,17.246167 C 37.068811,17.246167 37.088388,32 37.088388,32 L 22.160133,31.978069 C 22.160133,31.978069 26.997745,27.140456 26.997745,27.140456 C 18.528582,18.264221 13.291696,25.230495 11.500037,31.436501 z"
             style="fill:#404040;"/>
          </a>
         </g>
        </svg>
</svg>
