<?xml version="1.0" encoding="UTF-8" standalone="no"?>
<!DOCTYPE svg PUBLIC "-//W3C//DTD SVG 1.1//EN"
 "http://www.w3.org/Graphics/SVG/1.1/DTD/svg11.dtd">
<!-- Generated by graphviz version 2.43.0 (0)
 -->
<!-- Title: src/NetworkC/Proxy/NetworkC_ProxyCartoManager.c Pages: 1 -->
<svg width="702pt" height="274pt"
 viewBox="0.00 0.00 702.00 274.00" xmlns="http://www.w3.org/2000/svg" xmlns:xlink="http://www.w3.org/1999/xlink">
<g id="graph0" class="graph" transform="scale(1 1) rotate(0) translate(4 270)">
<title>src/NetworkC/Proxy/NetworkC_ProxyCartoManager.c</title>
<polygon fill="white" stroke="transparent" points="-4,4 -4,-270 698,-270 698,4 -4,4"/>
<!-- Node1 -->
<g id="node1" class="node">
<title>Node1</title>
<g id="a_node1"><a xlink:title="Proxy for CartoManager.">
<polygon fill="#bfbfbf" stroke="black" points="140,-235.5 140,-265.5 317,-265.5 317,-235.5 140,-235.5"/>
<text text-anchor="start" x="148" y="-253.5" font-family="Helvetica,sans-Serif" font-size="10.00">src/NetworkC/Proxy</text>
<text text-anchor="middle" x="228.5" y="-242.5" font-family="Helvetica,sans-Serif" font-size="10.00">/NetworkC_ProxyCartoManager.c</text>
</a>
</g>
</g>
<!-- Node2 -->
<g id="node2" class="node">
<title>Node2</title>
<g id="a_node2"><a xlink:title=" ">
<polygon fill="white" stroke="#bfbfbf" points="0,-112.5 0,-131.5 53,-131.5 53,-112.5 0,-112.5"/>
<text text-anchor="middle" x="26.5" y="-119.5" font-family="Helvetica,sans-Serif" font-size="10.00">string.h</text>
</a>
</g>
</g>
<!-- Node1&#45;&gt;Node2 -->
<g id="edge1" class="edge">
<title>Node1&#45;&gt;Node2</title>
<path fill="none" stroke="midnightblue" d="M139.94,-238.36C92.16,-230.33 40.04,-217.6 25.5,-199 12.83,-182.8 15.96,-158.15 20.35,-141.35"/>
<polygon fill="midnightblue" stroke="midnightblue" points="23.75,-142.19 23.26,-131.61 17.04,-140.19 23.75,-142.19"/>
</g>
<!-- Node3 -->
<g id="node3" class="node">
<title>Node3</title>
<g id="a_node3"><a xlink:title=" ">
<polygon fill="white" stroke="#bfbfbf" points="35,-174 35,-193 88,-193 88,-174 35,-174"/>
<text text-anchor="middle" x="61.5" y="-181" font-family="Helvetica,sans-Serif" font-size="10.00">stdlib.h</text>
</a>
</g>
</g>
<!-- Node1&#45;&gt;Node3 -->
<g id="edge2" class="edge">
<title>Node1&#45;&gt;Node3</title>
<path fill="none" stroke="midnightblue" d="M190.84,-235.41C164.38,-225.42 128.18,-211.62 96.5,-199 94.86,-198.35 93.18,-197.67 91.49,-196.99"/>
<polygon fill="midnightblue" stroke="midnightblue" points="92.4,-193.58 81.82,-193.03 89.75,-200.06 92.4,-193.58"/>
</g>
<!-- Node4 -->
<g id="node4" class="node">
<title>Node4</title>
<g id="a_node4"><a xlink:href="util_8h.html" target="_top" xlink:title="Macros to color the terminal in debug mode and do assert.">
<polygon fill="white" stroke="black" points="106,-174 106,-193 199,-193 199,-174 106,-174"/>
<text text-anchor="middle" x="152.5" y="-181" font-family="Helvetica,sans-Serif" font-size="10.00">../../Config/util.h</text>
</a>
</g>
</g>
<!-- Node1&#45;&gt;Node4 -->
<g id="edge3" class="edge">
<title>Node1&#45;&gt;Node4</title>
<path fill="none" stroke="midnightblue" d="M212.01,-235.4C199.81,-224.96 183.19,-210.75 170.62,-200"/>
<polygon fill="midnightblue" stroke="midnightblue" points="172.54,-197.03 162.67,-193.19 167.99,-202.35 172.54,-197.03"/>
</g>
<!-- Node8 -->
<g id="node8" class="node">
<title>Node8</title>
<g id="a_node8"><a xlink:href="NetworkC__ProxyCartoManager_8h.html" target="_top" xlink:title="Header file of NetworkC_ProxyCartoManager.c.">
<polygon fill="white" stroke="black" points="217,-174 217,-193 392,-193 392,-174 217,-174"/>
<text text-anchor="middle" x="304.5" y="-181" font-family="Helvetica,sans-Serif" font-size="10.00">NetworkC_ProxyCartoManager.h</text>
</a>
</g>
</g>
<!-- Node1&#45;&gt;Node8 -->
<g id="edge8" class="edge">
<title>Node1&#45;&gt;Node8</title>
<path fill="none" stroke="midnightblue" d="M244.99,-235.4C257.19,-224.96 273.81,-210.75 286.38,-200"/>
<polygon fill="midnightblue" stroke="midnightblue" points="289.01,-202.35 294.33,-193.19 284.46,-197.03 289.01,-202.35"/>
</g>
<!-- Node12 -->
<g id="node12" class="node">
<title>Node12</title>
<g id="a_node12"><a xlink:href="NetworkC__Coder_8h.html" target="_top" xlink:title="Header file of NetworkC_Coder.c.">
<polygon fill="white" stroke="black" points="410,-174 410,-193 557,-193 557,-174 410,-174"/>
<text text-anchor="middle" x="483.5" y="-181" font-family="Helvetica,sans-Serif" font-size="10.00">../Coder/NetworkC_Coder.h</text>
</a>
</g>
</g>
<!-- Node1&#45;&gt;Node12 -->
<g id="edge14" class="edge">
<title>Node1&#45;&gt;Node12</title>
<path fill="none" stroke="midnightblue" d="M283.52,-235.48C330.42,-223.52 396.91,-206.57 440.12,-195.56"/>
<polygon fill="midnightblue" stroke="midnightblue" points="441.22,-198.89 450.04,-193.03 439.49,-192.11 441.22,-198.89"/>
</g>
<!-- Node13 -->
<g id="node13" class="node">
<title>Node13</title>
<g id="a_node13"><a xlink:href="NetworkC__Postman_8h.html" target="_top" xlink:title="Header File for NetworkC_Postman.c.">
<polygon fill="white" stroke="black" points="575,-168.5 575,-198.5 694,-198.5 694,-168.5 575,-168.5"/>
<text text-anchor="start" x="583" y="-186.5" font-family="Helvetica,sans-Serif" font-size="10.00">../Postman/NetworkC</text>
<text text-anchor="middle" x="634.5" y="-175.5" font-family="Helvetica,sans-Serif" font-size="10.00">_Postman.h</text>
</a>
</g>
</g>
<!-- Node1&#45;&gt;Node13 -->
<g id="edge17" class="edge">
<title>Node1&#45;&gt;Node13</title>
<path fill="none" stroke="midnightblue" d="M317.35,-237.75C383.19,-228.69 475.34,-215.27 564.79,-199.25"/>
<polygon fill="midnightblue" stroke="midnightblue" points="565.62,-202.66 574.84,-197.44 564.37,-195.77 565.62,-202.66"/>
</g>
<!-- Node4&#45;&gt;Node2 -->
<g id="edge5" class="edge">
<title>Node4&#45;&gt;Node2</title>
<path fill="none" stroke="midnightblue" d="M134.45,-173.98C113.3,-163.99 78.06,-147.35 53.62,-135.81"/>
<polygon fill="midnightblue" stroke="midnightblue" points="55.06,-132.61 44.52,-131.51 52.07,-138.94 55.06,-132.61"/>
</g>
<!-- Node5 -->
<g id="node5" class="node">
<title>Node5</title>
<g id="a_node5"><a xlink:title=" ">
<polygon fill="white" stroke="#bfbfbf" points="73.5,-112.5 73.5,-131.5 123.5,-131.5 123.5,-112.5 73.5,-112.5"/>
<text text-anchor="middle" x="98.5" y="-119.5" font-family="Helvetica,sans-Serif" font-size="10.00">stdio.h</text>
</a>
</g>
</g>
<!-- Node4&#45;&gt;Node5 -->
<g id="edge4" class="edge">
<title>Node4&#45;&gt;Node5</title>
<path fill="none" stroke="midnightblue" d="M144.76,-173.98C136.5,-164.87 123.22,-150.24 113.01,-138.98"/>
<polygon fill="midnightblue" stroke="midnightblue" points="115.53,-136.56 106.22,-131.51 110.35,-141.27 115.53,-136.56"/>
</g>
<!-- Node6 -->
<g id="node6" class="node">
<title>Node6</title>
<g id="a_node6"><a xlink:title=" ">
<polygon fill="white" stroke="#bfbfbf" points="141.5,-112.5 141.5,-131.5 197.5,-131.5 197.5,-112.5 141.5,-112.5"/>
<text text-anchor="middle" x="169.5" y="-119.5" font-family="Helvetica,sans-Serif" font-size="10.00">assert.h</text>
</a>
</g>
</g>
<!-- Node4&#45;&gt;Node6 -->
<g id="edge6" class="edge">
<title>Node4&#45;&gt;Node6</title>
<path fill="none" stroke="midnightblue" d="M154.94,-173.98C157.36,-165.49 161.16,-152.2 164.27,-141.32"/>
<polygon fill="midnightblue" stroke="midnightblue" points="167.69,-142.09 167.07,-131.51 160.96,-140.16 167.69,-142.09"/>
</g>
<!-- Node7 -->
<g id="node7" class="node">
<title>Node7</title>
<g id="a_node7"><a xlink:title=" ">
<polygon fill="white" stroke="#bfbfbf" points="237,-56.5 237,-75.5 290,-75.5 290,-56.5 237,-56.5"/>
<text text-anchor="middle" x="263.5" y="-63.5" font-family="Helvetica,sans-Serif" font-size="10.00">stdint.h</text>
</a>
</g>
</g>
<!-- Node4&#45;&gt;Node7 -->
<g id="edge7" class="edge">
<title>Node4&#45;&gt;Node7</title>
<path fill="none" stroke="midnightblue" d="M162.33,-173.84C173.37,-164 191.68,-147.31 206.5,-132 221.92,-116.08 238.51,-96.9 249.8,-83.52"/>
<polygon fill="midnightblue" stroke="midnightblue" points="252.65,-85.57 256.38,-75.65 247.28,-81.08 252.65,-85.57"/>
</g>
<!-- Node9 -->
<g id="node9" class="node">
<title>Node9</title>
<g id="a_node9"><a xlink:href="Carto_8h.html" target="_top" xlink:title="This component describes the cartography&#39;s model. It also allow the user to modify it&#39;s parameters.">
<polygon fill="white" stroke="black" points="280,-112.5 280,-131.5 379,-131.5 379,-112.5 280,-112.5"/>
<text text-anchor="middle" x="329.5" y="-119.5" font-family="Helvetica,sans-Serif" font-size="10.00">../../Carto/Carto.h</text>
</a>
</g>
</g>
<!-- Node8&#45;&gt;Node9 -->
<g id="edge9" class="edge">
<title>Node8&#45;&gt;Node9</title>
<path fill="none" stroke="midnightblue" d="M308.08,-173.98C311.68,-165.4 317.35,-151.93 321.94,-140.98"/>
<polygon fill="midnightblue" stroke="midnightblue" points="325.28,-142.08 325.92,-131.51 318.82,-139.37 325.28,-142.08"/>
</g>
<!-- Node9&#45;&gt;Node7 -->
<g id="edge10" class="edge">
<title>Node9&#45;&gt;Node7</title>
<path fill="none" stroke="midnightblue" d="M318.9,-112.32C309.04,-104.26 294.15,-92.08 282.28,-82.37"/>
<polygon fill="midnightblue" stroke="midnightblue" points="284.25,-79.46 274.3,-75.83 279.82,-84.88 284.25,-79.46"/>
</g>
<!-- Node10 -->
<g id="node10" class="node">
<title>Node10</title>
<g id="a_node10"><a xlink:title=" ">
<polygon fill="white" stroke="#bfbfbf" points="336.5,-0.5 336.5,-19.5 398.5,-19.5 398.5,-0.5 336.5,-0.5"/>
<text text-anchor="middle" x="367.5" y="-7.5" font-family="Helvetica,sans-Serif" font-size="10.00">stdbool.h</text>
</a>
</g>
</g>
<!-- Node9&#45;&gt;Node10 -->
<g id="edge11" class="edge">
<title>Node9&#45;&gt;Node10</title>
<path fill="none" stroke="midnightblue" d="M331.65,-112.49C334.89,-99.97 341.4,-75.94 348.5,-56 351.74,-46.9 355.86,-36.99 359.43,-28.79"/>
<polygon fill="midnightblue" stroke="midnightblue" points="362.69,-30.07 363.56,-19.51 356.3,-27.22 362.69,-30.07"/>
</g>
<!-- Node11 -->
<g id="node11" class="node">
<title>Node11</title>
<g id="a_node11"><a xlink:href="config_8h.html" target="_top" xlink:title="Global definitions.">
<polygon fill="white" stroke="black" points="357.5,-56.5 357.5,-75.5 455.5,-75.5 455.5,-56.5 357.5,-56.5"/>
<text text-anchor="middle" x="406.5" y="-63.5" font-family="Helvetica,sans-Serif" font-size="10.00">../Config/config.h</text>
</a>
</g>
</g>
<!-- Node9&#45;&gt;Node11 -->
<g id="edge12" class="edge">
<title>Node9&#45;&gt;Node11</title>
<path fill="none" stroke="midnightblue" d="M341.87,-112.32C353.66,-104.06 371.63,-91.45 385.64,-81.63"/>
<polygon fill="midnightblue" stroke="midnightblue" points="387.98,-84.26 394.16,-75.65 383.96,-78.53 387.98,-84.26"/>
</g>
<!-- Node11&#45;&gt;Node10 -->
<g id="edge13" class="edge">
<title>Node11&#45;&gt;Node10</title>
<path fill="none" stroke="midnightblue" d="M400.06,-56.08C394.55,-48.46 386.47,-37.26 379.74,-27.94"/>
<polygon fill="midnightblue" stroke="midnightblue" points="382.51,-25.81 373.82,-19.75 376.84,-29.91 382.51,-25.81"/>
</g>
<!-- Node12&#45;&gt;Node9 -->
<g id="edge16" class="edge">
<title>Node12&#45;&gt;Node9</title>
<path fill="none" stroke="midnightblue" d="M461.44,-173.98C435.13,-163.81 390.99,-146.76 361.08,-135.2"/>
<polygon fill="midnightblue" stroke="midnightblue" points="362.11,-131.85 351.52,-131.51 359.59,-138.38 362.11,-131.85"/>
</g>
<!-- Node12&#45;&gt;Node11 -->
<g id="edge15" class="edge">
<title>Node12&#45;&gt;Node11</title>
<path fill="none" stroke="midnightblue" d="M477.71,-173.82C465.06,-154.84 434.73,-109.35 418.03,-84.29"/>
<polygon fill="midnightblue" stroke="midnightblue" points="420.81,-82.16 412.35,-75.78 414.99,-86.04 420.81,-82.16"/>
</g>
</g>
</svg>
