<?xml version="1.0" encoding="UTF-8" standalone="no"?>
<!DOCTYPE svg PUBLIC "-//W3C//DTD SVG 1.1//EN"
 "http://www.w3.org/Graphics/SVG/1.1/DTD/svg11.dtd">
<!-- Generated by graphviz version 2.43.0 (0)
 -->
<!-- Title: src/NetworkC/Proxy/NetworkC_ProxyCartoManager.h Pages: 1 -->
<svg width="223pt" height="207pt"
 viewBox="0.00 0.00 223.00 207.00" xmlns="http://www.w3.org/2000/svg" xmlns:xlink="http://www.w3.org/1999/xlink">
<g id="graph0" class="graph" transform="scale(1 1) rotate(0) translate(4 203)">
<title>src/NetworkC/Proxy/NetworkC_ProxyCartoManager.h</title>
<polygon fill="white" stroke="transparent" points="-4,4 -4,-203 219,-203 219,4 -4,4"/>
<!-- Node1 -->
<g id="node1" class="node">
<title>Node1</title>
<g id="a_node1"><a xlink:title="Header file of NetworkC_ProxyCartoManager.c.">
<polygon fill="#bfbfbf" stroke="black" points="0,-168.5 0,-198.5 178,-198.5 178,-168.5 0,-168.5"/>
<text text-anchor="start" x="8" y="-186.5" font-family="Helvetica,sans-Serif" font-size="10.00">src/NetworkC/Proxy</text>
<text text-anchor="middle" x="89" y="-175.5" font-family="Helvetica,sans-Serif" font-size="10.00">/NetworkC_ProxyCartoManager.h</text>
</a>
</g>
</g>
<!-- Node2 -->
<g id="node2" class="node">
<title>Node2</title>
<g id="a_node2"><a xlink:href="Carto_8h.html" target="_top" xlink:title="This component describes the cartography&#39;s model. It also allow the user to modify it&#39;s parameters.">
<polygon fill="white" stroke="black" points="39.5,-112.5 39.5,-131.5 138.5,-131.5 138.5,-112.5 39.5,-112.5"/>
<text text-anchor="middle" x="89" y="-119.5" font-family="Helvetica,sans-Serif" font-size="10.00">../../Carto/Carto.h</text>
</a>
</g>
</g>
<!-- Node1&#45;&gt;Node2 -->
<g id="edge1" class="edge">
<title>Node1&#45;&gt;Node2</title>
<path fill="none" stroke="midnightblue" d="M89,-168.4C89,-160.47 89,-150.46 89,-141.86"/>
<polygon fill="midnightblue" stroke="midnightblue" points="92.5,-141.66 89,-131.66 85.5,-141.66 92.5,-141.66"/>
</g>
<!-- Node3 -->
<g id="node3" class="node">
<title>Node3</title>
<g id="a_node3"><a xlink:title=" ">
<polygon fill="white" stroke="#bfbfbf" points="7.5,-56.5 7.5,-75.5 60.5,-75.5 60.5,-56.5 7.5,-56.5"/>
<text text-anchor="middle" x="34" y="-63.5" font-family="Helvetica,sans-Serif" font-size="10.00">stdint.h</text>
</a>
</g>
</g>
<!-- Node2&#45;&gt;Node3 -->
<g id="edge2" class="edge">
<title>Node2&#45;&gt;Node3</title>
<path fill="none" stroke="midnightblue" d="M79.92,-112.08C71.83,-104.14 59.8,-92.34 50.09,-82.8"/>
<polygon fill="midnightblue" stroke="midnightblue" points="52.5,-80.26 42.91,-75.75 47.6,-85.25 52.5,-80.26"/>
</g>
<!-- Node4 -->
<g id="node4" class="node">
<title>Node4</title>
<g id="a_node4"><a xlink:title=" ">
<polygon fill="white" stroke="#bfbfbf" points="96,-0.5 96,-19.5 158,-19.5 158,-0.5 96,-0.5"/>
<text text-anchor="middle" x="127" y="-7.5" font-family="Helvetica,sans-Serif" font-size="10.00">stdbool.h</text>
</a>
</g>
</g>
<!-- Node2&#45;&gt;Node4 -->
<g id="edge3" class="edge">
<title>Node2&#45;&gt;Node4</title>
<path fill="none" stroke="midnightblue" d="M91.15,-112.49C94.39,-99.97 100.9,-75.94 108,-56 111.24,-46.9 115.36,-36.99 118.93,-28.79"/>
<polygon fill="midnightblue" stroke="midnightblue" points="122.19,-30.07 123.06,-19.51 115.8,-27.22 122.19,-30.07"/>
</g>
<!-- Node5 -->
<g id="node5" class="node">
<title>Node5</title>
<g id="a_node5"><a xlink:href="config_8h.html" target="_top" xlink:title="Global definitions.">
<polygon fill="white" stroke="black" points="117,-56.5 117,-75.5 215,-75.5 215,-56.5 117,-56.5"/>
<text text-anchor="middle" x="166" y="-63.5" font-family="Helvetica,sans-Serif" font-size="10.00">../Config/config.h</text>
</a>
</g>
</g>
<!-- Node2&#45;&gt;Node5 -->
<g id="edge4" class="edge">
<title>Node2&#45;&gt;Node5</title>
<path fill="none" stroke="midnightblue" d="M101.37,-112.32C113.16,-104.06 131.13,-91.45 145.14,-81.63"/>
<polygon fill="midnightblue" stroke="midnightblue" points="147.48,-84.26 153.66,-75.65 143.46,-78.53 147.48,-84.26"/>
</g>
<!-- Node5&#45;&gt;Node4 -->
<g id="edge5" class="edge">
<title>Node5&#45;&gt;Node4</title>
<path fill="none" stroke="midnightblue" d="M159.56,-56.08C154.05,-48.46 145.97,-37.26 139.24,-27.94"/>
<polygon fill="midnightblue" stroke="midnightblue" points="142.01,-25.81 133.32,-19.75 136.34,-29.91 142.01,-25.81"/>
</g>
</g>
</svg>
