<?xml version="1.0" encoding="UTF-8" standalone="no"?>
<!DOCTYPE svg PUBLIC "-//W3C//DTD SVG 1.1//EN"
 "http://www.w3.org/Graphics/SVG/1.1/DTD/svg11.dtd">
<!-- Generated by graphviz version 2.43.0 (0)
 -->
<!-- Title: src/NetworkC/Proxy/NetworkC_ProxyGUI.c Pages: 1 -->
<!--zoomable 274 -->
<svg id="main" version="1.1" xmlns="http://www.w3.org/2000/svg" xmlns:xlink="http://www.w3.org/1999/xlink" xml:space="preserve" onload="init(evt)">
<style type="text/css"><![CDATA[
.edge:hover path { stroke: red; }
.edge:hover polygon { stroke: red; fill: red; }
]]></style>
<script type="text/javascript"><![CDATA[
var edges = document.getElementsByTagName('g');
if (edges && edges.length) {
  for (var i=0;i<edges.length;i++) {
    if (edges[i].id.substr(0,4)=='edge') {
      edges[i].setAttribute('class','edge');
    }
  }
}
]]></script>
        <defs>
                <circle id="rim" cx="0" cy="0" r="7"/>
                <circle id="rim2" cx="0" cy="0" r="3.5"/>
                <g id="zoomPlus">
                        <use xlink:href="#rim" fill="#404040">
                                <set attributeName="fill" to="#808080" begin="zoomplus.mouseover" end="zoomplus.mouseout"/>
                        </use>
                        <path d="M-4,0h8M0,-4v8" fill="none" stroke="white" stroke-width="1.5" pointer-events="none"/>
                </g>
                <g id="zoomMin">
                        <use xlink:href="#rim" fill="#404040">
                                <set attributeName="fill" to="#808080" begin="zoomminus.mouseover" end="zoomminus.mouseout"/>
                        </use>
                        <path d="M-4,0h8" fill="none" stroke="white" stroke-width="1.5" pointer-events="none"/>
                </g>
                <g id="dirArrow">
                        <path fill="none" stroke="white" stroke-width="1.5" d="M0,-3.0v7 M-2.5,-0.5L0,-3.0L2.5,-0.5"/>
                </g>
               <g id="resetDef">
                       <use xlink:href="#rim2" fill="#404040">
                               <set attributeName="fill" to="#808080" begin="reset.mouseover" end="reset.mouseout"/>
                       </use>
               </g>
        </defs>

<script type="text/javascript">
var viewWidth = 617;
var viewHeight = 274;
var sectionId = 'dynsection-0';
</script>
<script xlink:href="svgpan.js"/>
<svg id="graph" class="graph">
<g id="viewport">
<title>src/NetworkC/Proxy/NetworkC_ProxyGUI.c</title>
<polygon fill="white" stroke="transparent" points="-4,4 -4,-270 613,-270 613,4 -4,4"/>
<!-- Node1 -->
<g id="node1" class="node">
<title>Node1</title>
<g id="a_node1"><a xlink:title="Proxy for GUI.">
<polygon fill="#bfbfbf" stroke="black" points="181,-235.5 181,-265.5 308,-265.5 308,-235.5 181,-235.5"/>
<text text-anchor="start" x="189" y="-253.5" font-family="Helvetica,sans-Serif" font-size="10.00">src/NetworkC/Proxy</text>
<text text-anchor="middle" x="244.5" y="-242.5" font-family="Helvetica,sans-Serif" font-size="10.00">/NetworkC_ProxyGUI.c</text>
</a>
</g>
</g>
<!-- Node2 -->
<g id="node2" class="node">
<title>Node2</title>
<g id="a_node2"><a xlink:title=" ">
<polygon fill="white" stroke="#bfbfbf" points="0,-174 0,-193 53,-193 53,-174 0,-174"/>
<text text-anchor="middle" x="26.5" y="-181" font-family="Helvetica,sans-Serif" font-size="10.00">stdlib.h</text>
</a>
</g>
</g>
<!-- Node1&#45;&gt;Node2 -->
<g id="edge1" class="edge">
<title>Node1&#45;&gt;Node2</title>
<path fill="none" stroke="midnightblue" d="M186.66,-235.49C150.37,-226.22 102.8,-213.19 61.5,-199 59.59,-198.34 57.63,-197.63 55.66,-196.9"/>
<polygon fill="midnightblue" stroke="midnightblue" points="56.55,-193.48 45.96,-193.06 53.97,-199.99 56.55,-193.48"/>
</g>
<!-- Node3 -->
<g id="node3" class="node">
<title>Node3</title>
<g id="a_node3"><a xlink:href="util_8h.html" target="_top" xlink:title="Macros to color the terminal in debug mode and do assert.">
<polygon fill="white" stroke="black" points="71,-174 71,-193 164,-193 164,-174 71,-174"/>
<text text-anchor="middle" x="117.5" y="-181" font-family="Helvetica,sans-Serif" font-size="10.00">../../Config/util.h</text>
</a>
</g>
</g>
<!-- Node1&#45;&gt;Node3 -->
<g id="edge2" class="edge">
<title>Node1&#45;&gt;Node3</title>
<path fill="none" stroke="midnightblue" d="M216.94,-235.4C195.05,-224.19 164.67,-208.64 143.26,-197.69"/>
<polygon fill="midnightblue" stroke="midnightblue" points="144.62,-194.45 134.12,-193.01 141.43,-200.68 144.62,-194.45"/>
</g>
<!-- Node8 -->
<g id="node8" class="node">
<title>Node8</title>
<g id="a_node8"><a xlink:href="NetworkC__ProxyGUI_8h.html" target="_top" xlink:title="Header file of NetworkC_ProxyGUI.c.">
<polygon fill="white" stroke="black" points="182,-174 182,-193 307,-193 307,-174 182,-174"/>
<text text-anchor="middle" x="244.5" y="-181" font-family="Helvetica,sans-Serif" font-size="10.00">NetworkC_ProxyGUI.h</text>
</a>
</g>
</g>
<!-- Node1&#45;&gt;Node8 -->
<g id="edge7" class="edge">
<title>Node1&#45;&gt;Node8</title>
<path fill="none" stroke="midnightblue" d="M244.5,-235.4C244.5,-226.06 244.5,-213.71 244.5,-203.52"/>
<polygon fill="midnightblue" stroke="midnightblue" points="248,-203.19 244.5,-193.19 241,-203.19 248,-203.19"/>
</g>
<!-- Node9 -->
<g id="node9" class="node">
<title>Node9</title>
<g id="a_node9"><a xlink:href="NetworkC__Coder_8h.html" target="_top" xlink:title="Header file of NetworkC_Coder.c.">
<polygon fill="white" stroke="black" points="325,-174 325,-193 472,-193 472,-174 325,-174"/>
<text text-anchor="middle" x="398.5" y="-181" font-family="Helvetica,sans-Serif" font-size="10.00">../Coder/NetworkC_Coder.h</text>
</a>
</g>
</g>
<!-- Node1&#45;&gt;Node9 -->
<g id="edge8" class="edge">
<title>Node1&#45;&gt;Node9</title>
<path fill="none" stroke="midnightblue" d="M277.92,-235.4C305.06,-223.94 342.97,-207.94 369,-196.95"/>
<polygon fill="midnightblue" stroke="midnightblue" points="370.49,-200.12 378.34,-193.01 367.77,-193.67 370.49,-200.12"/>
</g>
<!-- Node13 -->
<g id="node13" class="node">
<title>Node13</title>
<g id="a_node13"><a xlink:href="NetworkC__Postman_8h.html" target="_top" xlink:title="Header File for NetworkC_Postman.c.">
<polygon fill="white" stroke="black" points="490,-168.5 490,-198.5 609,-198.5 609,-168.5 490,-168.5"/>
<text text-anchor="start" x="498" y="-186.5" font-family="Helvetica,sans-Serif" font-size="10.00">../Postman/NetworkC</text>
<text text-anchor="middle" x="549.5" y="-175.5" font-family="Helvetica,sans-Serif" font-size="10.00">_Postman.h</text>
</a>
</g>
</g>
<!-- Node1&#45;&gt;Node13 -->
<g id="edge15" class="edge">
<title>Node1&#45;&gt;Node13</title>
<path fill="none" stroke="midnightblue" d="M308.12,-235.95C353.51,-226.28 416.28,-212.9 479.98,-199.32"/>
<polygon fill="midnightblue" stroke="midnightblue" points="480.75,-202.74 489.8,-197.23 479.29,-195.89 480.75,-202.74"/>
</g>
<!-- Node4 -->
<g id="node4" class="node">
<title>Node4</title>
<g id="a_node4"><a xlink:title=" ">
<polygon fill="white" stroke="#bfbfbf" points="138.5,-112.5 138.5,-131.5 188.5,-131.5 188.5,-112.5 138.5,-112.5"/>
<text text-anchor="middle" x="163.5" y="-119.5" font-family="Helvetica,sans-Serif" font-size="10.00">stdio.h</text>
</a>
</g>
</g>
<!-- Node3&#45;&gt;Node4 -->
<g id="edge3" class="edge">
<title>Node3&#45;&gt;Node4</title>
<path fill="none" stroke="midnightblue" d="M124.09,-173.98C130.99,-165.05 142,-150.81 150.63,-139.64"/>
<polygon fill="midnightblue" stroke="midnightblue" points="153.57,-141.56 156.92,-131.51 148.04,-137.28 153.57,-141.56"/>
</g>
<!-- Node5 -->
<g id="node5" class="node">
<title>Node5</title>
<g id="a_node5"><a xlink:title=" ">
<polygon fill="white" stroke="#bfbfbf" points="207,-112.5 207,-131.5 260,-131.5 260,-112.5 207,-112.5"/>
<text text-anchor="middle" x="233.5" y="-119.5" font-family="Helvetica,sans-Serif" font-size="10.00">string.h</text>
</a>
</g>
</g>
<!-- Node3&#45;&gt;Node5 -->
<g id="edge4" class="edge">
<title>Node3&#45;&gt;Node5</title>
<path fill="none" stroke="midnightblue" d="M134.12,-173.98C153.42,-164.08 185.46,-147.64 207.93,-136.12"/>
<polygon fill="midnightblue" stroke="midnightblue" points="209.61,-139.19 216.91,-131.51 206.42,-132.96 209.61,-139.19"/>
</g>
<!-- Node6 -->
<g id="node6" class="node">
<title>Node6</title>
<g id="a_node6"><a xlink:title=" ">
<polygon fill="white" stroke="#bfbfbf" points="26.5,-112.5 26.5,-131.5 82.5,-131.5 82.5,-112.5 26.5,-112.5"/>
<text text-anchor="middle" x="54.5" y="-119.5" font-family="Helvetica,sans-Serif" font-size="10.00">assert.h</text>
</a>
</g>
</g>
<!-- Node3&#45;&gt;Node6 -->
<g id="edge5" class="edge">
<title>Node3&#45;&gt;Node6</title>
<path fill="none" stroke="midnightblue" d="M108.47,-173.98C98.74,-164.78 83.04,-149.96 71.08,-138.66"/>
<polygon fill="midnightblue" stroke="midnightblue" points="73.18,-135.83 63.51,-131.51 68.38,-140.92 73.18,-135.83"/>
</g>
<!-- Node7 -->
<g id="node7" class="node">
<title>Node7</title>
<g id="a_node7"><a xlink:title=" ">
<polygon fill="white" stroke="#bfbfbf" points="163,-56.5 163,-75.5 216,-75.5 216,-56.5 163,-56.5"/>
<text text-anchor="middle" x="189.5" y="-63.5" font-family="Helvetica,sans-Serif" font-size="10.00">stdint.h</text>
</a>
</g>
</g>
<!-- Node3&#45;&gt;Node7 -->
<g id="edge6" class="edge">
<title>Node3&#45;&gt;Node7</title>
<path fill="none" stroke="midnightblue" d="M117,-173.99C116.59,-160 117.47,-131.71 129.5,-112 137.45,-98.98 150.68,-88.45 162.7,-80.86"/>
<polygon fill="midnightblue" stroke="midnightblue" points="164.72,-83.74 171.55,-75.64 161.16,-77.71 164.72,-83.74"/>
</g>
<!-- Node10 -->
<g id="node10" class="node">
<title>Node10</title>
<g id="a_node10"><a xlink:href="config_8h.html" target="_top" xlink:title="Global definitions.">
<polygon fill="white" stroke="black" points="352,-56.5 352,-75.5 459,-75.5 459,-56.5 352,-56.5"/>
<text text-anchor="middle" x="405.5" y="-63.5" font-family="Helvetica,sans-Serif" font-size="10.00">../../Config/config.h</text>
</a>
</g>
</g>
<!-- Node9&#45;&gt;Node10 -->
<g id="edge9" class="edge">
<title>Node9&#45;&gt;Node10</title>
<path fill="none" stroke="midnightblue" d="M399.03,-173.82C400.15,-155.26 402.81,-111.34 404.35,-85.97"/>
<polygon fill="midnightblue" stroke="midnightblue" points="407.86,-85.98 404.97,-75.78 400.87,-85.55 407.86,-85.98"/>
</g>
<!-- Node12 -->
<g id="node12" class="node">
<title>Node12</title>
<g id="a_node12"><a xlink:href="Carto_8h.html" target="_top" xlink:title="This component describes the cartography&#39;s model. It also allow the user to modify it&#39;s parameters.">
<polygon fill="white" stroke="black" points="278,-112.5 278,-131.5 377,-131.5 377,-112.5 278,-112.5"/>
<text text-anchor="middle" x="327.5" y="-119.5" font-family="Helvetica,sans-Serif" font-size="10.00">../../Carto/Carto.h</text>
</a>
</g>
</g>
<!-- Node9&#45;&gt;Node12 -->
<g id="edge11" class="edge">
<title>Node9&#45;&gt;Node12</title>
<path fill="none" stroke="midnightblue" d="M388.33,-173.98C377.15,-164.61 358.98,-149.38 345.41,-138.01"/>
<polygon fill="midnightblue" stroke="midnightblue" points="347.57,-135.25 337.65,-131.51 343.07,-140.61 347.57,-135.25"/>
</g>
<!-- Node11 -->
<g id="node11" class="node">
<title>Node11</title>
<g id="a_node11"><a xlink:title=" ">
<polygon fill="white" stroke="#bfbfbf" points="333.5,-0.5 333.5,-19.5 395.5,-19.5 395.5,-0.5 333.5,-0.5"/>
<text text-anchor="middle" x="364.5" y="-7.5" font-family="Helvetica,sans-Serif" font-size="10.00">stdbool.h</text>
</a>
</g>
</g>
<!-- Node10&#45;&gt;Node11 -->
<g id="edge10" class="edge">
<title>Node10&#45;&gt;Node11</title>
<path fill="none" stroke="midnightblue" d="M398.73,-56.08C392.94,-48.46 384.44,-37.26 377.36,-27.94"/>
<polygon fill="midnightblue" stroke="midnightblue" points="379.98,-25.6 371.14,-19.75 374.4,-29.83 379.98,-25.6"/>
</g>
<!-- Node12&#45;&gt;Node7 -->
<g id="edge12" class="edge">
<title>Node12&#45;&gt;Node7</title>
<path fill="none" stroke="midnightblue" d="M305.63,-112.44C282.72,-103.48 246.52,-89.31 220.63,-79.18"/>
<polygon fill="midnightblue" stroke="midnightblue" points="221.85,-75.9 211.26,-75.52 219.3,-82.42 221.85,-75.9"/>
</g>
<!-- Node12&#45;&gt;Node10 -->
<g id="edge14" class="edge">
<title>Node12&#45;&gt;Node10</title>
<path fill="none" stroke="midnightblue" d="M340.03,-112.32C352.09,-103.98 370.53,-91.21 384.77,-81.35"/>
<polygon fill="midnightblue" stroke="midnightblue" points="386.77,-84.22 393,-75.65 382.78,-78.47 386.77,-84.22"/>
</g>
<!-- Node12&#45;&gt;Node11 -->
<g id="edge13" class="edge">
<title>Node12&#45;&gt;Node11</title>
<path fill="none" stroke="midnightblue" d="M329.05,-112.43C331.46,-99.85 336.54,-75.73 343.5,-56 346.76,-46.75 351.27,-36.84 355.27,-28.67"/>
<polygon fill="midnightblue" stroke="midnightblue" points="358.4,-30.25 359.79,-19.75 352.15,-27.09 358.4,-30.25"/>
</g>
</g>
</svg>
        <g id="navigator" transform="translate(0 0)" fill="#404254">
                <rect fill="#f2f5e9" fill-opacity="0.5" stroke="#606060" stroke-width=".5" x="0" y="0" width="60" height="60"/>
                <use id="zoomplus" xlink:href="#zoomPlus" x="17" y="9" onmousedown="handleZoom(evt,'in')"/>
                <use id="zoomminus" xlink:href="#zoomMin" x="42" y="9" onmousedown="handleZoom(evt,'out')"/>
                <use id="reset" xlink:href="#resetDef" x="30" y="36" onmousedown="handleReset()"/>
                <g id="arrowUp" xlink:href="#dirArrow" transform="translate(30 24)" onmousedown="handlePan(0,-1)">
                  <use xlink:href="#rim" fill="#404040">
                        <set attributeName="fill" to="#808080" begin="arrowUp.mouseover" end="arrowUp.mouseout"/>
                  </use>
                  <path fill="none" stroke="white" stroke-width="1.5" d="M0,-3.0v7 M-2.5,-0.5L0,-3.0L2.5,-0.5"/>
                </g>
                <g id="arrowRight" xlink:href="#dirArrow" transform="rotate(90) translate(36 -43)" onmousedown="handlePan(1,0)">
                  <use xlink:href="#rim" fill="#404040">
                        <set attributeName="fill" to="#808080" begin="arrowRight.mouseover" end="arrowRight.mouseout"/>
                  </use>
                  <path fill="none" stroke="white" stroke-width="1.5" d="M0,-3.0v7 M-2.5,-0.5L0,-3.0L2.5,-0.5"/>
                </g>
                <g id="arrowDown" xlink:href="#dirArrow" transform="rotate(180) translate(-30 -48)" onmousedown="handlePan(0,1)">
                  <use xlink:href="#rim" fill="#404040">
                        <set attributeName="fill" to="#808080" begin="arrowDown.mouseover" end="arrowDown.mouseout"/>
                  </use>
                  <path fill="none" stroke="white" stroke-width="1.5" d="M0,-3.0v7 M-2.5,-0.5L0,-3.0L2.5,-0.5"/>
                </g>
                <g id="arrowLeft" xlink:href="#dirArrow" transform="rotate(270) translate(-36 17)" onmousedown="handlePan(-1,0)">
                  <use xlink:href="#rim" fill="#404040">
                        <set attributeName="fill" to="#808080" begin="arrowLeft.mouseover" end="arrowLeft.mouseout"/>
                  </use>
                  <path fill="none" stroke="white" stroke-width="1.5" d="M0,-3.0v7 M-2.5,-0.5L0,-3.0L2.5,-0.5"/>
                </g>
        </g>
        <svg viewBox="0 0 15 15" width="100%" height="30px" preserveAspectRatio="xMaxYMin meet">
         <g id="arrow_out" transform="scale(0.3 0.3)">
          <a xlink:href="NetworkC__ProxyGUI_8c__incl_org.svg" target="_base">
           <rect id="button" ry="5" rx="5" y="6" x="6" height="38" width="38"
                fill="#f2f5e9" fill-opacity="0.5" stroke="#606060" stroke-width="1.0"/>
           <path id="arrow"
             d="M 11.500037,31.436501 C 11.940474,20.09759 22.043105,11.32322 32.158766,21.979434 L 37.068811,17.246167 C 37.068811,17.246167 37.088388,32 37.088388,32 L 22.160133,31.978069 C 22.160133,31.978069 26.997745,27.140456 26.997745,27.140456 C 18.528582,18.264221 13.291696,25.230495 11.500037,31.436501 z"
             style="fill:#404040;"/>
          </a>
         </g>
        </svg>
</svg>
