<?xml version="1.0" encoding="UTF-8" standalone="no"?>
<!DOCTYPE svg PUBLIC "-//W3C//DTD SVG 1.1//EN"
 "http://www.w3.org/Graphics/SVG/1.1/DTD/svg11.dtd">
<!-- Generated by graphviz version 2.43.0 (0)
 -->
<!-- Title: src/NetworkC/Postman/NetworkC_Postman.h Pages: 1 -->
<svg width="725pt" height="106pt"
 viewBox="0.00 0.00 724.50 106.00" xmlns="http://www.w3.org/2000/svg" xmlns:xlink="http://www.w3.org/1999/xlink">
<g id="graph0" class="graph" transform="scale(1 1) rotate(0) translate(4 102)">
<title>src/NetworkC/Postman/NetworkC_Postman.h</title>
<polygon fill="white" stroke="transparent" points="-4,4 -4,-102 720.5,-102 720.5,4 -4,4"/>
<!-- Node1 -->
<g id="node1" class="node">
<title>Node1</title>
<g id="a_node1"><a xlink:title="Header File for NetworkC_Postman.c.">
<polygon fill="#bfbfbf" stroke="black" points="326.5,-67.5 326.5,-97.5 454.5,-97.5 454.5,-67.5 326.5,-67.5"/>
<text text-anchor="start" x="334.5" y="-85.5" font-family="Helvetica,sans-Serif" font-size="10.00">src/NetworkC/Postman</text>
<text text-anchor="middle" x="390.5" y="-74.5" font-family="Helvetica,sans-Serif" font-size="10.00">/NetworkC_Postman.h</text>
</a>
</g>
</g>
<!-- Node2 -->
<g id="node2" class="node">
<title>Node2</title>
<g id="a_node2"><a xlink:href="NetworkC__Dispatcher_8c.html" target="_top" xlink:title="NetworkC_Dispatcher dispatch the received message.">
<polygon fill="white" stroke="black" points="0,-0.5 0,-30.5 137,-30.5 137,-0.5 0,-0.5"/>
<text text-anchor="start" x="8" y="-18.5" font-family="Helvetica,sans-Serif" font-size="10.00">src/NetworkC/Dispatcher</text>
<text text-anchor="middle" x="68.5" y="-7.5" font-family="Helvetica,sans-Serif" font-size="10.00">/NetworkC_Dispatcher.c</text>
</a>
</g>
</g>
<!-- Node1&#45;&gt;Node2 -->
<g id="edge1" class="edge">
<title>Node1&#45;&gt;Node2</title>
<path fill="none" stroke="midnightblue" d="M316.64,-66.59C262.62,-55.69 189.86,-41 137.11,-30.35"/>
<polygon fill="midnightblue" stroke="midnightblue" points="316,-70.03 326.5,-68.58 317.39,-63.17 316,-70.03"/>
</g>
<!-- Node3 -->
<g id="node3" class="node">
<title>Node3</title>
<g id="a_node3"><a xlink:href="NetworkC__Postman_8c.html" target="_top" xlink:title="NetworkC Postman is the interface of the socket.">
<polygon fill="white" stroke="black" points="155.5,-0.5 155.5,-30.5 283.5,-30.5 283.5,-0.5 155.5,-0.5"/>
<text text-anchor="start" x="163.5" y="-18.5" font-family="Helvetica,sans-Serif" font-size="10.00">src/NetworkC/Postman</text>
<text text-anchor="middle" x="219.5" y="-7.5" font-family="Helvetica,sans-Serif" font-size="10.00">/NetworkC_Postman.c</text>
</a>
</g>
</g>
<!-- Node1&#45;&gt;Node3 -->
<g id="edge2" class="edge">
<title>Node1&#45;&gt;Node3</title>
<path fill="none" stroke="midnightblue" d="M343.98,-63.82C316.5,-53.37 282.17,-40.32 256.53,-30.58"/>
<polygon fill="midnightblue" stroke="midnightblue" points="342.8,-67.11 353.4,-67.4 345.29,-60.57 342.8,-67.11"/>
</g>
<!-- Node4 -->
<g id="node4" class="node">
<title>Node4</title>
<g id="a_node4"><a xlink:href="NetworkC__ProxyCartoManager_8c.html" target="_top" xlink:title="Proxy for CartoManager.">
<polygon fill="white" stroke="black" points="302,-0.5 302,-30.5 479,-30.5 479,-0.5 302,-0.5"/>
<text text-anchor="start" x="310" y="-18.5" font-family="Helvetica,sans-Serif" font-size="10.00">src/NetworkC/Proxy</text>
<text text-anchor="middle" x="390.5" y="-7.5" font-family="Helvetica,sans-Serif" font-size="10.00">/NetworkC_ProxyCartoManager.c</text>
</a>
</g>
</g>
<!-- Node1&#45;&gt;Node4 -->
<g id="edge3" class="edge">
<title>Node1&#45;&gt;Node4</title>
<path fill="none" stroke="midnightblue" d="M390.5,-57.11C390.5,-48.15 390.5,-38.32 390.5,-30.58"/>
<polygon fill="midnightblue" stroke="midnightblue" points="387,-57.4 390.5,-67.4 394,-57.4 387,-57.4"/>
</g>
<!-- Node5 -->
<g id="node5" class="node">
<title>Node5</title>
<g id="a_node5"><a xlink:href="NetworkC__ProxyGUI_8c.html" target="_top" xlink:title="Proxy for GUI.">
<polygon fill="white" stroke="black" points="497,-0.5 497,-30.5 624,-30.5 624,-0.5 497,-0.5"/>
<text text-anchor="start" x="505" y="-18.5" font-family="Helvetica,sans-Serif" font-size="10.00">src/NetworkC/Proxy</text>
<text text-anchor="middle" x="560.5" y="-7.5" font-family="Helvetica,sans-Serif" font-size="10.00">/NetworkC_ProxyGUI.c</text>
</a>
</g>
</g>
<!-- Node1&#45;&gt;Node5 -->
<g id="edge4" class="edge">
<title>Node1&#45;&gt;Node5</title>
<path fill="none" stroke="midnightblue" d="M436.74,-63.82C464.07,-53.37 498.19,-40.32 523.68,-30.58"/>
<polygon fill="midnightblue" stroke="midnightblue" points="435.48,-60.56 427.39,-67.4 437.98,-67.09 435.48,-60.56"/>
</g>
<!-- Node6 -->
<g id="node6" class="node">
<title>Node6</title>
<g id="a_node6"><a xlink:href="starter_8c.html" target="_top" xlink:title="Starter of ACDSoft.">
<polygon fill="white" stroke="black" points="642.5,-6 642.5,-25 716.5,-25 716.5,-6 642.5,-6"/>
<text text-anchor="middle" x="679.5" y="-13" font-family="Helvetica,sans-Serif" font-size="10.00">src/starter.c</text>
</a>
</g>
</g>
<!-- Node1&#45;&gt;Node6 -->
<g id="edge5" class="edge">
<title>Node1&#45;&gt;Node6</title>
<path fill="none" stroke="midnightblue" d="M464.67,-68.09C513.03,-58.86 577.35,-45.64 633.5,-31 640.14,-29.27 647.25,-27.16 653.84,-25.09"/>
<polygon fill="midnightblue" stroke="midnightblue" points="463.78,-64.7 454.61,-70 465.08,-71.58 463.78,-64.7"/>
</g>
</g>
</svg>
