<?xml version="1.0" encoding="UTF-8" standalone="no"?>
<!DOCTYPE svg PUBLIC "-//W3C//DTD SVG 1.1//EN"
 "http://www.w3.org/Graphics/SVG/1.1/DTD/svg11.dtd">
<!-- Generated by graphviz version 2.43.0 (0)
 -->
<!-- Title: src/NetworkC/Coder/NetworkC_Coder.h Pages: 1 -->
<svg width="655pt" height="173pt"
 viewBox="0.00 0.00 655.00 173.00" xmlns="http://www.w3.org/2000/svg" xmlns:xlink="http://www.w3.org/1999/xlink">
<g id="graph0" class="graph" transform="scale(1 1) rotate(0) translate(4 169)">
<title>src/NetworkC/Coder/NetworkC_Coder.h</title>
<polygon fill="white" stroke="transparent" points="-4,4 -4,-169 651,-169 651,4 -4,4"/>
<!-- Node1 -->
<g id="node1" class="node">
<title>Node1</title>
<g id="a_node1"><a xlink:title="Header file of NetworkC_Coder.c.">
<polygon fill="#bfbfbf" stroke="black" points="182,-134.5 182,-164.5 295,-164.5 295,-134.5 182,-134.5"/>
<text text-anchor="start" x="190" y="-152.5" font-family="Helvetica,sans-Serif" font-size="10.00">src/NetworkC/Coder</text>
<text text-anchor="middle" x="238.5" y="-141.5" font-family="Helvetica,sans-Serif" font-size="10.00">/NetworkC_Coder.h</text>
</a>
</g>
</g>
<!-- Node2 -->
<g id="node2" class="node">
<title>Node2</title>
<g id="a_node2"><a xlink:href="NetworkC__Coder_8c.html" target="_top" xlink:title="Coder encode end decode message to be send or received.">
<polygon fill="white" stroke="black" points="0,-67.5 0,-97.5 113,-97.5 113,-67.5 0,-67.5"/>
<text text-anchor="start" x="8" y="-85.5" font-family="Helvetica,sans-Serif" font-size="10.00">src/NetworkC/Coder</text>
<text text-anchor="middle" x="56.5" y="-74.5" font-family="Helvetica,sans-Serif" font-size="10.00">/NetworkC_Coder.c</text>
</a>
</g>
</g>
<!-- Node1&#45;&gt;Node2 -->
<g id="edge1" class="edge">
<title>Node1&#45;&gt;Node2</title>
<path fill="none" stroke="midnightblue" d="M189.37,-130.96C160.06,-120.48 123.32,-107.37 95.91,-97.58"/>
<polygon fill="midnightblue" stroke="midnightblue" points="188.41,-134.33 199.01,-134.4 190.77,-127.74 188.41,-134.33"/>
</g>
<!-- Node3 -->
<g id="node3" class="node">
<title>Node3</title>
<g id="a_node3"><a xlink:href="NetworkC__Dispatcher_8h.html" target="_top" xlink:title="Header file of NetworkC_Dispatcher.c.">
<polygon fill="white" stroke="black" points="170,-67.5 170,-97.5 307,-97.5 307,-67.5 170,-67.5"/>
<text text-anchor="start" x="178" y="-85.5" font-family="Helvetica,sans-Serif" font-size="10.00">src/NetworkC/Dispatcher</text>
<text text-anchor="middle" x="238.5" y="-74.5" font-family="Helvetica,sans-Serif" font-size="10.00">/NetworkC_Dispatcher.h</text>
</a>
</g>
</g>
<!-- Node1&#45;&gt;Node3 -->
<g id="edge2" class="edge">
<title>Node1&#45;&gt;Node3</title>
<path fill="none" stroke="midnightblue" d="M238.5,-124.11C238.5,-115.15 238.5,-105.32 238.5,-97.58"/>
<polygon fill="midnightblue" stroke="midnightblue" points="235,-124.4 238.5,-134.4 242,-124.4 235,-124.4"/>
</g>
<!-- Node4 -->
<g id="node4" class="node">
<title>Node4</title>
<g id="a_node4"><a xlink:href="NetworkC__Dispatcher_8c.html" target="_top" xlink:title="NetworkC_Dispatcher dispatch the received message.">
<polygon fill="white" stroke="black" points="46,-0.5 46,-30.5 183,-30.5 183,-0.5 46,-0.5"/>
<text text-anchor="start" x="54" y="-18.5" font-family="Helvetica,sans-Serif" font-size="10.00">src/NetworkC/Dispatcher</text>
<text text-anchor="middle" x="114.5" y="-7.5" font-family="Helvetica,sans-Serif" font-size="10.00">/NetworkC_Dispatcher.c</text>
</a>
</g>
</g>
<!-- Node1&#45;&gt;Node4 -->
<g id="edge6" class="edge">
<title>Node1&#45;&gt;Node4</title>
<path fill="none" stroke="midnightblue" d="M200.89,-129.2C187.08,-120.88 172.02,-110.24 160.5,-98 141.46,-77.77 127.33,-48.2 120.05,-30.8"/>
<polygon fill="midnightblue" stroke="midnightblue" points="199.33,-132.34 209.74,-134.32 202.84,-126.28 199.33,-132.34"/>
</g>
<!-- Node7 -->
<g id="node7" class="node">
<title>Node7</title>
<g id="a_node7"><a xlink:href="NetworkC__ProxyCartoManager_8c.html" target="_top" xlink:title="Proxy for CartoManager.">
<polygon fill="white" stroke="black" points="325,-67.5 325,-97.5 502,-97.5 502,-67.5 325,-67.5"/>
<text text-anchor="start" x="333" y="-85.5" font-family="Helvetica,sans-Serif" font-size="10.00">src/NetworkC/Proxy</text>
<text text-anchor="middle" x="413.5" y="-74.5" font-family="Helvetica,sans-Serif" font-size="10.00">/NetworkC_ProxyCartoManager.c</text>
</a>
</g>
</g>
<!-- Node1&#45;&gt;Node7 -->
<g id="edge7" class="edge">
<title>Node1&#45;&gt;Node7</title>
<path fill="none" stroke="midnightblue" d="M286.1,-130.82C314.23,-120.37 349.36,-107.32 375.6,-97.58"/>
<polygon fill="midnightblue" stroke="midnightblue" points="284.63,-127.63 276.47,-134.4 287.07,-134.2 284.63,-127.63"/>
</g>
<!-- Node8 -->
<g id="node8" class="node">
<title>Node8</title>
<g id="a_node8"><a xlink:href="NetworkC__ProxyGUI_8c.html" target="_top" xlink:title="Proxy for GUI.">
<polygon fill="white" stroke="black" points="520,-67.5 520,-97.5 647,-97.5 647,-67.5 520,-67.5"/>
<text text-anchor="start" x="528" y="-85.5" font-family="Helvetica,sans-Serif" font-size="10.00">src/NetworkC/Proxy</text>
<text text-anchor="middle" x="583.5" y="-74.5" font-family="Helvetica,sans-Serif" font-size="10.00">/NetworkC_ProxyGUI.c</text>
</a>
</g>
</g>
<!-- Node1&#45;&gt;Node8 -->
<g id="edge8" class="edge">
<title>Node1&#45;&gt;Node8</title>
<path fill="none" stroke="midnightblue" d="M305.04,-136.49C360.35,-126.44 441.11,-111.6 511.5,-98 514.25,-97.47 517.07,-96.92 519.91,-96.36"/>
<polygon fill="midnightblue" stroke="midnightblue" points="304.23,-133.08 295.02,-138.31 305.48,-139.97 304.23,-133.08"/>
</g>
<!-- Node3&#45;&gt;Node4 -->
<g id="edge3" class="edge">
<title>Node3&#45;&gt;Node4</title>
<path fill="none" stroke="midnightblue" d="M202.66,-62.71C183.11,-52.46 159.3,-39.98 141.35,-30.58"/>
<polygon fill="midnightblue" stroke="midnightblue" points="201.11,-65.85 211.59,-67.4 204.36,-59.65 201.11,-65.85"/>
</g>
<!-- Node5 -->
<g id="node5" class="node">
<title>Node5</title>
<g id="a_node5"><a xlink:href="NetworkC__Postman_8c.html" target="_top" xlink:title="NetworkC Postman is the interface of the socket.">
<polygon fill="white" stroke="black" points="201.5,-0.5 201.5,-30.5 329.5,-30.5 329.5,-0.5 201.5,-0.5"/>
<text text-anchor="start" x="209.5" y="-18.5" font-family="Helvetica,sans-Serif" font-size="10.00">src/NetworkC/Postman</text>
<text text-anchor="middle" x="265.5" y="-7.5" font-family="Helvetica,sans-Serif" font-size="10.00">/NetworkC_Postman.c</text>
</a>
</g>
</g>
<!-- Node3&#45;&gt;Node5 -->
<g id="edge4" class="edge">
<title>Node3&#45;&gt;Node5</title>
<path fill="none" stroke="midnightblue" d="M248.27,-57.99C252.08,-48.8 256.33,-38.58 259.65,-30.58"/>
<polygon fill="midnightblue" stroke="midnightblue" points="244.96,-56.82 244.36,-67.4 251.43,-59.5 244.96,-56.82"/>
</g>
<!-- Node6 -->
<g id="node6" class="node">
<title>Node6</title>
<g id="a_node6"><a xlink:href="starter_8c.html" target="_top" xlink:title="Starter of ACDSoft.">
<polygon fill="white" stroke="black" points="347.5,-6 347.5,-25 421.5,-25 421.5,-6 347.5,-6"/>
<text text-anchor="middle" x="384.5" y="-13" font-family="Helvetica,sans-Serif" font-size="10.00">src/starter.c</text>
</a>
</g>
</g>
<!-- Node3&#45;&gt;Node6 -->
<g id="edge5" class="edge">
<title>Node3&#45;&gt;Node6</title>
<path fill="none" stroke="midnightblue" d="M279.39,-63.3C307.55,-50.76 343.66,-34.68 365.39,-25.01"/>
<polygon fill="midnightblue" stroke="midnightblue" points="277.89,-60.13 270.18,-67.4 280.74,-66.53 277.89,-60.13"/>
</g>
</g>
</svg>
