<?xml version="1.0" encoding="UTF-8" standalone="no"?>
<!DOCTYPE svg PUBLIC "-//W3C//DTD SVG 1.1//EN"
 "http://www.w3.org/Graphics/SVG/1.1/DTD/svg11.dtd">
<!-- Generated by graphviz version 2.43.0 (0)
 -->
<!-- Title: src/NetworkC/Dispatcher/NetworkC_Dispatcher.h Pages: 1 -->
<svg width="225pt" height="263pt"
 viewBox="0.00 0.00 225.00 263.00" xmlns="http://www.w3.org/2000/svg" xmlns:xlink="http://www.w3.org/1999/xlink">
<g id="graph0" class="graph" transform="scale(1 1) rotate(0) translate(4 259)">
<title>src/NetworkC/Dispatcher/NetworkC_Dispatcher.h</title>
<polygon fill="white" stroke="transparent" points="-4,4 -4,-259 221,-259 221,4 -4,4"/>
<!-- Node1 -->
<g id="node1" class="node">
<title>Node1</title>
<g id="a_node1"><a xlink:title="Header file of NetworkC_Dispatcher.c.">
<polygon fill="#bfbfbf" stroke="black" points="26,-224.5 26,-254.5 163,-254.5 163,-224.5 26,-224.5"/>
<text text-anchor="start" x="34" y="-242.5" font-family="Helvetica,sans-Serif" font-size="10.00">src/NetworkC/Dispatcher</text>
<text text-anchor="middle" x="94.5" y="-231.5" font-family="Helvetica,sans-Serif" font-size="10.00">/NetworkC_Dispatcher.h</text>
</a>
</g>
</g>
<!-- Node2 -->
<g id="node2" class="node">
<title>Node2</title>
<g id="a_node2"><a xlink:href="NetworkC__Coder_8h.html" target="_top" xlink:title="Header file of NetworkC_Coder.c.">
<polygon fill="white" stroke="black" points="21,-168.5 21,-187.5 168,-187.5 168,-168.5 21,-168.5"/>
<text text-anchor="middle" x="94.5" y="-175.5" font-family="Helvetica,sans-Serif" font-size="10.00">../Coder/NetworkC_Coder.h</text>
</a>
</g>
</g>
<!-- Node1&#45;&gt;Node2 -->
<g id="edge1" class="edge">
<title>Node1&#45;&gt;Node2</title>
<path fill="none" stroke="midnightblue" d="M94.5,-224.4C94.5,-216.47 94.5,-206.46 94.5,-197.86"/>
<polygon fill="midnightblue" stroke="midnightblue" points="98,-197.66 94.5,-187.66 91,-197.66 98,-197.66"/>
</g>
<!-- Node3 -->
<g id="node3" class="node">
<title>Node3</title>
<g id="a_node3"><a xlink:href="config_8h.html" target="_top" xlink:title="Global definitions.">
<polygon fill="white" stroke="black" points="0,-56.5 0,-75.5 107,-75.5 107,-56.5 0,-56.5"/>
<text text-anchor="middle" x="53.5" y="-63.5" font-family="Helvetica,sans-Serif" font-size="10.00">../../Config/config.h</text>
</a>
</g>
</g>
<!-- Node2&#45;&gt;Node3 -->
<g id="edge2" class="edge">
<title>Node2&#45;&gt;Node3</title>
<path fill="none" stroke="midnightblue" d="M90.67,-168.45C86.69,-159.45 80.38,-144.84 75.5,-132 69.62,-116.51 63.63,-98.67 59.4,-85.6"/>
<polygon fill="midnightblue" stroke="midnightblue" points="62.67,-84.36 56.29,-75.9 56.01,-86.5 62.67,-84.36"/>
</g>
<!-- Node5 -->
<g id="node5" class="node">
<title>Node5</title>
<g id="a_node5"><a xlink:href="Carto_8h.html" target="_top" xlink:title="This component describes the cartography&#39;s model. It also allow the user to modify it&#39;s parameters.">
<polygon fill="white" stroke="black" points="85,-112.5 85,-131.5 184,-131.5 184,-112.5 85,-112.5"/>
<text text-anchor="middle" x="134.5" y="-119.5" font-family="Helvetica,sans-Serif" font-size="10.00">../../Carto/Carto.h</text>
</a>
</g>
</g>
<!-- Node2&#45;&gt;Node5 -->
<g id="edge4" class="edge">
<title>Node2&#45;&gt;Node5</title>
<path fill="none" stroke="midnightblue" d="M101.11,-168.08C106.76,-160.46 115.04,-149.26 121.95,-139.94"/>
<polygon fill="midnightblue" stroke="midnightblue" points="124.88,-141.87 128.02,-131.75 119.25,-137.7 124.88,-141.87"/>
</g>
<!-- Node4 -->
<g id="node4" class="node">
<title>Node4</title>
<g id="a_node4"><a xlink:title=" ">
<polygon fill="white" stroke="#bfbfbf" points="63.5,-0.5 63.5,-19.5 125.5,-19.5 125.5,-0.5 63.5,-0.5"/>
<text text-anchor="middle" x="94.5" y="-7.5" font-family="Helvetica,sans-Serif" font-size="10.00">stdbool.h</text>
</a>
</g>
</g>
<!-- Node3&#45;&gt;Node4 -->
<g id="edge3" class="edge">
<title>Node3&#45;&gt;Node4</title>
<path fill="none" stroke="midnightblue" d="M60.27,-56.08C66.06,-48.46 74.56,-37.26 81.64,-27.94"/>
<polygon fill="midnightblue" stroke="midnightblue" points="84.6,-29.83 87.86,-19.75 79.02,-25.6 84.6,-29.83"/>
</g>
<!-- Node5&#45;&gt;Node3 -->
<g id="edge7" class="edge">
<title>Node5&#45;&gt;Node3</title>
<path fill="none" stroke="midnightblue" d="M121.49,-112.32C108.97,-103.98 89.82,-91.21 75.03,-81.35"/>
<polygon fill="midnightblue" stroke="midnightblue" points="76.74,-78.29 66.48,-75.65 72.86,-84.11 76.74,-78.29"/>
</g>
<!-- Node5&#45;&gt;Node4 -->
<g id="edge6" class="edge">
<title>Node5&#45;&gt;Node4</title>
<path fill="none" stroke="midnightblue" d="M132.44,-112.45C129.33,-99.89 122.97,-75.8 115.5,-56 112.08,-46.92 107.61,-37.14 103.67,-29.01"/>
<polygon fill="midnightblue" stroke="midnightblue" points="106.68,-27.19 99.09,-19.79 100.41,-30.31 106.68,-27.19"/>
</g>
<!-- Node6 -->
<g id="node6" class="node">
<title>Node6</title>
<g id="a_node6"><a xlink:title=" ">
<polygon fill="white" stroke="#bfbfbf" points="164,-56.5 164,-75.5 217,-75.5 217,-56.5 164,-56.5"/>
<text text-anchor="middle" x="190.5" y="-63.5" font-family="Helvetica,sans-Serif" font-size="10.00">stdint.h</text>
</a>
</g>
</g>
<!-- Node5&#45;&gt;Node6 -->
<g id="edge5" class="edge">
<title>Node5&#45;&gt;Node6</title>
<path fill="none" stroke="midnightblue" d="M143.5,-112.32C151.69,-104.42 164.01,-92.55 173.97,-82.94"/>
<polygon fill="midnightblue" stroke="midnightblue" points="176.57,-85.29 181.34,-75.83 171.71,-80.26 176.57,-85.29"/>
</g>
</g>
</svg>
