<?xml version="1.0" encoding="UTF-8" standalone="no"?>
<!DOCTYPE svg PUBLIC "-//W3C//DTD SVG 1.1//EN"
 "http://www.w3.org/Graphics/SVG/1.1/DTD/svg11.dtd">
<!-- Generated by graphviz version 2.43.0 (0)
 -->
<!-- Title: src/NetworkC/Coder/NetworkC_Coder.h Pages: 1 -->
<svg width="225pt" height="207pt"
 viewBox="0.00 0.00 225.00 207.00" xmlns="http://www.w3.org/2000/svg" xmlns:xlink="http://www.w3.org/1999/xlink">
<g id="graph0" class="graph" transform="scale(1 1) rotate(0) translate(4 203)">
<title>src/NetworkC/Coder/NetworkC_Coder.h</title>
<polygon fill="white" stroke="transparent" points="-4,4 -4,-203 221,-203 221,4 -4,4"/>
<!-- Node1 -->
<g id="node1" class="node">
<title>Node1</title>
<g id="a_node1"><a xlink:title="Header file of NetworkC_Coder.c.">
<polygon fill="#bfbfbf" stroke="black" points="38,-168.5 38,-198.5 151,-198.5 151,-168.5 38,-168.5"/>
<text text-anchor="start" x="46" y="-186.5" font-family="Helvetica,sans-Serif" font-size="10.00">src/NetworkC/Coder</text>
<text text-anchor="middle" x="94.5" y="-175.5" font-family="Helvetica,sans-Serif" font-size="10.00">/NetworkC_Coder.h</text>
</a>
</g>
</g>
<!-- Node2 -->
<g id="node2" class="node">
<title>Node2</title>
<g id="a_node2"><a xlink:href="config_8h.html" target="_top" xlink:title="Global definitions.">
<polygon fill="white" stroke="black" points="0,-56.5 0,-75.5 107,-75.5 107,-56.5 0,-56.5"/>
<text text-anchor="middle" x="53.5" y="-63.5" font-family="Helvetica,sans-Serif" font-size="10.00">../../Config/config.h</text>
</a>
</g>
</g>
<!-- Node1&#45;&gt;Node2 -->
<g id="edge1" class="edge">
<title>Node1&#45;&gt;Node2</title>
<path fill="none" stroke="midnightblue" d="M89.05,-168.4C85.18,-158.3 79.91,-144.35 75.5,-132 69.93,-116.4 63.92,-98.57 59.59,-85.53"/>
<polygon fill="midnightblue" stroke="midnightblue" points="62.86,-84.26 56.4,-75.86 56.21,-86.46 62.86,-84.26"/>
</g>
<!-- Node4 -->
<g id="node4" class="node">
<title>Node4</title>
<g id="a_node4"><a xlink:href="Carto_8h.html" target="_top" xlink:title="This component describes the cartography&#39;s model. It also allow the user to modify it&#39;s parameters.">
<polygon fill="white" stroke="black" points="85,-112.5 85,-131.5 184,-131.5 184,-112.5 85,-112.5"/>
<text text-anchor="middle" x="134.5" y="-119.5" font-family="Helvetica,sans-Serif" font-size="10.00">../../Carto/Carto.h</text>
</a>
</g>
</g>
<!-- Node1&#45;&gt;Node4 -->
<g id="edge3" class="edge">
<title>Node1&#45;&gt;Node4</title>
<path fill="none" stroke="midnightblue" d="M103.98,-168.4C109.67,-159.93 116.95,-149.1 122.98,-140.14"/>
<polygon fill="midnightblue" stroke="midnightblue" points="126.01,-141.91 128.68,-131.66 120.2,-138 126.01,-141.91"/>
</g>
<!-- Node3 -->
<g id="node3" class="node">
<title>Node3</title>
<g id="a_node3"><a xlink:title=" ">
<polygon fill="white" stroke="#bfbfbf" points="63.5,-0.5 63.5,-19.5 125.5,-19.5 125.5,-0.5 63.5,-0.5"/>
<text text-anchor="middle" x="94.5" y="-7.5" font-family="Helvetica,sans-Serif" font-size="10.00">stdbool.h</text>
</a>
</g>
</g>
<!-- Node2&#45;&gt;Node3 -->
<g id="edge2" class="edge">
<title>Node2&#45;&gt;Node3</title>
<path fill="none" stroke="midnightblue" d="M60.27,-56.08C66.06,-48.46 74.56,-37.26 81.64,-27.94"/>
<polygon fill="midnightblue" stroke="midnightblue" points="84.6,-29.83 87.86,-19.75 79.02,-25.6 84.6,-29.83"/>
</g>
<!-- Node4&#45;&gt;Node2 -->
<g id="edge6" class="edge">
<title>Node4&#45;&gt;Node2</title>
<path fill="none" stroke="midnightblue" d="M121.49,-112.32C108.97,-103.98 89.82,-91.21 75.03,-81.35"/>
<polygon fill="midnightblue" stroke="midnightblue" points="76.74,-78.29 66.48,-75.65 72.86,-84.11 76.74,-78.29"/>
</g>
<!-- Node4&#45;&gt;Node3 -->
<g id="edge5" class="edge">
<title>Node4&#45;&gt;Node3</title>
<path fill="none" stroke="midnightblue" d="M132.44,-112.45C129.33,-99.89 122.97,-75.8 115.5,-56 112.08,-46.92 107.61,-37.14 103.67,-29.01"/>
<polygon fill="midnightblue" stroke="midnightblue" points="106.68,-27.19 99.09,-19.79 100.41,-30.31 106.68,-27.19"/>
</g>
<!-- Node5 -->
<g id="node5" class="node">
<title>Node5</title>
<g id="a_node5"><a xlink:title=" ">
<polygon fill="white" stroke="#bfbfbf" points="164,-56.5 164,-75.5 217,-75.5 217,-56.5 164,-56.5"/>
<text text-anchor="middle" x="190.5" y="-63.5" font-family="Helvetica,sans-Serif" font-size="10.00">stdint.h</text>
</a>
</g>
</g>
<!-- Node4&#45;&gt;Node5 -->
<g id="edge4" class="edge">
<title>Node4&#45;&gt;Node5</title>
<path fill="none" stroke="midnightblue" d="M143.5,-112.32C151.69,-104.42 164.01,-92.55 173.97,-82.94"/>
<polygon fill="midnightblue" stroke="midnightblue" points="176.57,-85.29 181.34,-75.83 171.71,-80.26 176.57,-85.29"/>
</g>
</g>
</svg>
