<?xml version="1.0" encoding="UTF-8" standalone="no"?>
<!DOCTYPE svg PUBLIC "-//W3C//DTD SVG 1.1//EN"
 "http://www.w3.org/Graphics/SVG/1.1/DTD/svg11.dtd">
<!-- Generated by graphviz version 2.43.0 (0)
 -->
<!-- Title: src/NetworkC/Proxy/NetworkC_ProxyCartoManager.h Pages: 1 -->
<svg width="361pt" height="106pt"
 viewBox="0.00 0.00 360.50 106.00" xmlns="http://www.w3.org/2000/svg" xmlns:xlink="http://www.w3.org/1999/xlink">
<g id="graph0" class="graph" transform="scale(1 1) rotate(0) translate(4 102)">
<title>src/NetworkC/Proxy/NetworkC_ProxyCartoManager.h</title>
<polygon fill="white" stroke="transparent" points="-4,4 -4,-102 356.5,-102 356.5,4 -4,4"/>
<!-- Node1 -->
<g id="node1" class="node">
<title>Node1</title>
<g id="a_node1"><a xlink:title="Header file of NetworkC_ProxyCartoManager.c.">
<polygon fill="#bfbfbf" stroke="black" points="82,-67.5 82,-97.5 260,-97.5 260,-67.5 82,-67.5"/>
<text text-anchor="start" x="90" y="-85.5" font-family="Helvetica,sans-Serif" font-size="10.00">src/NetworkC/Proxy</text>
<text text-anchor="middle" x="171" y="-74.5" font-family="Helvetica,sans-Serif" font-size="10.00">/NetworkC_ProxyCartoManager.h</text>
</a>
</g>
</g>
<!-- Node2 -->
<g id="node2" class="node">
<title>Node2</title>
<g id="a_node2"><a xlink:href="Geographer_8c.html" target="_top" xlink:title="This component is the active object of ACDSoft.">
<polygon fill="white" stroke="black" points="0,-6 0,-25 158,-25 158,-6 0,-6"/>
<text text-anchor="middle" x="79" y="-13" font-family="Helvetica,sans-Serif" font-size="10.00">src/Geographer/Geographer.c</text>
</a>
</g>
</g>
<!-- Node1&#45;&gt;Node2 -->
<g id="edge1" class="edge">
<title>Node1&#45;&gt;Node2</title>
<path fill="none" stroke="midnightblue" d="M142.42,-61.31C125.14,-49.1 104.02,-34.18 91.04,-25.01"/>
<polygon fill="midnightblue" stroke="midnightblue" points="140.85,-64.48 151.04,-67.4 144.89,-58.77 140.85,-64.48"/>
</g>
<!-- Node3 -->
<g id="node3" class="node">
<title>Node3</title>
<g id="a_node3"><a xlink:href="NetworkC__ProxyCartoManager_8c.html" target="_top" xlink:title="Proxy for CartoManager.">
<polygon fill="white" stroke="black" points="175.5,-0.5 175.5,-30.5 352.5,-30.5 352.5,-0.5 175.5,-0.5"/>
<text text-anchor="start" x="183.5" y="-18.5" font-family="Helvetica,sans-Serif" font-size="10.00">src/NetworkC/Proxy</text>
<text text-anchor="middle" x="264" y="-7.5" font-family="Helvetica,sans-Serif" font-size="10.00">/NetworkC_ProxyCartoManager.c</text>
</a>
</g>
</g>
<!-- Node1&#45;&gt;Node3 -->
<g id="edge2" class="edge">
<title>Node1&#45;&gt;Node3</title>
<path fill="none" stroke="midnightblue" d="M199.69,-61.45C213.99,-51.45 230.95,-39.6 243.86,-30.58"/>
<polygon fill="midnightblue" stroke="midnightblue" points="197.37,-58.8 191.18,-67.4 201.38,-64.54 197.37,-58.8"/>
</g>
</g>
</svg>
