<?xml version="1.0" encoding="UTF-8" standalone="no"?>
<!DOCTYPE svg PUBLIC "-//W3C//DTD SVG 1.1//EN"
 "http://www.w3.org/Graphics/SVG/1.1/DTD/svg11.dtd">
<!-- Generated by graphviz version 2.43.0 (0)
 -->
<!-- Title: src/starter.c Pages: 1 -->
<svg width="561pt" height="319pt"
 viewBox="0.00 0.00 560.50 319.00" xmlns="http://www.w3.org/2000/svg" xmlns:xlink="http://www.w3.org/1999/xlink">
<g id="graph0" class="graph" transform="scale(1 1) rotate(0) translate(4 315)">
<title>src/starter.c</title>
<polygon fill="white" stroke="transparent" points="-4,4 -4,-315 556.5,-315 556.5,4 -4,4"/>
<!-- Node1 -->
<g id="node1" class="node">
<title>Node1</title>
<g id="a_node1"><a xlink:title="Starter of ACDSoft.">
<polygon fill="#bfbfbf" stroke="black" points="170,-291.5 170,-310.5 244,-310.5 244,-291.5 170,-291.5"/>
<text text-anchor="middle" x="207" y="-298.5" font-family="Helvetica,sans-Serif" font-size="10.00">src/starter.c</text>
</a>
</g>
</g>
<!-- Node2 -->
<g id="node2" class="node">
<title>Node2</title>
<g id="a_node2"><a xlink:href="UI_8h.html" target="_top" xlink:title="This component display a window with a color related to the current connection state and a quit butto...">
<polygon fill="white" stroke="black" points="34,-230 34,-249 84,-249 84,-230 34,-230"/>
<text text-anchor="middle" x="59" y="-237" font-family="Helvetica,sans-Serif" font-size="10.00">UI/UI.h</text>
</a>
</g>
</g>
<!-- Node1&#45;&gt;Node2 -->
<g id="edge1" class="edge">
<title>Node1&#45;&gt;Node2</title>
<path fill="none" stroke="midnightblue" d="M185.8,-291.48C160.63,-281.36 118.46,-264.4 89.72,-252.85"/>
<polygon fill="midnightblue" stroke="midnightblue" points="90.75,-249.49 80.17,-249.01 88.14,-255.99 90.75,-249.49"/>
</g>
<!-- Node3 -->
<g id="node3" class="node">
<title>Node3</title>
<g id="a_node3"><a xlink:href="Geographer_8h.html" target="_top" xlink:title="This component is the active object of ACDSoft.">
<polygon fill="white" stroke="black" points="0,-168.5 0,-187.5 142,-187.5 142,-168.5 0,-168.5"/>
<text text-anchor="middle" x="71" y="-175.5" font-family="Helvetica,sans-Serif" font-size="10.00">Geographer/Geographer.h</text>
</a>
</g>
</g>
<!-- Node1&#45;&gt;Node3 -->
<g id="edge2" class="edge">
<title>Node1&#45;&gt;Node3</title>
<path fill="none" stroke="midnightblue" d="M188.25,-291.35C172.05,-283.33 148.54,-270.34 131,-255 111.11,-237.61 93.03,-212.93 82.03,-196.46"/>
<polygon fill="midnightblue" stroke="midnightblue" points="84.8,-194.31 76.42,-187.83 78.94,-198.12 84.8,-194.31"/>
</g>
<!-- Node8 -->
<g id="node8" class="node">
<title>Node8</title>
<g id="a_node8"><a xlink:href="NetworkC__Postman_8h.html" target="_top" xlink:title="Header File for NetworkC_Postman.c.">
<polygon fill="white" stroke="black" points="397.5,-224.5 397.5,-254.5 552.5,-254.5 552.5,-224.5 397.5,-224.5"/>
<text text-anchor="start" x="405.5" y="-242.5" font-family="Helvetica,sans-Serif" font-size="10.00">NetworkC/Postman/Network</text>
<text text-anchor="middle" x="475" y="-231.5" font-family="Helvetica,sans-Serif" font-size="10.00">C_Postman.h</text>
</a>
</g>
</g>
<!-- Node1&#45;&gt;Node8 -->
<g id="edge9" class="edge">
<title>Node1&#45;&gt;Node8</title>
<path fill="none" stroke="midnightblue" d="M244.26,-291.73C284.85,-282.72 350.79,-268.08 401.8,-256.75"/>
<polygon fill="midnightblue" stroke="midnightblue" points="402.79,-260.12 411.8,-254.53 401.27,-253.28 402.79,-260.12"/>
</g>
<!-- Node9 -->
<g id="node9" class="node">
<title>Node9</title>
<g id="a_node9"><a xlink:href="NetworkC__Dispatcher_8h.html" target="_top" xlink:title="Header file of NetworkC_Dispatcher.c.">
<polygon fill="white" stroke="black" points="140,-224.5 140,-254.5 274,-254.5 274,-224.5 140,-224.5"/>
<text text-anchor="start" x="148" y="-242.5" font-family="Helvetica,sans-Serif" font-size="10.00">NetworkC/Dispatcher</text>
<text text-anchor="middle" x="207" y="-231.5" font-family="Helvetica,sans-Serif" font-size="10.00">/NetworkC_Dispatcher.h</text>
</a>
</g>
</g>
<!-- Node1&#45;&gt;Node9 -->
<g id="edge10" class="edge">
<title>Node1&#45;&gt;Node9</title>
<path fill="none" stroke="midnightblue" d="M207,-291.48C207,-284.47 207,-274.19 207,-264.7"/>
<polygon fill="midnightblue" stroke="midnightblue" points="210.5,-264.52 207,-254.52 203.5,-264.52 210.5,-264.52"/>
</g>
<!-- Node11 -->
<g id="node11" class="node">
<title>Node11</title>
<g id="a_node11"><a xlink:href="LiDAR_8h.html" target="_top" xlink:title="This is the header file of LiDAR.c which communicates with the physical LiDAR to get a scan in a txt ...">
<polygon fill="white" stroke="black" points="292.5,-230 292.5,-249 379.5,-249 379.5,-230 292.5,-230"/>
<text text-anchor="middle" x="336" y="-237" font-family="Helvetica,sans-Serif" font-size="10.00">LiDAR/LiDAR.h</text>
</a>
</g>
</g>
<!-- Node1&#45;&gt;Node11 -->
<g id="edge14" class="edge">
<title>Node1&#45;&gt;Node11</title>
<path fill="none" stroke="midnightblue" d="M225.48,-291.48C247.13,-281.49 283.21,-264.85 308.23,-253.31"/>
<polygon fill="midnightblue" stroke="midnightblue" points="309.94,-256.38 317.55,-249.01 307.01,-250.02 309.94,-256.38"/>
</g>
<!-- Node4 -->
<g id="node4" class="node">
<title>Node4</title>
<g id="a_node4"><a xlink:href="config_8h.html" target="_top" xlink:title="Global definitions.">
<polygon fill="white" stroke="black" points="168,-56.5 168,-75.5 266,-75.5 266,-56.5 168,-56.5"/>
<text text-anchor="middle" x="217" y="-63.5" font-family="Helvetica,sans-Serif" font-size="10.00">../Config/config.h</text>
</a>
</g>
</g>
<!-- Node3&#45;&gt;Node4 -->
<g id="edge3" class="edge">
<title>Node3&#45;&gt;Node4</title>
<path fill="none" stroke="midnightblue" d="M104.96,-168.45C127.34,-161.49 156.23,-149.86 177,-132 191.87,-119.21 202.92,-99.47 209.6,-85.1"/>
<polygon fill="midnightblue" stroke="midnightblue" points="212.88,-86.33 213.67,-75.76 206.46,-83.52 212.88,-86.33"/>
</g>
<!-- Node6 -->
<g id="node6" class="node">
<title>Node6</title>
<g id="a_node6"><a xlink:href="Carto_8h.html" target="_top" xlink:title="This component describes the cartography&#39;s model. It also allow the user to modify it&#39;s parameters.">
<polygon fill="white" stroke="black" points="78,-112.5 78,-131.5 168,-131.5 168,-112.5 78,-112.5"/>
<text text-anchor="middle" x="123" y="-119.5" font-family="Helvetica,sans-Serif" font-size="10.00">../Carto/Carto.h</text>
</a>
</g>
</g>
<!-- Node3&#45;&gt;Node6 -->
<g id="edge5" class="edge">
<title>Node3&#45;&gt;Node6</title>
<path fill="none" stroke="midnightblue" d="M79.59,-168.08C87.16,-160.22 98.38,-148.57 107.51,-139.08"/>
<polygon fill="midnightblue" stroke="midnightblue" points="110.16,-141.38 114.57,-131.75 105.12,-136.53 110.16,-141.38"/>
</g>
<!-- Node5 -->
<g id="node5" class="node">
<title>Node5</title>
<g id="a_node5"><a xlink:title=" ">
<polygon fill="white" stroke="#bfbfbf" points="147,-0.5 147,-19.5 209,-19.5 209,-0.5 147,-0.5"/>
<text text-anchor="middle" x="178" y="-7.5" font-family="Helvetica,sans-Serif" font-size="10.00">stdbool.h</text>
</a>
</g>
</g>
<!-- Node4&#45;&gt;Node5 -->
<g id="edge4" class="edge">
<title>Node4&#45;&gt;Node5</title>
<path fill="none" stroke="midnightblue" d="M210.56,-56.08C205.05,-48.46 196.97,-37.26 190.24,-27.94"/>
<polygon fill="midnightblue" stroke="midnightblue" points="193.01,-25.81 184.32,-19.75 187.34,-29.91 193.01,-25.81"/>
</g>
<!-- Node6&#45;&gt;Node4 -->
<g id="edge8" class="edge">
<title>Node6&#45;&gt;Node4</title>
<path fill="none" stroke="midnightblue" d="M138.1,-112.32C152.9,-103.82 175.69,-90.73 192.98,-80.8"/>
<polygon fill="midnightblue" stroke="midnightblue" points="195.01,-83.67 201.93,-75.65 191.52,-77.6 195.01,-83.67"/>
</g>
<!-- Node6&#45;&gt;Node5 -->
<g id="edge7" class="edge">
<title>Node6&#45;&gt;Node5</title>
<path fill="none" stroke="midnightblue" d="M127.32,-112.37C136.31,-94.38 157.22,-52.55 169.19,-28.63"/>
<polygon fill="midnightblue" stroke="midnightblue" points="172.36,-30.1 173.7,-19.59 166.1,-26.97 172.36,-30.1"/>
</g>
<!-- Node7 -->
<g id="node7" class="node">
<title>Node7</title>
<g id="a_node7"><a xlink:title=" ">
<polygon fill="white" stroke="#bfbfbf" points="58.5,-56.5 58.5,-75.5 111.5,-75.5 111.5,-56.5 58.5,-56.5"/>
<text text-anchor="middle" x="85" y="-63.5" font-family="Helvetica,sans-Serif" font-size="10.00">stdint.h</text>
</a>
</g>
</g>
<!-- Node6&#45;&gt;Node7 -->
<g id="edge6" class="edge">
<title>Node6&#45;&gt;Node7</title>
<path fill="none" stroke="midnightblue" d="M116.73,-112.08C111.36,-104.46 103.48,-93.26 96.92,-83.94"/>
<polygon fill="midnightblue" stroke="midnightblue" points="99.78,-81.91 91.16,-75.75 94.05,-85.94 99.78,-81.91"/>
</g>
<!-- Node10 -->
<g id="node10" class="node">
<title>Node10</title>
<g id="a_node10"><a xlink:href="NetworkC__Coder_8h.html" target="_top" xlink:title="Header file of NetworkC_Coder.c.">
<polygon fill="white" stroke="black" points="160.5,-168.5 160.5,-187.5 307.5,-187.5 307.5,-168.5 160.5,-168.5"/>
<text text-anchor="middle" x="234" y="-175.5" font-family="Helvetica,sans-Serif" font-size="10.00">../Coder/NetworkC_Coder.h</text>
</a>
</g>
</g>
<!-- Node9&#45;&gt;Node10 -->
<g id="edge11" class="edge">
<title>Node9&#45;&gt;Node10</title>
<path fill="none" stroke="midnightblue" d="M213.4,-224.4C217.12,-216.2 221.85,-205.78 225.83,-196.99"/>
<polygon fill="midnightblue" stroke="midnightblue" points="229.13,-198.21 230.07,-187.66 222.75,-195.32 229.13,-198.21"/>
</g>
<!-- Node10&#45;&gt;Node4 -->
<g id="edge12" class="edge">
<title>Node10&#45;&gt;Node4</title>
<path fill="none" stroke="midnightblue" d="M232.67,-168.37C229.92,-150.62 223.59,-109.67 219.87,-85.6"/>
<polygon fill="midnightblue" stroke="midnightblue" points="223.31,-84.94 218.33,-75.59 216.4,-86.01 223.31,-84.94"/>
</g>
<!-- Node10&#45;&gt;Node6 -->
<g id="edge13" class="edge">
<title>Node10&#45;&gt;Node6</title>
<path fill="none" stroke="midnightblue" d="M216.17,-168.32C198.28,-159.62 170.52,-146.12 149.95,-136.11"/>
<polygon fill="midnightblue" stroke="midnightblue" points="151.31,-132.88 140.79,-131.65 148.25,-139.18 151.31,-132.88"/>
</g>
<!-- Node11&#45;&gt;Node3 -->
<g id="edge16" class="edge">
<title>Node11&#45;&gt;Node3</title>
<path fill="none" stroke="midnightblue" d="M306.09,-229.99C298.57,-227.94 290.51,-225.82 283,-224 229.52,-211.02 167.94,-198.18 124.98,-189.56"/>
<polygon fill="midnightblue" stroke="midnightblue" points="125.51,-186.1 115.02,-187.57 124.14,-192.96 125.51,-186.1"/>
</g>
<!-- Node11&#45;&gt;Node4 -->
<g id="edge15" class="edge">
<title>Node11&#45;&gt;Node4</title>
<path fill="none" stroke="midnightblue" d="M334.93,-229.71C332.94,-215.81 327.75,-188.25 316,-168 295.33,-132.38 259.24,-100.08 236.82,-82.04"/>
<polygon fill="midnightblue" stroke="midnightblue" points="238.7,-79.07 228.68,-75.63 234.37,-84.57 238.7,-79.07"/>
</g>
<!-- Node12 -->
<g id="node12" class="node">
<title>Node12</title>
<g id="a_node12"><a xlink:href="LiDAR__A1M8_8hpp_source.html" target="_top" xlink:title=" ">
<polygon fill="white" stroke="black" points="364,-168.5 364,-187.5 464,-187.5 464,-168.5 364,-168.5"/>
<text text-anchor="middle" x="414" y="-175.5" font-family="Helvetica,sans-Serif" font-size="10.00">LiDAR_A1M8.hpp</text>
</a>
</g>
</g>
<!-- Node11&#45;&gt;Node12 -->
<g id="edge17" class="edge">
<title>Node11&#45;&gt;Node12</title>
<path fill="none" stroke="midnightblue" d="M347.18,-229.98C359.57,-220.52 379.79,-205.1 394.75,-193.69"/>
<polygon fill="midnightblue" stroke="midnightblue" points="397.02,-196.36 402.85,-187.51 392.77,-190.79 397.02,-196.36"/>
</g>
</g>
</svg>
