<?xml version="1.0" encoding="UTF-8" standalone="no"?>
<!DOCTYPE svg PUBLIC "-//W3C//DTD SVG 1.1//EN"
 "http://www.w3.org/Graphics/SVG/1.1/DTD/svg11.dtd">
<!-- Generated by graphviz version 2.43.0 (0)
 -->
<!-- Title: s_geographerMqMessage Pages: 1 -->
<svg width="149pt" height="215pt"
 viewBox="0.00 0.00 149.00 215.00" xmlns="http://www.w3.org/2000/svg" xmlns:xlink="http://www.w3.org/1999/xlink">
<g id="graph0" class="graph" transform="scale(1 1) rotate(0) translate(4 211)">
<title>s_geographerMqMessage</title>
<polygon fill="white" stroke="transparent" points="-4,4 -4,-211 145,-211 145,4 -4,4"/>
<!-- Node1 -->
<g id="node1" class="node">
<title>Node1</title>
<g id="a_node1"><a xlink:title="s_geographerMqMessage structure dedicated to pass the event between multiples threads">
<polygon fill="#bfbfbf" stroke="black" points="0,-0.5 0,-68.5 141,-68.5 141,-0.5 0,-0.5"/>
<text text-anchor="middle" x="70.5" y="-56.5" font-family="Helvetica,sans-Serif" font-size="10.00">s_geographerMqMessage</text>
<polyline fill="none" stroke="black" points="0,-49.5 141,-49.5 "/>
<text text-anchor="start" x="8" y="-37.5" font-family="Helvetica,sans-Serif" font-size="10.00">+ event</text>
<text text-anchor="start" x="8" y="-26.5" font-family="Helvetica,sans-Serif" font-size="10.00">+ myMarker</text>
<polyline fill="none" stroke="black" points="0,-19.5 141,-19.5 "/>
<text text-anchor="middle" x="70.5" y="-7.5" font-family="Helvetica,sans-Serif" font-size="10.00"> </text>
</a>
</g>
</g>
<!-- Node2 -->
<g id="node2" class="node">
<title>Node2</title>
<g id="a_node2"><a xlink:href="structs__carto.html" target="_top" xlink:title=" ">
<polygon fill="white" stroke="black" points="26,-116.5 26,-206.5 115,-206.5 115,-116.5 26,-116.5"/>
<text text-anchor="middle" x="70.5" y="-194.5" font-family="Helvetica,sans-Serif" font-size="10.00">s_carto</text>
<polyline fill="none" stroke="black" points="26,-187.5 115,-187.5 "/>
<text text-anchor="start" x="34" y="-175.5" font-family="Helvetica,sans-Serif" font-size="10.00">+ id</text>
<text text-anchor="start" x="34" y="-164.5" font-family="Helvetica,sans-Serif" font-size="10.00">+ name</text>
<text text-anchor="start" x="34" y="-153.5" font-family="Helvetica,sans-Serif" font-size="10.00">+ rawCarto</text>
<text text-anchor="start" x="34" y="-142.5" font-family="Helvetica,sans-Serif" font-size="10.00">+ treatedCarto</text>
<polyline fill="none" stroke="black" points="26,-135.5 115,-135.5 "/>
<text text-anchor="middle" x="70.5" y="-123.5" font-family="Helvetica,sans-Serif" font-size="10.00"> </text>
</a>
</g>
</g>
<!-- Node2&#45;&gt;Node1 -->
<g id="edge1" class="edge">
<title>Node2&#45;&gt;Node1</title>
<path fill="none" stroke="#404040" d="M70.5,-116.43C70.5,-104.87 70.5,-92.38 70.5,-80.76"/>
<polygon fill="none" stroke="#404040" points="70.5,-80.57 66.5,-74.57 70.5,-68.57 74.5,-74.57 70.5,-80.57"/>
<text text-anchor="middle" x="97.5" y="-90" font-family="Helvetica,sans-Serif" font-size="10.00"> +myCarto</text>
</g>
</g>
</svg>
