<?xml version="1.0" encoding="UTF-8" standalone="no"?>
<!DOCTYPE svg PUBLIC "-//W3C//DTD SVG 1.1//EN"
 "http://www.w3.org/Graphics/SVG/1.1/DTD/svg11.dtd">
<!-- Generated by graphviz version 2.43.0 (0)
 -->
<!-- Title: geographer Pages: 1 -->
<svg width="323pt" height="248pt"
 viewBox="0.00 0.00 322.50 248.00" xmlns="http://www.w3.org/2000/svg" xmlns:xlink="http://www.w3.org/1999/xlink">
<g id="graph0" class="graph" transform="scale(1 1) rotate(0) translate(4 244)">
<title>geographer</title>
<polygon fill="white" stroke="transparent" points="-4,4 -4,-244 318.5,-244 318.5,4 -4,4"/>
<!-- Node1 -->
<g id="node1" class="node">
<title>Node1</title>
<g id="a_node1"><a xlink:title=" ">
<polygon fill="#bfbfbf" stroke="black" points="65,-0.5 65,-90.5 211,-90.5 211,-0.5 65,-0.5"/>
<text text-anchor="middle" x="138" y="-78.5" font-family="Helvetica,sans-Serif" font-size="10.00">geographer</text>
<polyline fill="none" stroke="black" points="65,-71.5 211,-71.5 "/>
<text text-anchor="start" x="73" y="-59.5" font-family="Helvetica,sans-Serif" font-size="10.00">+ idThreadGeographerRun</text>
<text text-anchor="start" x="73" y="-48.5" font-family="Helvetica,sans-Serif" font-size="10.00">+ mqId</text>
<text text-anchor="start" x="73" y="-37.5" font-family="Helvetica,sans-Serif" font-size="10.00">+ myState</text>
<text text-anchor="start" x="73" y="-26.5" font-family="Helvetica,sans-Serif" font-size="10.00">+ myMarker</text>
<polyline fill="none" stroke="black" points="65,-19.5 211,-19.5 "/>
<text text-anchor="middle" x="138" y="-7.5" font-family="Helvetica,sans-Serif" font-size="10.00"> </text>
</a>
</g>
</g>
<!-- Node2 -->
<g id="node2" class="node">
<title>Node2</title>
<g id="a_node2"><a xlink:href="structs__rawData.html" target="_top" xlink:title=" ">
<polygon fill="white" stroke="black" points="0,-166 0,-223 80,-223 80,-166 0,-166"/>
<text text-anchor="middle" x="40" y="-211" font-family="Helvetica,sans-Serif" font-size="10.00">s_rawData</text>
<polyline fill="none" stroke="black" points="0,-204 80,-204 "/>
<text text-anchor="start" x="8" y="-192" font-family="Helvetica,sans-Serif" font-size="10.00">+ rawData_a</text>
<polyline fill="none" stroke="black" points="0,-185 80,-185 "/>
<text text-anchor="middle" x="40" y="-173" font-family="Helvetica,sans-Serif" font-size="10.00"> </text>
</a>
</g>
</g>
<!-- Node2&#45;&gt;Node1 -->
<g id="edge1" class="edge">
<title>Node2&#45;&gt;Node1</title>
<path fill="none" stroke="#404040" d="M42.77,-165.88C45.55,-148.47 51.06,-126.12 62,-109 64.01,-105.86 66.22,-102.81 68.59,-99.84"/>
<polygon fill="none" stroke="#404040" points="68.73,-99.69 69.69,-92.54 76.66,-90.68 75.69,-97.83 68.73,-99.69"/>
<text text-anchor="middle" x="98" y="-117.5" font-family="Helvetica,sans-Serif" font-size="10.00"> +myRawData</text>
</g>
<!-- Node3 -->
<g id="node3" class="node">
<title>Node3</title>
<g id="a_node3"><a xlink:href="structs__rawScan.html" target="_top" xlink:title="The s_rawScan structure represents the raw scan.">
<polygon fill="white" stroke="black" points="98,-166 98,-223 178,-223 178,-166 98,-166"/>
<text text-anchor="middle" x="138" y="-211" font-family="Helvetica,sans-Serif" font-size="10.00">s_rawScan</text>
<polyline fill="none" stroke="black" points="98,-204 178,-204 "/>
<text text-anchor="start" x="106" y="-192" font-family="Helvetica,sans-Serif" font-size="10.00">+ rawScan_a</text>
<polyline fill="none" stroke="black" points="98,-185 178,-185 "/>
<text text-anchor="middle" x="138" y="-173" font-family="Helvetica,sans-Serif" font-size="10.00"> </text>
</a>
</g>
</g>
<!-- Node3&#45;&gt;Node1 -->
<g id="edge2" class="edge">
<title>Node3&#45;&gt;Node1</title>
<path fill="none" stroke="#404040" d="M138,-165.85C138,-148.11 138,-124.43 138,-102.85"/>
<polygon fill="none" stroke="#404040" points="138,-102.78 134,-96.78 138,-90.78 142,-96.78 138,-102.78"/>
<text text-anchor="middle" x="192.5" y="-123" font-family="Helvetica,sans-Serif" font-size="10.00"> +myRawScanMerged</text>
<text text-anchor="middle" x="192.5" y="-112" font-family="Helvetica,sans-Serif" font-size="10.00">+myRawScan</text>
</g>
<!-- Node4 -->
<g id="node4" class="node">
<title>Node4</title>
<g id="a_node4"><a xlink:href="structs__carto.html" target="_top" xlink:title=" ">
<polygon fill="white" stroke="black" points="225.5,-149.5 225.5,-239.5 314.5,-239.5 314.5,-149.5 225.5,-149.5"/>
<text text-anchor="middle" x="270" y="-227.5" font-family="Helvetica,sans-Serif" font-size="10.00">s_carto</text>
<polyline fill="none" stroke="black" points="225.5,-220.5 314.5,-220.5 "/>
<text text-anchor="start" x="233.5" y="-208.5" font-family="Helvetica,sans-Serif" font-size="10.00">+ id</text>
<text text-anchor="start" x="233.5" y="-197.5" font-family="Helvetica,sans-Serif" font-size="10.00">+ name</text>
<text text-anchor="start" x="233.5" y="-186.5" font-family="Helvetica,sans-Serif" font-size="10.00">+ rawCarto</text>
<text text-anchor="start" x="233.5" y="-175.5" font-family="Helvetica,sans-Serif" font-size="10.00">+ treatedCarto</text>
<polyline fill="none" stroke="black" points="225.5,-168.5 314.5,-168.5 "/>
<text text-anchor="middle" x="270" y="-156.5" font-family="Helvetica,sans-Serif" font-size="10.00"> </text>
</a>
</g>
</g>
<!-- Node4&#45;&gt;Node1 -->
<g id="edge3" class="edge">
<title>Node4&#45;&gt;Node1</title>
<path fill="none" stroke="#404040" d="M265.34,-149.27C262.17,-135.32 256.86,-120.55 248,-109 240.63,-99.39 231.33,-91.03 221.28,-83.81"/>
<polygon fill="none" stroke="#404040" points="221.01,-83.63 213.8,-83.63 211.02,-76.97 218.23,-76.97 221.01,-83.63"/>
<text text-anchor="middle" x="286" y="-117.5" font-family="Helvetica,sans-Serif" font-size="10.00"> +myCarto</text>
</g>
</g>
</svg>
