<?xml version="1.0" encoding="UTF-8" standalone="no"?>
<!DOCTYPE svg PUBLIC "-//W3C//DTD SVG 1.1//EN"
 "http://www.w3.org/Graphics/SVG/1.1/DTD/svg11.dtd">
<!-- Generated by graphviz version 2.43.0 (0)
 -->
<!-- Title: _bmp_img Pages: 1 -->
<svg width="206pt" height="314pt"
 viewBox="0.00 0.00 206.00 314.00" xmlns="http://www.w3.org/2000/svg" xmlns:xlink="http://www.w3.org/1999/xlink">
<g id="graph0" class="graph" transform="scale(1 1) rotate(0) translate(4 310)">
<title>_bmp_img</title>
<polygon fill="white" stroke="transparent" points="-4,4 -4,-310 202,-310 202,4 -4,4"/>
<!-- Node1 -->
<g id="node1" class="node">
<title>Node1</title>
<g id="a_node1"><a xlink:title=" ">
<polygon fill="#bfbfbf" stroke="black" points="56,-0.5 56,-57.5 124,-57.5 124,-0.5 56,-0.5"/>
<text text-anchor="middle" x="90" y="-45.5" font-family="Helvetica,sans-Serif" font-size="10.00">_bmp_img</text>
<polyline fill="none" stroke="black" points="56,-38.5 124,-38.5 "/>
<text text-anchor="middle" x="90" y="-26.5" font-family="Helvetica,sans-Serif" font-size="10.00"> </text>
<polyline fill="none" stroke="black" points="56,-19.5 124,-19.5 "/>
<text text-anchor="middle" x="90" y="-7.5" font-family="Helvetica,sans-Serif" font-size="10.00"> </text>
</a>
</g>
</g>
<!-- Node2 -->
<g id="node2" class="node">
<title>Node2</title>
<g id="a_node2"><a xlink:href="struct__bmp__pixel.html" target="_top" xlink:title=" ">
<polygon fill="white" stroke="black" points="0,-166 0,-245 72,-245 72,-166 0,-166"/>
<text text-anchor="middle" x="36" y="-233" font-family="Helvetica,sans-Serif" font-size="10.00">_bmp_pixel</text>
<polyline fill="none" stroke="black" points="0,-226 72,-226 "/>
<text text-anchor="start" x="8" y="-214" font-family="Helvetica,sans-Serif" font-size="10.00">+ blue</text>
<text text-anchor="start" x="8" y="-203" font-family="Helvetica,sans-Serif" font-size="10.00">+ green</text>
<text text-anchor="start" x="8" y="-192" font-family="Helvetica,sans-Serif" font-size="10.00">+ red</text>
<polyline fill="none" stroke="black" points="0,-185 72,-185 "/>
<text text-anchor="middle" x="36" y="-173" font-family="Helvetica,sans-Serif" font-size="10.00"> </text>
</a>
</g>
</g>
<!-- Node2&#45;&gt;Node1 -->
<g id="edge1" class="edge">
<title>Node2&#45;&gt;Node1</title>
<path fill="none" stroke="#404040" d="M38.2,-165.9C40.73,-139.73 46.21,-104.8 58,-76 59.09,-73.34 60.35,-70.68 61.74,-68.06"/>
<polygon fill="none" stroke="#404040" points="61.83,-67.9 61.45,-60.7 67.96,-57.58 68.33,-64.78 61.83,-67.9"/>
<text text-anchor="middle" x="90" y="-79" font-family="Helvetica,sans-Serif" font-size="10.00"> +img_pixels</text>
</g>
<!-- Node3 -->
<g id="node3" class="node">
<title>Node3</title>
<g id="a_node3"><a xlink:href="struct__bmp__header.html" target="_top" xlink:title=" ">
<polygon fill="white" stroke="black" points="90,-105.5 90,-305.5 198,-305.5 198,-105.5 90,-105.5"/>
<text text-anchor="middle" x="144" y="-293.5" font-family="Helvetica,sans-Serif" font-size="10.00">_bmp_header</text>
<polyline fill="none" stroke="black" points="90,-286.5 198,-286.5 "/>
<text text-anchor="start" x="98" y="-274.5" font-family="Helvetica,sans-Serif" font-size="10.00">+ bfSize</text>
<text text-anchor="start" x="98" y="-263.5" font-family="Helvetica,sans-Serif" font-size="10.00">+ bfReserved</text>
<text text-anchor="start" x="98" y="-252.5" font-family="Helvetica,sans-Serif" font-size="10.00">+ bfOffBits</text>
<text text-anchor="start" x="98" y="-241.5" font-family="Helvetica,sans-Serif" font-size="10.00">+ biSize</text>
<text text-anchor="start" x="98" y="-230.5" font-family="Helvetica,sans-Serif" font-size="10.00">+ biWidth</text>
<text text-anchor="start" x="98" y="-219.5" font-family="Helvetica,sans-Serif" font-size="10.00">+ biHeight</text>
<text text-anchor="start" x="98" y="-208.5" font-family="Helvetica,sans-Serif" font-size="10.00">+ biPlanes</text>
<text text-anchor="start" x="98" y="-197.5" font-family="Helvetica,sans-Serif" font-size="10.00">+ biBitCount</text>
<text text-anchor="start" x="98" y="-186.5" font-family="Helvetica,sans-Serif" font-size="10.00">+ biCompression</text>
<text text-anchor="start" x="98" y="-175.5" font-family="Helvetica,sans-Serif" font-size="10.00">+ biSizeImage</text>
<text text-anchor="start" x="98" y="-164.5" font-family="Helvetica,sans-Serif" font-size="10.00">+ biXPelsPerMeter</text>
<text text-anchor="start" x="98" y="-153.5" font-family="Helvetica,sans-Serif" font-size="10.00">+ biYPelsPerMeter</text>
<text text-anchor="start" x="98" y="-142.5" font-family="Helvetica,sans-Serif" font-size="10.00">+ biClrUsed</text>
<text text-anchor="start" x="98" y="-131.5" font-family="Helvetica,sans-Serif" font-size="10.00">+ biClrImportant</text>
<polyline fill="none" stroke="black" points="90,-124.5 198,-124.5 "/>
<text text-anchor="middle" x="144" y="-112.5" font-family="Helvetica,sans-Serif" font-size="10.00"> </text>
</a>
</g>
</g>
<!-- Node3&#45;&gt;Node1 -->
<g id="edge2" class="edge">
<title>Node3&#45;&gt;Node1</title>
<path fill="none" stroke="#404040" d="M131.58,-105.38C128.97,-95.28 125.82,-85.32 122,-76 120.91,-73.34 119.65,-70.68 118.26,-68.06"/>
<polygon fill="none" stroke="#404040" points="118.17,-67.9 111.67,-64.78 112.04,-57.58 118.55,-60.7 118.17,-67.9"/>
<text text-anchor="middle" x="160" y="-79" font-family="Helvetica,sans-Serif" font-size="10.00"> +img_header</text>
</g>
</g>
</svg>
