<?xml version="1.0" encoding="UTF-8" standalone="no"?>
<!DOCTYPE svg PUBLIC "-//W3C//DTD SVG 1.1//EN"
 "http://www.w3.org/Graphics/SVG/1.1/DTD/svg11.dtd">
<!-- Generated by graphviz version 2.43.0 (0)
 -->
<!-- Title: src/UI/UI.c Pages: 1 -->
<svg width="541pt" height="140pt"
 viewBox="0.00 0.00 540.50 140.00" xmlns="http://www.w3.org/2000/svg" xmlns:xlink="http://www.w3.org/1999/xlink">
<g id="graph0" class="graph" transform="scale(1 1) rotate(0) translate(4 136)">
<title>src/UI/UI.c</title>
<polygon fill="white" stroke="transparent" points="-4,4 -4,-136 536.5,-136 536.5,4 -4,4"/>
<!-- Node1 -->
<g id="node1" class="node">
<title>Node1</title>
<g id="a_node1"><a xlink:title="This component displays a window with a color related to the current connection state and a quit butt...">
<polygon fill="#bfbfbf" stroke="black" points="194.5,-112.5 194.5,-131.5 260.5,-131.5 260.5,-112.5 194.5,-112.5"/>
<text text-anchor="middle" x="227.5" y="-119.5" font-family="Helvetica,sans-Serif" font-size="10.00">src/UI/UI.c</text>
</a>
</g>
</g>
<!-- Node2 -->
<g id="node2" class="node">
<title>Node2</title>
<g id="a_node2"><a xlink:title=" ">
<polygon fill="white" stroke="#bfbfbf" points="0,-56.5 0,-75.5 63,-75.5 63,-56.5 0,-56.5"/>
<text text-anchor="middle" x="31.5" y="-63.5" font-family="Helvetica,sans-Serif" font-size="10.00">pthread.h</text>
</a>
</g>
</g>
<!-- Node1&#45;&gt;Node2 -->
<g id="edge1" class="edge">
<title>Node1&#45;&gt;Node2</title>
<path fill="none" stroke="midnightblue" d="M196.44,-112.44C162.9,-103.2 109.3,-88.44 72.36,-78.26"/>
<polygon fill="midnightblue" stroke="midnightblue" points="72.98,-74.8 62.41,-75.52 71.12,-81.55 72.98,-74.8"/>
</g>
<!-- Node3 -->
<g id="node3" class="node">
<title>Node3</title>
<g id="a_node3"><a xlink:title=" ">
<polygon fill="white" stroke="#bfbfbf" points="81,-56.5 81,-75.5 146,-75.5 146,-56.5 81,-56.5"/>
<text text-anchor="middle" x="113.5" y="-63.5" font-family="Helvetica,sans-Serif" font-size="10.00">mqueue.h</text>
</a>
</g>
</g>
<!-- Node1&#45;&gt;Node3 -->
<g id="edge2" class="edge">
<title>Node1&#45;&gt;Node3</title>
<path fill="none" stroke="midnightblue" d="M209.44,-112.44C190.93,-103.68 161.92,-89.94 140.64,-79.86"/>
<polygon fill="midnightblue" stroke="midnightblue" points="142.01,-76.63 131.48,-75.52 139.02,-82.96 142.01,-76.63"/>
</g>
<!-- Node4 -->
<g id="node4" class="node">
<title>Node4</title>
<g id="a_node4"><a xlink:title=" ">
<polygon fill="white" stroke="#bfbfbf" points="164.5,-56.5 164.5,-75.5 224.5,-75.5 224.5,-56.5 164.5,-56.5"/>
<text text-anchor="middle" x="194.5" y="-63.5" font-family="Helvetica,sans-Serif" font-size="10.00">gtk/gtk.h</text>
</a>
</g>
</g>
<!-- Node1&#45;&gt;Node4 -->
<g id="edge3" class="edge">
<title>Node1&#45;&gt;Node4</title>
<path fill="none" stroke="midnightblue" d="M222.05,-112.08C217.49,-104.61 210.83,-93.72 205.21,-84.52"/>
<polygon fill="midnightblue" stroke="midnightblue" points="208.05,-82.46 199.85,-75.75 202.08,-86.11 208.05,-82.46"/>
</g>
<!-- Node5 -->
<g id="node5" class="node">
<title>Node5</title>
<g id="a_node5"><a xlink:href="UI_8h.html" target="_top" xlink:title="This component display a window with a color related to the current connection state and a quit butto...">
<polygon fill="white" stroke="black" points="242.5,-56.5 242.5,-75.5 278.5,-75.5 278.5,-56.5 242.5,-56.5"/>
<text text-anchor="middle" x="260.5" y="-63.5" font-family="Helvetica,sans-Serif" font-size="10.00">UI.h</text>
</a>
</g>
</g>
<!-- Node1&#45;&gt;Node5 -->
<g id="edge4" class="edge">
<title>Node1&#45;&gt;Node5</title>
<path fill="none" stroke="midnightblue" d="M232.95,-112.08C237.51,-104.61 244.17,-93.72 249.79,-84.52"/>
<polygon fill="midnightblue" stroke="midnightblue" points="252.92,-86.11 255.15,-75.75 246.95,-82.46 252.92,-86.11"/>
</g>
<!-- Node6 -->
<g id="node6" class="node">
<title>Node6</title>
<g id="a_node6"><a xlink:href="util_8h.html" target="_top" xlink:title="Macros to color the terminal in debug mode and do assert.">
<polygon fill="white" stroke="black" points="296.5,-56.5 296.5,-75.5 380.5,-75.5 380.5,-56.5 296.5,-56.5"/>
<text text-anchor="middle" x="338.5" y="-63.5" font-family="Helvetica,sans-Serif" font-size="10.00">../Config/util.h</text>
</a>
</g>
</g>
<!-- Node1&#45;&gt;Node6 -->
<g id="edge5" class="edge">
<title>Node1&#45;&gt;Node6</title>
<path fill="none" stroke="midnightblue" d="M245.33,-112.32C263.22,-103.62 290.98,-90.12 311.55,-80.11"/>
<polygon fill="midnightblue" stroke="midnightblue" points="313.25,-83.18 320.71,-75.65 310.19,-76.88 313.25,-83.18"/>
</g>
<!-- Node11 -->
<g id="node11" class="node">
<title>Node11</title>
<g id="a_node11"><a xlink:href="NetworkC_8h.html" target="_top" xlink:title="Header file of NetworkC.c.">
<polygon fill="white" stroke="black" points="398.5,-56.5 398.5,-75.5 532.5,-75.5 532.5,-56.5 398.5,-56.5"/>
<text text-anchor="middle" x="465.5" y="-63.5" font-family="Helvetica,sans-Serif" font-size="10.00">../NetworkC/NetworkC.h</text>
</a>
</g>
</g>
<!-- Node1&#45;&gt;Node11 -->
<g id="edge10" class="edge">
<title>Node1&#45;&gt;Node11</title>
<path fill="none" stroke="midnightblue" d="M260.59,-113.49C301.53,-104.2 371.5,-88.33 418.12,-77.75"/>
<polygon fill="midnightblue" stroke="midnightblue" points="419.01,-81.14 427.99,-75.51 417.46,-74.31 419.01,-81.14"/>
</g>
<!-- Node7 -->
<g id="node7" class="node">
<title>Node7</title>
<g id="a_node7"><a xlink:title=" ">
<polygon fill="white" stroke="#bfbfbf" points="206.5,-0.5 206.5,-19.5 256.5,-19.5 256.5,-0.5 206.5,-0.5"/>
<text text-anchor="middle" x="231.5" y="-7.5" font-family="Helvetica,sans-Serif" font-size="10.00">stdio.h</text>
</a>
</g>
</g>
<!-- Node6&#45;&gt;Node7 -->
<g id="edge6" class="edge">
<title>Node6&#45;&gt;Node7</title>
<path fill="none" stroke="midnightblue" d="M321.31,-56.32C304.15,-47.66 277.55,-34.24 257.75,-24.25"/>
<polygon fill="midnightblue" stroke="midnightblue" points="259.15,-21.04 248.65,-19.65 256,-27.28 259.15,-21.04"/>
</g>
<!-- Node8 -->
<g id="node8" class="node">
<title>Node8</title>
<g id="a_node8"><a xlink:title=" ">
<polygon fill="white" stroke="#bfbfbf" points="275,-0.5 275,-19.5 328,-19.5 328,-0.5 275,-0.5"/>
<text text-anchor="middle" x="301.5" y="-7.5" font-family="Helvetica,sans-Serif" font-size="10.00">string.h</text>
</a>
</g>
</g>
<!-- Node6&#45;&gt;Node8 -->
<g id="edge7" class="edge">
<title>Node6&#45;&gt;Node8</title>
<path fill="none" stroke="midnightblue" d="M332.39,-56.08C327.22,-48.53 319.65,-37.49 313.31,-28.23"/>
<polygon fill="midnightblue" stroke="midnightblue" points="316.04,-26.02 307.5,-19.75 310.26,-29.98 316.04,-26.02"/>
</g>
<!-- Node9 -->
<g id="node9" class="node">
<title>Node9</title>
<g id="a_node9"><a xlink:title=" ">
<polygon fill="white" stroke="#bfbfbf" points="346.5,-0.5 346.5,-19.5 402.5,-19.5 402.5,-0.5 346.5,-0.5"/>
<text text-anchor="middle" x="374.5" y="-7.5" font-family="Helvetica,sans-Serif" font-size="10.00">assert.h</text>
</a>
</g>
</g>
<!-- Node6&#45;&gt;Node9 -->
<g id="edge8" class="edge">
<title>Node6&#45;&gt;Node9</title>
<path fill="none" stroke="midnightblue" d="M344.44,-56.08C349.48,-48.53 356.84,-37.49 363.01,-28.23"/>
<polygon fill="midnightblue" stroke="midnightblue" points="366.03,-30.01 368.67,-19.75 360.21,-26.13 366.03,-30.01"/>
</g>
<!-- Node10 -->
<g id="node10" class="node">
<title>Node10</title>
<g id="a_node10"><a xlink:title=" ">
<polygon fill="white" stroke="#bfbfbf" points="421,-0.5 421,-19.5 474,-19.5 474,-0.5 421,-0.5"/>
<text text-anchor="middle" x="447.5" y="-7.5" font-family="Helvetica,sans-Serif" font-size="10.00">stdint.h</text>
</a>
</g>
</g>
<!-- Node6&#45;&gt;Node10 -->
<g id="edge9" class="edge">
<title>Node6&#45;&gt;Node10</title>
<path fill="none" stroke="midnightblue" d="M356.01,-56.32C373.57,-47.62 400.83,-34.12 421.03,-24.11"/>
<polygon fill="midnightblue" stroke="midnightblue" points="422.62,-27.23 430.03,-19.65 419.52,-20.96 422.62,-27.23"/>
</g>
</g>
</svg>
