<?xml version="1.0" encoding="UTF-8" standalone="no"?>
<!DOCTYPE svg PUBLIC "-//W3C//DTD SVG 1.1//EN"
 "http://www.w3.org/Graphics/SVG/1.1/DTD/svg11.dtd">
<!-- Generated by graphviz version 2.43.0 (0)
 -->
<!-- Title: src/Config/util.h Pages: 1 -->
<svg width="1716pt" height="95pt"
 viewBox="0.00 0.00 1716.00 95.00" xmlns="http://www.w3.org/2000/svg" xmlns:xlink="http://www.w3.org/1999/xlink">
<g id="graph0" class="graph" transform="scale(1 1) rotate(0) translate(4 91)">
<title>src/Config/util.h</title>
<polygon fill="white" stroke="transparent" points="-4,4 -4,-91 1712,-91 1712,4 -4,4"/>
<!-- Node1 -->
<g id="node1" class="node">
<title>Node1</title>
<g id="a_node1"><a xlink:title="Macros to color the terminal in debug mode and do assert.">
<polygon fill="#bfbfbf" stroke="black" points="791,-67.5 791,-86.5 883,-86.5 883,-67.5 791,-67.5"/>
<text text-anchor="middle" x="837" y="-74.5" font-family="Helvetica,sans-Serif" font-size="10.00">src/Config/util.h</text>
</a>
</g>
</g>
<!-- Node2 -->
<g id="node2" class="node">
<title>Node2</title>
<g id="a_node2"><a xlink:href="Converter_8c.html" target="_top" xlink:title="This component converts the raw data returned by the LiDAR physical component into a two&#45;dimensional ...">
<polygon fill="white" stroke="black" points="0,-6 0,-25 140,-25 140,-6 0,-6"/>
<text text-anchor="middle" x="70" y="-13" font-family="Helvetica,sans-Serif" font-size="10.00">src/Converter/Converter.c</text>
</a>
</g>
</g>
<!-- Node1&#45;&gt;Node2 -->
<g id="edge1" class="edge">
<title>Node1&#45;&gt;Node2</title>
<path fill="none" stroke="midnightblue" d="M780.73,-74.53C663.05,-70.98 382.5,-59.97 149,-31 136.68,-29.47 123.38,-27.25 111.27,-25.01"/>
<polygon fill="midnightblue" stroke="midnightblue" points="780.83,-78.04 790.93,-74.84 781.04,-71.04 780.83,-78.04"/>
</g>
<!-- Node3 -->
<g id="node3" class="node">
<title>Node3</title>
<g id="a_node3"><a xlink:href="Folder_8c.html" target="_top" xlink:title="This component manages cartographies in storage, converts position_gtk.txt into integer array,...">
<polygon fill="white" stroke="black" points="158,-6 158,-25 262,-25 262,-6 158,-6"/>
<text text-anchor="middle" x="210" y="-13" font-family="Helvetica,sans-Serif" font-size="10.00">src/Folder/Folder.c</text>
</a>
</g>
</g>
<!-- Node1&#45;&gt;Node3 -->
<g id="edge2" class="edge">
<title>Node1&#45;&gt;Node3</title>
<path fill="none" stroke="midnightblue" d="M780.78,-74.4C678.68,-70.85 456.22,-60.2 271,-31 261.43,-29.49 251.14,-27.28 241.79,-25.03"/>
<polygon fill="midnightblue" stroke="midnightblue" points="780.75,-77.9 790.86,-74.74 780.99,-70.9 780.75,-77.9"/>
</g>
<!-- Node4 -->
<g id="node4" class="node">
<title>Node4</title>
<g id="a_node4"><a xlink:href="Geographer_8c.html" target="_top" xlink:title="This component is the active object of ACDSoft.">
<polygon fill="white" stroke="black" points="280,-6 280,-25 438,-25 438,-6 280,-6"/>
<text text-anchor="middle" x="359" y="-13" font-family="Helvetica,sans-Serif" font-size="10.00">src/Geographer/Geographer.c</text>
</a>
</g>
</g>
<!-- Node1&#45;&gt;Node4 -->
<g id="edge3" class="edge">
<title>Node1&#45;&gt;Node4</title>
<path fill="none" stroke="midnightblue" d="M780.7,-70.37C704.78,-62.58 565.46,-47.58 447,-31 434.43,-29.24 420.88,-27.12 408.27,-25.05"/>
<polygon fill="midnightblue" stroke="midnightblue" points="780.68,-73.88 790.98,-71.42 781.39,-66.92 780.68,-73.88"/>
</g>
<!-- Node5 -->
<g id="node5" class="node">
<title>Node5</title>
<g id="a_node5"><a xlink:href="LiDAR_8c.html" target="_top" xlink:title="This component communicates with the physical LiDAR to get a scan in a txt format and converts it to ...">
<polygon fill="white" stroke="black" points="456,-6 456,-25 560,-25 560,-6 456,-6"/>
<text text-anchor="middle" x="508" y="-13" font-family="Helvetica,sans-Serif" font-size="10.00">src/LiDAR/LiDAR.c</text>
</a>
</g>
</g>
<!-- Node1&#45;&gt;Node5 -->
<g id="edge4" class="edge">
<title>Node1&#45;&gt;Node5</title>
<path fill="none" stroke="midnightblue" d="M780.7,-67.67C726.33,-59.36 641.76,-45.74 569,-31 560.25,-29.23 550.85,-27.1 542.11,-25.03"/>
<polygon fill="midnightblue" stroke="midnightblue" points="780.41,-71.17 790.83,-69.21 781.47,-64.25 780.41,-71.17"/>
</g>
<!-- Node6 -->
<g id="node6" class="node">
<title>Node6</title>
<g id="a_node6"><a xlink:href="Merger_8c.html" target="_top" xlink:title="This component is the raw scan merger.">
<polygon fill="white" stroke="black" points="578.5,-6 578.5,-25 691.5,-25 691.5,-6 578.5,-6"/>
<text text-anchor="middle" x="635" y="-13" font-family="Helvetica,sans-Serif" font-size="10.00">src/Merger/Merger.c</text>
</a>
</g>
</g>
<!-- Node1&#45;&gt;Node6 -->
<g id="edge5" class="edge">
<title>Node1&#45;&gt;Node6</title>
<path fill="none" stroke="midnightblue" d="M798.31,-64.6C759.05,-53.04 699.19,-35.41 663.89,-25.01"/>
<polygon fill="midnightblue" stroke="midnightblue" points="797.48,-68.01 808.06,-67.48 799.45,-61.29 797.48,-68.01"/>
</g>
<!-- Node7 -->
<g id="node7" class="node">
<title>Node7</title>
<g id="a_node7"><a xlink:href="NetworkC__Coder_8c.html" target="_top" xlink:title="Coder encode end decode message to be send or received.">
<polygon fill="white" stroke="black" points="709.5,-0.5 709.5,-30.5 822.5,-30.5 822.5,-0.5 709.5,-0.5"/>
<text text-anchor="start" x="717.5" y="-18.5" font-family="Helvetica,sans-Serif" font-size="10.00">src/NetworkC/Coder</text>
<text text-anchor="middle" x="766" y="-7.5" font-family="Helvetica,sans-Serif" font-size="10.00">/NetworkC_Coder.c</text>
</a>
</g>
</g>
<!-- Node1&#45;&gt;Node7 -->
<g id="edge6" class="edge">
<title>Node1&#45;&gt;Node7</title>
<path fill="none" stroke="midnightblue" d="M819.01,-60.92C807.86,-51.58 793.64,-39.66 782.73,-30.52"/>
<polygon fill="midnightblue" stroke="midnightblue" points="816.91,-63.73 826.83,-67.48 821.41,-58.37 816.91,-63.73"/>
</g>
<!-- Node8 -->
<g id="node8" class="node">
<title>Node8</title>
<g id="a_node8"><a xlink:href="NetworkC__Dispatcher_8c.html" target="_top" xlink:title="NetworkC_Dispatcher dispatch the received message.">
<polygon fill="white" stroke="black" points="840.5,-0.5 840.5,-30.5 977.5,-30.5 977.5,-0.5 840.5,-0.5"/>
<text text-anchor="start" x="848.5" y="-18.5" font-family="Helvetica,sans-Serif" font-size="10.00">src/NetworkC/Dispatcher</text>
<text text-anchor="middle" x="909" y="-7.5" font-family="Helvetica,sans-Serif" font-size="10.00">/NetworkC_Dispatcher.c</text>
</a>
</g>
</g>
<!-- Node1&#45;&gt;Node8 -->
<g id="edge7" class="edge">
<title>Node1&#45;&gt;Node8</title>
<path fill="none" stroke="midnightblue" d="M855.25,-60.92C866.55,-51.58 880.97,-39.66 892.03,-30.52"/>
<polygon fill="midnightblue" stroke="midnightblue" points="852.79,-58.41 847.32,-67.48 857.25,-63.8 852.79,-58.41"/>
</g>
<!-- Node9 -->
<g id="node9" class="node">
<title>Node9</title>
<g id="a_node9"><a xlink:href="NetworkC_8c.html" target="_top" xlink:title="NetworkC has the ability to relates the connection state of the socket.">
<polygon fill="white" stroke="black" points="995.5,-6 995.5,-25 1136.5,-25 1136.5,-6 995.5,-6"/>
<text text-anchor="middle" x="1066" y="-13" font-family="Helvetica,sans-Serif" font-size="10.00">src/NetworkC/NetworkC.c</text>
</a>
</g>
</g>
<!-- Node1&#45;&gt;Node9 -->
<g id="edge8" class="edge">
<title>Node1&#45;&gt;Node9</title>
<path fill="none" stroke="midnightblue" d="M879.74,-64.9C924.21,-53.34 992.89,-35.5 1033.25,-25.01"/>
<polygon fill="midnightblue" stroke="midnightblue" points="878.61,-61.57 869.81,-67.48 880.37,-68.35 878.61,-61.57"/>
</g>
<!-- Node10 -->
<g id="node10" class="node">
<title>Node10</title>
<g id="a_node10"><a xlink:href="NetworkC__Postman_8c.html" target="_top" xlink:title="NetworkC Postman is the interface of the socket.">
<polygon fill="white" stroke="black" points="1155,-0.5 1155,-30.5 1283,-30.5 1283,-0.5 1155,-0.5"/>
<text text-anchor="start" x="1163" y="-18.5" font-family="Helvetica,sans-Serif" font-size="10.00">src/NetworkC/Postman</text>
<text text-anchor="middle" x="1219" y="-7.5" font-family="Helvetica,sans-Serif" font-size="10.00">/NetworkC_Postman.c</text>
</a>
</g>
</g>
<!-- Node1&#45;&gt;Node10 -->
<g id="edge9" class="edge">
<title>Node1&#45;&gt;Node10</title>
<path fill="none" stroke="midnightblue" d="M893.16,-68.71C955.18,-60.44 1057.94,-46.15 1146,-31 1148.93,-30.5 1151.92,-29.97 1154.94,-29.42"/>
<polygon fill="midnightblue" stroke="midnightblue" points="892.64,-65.24 883.19,-70.03 893.56,-72.18 892.64,-65.24"/>
</g>
<!-- Node11 -->
<g id="node11" class="node">
<title>Node11</title>
<g id="a_node11"><a xlink:href="NetworkC__ProxyCartoManager_8c.html" target="_top" xlink:title="Proxy for CartoManager.">
<polygon fill="white" stroke="black" points="1301.5,-0.5 1301.5,-30.5 1478.5,-30.5 1478.5,-0.5 1301.5,-0.5"/>
<text text-anchor="start" x="1309.5" y="-18.5" font-family="Helvetica,sans-Serif" font-size="10.00">src/NetworkC/Proxy</text>
<text text-anchor="middle" x="1390" y="-7.5" font-family="Helvetica,sans-Serif" font-size="10.00">/NetworkC_ProxyCartoManager.c</text>
</a>
</g>
</g>
<!-- Node1&#45;&gt;Node11 -->
<g id="edge10" class="edge">
<title>Node1&#45;&gt;Node11</title>
<path fill="none" stroke="midnightblue" d="M893.34,-71.31C979.4,-63.95 1148.73,-48.67 1292,-31 1295.07,-30.62 1298.2,-30.22 1301.35,-29.81"/>
<polygon fill="midnightblue" stroke="midnightblue" points="892.93,-67.83 883.26,-72.17 893.52,-74.81 892.93,-67.83"/>
</g>
<!-- Node12 -->
<g id="node12" class="node">
<title>Node12</title>
<g id="a_node12"><a xlink:href="NetworkC__ProxyGUI_8c.html" target="_top" xlink:title="Proxy for GUI.">
<polygon fill="white" stroke="black" points="1496.5,-0.5 1496.5,-30.5 1623.5,-30.5 1623.5,-0.5 1496.5,-0.5"/>
<text text-anchor="start" x="1504.5" y="-18.5" font-family="Helvetica,sans-Serif" font-size="10.00">src/NetworkC/Proxy</text>
<text text-anchor="middle" x="1560" y="-7.5" font-family="Helvetica,sans-Serif" font-size="10.00">/NetworkC_ProxyGUI.c</text>
</a>
</g>
</g>
<!-- Node1&#45;&gt;Node12 -->
<g id="edge11" class="edge">
<title>Node1&#45;&gt;Node12</title>
<path fill="none" stroke="midnightblue" d="M893.55,-74.56C1006.82,-71.13 1269.43,-60.44 1488,-31 1490.78,-30.63 1493.61,-30.21 1496.47,-29.76"/>
<polygon fill="midnightblue" stroke="midnightblue" points="893.28,-71.06 883.38,-74.86 893.48,-78.06 893.28,-71.06"/>
</g>
<!-- Node13 -->
<g id="node13" class="node">
<title>Node13</title>
<g id="a_node13"><a xlink:href="UI_8c.html" target="_top" xlink:title="This component displays a window with a color related to the current connection state and a quit butt...">
<polygon fill="white" stroke="black" points="1642,-6 1642,-25 1708,-25 1708,-6 1642,-6"/>
<text text-anchor="middle" x="1675" y="-13" font-family="Helvetica,sans-Serif" font-size="10.00">src/UI/UI.c</text>
</a>
</g>
</g>
<!-- Node1&#45;&gt;Node13 -->
<g id="edge12" class="edge">
<title>Node1&#45;&gt;Node13</title>
<path fill="none" stroke="midnightblue" d="M893.4,-74.83C1050.56,-71.25 1491.12,-58.94 1633,-31 1639.96,-29.63 1647.35,-27.37 1653.95,-25.04"/>
<polygon fill="midnightblue" stroke="midnightblue" points="892.95,-71.34 883.03,-75.06 893.1,-78.34 892.95,-71.34"/>
</g>
</g>
</svg>
